%TF.GenerationSoftware,KiCad,Pcbnew,8.0.1*%
%TF.CreationDate,2024-09-23T21:29:01+02:00*%
%TF.ProjectId,Macro keyboard,4d616372-6f20-46b6-9579-626f6172642e,rev?*%
%TF.SameCoordinates,Original*%
%TF.FileFunction,Copper,L2,Bot*%
%TF.FilePolarity,Positive*%
%FSLAX46Y46*%
G04 Gerber Fmt 4.6, Leading zero omitted, Abs format (unit mm)*
G04 Created by KiCad (PCBNEW 8.0.1) date 2024-09-23 21:29:01*
%MOMM*%
%LPD*%
G01*
G04 APERTURE LIST*
G04 Aperture macros list*
%AMRoundRect*
0 Rectangle with rounded corners*
0 $1 Rounding radius*
0 $2 $3 $4 $5 $6 $7 $8 $9 X,Y pos of 4 corners*
0 Add a 4 corners polygon primitive as box body*
4,1,4,$2,$3,$4,$5,$6,$7,$8,$9,$2,$3,0*
0 Add four circle primitives for the rounded corners*
1,1,$1+$1,$2,$3*
1,1,$1+$1,$4,$5*
1,1,$1+$1,$6,$7*
1,1,$1+$1,$8,$9*
0 Add four rect primitives between the rounded corners*
20,1,$1+$1,$2,$3,$4,$5,0*
20,1,$1+$1,$4,$5,$6,$7,0*
20,1,$1+$1,$6,$7,$8,$9,0*
20,1,$1+$1,$8,$9,$2,$3,0*%
G04 Aperture macros list end*
%TA.AperFunction,ComponentPad*%
%ADD10C,2.600000*%
%TD*%
%TA.AperFunction,ConnectorPad*%
%ADD11C,3.800000*%
%TD*%
%TA.AperFunction,ComponentPad*%
%ADD12RoundRect,0.250000X-0.600000X-0.725000X0.600000X-0.725000X0.600000X0.725000X-0.600000X0.725000X0*%
%TD*%
%TA.AperFunction,ComponentPad*%
%ADD13O,1.700000X1.950000*%
%TD*%
%TA.AperFunction,SMDPad,CuDef*%
%ADD14R,2.600000X2.600000*%
%TD*%
%TA.AperFunction,ViaPad*%
%ADD15C,0.600000*%
%TD*%
%TA.AperFunction,Conductor*%
%ADD16C,0.200000*%
%TD*%
G04 APERTURE END LIST*
D10*
%TO.P,REF\u002A\u002A,1*%
%TO.N,N/C*%
X264160000Y-37592000D03*
D11*
X264160000Y-37592000D03*
%TD*%
D10*
%TO.P,REF\u002A\u002A,1*%
%TO.N,N/C*%
X191262000Y-37846000D03*
D11*
X191262000Y-37846000D03*
%TD*%
D10*
%TO.P,REF\u002A\u002A,1*%
%TO.N,N/C*%
X191008000Y-103886000D03*
D11*
X191008000Y-103886000D03*
%TD*%
D12*
%TO.P,J1,1,Pin_1*%
%TO.N,+3.3V*%
X207624000Y-103124000D03*
D13*
%TO.P,J1,2,Pin_2*%
%TO.N,/RGBLED*%
X210124000Y-103124000D03*
%TO.P,J1,3,Pin_3*%
%TO.N,/BUTTON1*%
X212624000Y-103124000D03*
%TO.P,J1,4,Pin_4*%
%TO.N,/BUTTON2*%
X215124000Y-103124000D03*
%TO.P,J1,5,Pin_5*%
%TO.N,/BUTTON3*%
X217624000Y-103124000D03*
%TO.P,J1,6,Pin_6*%
%TO.N,/BUTTON4*%
X220124000Y-103124000D03*
%TO.P,J1,7,Pin_7*%
%TO.N,/BUTTON5*%
X222624000Y-103124000D03*
%TO.P,J1,8,Pin_8*%
%TO.N,/BUTTON6*%
X225124000Y-103124000D03*
%TO.P,J1,9,Pin_9*%
%TO.N,/BUTTON7*%
X227624000Y-103124000D03*
%TO.P,J1,10,Pin_10*%
%TO.N,/BUTTON8*%
X230124000Y-103124000D03*
%TO.P,J1,11,Pin_11*%
%TO.N,/BUTTON9*%
X232624000Y-103124000D03*
%TO.P,J1,12,Pin_12*%
%TO.N,/BUTTON10*%
X235124000Y-103124000D03*
%TO.P,J1,13,Pin_13*%
%TO.N,/BUTTON11*%
X237624000Y-103124000D03*
%TO.P,J1,14,Pin_14*%
%TO.N,/BUTTON12*%
X240124000Y-103124000D03*
%TO.P,J1,15,Pin_15*%
%TO.N,GND*%
X242624000Y-103124000D03*
%TD*%
D10*
%TO.P,REF\u002A\u002A,1*%
%TO.N,N/C*%
X264414000Y-104140000D03*
D11*
X264414000Y-104140000D03*
%TD*%
D14*
%TO.P,J6,1,1*%
%TO.N,/BUTTON5*%
X221025000Y-75200000D03*
%TO.P,J6,2,2*%
%TO.N,GND*%
X209475000Y-73000000D03*
%TD*%
%TO.P,J12,1,1*%
%TO.N,/BUTTON11*%
X261025000Y-75200000D03*
%TO.P,J12,2,2*%
%TO.N,GND*%
X249475000Y-73000000D03*
%TD*%
%TO.P,J8,1,1*%
%TO.N,/BUTTON7*%
X241025000Y-55200000D03*
%TO.P,J8,2,2*%
%TO.N,GND*%
X229475000Y-53000000D03*
%TD*%
%TO.P,J2,1,1*%
%TO.N,/BUTTON1*%
X201025000Y-55200000D03*
%TO.P,J2,2,2*%
%TO.N,GND*%
X189475000Y-53000000D03*
%TD*%
%TO.P,J11,1,1*%
%TO.N,/BUTTON10*%
X261025000Y-55200000D03*
%TO.P,J11,2,2*%
%TO.N,GND*%
X249475000Y-53000000D03*
%TD*%
%TO.P,J5,1,1*%
%TO.N,/BUTTON4*%
X221025000Y-55200000D03*
%TO.P,J5,2,2*%
%TO.N,GND*%
X209475000Y-53000000D03*
%TD*%
%TO.P,J4,1,1*%
%TO.N,/BUTTON3*%
X201025000Y-95200000D03*
%TO.P,J4,2,2*%
%TO.N,GND*%
X189475000Y-93000000D03*
%TD*%
%TO.P,J13,1,1*%
%TO.N,/BUTTON12*%
X261025000Y-95200000D03*
%TO.P,J13,2,2*%
%TO.N,GND*%
X249475000Y-93000000D03*
%TD*%
%TO.P,J3,1,1*%
%TO.N,/BUTTON2*%
X201025000Y-75200000D03*
%TO.P,J3,2,2*%
%TO.N,GND*%
X189475000Y-73000000D03*
%TD*%
%TO.P,J10,1,1*%
%TO.N,/BUTTON9*%
X241025000Y-95200000D03*
%TO.P,J10,2,2*%
%TO.N,GND*%
X229475000Y-93000000D03*
%TD*%
%TO.P,J9,1,1*%
%TO.N,/BUTTON8*%
X241025000Y-75200000D03*
%TO.P,J9,2,2*%
%TO.N,GND*%
X229475000Y-73000000D03*
%TD*%
%TO.P,J7,1,1*%
%TO.N,/BUTTON6*%
X221025000Y-95200000D03*
%TO.P,J7,2,2*%
%TO.N,GND*%
X209475000Y-93000000D03*
%TD*%
D15*
%TO.N,GND*%
X234987000Y-43725000D03*
X197104000Y-83820000D03*
X240400000Y-83800000D03*
X217000000Y-83750000D03*
X220500000Y-83400000D03*
X235150000Y-63800000D03*
X254396000Y-43800000D03*
X220980000Y-64008000D03*
X195093000Y-63775000D03*
X214630000Y-64008000D03*
X240700000Y-63850000D03*
X220176000Y-43900000D03*
X256650000Y-63750000D03*
X200660000Y-83820000D03*
X200568000Y-43850000D03*
X200310000Y-63850000D03*
X260300000Y-63900000D03*
X215479000Y-43775000D03*
X240792000Y-44196000D03*
X235150000Y-83750000D03*
X260850000Y-43950000D03*
X260250000Y-83900000D03*
X195326000Y-44196000D03*
X256700000Y-83900000D03*
%TO.N,+3.3V*%
X249428000Y-61722000D03*
X246380000Y-61722000D03*
X250444000Y-43180000D03*
X249428000Y-60452000D03*
X248920000Y-41656000D03*
X249682000Y-44196000D03*
X246380000Y-60452000D03*
X247904000Y-42672000D03*
%TO.N,Net-(D2-do)*%
X200550000Y-60816000D03*
X198250000Y-63150000D03*
%TO.N,Net-(D4-do)*%
X208026000Y-45720000D03*
X200660000Y-85090000D03*
X210820000Y-42926000D03*
X204019000Y-84131000D03*
%TO.N,/RGBc*%
X229362000Y-43434000D03*
X225552000Y-76962000D03*
X220345000Y-84963000D03*
X226060000Y-46736000D03*
%TO.N,Net-(D10-do)*%
X246888000Y-79756000D03*
X241600000Y-85100000D03*
%TO.N,/BUTTON1*%
X206756000Y-55880000D03*
%TO.N,/BUTTON2*%
X207518000Y-83312000D03*
%TO.N,/BUTTON3*%
X211328000Y-97028000D03*
%TO.N,/BUTTON4*%
X219300000Y-57250000D03*
%TO.N,/BUTTON5*%
X222758000Y-75438000D03*
%TO.N,/BUTTON6*%
X225124000Y-99140000D03*
%TO.N,/BUTTON7*%
X233680000Y-57404000D03*
%TO.N,/BUTTON8*%
X238506000Y-77470000D03*
%TO.N,/BUTTON9*%
X241046000Y-96774000D03*
%TO.N,/BUTTON10*%
X258572000Y-57404000D03*
%TO.N,/BUTTON11*%
X257302000Y-77724000D03*
%TO.N,/BUTTON12*%
X261025000Y-95200000D03*
%TD*%
D16*
%TO.N,+3.3V*%
X248920000Y-43688000D02*
X247904000Y-42672000D01*
X248920000Y-41656000D02*
X250444000Y-43180000D01*
X249174000Y-43688000D02*
X248920000Y-43688000D01*
X249428000Y-60452000D02*
X249428000Y-61722000D01*
X246380000Y-60452000D02*
X249428000Y-60452000D01*
X249682000Y-44196000D02*
X249174000Y-43688000D01*
X249428000Y-61722000D02*
X246380000Y-61722000D01*
%TO.N,Net-(D2-do)*%
X198250000Y-63150000D02*
X198250000Y-63116000D01*
X198250000Y-63116000D02*
X200550000Y-60816000D01*
%TO.N,Net-(D4-do)*%
X203060000Y-85090000D02*
X204019000Y-84131000D01*
X208026000Y-45720000D02*
X210820000Y-42926000D01*
X200660000Y-85090000D02*
X203060000Y-85090000D01*
%TO.N,/RGBc*%
X225552000Y-79756000D02*
X225552000Y-76962000D01*
X226060000Y-46736000D02*
X229362000Y-43434000D01*
X220345000Y-84963000D02*
X225552000Y-79756000D01*
%TO.N,Net-(D10-do)*%
X241600000Y-85044000D02*
X241600000Y-85100000D01*
X246888000Y-79756000D02*
X241600000Y-85044000D01*
%TO.N,/BUTTON1*%
X206076000Y-55200000D02*
X206756000Y-55880000D01*
X201025000Y-55200000D02*
X206076000Y-55200000D01*
%TO.N,/BUTTON2*%
X207518000Y-82550000D02*
X201025000Y-76057000D01*
X207518000Y-83312000D02*
X207518000Y-82550000D01*
X201025000Y-76057000D02*
X201025000Y-75200000D01*
%TO.N,/BUTTON3*%
X204166000Y-95200000D02*
X201025000Y-95200000D01*
X211328000Y-97028000D02*
X205994000Y-97028000D01*
X205994000Y-97028000D02*
X204166000Y-95200000D01*
%TO.N,/BUTTON4*%
X219300000Y-56925000D02*
X221025000Y-55200000D01*
X219300000Y-57250000D02*
X219300000Y-56925000D01*
%TO.N,/BUTTON5*%
X221025000Y-75200000D02*
X222520000Y-75200000D01*
X222520000Y-75200000D02*
X222758000Y-75438000D01*
%TO.N,/BUTTON6*%
X225124000Y-99140000D02*
X221184000Y-95200000D01*
X221184000Y-95200000D02*
X221025000Y-95200000D01*
%TO.N,/BUTTON7*%
X233680000Y-57404000D02*
X238821000Y-57404000D01*
X238821000Y-57404000D02*
X241025000Y-55200000D01*
%TO.N,/BUTTON8*%
X238506000Y-77470000D02*
X238755000Y-77470000D01*
X238755000Y-77470000D02*
X241025000Y-75200000D01*
%TO.N,/BUTTON9*%
X241046000Y-96774000D02*
X241025000Y-96753000D01*
X241025000Y-96753000D02*
X241025000Y-95200000D01*
%TO.N,/BUTTON10*%
X258572000Y-57404000D02*
X258821000Y-57404000D01*
X258821000Y-57404000D02*
X261025000Y-55200000D01*
%TO.N,/BUTTON11*%
X258501000Y-77724000D02*
X261025000Y-75200000D01*
X257302000Y-77724000D02*
X258501000Y-77724000D01*
%TD*%
%TA.AperFunction,Conductor*%
%TO.N,GND*%
G36*
X267392539Y-34570185D02*
G01*
X267438294Y-34622989D01*
X267449500Y-34674500D01*
X267449500Y-106901500D01*
X267429815Y-106968539D01*
X267377011Y-107014294D01*
X267325500Y-107025500D01*
X188174500Y-107025500D01*
X188107461Y-107005815D01*
X188061706Y-106953011D01*
X188050500Y-106901500D01*
X188050500Y-103886005D01*
X188602754Y-103886005D01*
X188621718Y-104187446D01*
X188621719Y-104187453D01*
X188646557Y-104317655D01*
X188663037Y-104404051D01*
X188678320Y-104484164D01*
X188771659Y-104771431D01*
X188771661Y-104771436D01*
X188900265Y-105044732D01*
X188900268Y-105044738D01*
X189062111Y-105299763D01*
X189062114Y-105299767D01*
X189062115Y-105299768D01*
X189117675Y-105366929D01*
X189254652Y-105532505D01*
X189474836Y-105739272D01*
X189474846Y-105739280D01*
X189719193Y-105916808D01*
X189719198Y-105916810D01*
X189719205Y-105916816D01*
X189983896Y-106062332D01*
X189983901Y-106062334D01*
X189983903Y-106062335D01*
X189983904Y-106062336D01*
X190264734Y-106173524D01*
X190264737Y-106173525D01*
X190362259Y-106198564D01*
X190557302Y-106248642D01*
X190704039Y-106267179D01*
X190856963Y-106286499D01*
X190856969Y-106286499D01*
X190856973Y-106286500D01*
X190856975Y-106286500D01*
X191159025Y-106286500D01*
X191159027Y-106286500D01*
X191159032Y-106286499D01*
X191159036Y-106286499D01*
X191238591Y-106276448D01*
X191458698Y-106248642D01*
X191751262Y-106173525D01*
X191751265Y-106173524D01*
X192032095Y-106062336D01*
X192032096Y-106062335D01*
X192032094Y-106062335D01*
X192032104Y-106062332D01*
X192296795Y-105916816D01*
X192541162Y-105739274D01*
X192761349Y-105532504D01*
X192953885Y-105299768D01*
X193115733Y-105044736D01*
X193233035Y-104795457D01*
X205298499Y-104795457D01*
X205326379Y-104935614D01*
X205326381Y-104935620D01*
X205381069Y-105067650D01*
X205381074Y-105067659D01*
X205460467Y-105186478D01*
X205460470Y-105186482D01*
X205561517Y-105287529D01*
X205561521Y-105287532D01*
X205680340Y-105366925D01*
X205680346Y-105366928D01*
X205680347Y-105366929D01*
X205812380Y-105421619D01*
X205812384Y-105421619D01*
X205812385Y-105421620D01*
X205952542Y-105449500D01*
X205952545Y-105449500D01*
X206095457Y-105449500D01*
X206189751Y-105430742D01*
X206235620Y-105421619D01*
X206367653Y-105366929D01*
X206486479Y-105287532D01*
X206587532Y-105186479D01*
X206666929Y-105067653D01*
X206721619Y-104935620D01*
X206749500Y-104795455D01*
X206749500Y-104713879D01*
X206769185Y-104646840D01*
X206821989Y-104601085D01*
X206886102Y-104590521D01*
X206973991Y-104599500D01*
X208274008Y-104599499D01*
X208376797Y-104588999D01*
X208543334Y-104533814D01*
X208692656Y-104441712D01*
X208816712Y-104317656D01*
X208908814Y-104168334D01*
X208908814Y-104168331D01*
X208912178Y-104162879D01*
X208964126Y-104116154D01*
X209033088Y-104104931D01*
X209097170Y-104132774D01*
X209105398Y-104140294D01*
X209244213Y-104279109D01*
X209416179Y-104404048D01*
X209416181Y-104404049D01*
X209416184Y-104404051D01*
X209605588Y-104500557D01*
X209807757Y-104566246D01*
X210017713Y-104599500D01*
X210017714Y-104599500D01*
X210230286Y-104599500D01*
X210230287Y-104599500D01*
X210440243Y-104566246D01*
X210642412Y-104500557D01*
X210831816Y-104404051D01*
X210864452Y-104380340D01*
X211003786Y-104279109D01*
X211003788Y-104279106D01*
X211003792Y-104279104D01*
X211154104Y-104128792D01*
X211273683Y-103964204D01*
X211329011Y-103921540D01*
X211398624Y-103915561D01*
X211460420Y-103948166D01*
X211474313Y-103964199D01*
X211559225Y-104081071D01*
X211593896Y-104128792D01*
X211744213Y-104279109D01*
X211916179Y-104404048D01*
X211916181Y-104404049D01*
X211916184Y-104404051D01*
X212105588Y-104500557D01*
X212307757Y-104566246D01*
X212517713Y-104599500D01*
X212517714Y-104599500D01*
X212730286Y-104599500D01*
X212730287Y-104599500D01*
X212940243Y-104566246D01*
X213142412Y-104500557D01*
X213331816Y-104404051D01*
X213364452Y-104380340D01*
X213503786Y-104279109D01*
X213503788Y-104279106D01*
X213503792Y-104279104D01*
X213654104Y-104128792D01*
X213773683Y-103964204D01*
X213829011Y-103921540D01*
X213898624Y-103915561D01*
X213960420Y-103948166D01*
X213974313Y-103964199D01*
X214059225Y-104081071D01*
X214093896Y-104128792D01*
X214244213Y-104279109D01*
X214416179Y-104404048D01*
X214416181Y-104404049D01*
X214416184Y-104404051D01*
X214605588Y-104500557D01*
X214807757Y-104566246D01*
X215017713Y-104599500D01*
X215017714Y-104599500D01*
X215230286Y-104599500D01*
X215230287Y-104599500D01*
X215440243Y-104566246D01*
X215642412Y-104500557D01*
X215831816Y-104404051D01*
X215864452Y-104380340D01*
X216003786Y-104279109D01*
X216003788Y-104279106D01*
X216003792Y-104279104D01*
X216154104Y-104128792D01*
X216273683Y-103964204D01*
X216329011Y-103921540D01*
X216398624Y-103915561D01*
X216460420Y-103948166D01*
X216474313Y-103964199D01*
X216559225Y-104081071D01*
X216593896Y-104128792D01*
X216744213Y-104279109D01*
X216916179Y-104404048D01*
X216916181Y-104404049D01*
X216916184Y-104404051D01*
X217105588Y-104500557D01*
X217307757Y-104566246D01*
X217517713Y-104599500D01*
X217517714Y-104599500D01*
X217730286Y-104599500D01*
X217730287Y-104599500D01*
X217940243Y-104566246D01*
X218142412Y-104500557D01*
X218331816Y-104404051D01*
X218364452Y-104380340D01*
X218503786Y-104279109D01*
X218503788Y-104279106D01*
X218503792Y-104279104D01*
X218654104Y-104128792D01*
X218773683Y-103964204D01*
X218829011Y-103921540D01*
X218898624Y-103915561D01*
X218960420Y-103948166D01*
X218974313Y-103964199D01*
X219059225Y-104081071D01*
X219093896Y-104128792D01*
X219244213Y-104279109D01*
X219416179Y-104404048D01*
X219416181Y-104404049D01*
X219416184Y-104404051D01*
X219605588Y-104500557D01*
X219807757Y-104566246D01*
X220017713Y-104599500D01*
X220017714Y-104599500D01*
X220230286Y-104599500D01*
X220230287Y-104599500D01*
X220440243Y-104566246D01*
X220642412Y-104500557D01*
X220831816Y-104404051D01*
X220864452Y-104380340D01*
X221003786Y-104279109D01*
X221003788Y-104279106D01*
X221003792Y-104279104D01*
X221154104Y-104128792D01*
X221273683Y-103964204D01*
X221329011Y-103921540D01*
X221398624Y-103915561D01*
X221460420Y-103948166D01*
X221474313Y-103964199D01*
X221559225Y-104081071D01*
X221593896Y-104128792D01*
X221744213Y-104279109D01*
X221916179Y-104404048D01*
X221916181Y-104404049D01*
X221916184Y-104404051D01*
X222105588Y-104500557D01*
X222307757Y-104566246D01*
X222517713Y-104599500D01*
X222517714Y-104599500D01*
X222730286Y-104599500D01*
X222730287Y-104599500D01*
X222940243Y-104566246D01*
X223142412Y-104500557D01*
X223331816Y-104404051D01*
X223364452Y-104380340D01*
X223503786Y-104279109D01*
X223503788Y-104279106D01*
X223503792Y-104279104D01*
X223654104Y-104128792D01*
X223773683Y-103964204D01*
X223829011Y-103921540D01*
X223898624Y-103915561D01*
X223960420Y-103948166D01*
X223974313Y-103964199D01*
X224059225Y-104081071D01*
X224093896Y-104128792D01*
X224244213Y-104279109D01*
X224416179Y-104404048D01*
X224416181Y-104404049D01*
X224416184Y-104404051D01*
X224605588Y-104500557D01*
X224807757Y-104566246D01*
X225017713Y-104599500D01*
X225017714Y-104599500D01*
X225230286Y-104599500D01*
X225230287Y-104599500D01*
X225440243Y-104566246D01*
X225642412Y-104500557D01*
X225831816Y-104404051D01*
X225864452Y-104380340D01*
X226003786Y-104279109D01*
X226003788Y-104279106D01*
X226003792Y-104279104D01*
X226154104Y-104128792D01*
X226273683Y-103964204D01*
X226329011Y-103921540D01*
X226398624Y-103915561D01*
X226460420Y-103948166D01*
X226474313Y-103964199D01*
X226559225Y-104081071D01*
X226593896Y-104128792D01*
X226744213Y-104279109D01*
X226916179Y-104404048D01*
X226916181Y-104404049D01*
X226916184Y-104404051D01*
X227105588Y-104500557D01*
X227307757Y-104566246D01*
X227517713Y-104599500D01*
X227517714Y-104599500D01*
X227730286Y-104599500D01*
X227730287Y-104599500D01*
X227940243Y-104566246D01*
X228142412Y-104500557D01*
X228331816Y-104404051D01*
X228364452Y-104380340D01*
X228503786Y-104279109D01*
X228503788Y-104279106D01*
X228503792Y-104279104D01*
X228654104Y-104128792D01*
X228773683Y-103964204D01*
X228829011Y-103921540D01*
X228898624Y-103915561D01*
X228960420Y-103948166D01*
X228974313Y-103964199D01*
X229059225Y-104081071D01*
X229093896Y-104128792D01*
X229244213Y-104279109D01*
X229416179Y-104404048D01*
X229416181Y-104404049D01*
X229416184Y-104404051D01*
X229605588Y-104500557D01*
X229807757Y-104566246D01*
X230017713Y-104599500D01*
X230017714Y-104599500D01*
X230230286Y-104599500D01*
X230230287Y-104599500D01*
X230440243Y-104566246D01*
X230642412Y-104500557D01*
X230831816Y-104404051D01*
X230864452Y-104380340D01*
X231003786Y-104279109D01*
X231003788Y-104279106D01*
X231003792Y-104279104D01*
X231154104Y-104128792D01*
X231273683Y-103964204D01*
X231329011Y-103921540D01*
X231398624Y-103915561D01*
X231460420Y-103948166D01*
X231474313Y-103964199D01*
X231559225Y-104081071D01*
X231593896Y-104128792D01*
X231744213Y-104279109D01*
X231916179Y-104404048D01*
X231916181Y-104404049D01*
X231916184Y-104404051D01*
X232105588Y-104500557D01*
X232307757Y-104566246D01*
X232517713Y-104599500D01*
X232517714Y-104599500D01*
X232730286Y-104599500D01*
X232730287Y-104599500D01*
X232940243Y-104566246D01*
X233142412Y-104500557D01*
X233331816Y-104404051D01*
X233364452Y-104380340D01*
X233503786Y-104279109D01*
X233503788Y-104279106D01*
X233503792Y-104279104D01*
X233654104Y-104128792D01*
X233773683Y-103964204D01*
X233829011Y-103921540D01*
X233898624Y-103915561D01*
X233960420Y-103948166D01*
X233974313Y-103964199D01*
X234059225Y-104081071D01*
X234093896Y-104128792D01*
X234244213Y-104279109D01*
X234416179Y-104404048D01*
X234416181Y-104404049D01*
X234416184Y-104404051D01*
X234605588Y-104500557D01*
X234807757Y-104566246D01*
X235017713Y-104599500D01*
X235017714Y-104599500D01*
X235230286Y-104599500D01*
X235230287Y-104599500D01*
X235440243Y-104566246D01*
X235642412Y-104500557D01*
X235831816Y-104404051D01*
X235864452Y-104380340D01*
X236003786Y-104279109D01*
X236003788Y-104279106D01*
X236003792Y-104279104D01*
X236154104Y-104128792D01*
X236273683Y-103964204D01*
X236329011Y-103921540D01*
X236398624Y-103915561D01*
X236460420Y-103948166D01*
X236474313Y-103964199D01*
X236559225Y-104081071D01*
X236593896Y-104128792D01*
X236744213Y-104279109D01*
X236916179Y-104404048D01*
X236916181Y-104404049D01*
X236916184Y-104404051D01*
X237105588Y-104500557D01*
X237307757Y-104566246D01*
X237517713Y-104599500D01*
X237517714Y-104599500D01*
X237730286Y-104599500D01*
X237730287Y-104599500D01*
X237940243Y-104566246D01*
X238142412Y-104500557D01*
X238331816Y-104404051D01*
X238364452Y-104380340D01*
X238503786Y-104279109D01*
X238503788Y-104279106D01*
X238503792Y-104279104D01*
X238654104Y-104128792D01*
X238773683Y-103964204D01*
X238829011Y-103921540D01*
X238898624Y-103915561D01*
X238960420Y-103948166D01*
X238974313Y-103964199D01*
X239059225Y-104081071D01*
X239093896Y-104128792D01*
X239244213Y-104279109D01*
X239416179Y-104404048D01*
X239416181Y-104404049D01*
X239416184Y-104404051D01*
X239605588Y-104500557D01*
X239807757Y-104566246D01*
X240017713Y-104599500D01*
X240017714Y-104599500D01*
X240230286Y-104599500D01*
X240230287Y-104599500D01*
X240440243Y-104566246D01*
X240642412Y-104500557D01*
X240831816Y-104404051D01*
X240864452Y-104380340D01*
X241003786Y-104279109D01*
X241003788Y-104279106D01*
X241003792Y-104279104D01*
X241154104Y-104128792D01*
X241273991Y-103963779D01*
X241329320Y-103921115D01*
X241398933Y-103915136D01*
X241460729Y-103947741D01*
X241474627Y-103963781D01*
X241594272Y-104128459D01*
X241594276Y-104128464D01*
X241744535Y-104278723D01*
X241744540Y-104278727D01*
X241916442Y-104403620D01*
X242105782Y-104500095D01*
X242307871Y-104565757D01*
X242374000Y-104576231D01*
X242374000Y-103528145D01*
X242440657Y-103566630D01*
X242561465Y-103599000D01*
X242686535Y-103599000D01*
X242807343Y-103566630D01*
X242874000Y-103528145D01*
X242874000Y-104576230D01*
X242940126Y-104565757D01*
X242940129Y-104565757D01*
X243142217Y-104500095D01*
X243331557Y-104403620D01*
X243503459Y-104278727D01*
X243503464Y-104278723D01*
X243642182Y-104140005D01*
X262008754Y-104140005D01*
X262027718Y-104441446D01*
X262027719Y-104441453D01*
X262084320Y-104738164D01*
X262177659Y-105025431D01*
X262177661Y-105025436D01*
X262306265Y-105298732D01*
X262306268Y-105298738D01*
X262468111Y-105553763D01*
X262660652Y-105786505D01*
X262880836Y-105993272D01*
X262880846Y-105993280D01*
X263125193Y-106170808D01*
X263125198Y-106170810D01*
X263125205Y-106170816D01*
X263389896Y-106316332D01*
X263389901Y-106316334D01*
X263389903Y-106316335D01*
X263389904Y-106316336D01*
X263670734Y-106427524D01*
X263670737Y-106427525D01*
X263768259Y-106452564D01*
X263963302Y-106502642D01*
X264110039Y-106521179D01*
X264262963Y-106540499D01*
X264262969Y-106540499D01*
X264262973Y-106540500D01*
X264262975Y-106540500D01*
X264565025Y-106540500D01*
X264565027Y-106540500D01*
X264565032Y-106540499D01*
X264565036Y-106540499D01*
X264644591Y-106530448D01*
X264864698Y-106502642D01*
X265157262Y-106427525D01*
X265157265Y-106427524D01*
X265438095Y-106316336D01*
X265438096Y-106316335D01*
X265438094Y-106316335D01*
X265438104Y-106316332D01*
X265702795Y-106170816D01*
X265947162Y-105993274D01*
X266167349Y-105786504D01*
X266359885Y-105553768D01*
X266521733Y-105298736D01*
X266650341Y-105025430D01*
X266743681Y-104738160D01*
X266800280Y-104441457D01*
X266800281Y-104441446D01*
X266819246Y-104140005D01*
X266819246Y-104139994D01*
X266800281Y-103838553D01*
X266800280Y-103838546D01*
X266800280Y-103838543D01*
X266743681Y-103541840D01*
X266650341Y-103254570D01*
X266521733Y-102981264D01*
X266359885Y-102726232D01*
X266167349Y-102493496D01*
X266153603Y-102480588D01*
X265947163Y-102286727D01*
X265947153Y-102286719D01*
X265702806Y-102109191D01*
X265702799Y-102109186D01*
X265702795Y-102109184D01*
X265438104Y-101963668D01*
X265438101Y-101963666D01*
X265438096Y-101963664D01*
X265438095Y-101963663D01*
X265157265Y-101852475D01*
X265157262Y-101852474D01*
X264864695Y-101777357D01*
X264565036Y-101739500D01*
X264565027Y-101739500D01*
X264262973Y-101739500D01*
X264262963Y-101739500D01*
X263963304Y-101777357D01*
X263670737Y-101852474D01*
X263670734Y-101852475D01*
X263389904Y-101963663D01*
X263389903Y-101963664D01*
X263125205Y-102109184D01*
X263125193Y-102109191D01*
X262880846Y-102286719D01*
X262880836Y-102286727D01*
X262660652Y-102493494D01*
X262468111Y-102726236D01*
X262306268Y-102981261D01*
X262306265Y-102981267D01*
X262177661Y-103254563D01*
X262177659Y-103254568D01*
X262084320Y-103541835D01*
X262027719Y-103838546D01*
X262027718Y-103838553D01*
X262008754Y-104139994D01*
X262008754Y-104140005D01*
X243642182Y-104140005D01*
X243653723Y-104128464D01*
X243653727Y-104128459D01*
X243778620Y-103956557D01*
X243875095Y-103767217D01*
X243940757Y-103565130D01*
X243940757Y-103565127D01*
X243971030Y-103374000D01*
X243028146Y-103374000D01*
X243066630Y-103307343D01*
X243099000Y-103186535D01*
X243099000Y-103061465D01*
X243066630Y-102940657D01*
X243028146Y-102874000D01*
X243971030Y-102874000D01*
X243940757Y-102682872D01*
X243940757Y-102682869D01*
X243875095Y-102480782D01*
X243778620Y-102291442D01*
X243653727Y-102119540D01*
X243653723Y-102119535D01*
X243503464Y-101969276D01*
X243503459Y-101969272D01*
X243331557Y-101844379D01*
X243142215Y-101747903D01*
X242940124Y-101682241D01*
X242874000Y-101671768D01*
X242874000Y-102719854D01*
X242807343Y-102681370D01*
X242686535Y-102649000D01*
X242561465Y-102649000D01*
X242440657Y-102681370D01*
X242374000Y-102719854D01*
X242374000Y-101671768D01*
X242373999Y-101671768D01*
X242307875Y-101682241D01*
X242105784Y-101747903D01*
X241916442Y-101844379D01*
X241744540Y-101969272D01*
X241744535Y-101969276D01*
X241594276Y-102119535D01*
X241594272Y-102119540D01*
X241474627Y-102284218D01*
X241419297Y-102326884D01*
X241349684Y-102332863D01*
X241287889Y-102300257D01*
X241273991Y-102284218D01*
X241154109Y-102119214D01*
X241154105Y-102119209D01*
X241003786Y-101968890D01*
X240831820Y-101843951D01*
X240642414Y-101747444D01*
X240642413Y-101747443D01*
X240642412Y-101747443D01*
X240440243Y-101681754D01*
X240440241Y-101681753D01*
X240440240Y-101681753D01*
X240278957Y-101656208D01*
X240230287Y-101648500D01*
X240017713Y-101648500D01*
X239969042Y-101656208D01*
X239807760Y-101681753D01*
X239605585Y-101747444D01*
X239416179Y-101843951D01*
X239244213Y-101968890D01*
X239093894Y-102119209D01*
X239093890Y-102119214D01*
X238974318Y-102283793D01*
X238918989Y-102326459D01*
X238849375Y-102332438D01*
X238787580Y-102299833D01*
X238773682Y-102283793D01*
X238654109Y-102119214D01*
X238654105Y-102119209D01*
X238503786Y-101968890D01*
X238331820Y-101843951D01*
X238142414Y-101747444D01*
X238142413Y-101747443D01*
X238142412Y-101747443D01*
X237940243Y-101681754D01*
X237940241Y-101681753D01*
X237940240Y-101681753D01*
X237778957Y-101656208D01*
X237730287Y-101648500D01*
X237517713Y-101648500D01*
X237469042Y-101656208D01*
X237307760Y-101681753D01*
X237105585Y-101747444D01*
X236916179Y-101843951D01*
X236744213Y-101968890D01*
X236593894Y-102119209D01*
X236593890Y-102119214D01*
X236474318Y-102283793D01*
X236418989Y-102326459D01*
X236349375Y-102332438D01*
X236287580Y-102299833D01*
X236273682Y-102283793D01*
X236154109Y-102119214D01*
X236154105Y-102119209D01*
X236003786Y-101968890D01*
X235831820Y-101843951D01*
X235642414Y-101747444D01*
X235642413Y-101747443D01*
X235642412Y-101747443D01*
X235440243Y-101681754D01*
X235440241Y-101681753D01*
X235440240Y-101681753D01*
X235278957Y-101656208D01*
X235230287Y-101648500D01*
X235017713Y-101648500D01*
X234969042Y-101656208D01*
X234807760Y-101681753D01*
X234605585Y-101747444D01*
X234416179Y-101843951D01*
X234244213Y-101968890D01*
X234093894Y-102119209D01*
X234093890Y-102119214D01*
X233974318Y-102283793D01*
X233918989Y-102326459D01*
X233849375Y-102332438D01*
X233787580Y-102299833D01*
X233773682Y-102283793D01*
X233654109Y-102119214D01*
X233654105Y-102119209D01*
X233503786Y-101968890D01*
X233331820Y-101843951D01*
X233142414Y-101747444D01*
X233142413Y-101747443D01*
X233142412Y-101747443D01*
X232940243Y-101681754D01*
X232940241Y-101681753D01*
X232940240Y-101681753D01*
X232778957Y-101656208D01*
X232730287Y-101648500D01*
X232517713Y-101648500D01*
X232469042Y-101656208D01*
X232307760Y-101681753D01*
X232105585Y-101747444D01*
X231916179Y-101843951D01*
X231744213Y-101968890D01*
X231593894Y-102119209D01*
X231593890Y-102119214D01*
X231474318Y-102283793D01*
X231418989Y-102326459D01*
X231349375Y-102332438D01*
X231287580Y-102299833D01*
X231273682Y-102283793D01*
X231154109Y-102119214D01*
X231154105Y-102119209D01*
X231003786Y-101968890D01*
X230831820Y-101843951D01*
X230642414Y-101747444D01*
X230642413Y-101747443D01*
X230642412Y-101747443D01*
X230440243Y-101681754D01*
X230440241Y-101681753D01*
X230440240Y-101681753D01*
X230278957Y-101656208D01*
X230230287Y-101648500D01*
X230017713Y-101648500D01*
X229969042Y-101656208D01*
X229807760Y-101681753D01*
X229605585Y-101747444D01*
X229416179Y-101843951D01*
X229244213Y-101968890D01*
X229093894Y-102119209D01*
X229093890Y-102119214D01*
X228974318Y-102283793D01*
X228918989Y-102326459D01*
X228849375Y-102332438D01*
X228787580Y-102299833D01*
X228773682Y-102283793D01*
X228654109Y-102119214D01*
X228654105Y-102119209D01*
X228503786Y-101968890D01*
X228331820Y-101843951D01*
X228142414Y-101747444D01*
X228142413Y-101747443D01*
X228142412Y-101747443D01*
X227940243Y-101681754D01*
X227940241Y-101681753D01*
X227940240Y-101681753D01*
X227778957Y-101656208D01*
X227730287Y-101648500D01*
X227517713Y-101648500D01*
X227469042Y-101656208D01*
X227307760Y-101681753D01*
X227105585Y-101747444D01*
X226916179Y-101843951D01*
X226744213Y-101968890D01*
X226593894Y-102119209D01*
X226593890Y-102119214D01*
X226474318Y-102283793D01*
X226418989Y-102326459D01*
X226349375Y-102332438D01*
X226287580Y-102299833D01*
X226273682Y-102283793D01*
X226154109Y-102119214D01*
X226154105Y-102119209D01*
X226003786Y-101968890D01*
X225831820Y-101843951D01*
X225642414Y-101747444D01*
X225642413Y-101747443D01*
X225642412Y-101747443D01*
X225440243Y-101681754D01*
X225440241Y-101681753D01*
X225440240Y-101681753D01*
X225278957Y-101656208D01*
X225230287Y-101648500D01*
X225017713Y-101648500D01*
X224969042Y-101656208D01*
X224807760Y-101681753D01*
X224605585Y-101747444D01*
X224416179Y-101843951D01*
X224244213Y-101968890D01*
X224093894Y-102119209D01*
X224093890Y-102119214D01*
X223974318Y-102283793D01*
X223918989Y-102326459D01*
X223849375Y-102332438D01*
X223787580Y-102299833D01*
X223773682Y-102283793D01*
X223654109Y-102119214D01*
X223654105Y-102119209D01*
X223503786Y-101968890D01*
X223331820Y-101843951D01*
X223142414Y-101747444D01*
X223142413Y-101747443D01*
X223142412Y-101747443D01*
X222940243Y-101681754D01*
X222940241Y-101681753D01*
X222940240Y-101681753D01*
X222778957Y-101656208D01*
X222730287Y-101648500D01*
X222517713Y-101648500D01*
X222469042Y-101656208D01*
X222307760Y-101681753D01*
X222105585Y-101747444D01*
X221916179Y-101843951D01*
X221744213Y-101968890D01*
X221593894Y-102119209D01*
X221593890Y-102119214D01*
X221474318Y-102283793D01*
X221418989Y-102326459D01*
X221349375Y-102332438D01*
X221287580Y-102299833D01*
X221273682Y-102283793D01*
X221154109Y-102119214D01*
X221154105Y-102119209D01*
X221003786Y-101968890D01*
X220831820Y-101843951D01*
X220642414Y-101747444D01*
X220642413Y-101747443D01*
X220642412Y-101747443D01*
X220440243Y-101681754D01*
X220440241Y-101681753D01*
X220440240Y-101681753D01*
X220278957Y-101656208D01*
X220230287Y-101648500D01*
X220017713Y-101648500D01*
X219969042Y-101656208D01*
X219807760Y-101681753D01*
X219605585Y-101747444D01*
X219416179Y-101843951D01*
X219244213Y-101968890D01*
X219093894Y-102119209D01*
X219093890Y-102119214D01*
X218974318Y-102283793D01*
X218918989Y-102326459D01*
X218849375Y-102332438D01*
X218787580Y-102299833D01*
X218773682Y-102283793D01*
X218654109Y-102119214D01*
X218654105Y-102119209D01*
X218503786Y-101968890D01*
X218331820Y-101843951D01*
X218142414Y-101747444D01*
X218142413Y-101747443D01*
X218142412Y-101747443D01*
X217940243Y-101681754D01*
X217940241Y-101681753D01*
X217940240Y-101681753D01*
X217778957Y-101656208D01*
X217730287Y-101648500D01*
X217517713Y-101648500D01*
X217469042Y-101656208D01*
X217307760Y-101681753D01*
X217105585Y-101747444D01*
X216916179Y-101843951D01*
X216744213Y-101968890D01*
X216593894Y-102119209D01*
X216593890Y-102119214D01*
X216474318Y-102283793D01*
X216418989Y-102326459D01*
X216349375Y-102332438D01*
X216287580Y-102299833D01*
X216273682Y-102283793D01*
X216154109Y-102119214D01*
X216154105Y-102119209D01*
X216003786Y-101968890D01*
X215831820Y-101843951D01*
X215642414Y-101747444D01*
X215642413Y-101747443D01*
X215642412Y-101747443D01*
X215440243Y-101681754D01*
X215440241Y-101681753D01*
X215440240Y-101681753D01*
X215278957Y-101656208D01*
X215230287Y-101648500D01*
X215017713Y-101648500D01*
X214969042Y-101656208D01*
X214807760Y-101681753D01*
X214605585Y-101747444D01*
X214416179Y-101843951D01*
X214244213Y-101968890D01*
X214093894Y-102119209D01*
X214093890Y-102119214D01*
X213974318Y-102283793D01*
X213918989Y-102326459D01*
X213849375Y-102332438D01*
X213787580Y-102299833D01*
X213773682Y-102283793D01*
X213654109Y-102119214D01*
X213654105Y-102119209D01*
X213503786Y-101968890D01*
X213331820Y-101843951D01*
X213142414Y-101747444D01*
X213142413Y-101747443D01*
X213142412Y-101747443D01*
X212940243Y-101681754D01*
X212940241Y-101681753D01*
X212940240Y-101681753D01*
X212778957Y-101656208D01*
X212730287Y-101648500D01*
X212517713Y-101648500D01*
X212469042Y-101656208D01*
X212307760Y-101681753D01*
X212105585Y-101747444D01*
X211916179Y-101843951D01*
X211744213Y-101968890D01*
X211593894Y-102119209D01*
X211593890Y-102119214D01*
X211474318Y-102283793D01*
X211418989Y-102326459D01*
X211349375Y-102332438D01*
X211287580Y-102299833D01*
X211273682Y-102283793D01*
X211154109Y-102119214D01*
X211154105Y-102119209D01*
X211003786Y-101968890D01*
X210831820Y-101843951D01*
X210642414Y-101747444D01*
X210642413Y-101747443D01*
X210642412Y-101747443D01*
X210440243Y-101681754D01*
X210440241Y-101681753D01*
X210440240Y-101681753D01*
X210278957Y-101656208D01*
X210230287Y-101648500D01*
X210017713Y-101648500D01*
X209969042Y-101656208D01*
X209807760Y-101681753D01*
X209605585Y-101747444D01*
X209416179Y-101843951D01*
X209244215Y-101968889D01*
X209105398Y-102107706D01*
X209044075Y-102141190D01*
X208974383Y-102136206D01*
X208918450Y-102094334D01*
X208912178Y-102085120D01*
X208816712Y-101930344D01*
X208692657Y-101806289D01*
X208692656Y-101806288D01*
X208543334Y-101714186D01*
X208376797Y-101659001D01*
X208376795Y-101659000D01*
X208274010Y-101648500D01*
X206973998Y-101648500D01*
X206973981Y-101648501D01*
X206871203Y-101659000D01*
X206871200Y-101659001D01*
X206704668Y-101714185D01*
X206704663Y-101714187D01*
X206555342Y-101806289D01*
X206431289Y-101930342D01*
X206339187Y-102079663D01*
X206339185Y-102079668D01*
X206329402Y-102109191D01*
X206284001Y-102246203D01*
X206284001Y-102246204D01*
X206284000Y-102246204D01*
X206273500Y-102348983D01*
X206273500Y-103882820D01*
X206253815Y-103949859D01*
X206201011Y-103995614D01*
X206131853Y-104005558D01*
X206125311Y-104004438D01*
X206095456Y-103998500D01*
X206095455Y-103998500D01*
X205952545Y-103998500D01*
X205952543Y-103998500D01*
X205812385Y-104026379D01*
X205812379Y-104026381D01*
X205680349Y-104081069D01*
X205680340Y-104081074D01*
X205561521Y-104160467D01*
X205561517Y-104160470D01*
X205460470Y-104261517D01*
X205460467Y-104261521D01*
X205381074Y-104380340D01*
X205381069Y-104380349D01*
X205326381Y-104512379D01*
X205326379Y-104512385D01*
X205298500Y-104652542D01*
X205298500Y-104652545D01*
X205298500Y-104795455D01*
X205298500Y-104795457D01*
X205298499Y-104795457D01*
X193233035Y-104795457D01*
X193244341Y-104771430D01*
X193337681Y-104484160D01*
X193394280Y-104187457D01*
X193395483Y-104168334D01*
X193413246Y-103886005D01*
X193413246Y-103885994D01*
X193394281Y-103584553D01*
X193394280Y-103584546D01*
X193394280Y-103584543D01*
X193337681Y-103287840D01*
X193244341Y-103000570D01*
X193235256Y-102981264D01*
X193165179Y-102832343D01*
X193115733Y-102727264D01*
X192967380Y-102493496D01*
X192953888Y-102472236D01*
X192851931Y-102348991D01*
X192761349Y-102239496D01*
X192541162Y-102032726D01*
X192541159Y-102032724D01*
X192541153Y-102032719D01*
X192296806Y-101855191D01*
X192296799Y-101855186D01*
X192296795Y-101855184D01*
X192032104Y-101709668D01*
X192032101Y-101709666D01*
X192032096Y-101709664D01*
X192032095Y-101709663D01*
X191751265Y-101598475D01*
X191751262Y-101598474D01*
X191458695Y-101523357D01*
X191159036Y-101485500D01*
X191159027Y-101485500D01*
X190856973Y-101485500D01*
X190856963Y-101485500D01*
X190557304Y-101523357D01*
X190264737Y-101598474D01*
X190264734Y-101598475D01*
X189983904Y-101709663D01*
X189983903Y-101709664D01*
X189719205Y-101855184D01*
X189719193Y-101855191D01*
X189474846Y-102032719D01*
X189474836Y-102032727D01*
X189254652Y-102239494D01*
X189062111Y-102472236D01*
X188900268Y-102727261D01*
X188900265Y-102727267D01*
X188771661Y-103000563D01*
X188771659Y-103000568D01*
X188678320Y-103287835D01*
X188621719Y-103584546D01*
X188621718Y-103584553D01*
X188602754Y-103885994D01*
X188602754Y-103886005D01*
X188050500Y-103886005D01*
X188050500Y-95325961D01*
X196149500Y-95325961D01*
X196188910Y-95574785D01*
X196266760Y-95814383D01*
X196344656Y-95967260D01*
X196375901Y-96028583D01*
X196381132Y-96038848D01*
X196529201Y-96242649D01*
X196529205Y-96242654D01*
X196707345Y-96420794D01*
X196707350Y-96420798D01*
X196716575Y-96427500D01*
X196911155Y-96568870D01*
X197054184Y-96641747D01*
X197135616Y-96683239D01*
X197135618Y-96683239D01*
X197135621Y-96683241D01*
X197375215Y-96761090D01*
X197624038Y-96800500D01*
X197624039Y-96800500D01*
X197875961Y-96800500D01*
X197875962Y-96800500D01*
X198124785Y-96761090D01*
X198364379Y-96683241D01*
X198588845Y-96568870D01*
X198792656Y-96420793D01*
X198970793Y-96242656D01*
X199000181Y-96202205D01*
X199055509Y-96159540D01*
X199125123Y-96153559D01*
X199186918Y-96186164D01*
X199221277Y-96247002D01*
X199224500Y-96275090D01*
X199224500Y-96547869D01*
X199224501Y-96547876D01*
X199230908Y-96607483D01*
X199281202Y-96742328D01*
X199281206Y-96742335D01*
X199367452Y-96857544D01*
X199367455Y-96857547D01*
X199482664Y-96943793D01*
X199482671Y-96943797D01*
X199617517Y-96994091D01*
X199617516Y-96994091D01*
X199624444Y-96994835D01*
X199677127Y-97000500D01*
X202372872Y-97000499D01*
X202432483Y-96994091D01*
X202567331Y-96943796D01*
X202682546Y-96857546D01*
X202768796Y-96742331D01*
X202819091Y-96607483D01*
X202825500Y-96547873D01*
X202825500Y-95924500D01*
X202845185Y-95857461D01*
X202897989Y-95811706D01*
X202949500Y-95800500D01*
X203865903Y-95800500D01*
X203932942Y-95820185D01*
X203953584Y-95836819D01*
X205509139Y-97392374D01*
X205509149Y-97392385D01*
X205513479Y-97396715D01*
X205513480Y-97396716D01*
X205625284Y-97508520D01*
X205625286Y-97508521D01*
X205625290Y-97508524D01*
X205748339Y-97579565D01*
X205762216Y-97587577D01*
X205874019Y-97617534D01*
X205914942Y-97628500D01*
X205914943Y-97628500D01*
X210745588Y-97628500D01*
X210812627Y-97648185D01*
X210822903Y-97655555D01*
X210825736Y-97657814D01*
X210825738Y-97657816D01*
X210978478Y-97753789D01*
X211148745Y-97813368D01*
X211148750Y-97813369D01*
X211327996Y-97833565D01*
X211328000Y-97833565D01*
X211328004Y-97833565D01*
X211507249Y-97813369D01*
X211507252Y-97813368D01*
X211507255Y-97813368D01*
X211677522Y-97753789D01*
X211830262Y-97657816D01*
X211957816Y-97530262D01*
X212053789Y-97377522D01*
X212113368Y-97207255D01*
X212122802Y-97123524D01*
X212133565Y-97028003D01*
X212133565Y-97027996D01*
X212113369Y-96848750D01*
X212113368Y-96848745D01*
X212082696Y-96761089D01*
X212053789Y-96678478D01*
X211957816Y-96525738D01*
X211830262Y-96398184D01*
X211819117Y-96391181D01*
X211677523Y-96302211D01*
X211507254Y-96242631D01*
X211507249Y-96242630D01*
X211328004Y-96222435D01*
X211327996Y-96222435D01*
X211148750Y-96242630D01*
X211148745Y-96242631D01*
X210978476Y-96302211D01*
X210825736Y-96398185D01*
X210822903Y-96400445D01*
X210820724Y-96401334D01*
X210819842Y-96401889D01*
X210819744Y-96401734D01*
X210758217Y-96426855D01*
X210745588Y-96427500D01*
X206294097Y-96427500D01*
X206227058Y-96407815D01*
X206206416Y-96391181D01*
X205141196Y-95325961D01*
X216149500Y-95325961D01*
X216188910Y-95574785D01*
X216266760Y-95814383D01*
X216344656Y-95967260D01*
X216375901Y-96028583D01*
X216381132Y-96038848D01*
X216529201Y-96242649D01*
X216529205Y-96242654D01*
X216707345Y-96420794D01*
X216707350Y-96420798D01*
X216716575Y-96427500D01*
X216911155Y-96568870D01*
X217054184Y-96641747D01*
X217135616Y-96683239D01*
X217135618Y-96683239D01*
X217135621Y-96683241D01*
X217375215Y-96761090D01*
X217624038Y-96800500D01*
X217624039Y-96800500D01*
X217875961Y-96800500D01*
X217875962Y-96800500D01*
X218124785Y-96761090D01*
X218364379Y-96683241D01*
X218588845Y-96568870D01*
X218792656Y-96420793D01*
X218970793Y-96242656D01*
X219000181Y-96202205D01*
X219055509Y-96159540D01*
X219125123Y-96153559D01*
X219186918Y-96186164D01*
X219221277Y-96247002D01*
X219224500Y-96275090D01*
X219224500Y-96547869D01*
X219224501Y-96547876D01*
X219230908Y-96607483D01*
X219281202Y-96742328D01*
X219281206Y-96742335D01*
X219367452Y-96857544D01*
X219367455Y-96857547D01*
X219482664Y-96943793D01*
X219482671Y-96943797D01*
X219617517Y-96994091D01*
X219617516Y-96994091D01*
X219624444Y-96994835D01*
X219677127Y-97000500D01*
X222083902Y-97000499D01*
X222150941Y-97020184D01*
X222171583Y-97036818D01*
X224293298Y-99158533D01*
X224326783Y-99219856D01*
X224328837Y-99232330D01*
X224338630Y-99319249D01*
X224398210Y-99489521D01*
X224494184Y-99642262D01*
X224621738Y-99769816D01*
X224774478Y-99865789D01*
X224944745Y-99925368D01*
X224944750Y-99925369D01*
X225123996Y-99945565D01*
X225124000Y-99945565D01*
X225124004Y-99945565D01*
X225303249Y-99925369D01*
X225303252Y-99925368D01*
X225303255Y-99925368D01*
X225473522Y-99865789D01*
X225626262Y-99769816D01*
X225753816Y-99642262D01*
X225849789Y-99489522D01*
X225909368Y-99319255D01*
X225919162Y-99232330D01*
X225929565Y-99140003D01*
X225929565Y-99139996D01*
X225909369Y-98960750D01*
X225909368Y-98960745D01*
X225849788Y-98790476D01*
X225753815Y-98637737D01*
X225626262Y-98510184D01*
X225473521Y-98414210D01*
X225303249Y-98354630D01*
X225216330Y-98344837D01*
X225151916Y-98317770D01*
X225142533Y-98309298D01*
X222861818Y-96028583D01*
X222828333Y-95967260D01*
X222825499Y-95940902D01*
X222825499Y-95325961D01*
X236149500Y-95325961D01*
X236188910Y-95574785D01*
X236266760Y-95814383D01*
X236344656Y-95967260D01*
X236375901Y-96028583D01*
X236381132Y-96038848D01*
X236529201Y-96242649D01*
X236529205Y-96242654D01*
X236707345Y-96420794D01*
X236707350Y-96420798D01*
X236716575Y-96427500D01*
X236911155Y-96568870D01*
X237054184Y-96641747D01*
X237135616Y-96683239D01*
X237135618Y-96683239D01*
X237135621Y-96683241D01*
X237375215Y-96761090D01*
X237624038Y-96800500D01*
X237624039Y-96800500D01*
X237875961Y-96800500D01*
X237875962Y-96800500D01*
X238124785Y-96761090D01*
X238364379Y-96683241D01*
X238588845Y-96568870D01*
X238792656Y-96420793D01*
X238970793Y-96242656D01*
X239000181Y-96202205D01*
X239055509Y-96159540D01*
X239125123Y-96153559D01*
X239186918Y-96186164D01*
X239221277Y-96247002D01*
X239224500Y-96275090D01*
X239224500Y-96547869D01*
X239224501Y-96547876D01*
X239230908Y-96607483D01*
X239281202Y-96742328D01*
X239281206Y-96742335D01*
X239367452Y-96857544D01*
X239367455Y-96857547D01*
X239482664Y-96943793D01*
X239482671Y-96943797D01*
X239527618Y-96960561D01*
X239617517Y-96994091D01*
X239677127Y-97000500D01*
X240189181Y-97000499D01*
X240256220Y-97020183D01*
X240301975Y-97072987D01*
X240306222Y-97083544D01*
X240320210Y-97123521D01*
X240320211Y-97123522D01*
X240416184Y-97276262D01*
X240543738Y-97403816D01*
X240696478Y-97499789D01*
X240783565Y-97530262D01*
X240866745Y-97559368D01*
X240866750Y-97559369D01*
X241045996Y-97579565D01*
X241046000Y-97579565D01*
X241046004Y-97579565D01*
X241225249Y-97559369D01*
X241225252Y-97559368D01*
X241225255Y-97559368D01*
X241395522Y-97499789D01*
X241548262Y-97403816D01*
X241675816Y-97276262D01*
X241771789Y-97123522D01*
X241785778Y-97083544D01*
X241826498Y-97026769D01*
X241891451Y-97001021D01*
X241902819Y-97000499D01*
X242372871Y-97000499D01*
X242372872Y-97000499D01*
X242432483Y-96994091D01*
X242567331Y-96943796D01*
X242682546Y-96857546D01*
X242768796Y-96742331D01*
X242819091Y-96607483D01*
X242825500Y-96547873D01*
X242825500Y-95325961D01*
X256149500Y-95325961D01*
X256188910Y-95574785D01*
X256266760Y-95814383D01*
X256344656Y-95967260D01*
X256375901Y-96028583D01*
X256381132Y-96038848D01*
X256529201Y-96242649D01*
X256529205Y-96242654D01*
X256707345Y-96420794D01*
X256707350Y-96420798D01*
X256716575Y-96427500D01*
X256911155Y-96568870D01*
X257054184Y-96641747D01*
X257135616Y-96683239D01*
X257135618Y-96683239D01*
X257135621Y-96683241D01*
X257375215Y-96761090D01*
X257624038Y-96800500D01*
X257624039Y-96800500D01*
X257875961Y-96800500D01*
X257875962Y-96800500D01*
X258124785Y-96761090D01*
X258364379Y-96683241D01*
X258588845Y-96568870D01*
X258792656Y-96420793D01*
X258970793Y-96242656D01*
X259000181Y-96202205D01*
X259055509Y-96159540D01*
X259125123Y-96153559D01*
X259186918Y-96186164D01*
X259221277Y-96247002D01*
X259224500Y-96275090D01*
X259224500Y-96547869D01*
X259224501Y-96547876D01*
X259230908Y-96607483D01*
X259281202Y-96742328D01*
X259281206Y-96742335D01*
X259367452Y-96857544D01*
X259367455Y-96857547D01*
X259482664Y-96943793D01*
X259482671Y-96943797D01*
X259617517Y-96994091D01*
X259617516Y-96994091D01*
X259624444Y-96994835D01*
X259677127Y-97000500D01*
X262372872Y-97000499D01*
X262432483Y-96994091D01*
X262567331Y-96943796D01*
X262682546Y-96857546D01*
X262768796Y-96742331D01*
X262819091Y-96607483D01*
X262825500Y-96547873D01*
X262825499Y-93852128D01*
X262819091Y-93792517D01*
X262790835Y-93716760D01*
X262768797Y-93657671D01*
X262768793Y-93657664D01*
X262682547Y-93542455D01*
X262682544Y-93542452D01*
X262567335Y-93456206D01*
X262567328Y-93456202D01*
X262432482Y-93405908D01*
X262432483Y-93405908D01*
X262372883Y-93399501D01*
X262372881Y-93399500D01*
X262372873Y-93399500D01*
X262372864Y-93399500D01*
X259677129Y-93399500D01*
X259677123Y-93399501D01*
X259617516Y-93405908D01*
X259482671Y-93456202D01*
X259482664Y-93456206D01*
X259367455Y-93542452D01*
X259367452Y-93542455D01*
X259281206Y-93657664D01*
X259281202Y-93657671D01*
X259230908Y-93792517D01*
X259224501Y-93852116D01*
X259224501Y-93852123D01*
X259224500Y-93852135D01*
X259224500Y-94124908D01*
X259204815Y-94191947D01*
X259152011Y-94237702D01*
X259082853Y-94247646D01*
X259019297Y-94218621D01*
X259000182Y-94197793D01*
X258970798Y-94157350D01*
X258970794Y-94157345D01*
X258792654Y-93979205D01*
X258792649Y-93979201D01*
X258588848Y-93831132D01*
X258588847Y-93831131D01*
X258588845Y-93831130D01*
X258513061Y-93792516D01*
X258364383Y-93716760D01*
X258124785Y-93638910D01*
X257875962Y-93599500D01*
X257624038Y-93599500D01*
X257530071Y-93614383D01*
X257375214Y-93638910D01*
X257135616Y-93716760D01*
X256911151Y-93831132D01*
X256707350Y-93979201D01*
X256707345Y-93979205D01*
X256529205Y-94157345D01*
X256529201Y-94157350D01*
X256381132Y-94361151D01*
X256266760Y-94585616D01*
X256188910Y-94825214D01*
X256149500Y-95074038D01*
X256149500Y-95325961D01*
X242825500Y-95325961D01*
X242825499Y-93852128D01*
X242819091Y-93792517D01*
X242790835Y-93716760D01*
X242768797Y-93657671D01*
X242768793Y-93657664D01*
X242682547Y-93542455D01*
X242682544Y-93542452D01*
X242567335Y-93456206D01*
X242567328Y-93456202D01*
X242432482Y-93405908D01*
X242432483Y-93405908D01*
X242372883Y-93399501D01*
X242372881Y-93399500D01*
X242372873Y-93399500D01*
X242372864Y-93399500D01*
X239677129Y-93399500D01*
X239677123Y-93399501D01*
X239617516Y-93405908D01*
X239482671Y-93456202D01*
X239482664Y-93456206D01*
X239367455Y-93542452D01*
X239367452Y-93542455D01*
X239281206Y-93657664D01*
X239281202Y-93657671D01*
X239230908Y-93792517D01*
X239224501Y-93852116D01*
X239224501Y-93852123D01*
X239224500Y-93852135D01*
X239224500Y-94124908D01*
X239204815Y-94191947D01*
X239152011Y-94237702D01*
X239082853Y-94247646D01*
X239019297Y-94218621D01*
X239000182Y-94197793D01*
X238970798Y-94157350D01*
X238970794Y-94157345D01*
X238792654Y-93979205D01*
X238792649Y-93979201D01*
X238588848Y-93831132D01*
X238588847Y-93831131D01*
X238588845Y-93831130D01*
X238513061Y-93792516D01*
X238364383Y-93716760D01*
X238124785Y-93638910D01*
X237875962Y-93599500D01*
X237624038Y-93599500D01*
X237530071Y-93614383D01*
X237375214Y-93638910D01*
X237135616Y-93716760D01*
X236911151Y-93831132D01*
X236707350Y-93979201D01*
X236707345Y-93979205D01*
X236529205Y-94157345D01*
X236529201Y-94157350D01*
X236381132Y-94361151D01*
X236266760Y-94585616D01*
X236188910Y-94825214D01*
X236149500Y-95074038D01*
X236149500Y-95325961D01*
X222825499Y-95325961D01*
X222825499Y-93852129D01*
X222825498Y-93852123D01*
X222825497Y-93852116D01*
X222819091Y-93792517D01*
X222790835Y-93716760D01*
X222768797Y-93657671D01*
X222768793Y-93657664D01*
X222682547Y-93542455D01*
X222682544Y-93542452D01*
X222567335Y-93456206D01*
X222567328Y-93456202D01*
X222432482Y-93405908D01*
X222432483Y-93405908D01*
X222372883Y-93399501D01*
X222372881Y-93399500D01*
X222372873Y-93399500D01*
X222372864Y-93399500D01*
X219677129Y-93399500D01*
X219677123Y-93399501D01*
X219617516Y-93405908D01*
X219482671Y-93456202D01*
X219482664Y-93456206D01*
X219367455Y-93542452D01*
X219367452Y-93542455D01*
X219281206Y-93657664D01*
X219281202Y-93657671D01*
X219230908Y-93792517D01*
X219224501Y-93852116D01*
X219224501Y-93852123D01*
X219224500Y-93852135D01*
X219224500Y-94124908D01*
X219204815Y-94191947D01*
X219152011Y-94237702D01*
X219082853Y-94247646D01*
X219019297Y-94218621D01*
X219000182Y-94197793D01*
X218970798Y-94157350D01*
X218970794Y-94157345D01*
X218792654Y-93979205D01*
X218792649Y-93979201D01*
X218588848Y-93831132D01*
X218588847Y-93831131D01*
X218588845Y-93831130D01*
X218513061Y-93792516D01*
X218364383Y-93716760D01*
X218124785Y-93638910D01*
X217875962Y-93599500D01*
X217624038Y-93599500D01*
X217530071Y-93614383D01*
X217375214Y-93638910D01*
X217135616Y-93716760D01*
X216911151Y-93831132D01*
X216707350Y-93979201D01*
X216707345Y-93979205D01*
X216529205Y-94157345D01*
X216529201Y-94157350D01*
X216381132Y-94361151D01*
X216266760Y-94585616D01*
X216188910Y-94825214D01*
X216149500Y-95074038D01*
X216149500Y-95325961D01*
X205141196Y-95325961D01*
X204653590Y-94838355D01*
X204653588Y-94838352D01*
X204534717Y-94719481D01*
X204534709Y-94719475D01*
X204432936Y-94660717D01*
X204432934Y-94660716D01*
X204397790Y-94640425D01*
X204397789Y-94640424D01*
X204385263Y-94637067D01*
X204245057Y-94599499D01*
X204086943Y-94599499D01*
X204079347Y-94599499D01*
X204079331Y-94599500D01*
X202949499Y-94599500D01*
X202882460Y-94579815D01*
X202836705Y-94527011D01*
X202825499Y-94475500D01*
X202825499Y-93852129D01*
X202825498Y-93852123D01*
X202825497Y-93852116D01*
X202819091Y-93792517D01*
X202790835Y-93716760D01*
X202768797Y-93657671D01*
X202768793Y-93657664D01*
X202682547Y-93542455D01*
X202682544Y-93542452D01*
X202567335Y-93456206D01*
X202567328Y-93456202D01*
X202432482Y-93405908D01*
X202432483Y-93405908D01*
X202372883Y-93399501D01*
X202372881Y-93399500D01*
X202372873Y-93399500D01*
X202372864Y-93399500D01*
X199677129Y-93399500D01*
X199677123Y-93399501D01*
X199617516Y-93405908D01*
X199482671Y-93456202D01*
X199482664Y-93456206D01*
X199367455Y-93542452D01*
X199367452Y-93542455D01*
X199281206Y-93657664D01*
X199281202Y-93657671D01*
X199230908Y-93792517D01*
X199224501Y-93852116D01*
X199224501Y-93852123D01*
X199224500Y-93852135D01*
X199224500Y-94124908D01*
X199204815Y-94191947D01*
X199152011Y-94237702D01*
X199082853Y-94247646D01*
X199019297Y-94218621D01*
X199000182Y-94197793D01*
X198970798Y-94157350D01*
X198970794Y-94157345D01*
X198792654Y-93979205D01*
X198792649Y-93979201D01*
X198588848Y-93831132D01*
X198588847Y-93831131D01*
X198588845Y-93831130D01*
X198513061Y-93792516D01*
X198364383Y-93716760D01*
X198124785Y-93638910D01*
X197875962Y-93599500D01*
X197624038Y-93599500D01*
X197530071Y-93614383D01*
X197375214Y-93638910D01*
X197135616Y-93716760D01*
X196911151Y-93831132D01*
X196707350Y-93979201D01*
X196707345Y-93979205D01*
X196529205Y-94157345D01*
X196529201Y-94157350D01*
X196381132Y-94361151D01*
X196266760Y-94585616D01*
X196188910Y-94825214D01*
X196149500Y-95074038D01*
X196149500Y-95325961D01*
X188050500Y-95325961D01*
X188050500Y-94924000D01*
X188070185Y-94856961D01*
X188122989Y-94811206D01*
X188174500Y-94800000D01*
X189225000Y-94800000D01*
X189225000Y-91200000D01*
X189725000Y-91200000D01*
X189725000Y-94800000D01*
X190822828Y-94800000D01*
X190822844Y-94799999D01*
X190882372Y-94793598D01*
X190882379Y-94793596D01*
X191017086Y-94743354D01*
X191017093Y-94743350D01*
X191132187Y-94657190D01*
X191132190Y-94657187D01*
X191218350Y-94542093D01*
X191218354Y-94542086D01*
X191268596Y-94407379D01*
X191268598Y-94407372D01*
X191274999Y-94347844D01*
X191275000Y-94347827D01*
X191275000Y-94074403D01*
X191294685Y-94007364D01*
X191347489Y-93961609D01*
X191416647Y-93951665D01*
X191480203Y-93980690D01*
X191499319Y-94001518D01*
X191529207Y-94042656D01*
X191707345Y-94220794D01*
X191707350Y-94220798D01*
X191882192Y-94347827D01*
X191911155Y-94368870D01*
X192054184Y-94441747D01*
X192135616Y-94483239D01*
X192135618Y-94483239D01*
X192135621Y-94483241D01*
X192375215Y-94561090D01*
X192624038Y-94600500D01*
X192624039Y-94600500D01*
X192875961Y-94600500D01*
X192875962Y-94600500D01*
X193124785Y-94561090D01*
X193364379Y-94483241D01*
X193588845Y-94368870D01*
X193792656Y-94220793D01*
X193970793Y-94042656D01*
X194118870Y-93838845D01*
X194233241Y-93614379D01*
X194311090Y-93374785D01*
X194330854Y-93250000D01*
X207675000Y-93250000D01*
X207675000Y-94347844D01*
X207681401Y-94407372D01*
X207681403Y-94407379D01*
X207731645Y-94542086D01*
X207731649Y-94542093D01*
X207817809Y-94657187D01*
X207817812Y-94657190D01*
X207932906Y-94743350D01*
X207932913Y-94743354D01*
X208067620Y-94793596D01*
X208067627Y-94793598D01*
X208127155Y-94799999D01*
X208127172Y-94800000D01*
X209225000Y-94800000D01*
X209225000Y-93250000D01*
X207675000Y-93250000D01*
X194330854Y-93250000D01*
X194350500Y-93125962D01*
X194350500Y-92874038D01*
X194330854Y-92750000D01*
X207675000Y-92750000D01*
X209225000Y-92750000D01*
X209225000Y-91200000D01*
X209725000Y-91200000D01*
X209725000Y-94800000D01*
X210822828Y-94800000D01*
X210822844Y-94799999D01*
X210882372Y-94793598D01*
X210882379Y-94793596D01*
X211017086Y-94743354D01*
X211017093Y-94743350D01*
X211132187Y-94657190D01*
X211132190Y-94657187D01*
X211218350Y-94542093D01*
X211218354Y-94542086D01*
X211268596Y-94407379D01*
X211268598Y-94407372D01*
X211274999Y-94347844D01*
X211275000Y-94347827D01*
X211275000Y-94074403D01*
X211294685Y-94007364D01*
X211347489Y-93961609D01*
X211416647Y-93951665D01*
X211480203Y-93980690D01*
X211499319Y-94001518D01*
X211529207Y-94042656D01*
X211707345Y-94220794D01*
X211707350Y-94220798D01*
X211882192Y-94347827D01*
X211911155Y-94368870D01*
X212054184Y-94441747D01*
X212135616Y-94483239D01*
X212135618Y-94483239D01*
X212135621Y-94483241D01*
X212375215Y-94561090D01*
X212624038Y-94600500D01*
X212624039Y-94600500D01*
X212875961Y-94600500D01*
X212875962Y-94600500D01*
X213124785Y-94561090D01*
X213364379Y-94483241D01*
X213588845Y-94368870D01*
X213792656Y-94220793D01*
X213970793Y-94042656D01*
X214118870Y-93838845D01*
X214233241Y-93614379D01*
X214311090Y-93374785D01*
X214330854Y-93250000D01*
X227675000Y-93250000D01*
X227675000Y-94347844D01*
X227681401Y-94407372D01*
X227681403Y-94407379D01*
X227731645Y-94542086D01*
X227731649Y-94542093D01*
X227817809Y-94657187D01*
X227817812Y-94657190D01*
X227932906Y-94743350D01*
X227932913Y-94743354D01*
X228067620Y-94793596D01*
X228067627Y-94793598D01*
X228127155Y-94799999D01*
X228127172Y-94800000D01*
X229225000Y-94800000D01*
X229225000Y-93250000D01*
X227675000Y-93250000D01*
X214330854Y-93250000D01*
X214350500Y-93125962D01*
X214350500Y-92874038D01*
X214330854Y-92750000D01*
X227675000Y-92750000D01*
X229225000Y-92750000D01*
X229225000Y-91200000D01*
X229725000Y-91200000D01*
X229725000Y-94800000D01*
X230822828Y-94800000D01*
X230822844Y-94799999D01*
X230882372Y-94793598D01*
X230882379Y-94793596D01*
X231017086Y-94743354D01*
X231017093Y-94743350D01*
X231132187Y-94657190D01*
X231132190Y-94657187D01*
X231218350Y-94542093D01*
X231218354Y-94542086D01*
X231268596Y-94407379D01*
X231268598Y-94407372D01*
X231274999Y-94347844D01*
X231275000Y-94347827D01*
X231275000Y-94074403D01*
X231294685Y-94007364D01*
X231347489Y-93961609D01*
X231416647Y-93951665D01*
X231480203Y-93980690D01*
X231499319Y-94001518D01*
X231529207Y-94042656D01*
X231707345Y-94220794D01*
X231707350Y-94220798D01*
X231882192Y-94347827D01*
X231911155Y-94368870D01*
X232054184Y-94441747D01*
X232135616Y-94483239D01*
X232135618Y-94483239D01*
X232135621Y-94483241D01*
X232375215Y-94561090D01*
X232624038Y-94600500D01*
X232624039Y-94600500D01*
X232875961Y-94600500D01*
X232875962Y-94600500D01*
X233124785Y-94561090D01*
X233364379Y-94483241D01*
X233588845Y-94368870D01*
X233792656Y-94220793D01*
X233970793Y-94042656D01*
X234118870Y-93838845D01*
X234233241Y-93614379D01*
X234311090Y-93374785D01*
X234330854Y-93250000D01*
X247675000Y-93250000D01*
X247675000Y-94347844D01*
X247681401Y-94407372D01*
X247681403Y-94407379D01*
X247731645Y-94542086D01*
X247731649Y-94542093D01*
X247817809Y-94657187D01*
X247817812Y-94657190D01*
X247932906Y-94743350D01*
X247932913Y-94743354D01*
X248067620Y-94793596D01*
X248067627Y-94793598D01*
X248127155Y-94799999D01*
X248127172Y-94800000D01*
X249225000Y-94800000D01*
X249225000Y-93250000D01*
X247675000Y-93250000D01*
X234330854Y-93250000D01*
X234350500Y-93125962D01*
X234350500Y-92874038D01*
X234330854Y-92750000D01*
X247675000Y-92750000D01*
X249225000Y-92750000D01*
X249225000Y-91200000D01*
X249725000Y-91200000D01*
X249725000Y-94800000D01*
X250822828Y-94800000D01*
X250822844Y-94799999D01*
X250882372Y-94793598D01*
X250882379Y-94793596D01*
X251017086Y-94743354D01*
X251017093Y-94743350D01*
X251132187Y-94657190D01*
X251132190Y-94657187D01*
X251218350Y-94542093D01*
X251218354Y-94542086D01*
X251268596Y-94407379D01*
X251268598Y-94407372D01*
X251274999Y-94347844D01*
X251275000Y-94347827D01*
X251275000Y-94074403D01*
X251294685Y-94007364D01*
X251347489Y-93961609D01*
X251416647Y-93951665D01*
X251480203Y-93980690D01*
X251499319Y-94001518D01*
X251529207Y-94042656D01*
X251707345Y-94220794D01*
X251707350Y-94220798D01*
X251882192Y-94347827D01*
X251911155Y-94368870D01*
X252054184Y-94441747D01*
X252135616Y-94483239D01*
X252135618Y-94483239D01*
X252135621Y-94483241D01*
X252375215Y-94561090D01*
X252624038Y-94600500D01*
X252624039Y-94600500D01*
X252875961Y-94600500D01*
X252875962Y-94600500D01*
X253124785Y-94561090D01*
X253364379Y-94483241D01*
X253588845Y-94368870D01*
X253792656Y-94220793D01*
X253970793Y-94042656D01*
X254118870Y-93838845D01*
X254233241Y-93614379D01*
X254311090Y-93374785D01*
X254350500Y-93125962D01*
X254350500Y-92874038D01*
X254311090Y-92625215D01*
X254233241Y-92385621D01*
X254233239Y-92385618D01*
X254233239Y-92385616D01*
X254191747Y-92304184D01*
X254118870Y-92161155D01*
X254099952Y-92135117D01*
X253970798Y-91957350D01*
X253970794Y-91957345D01*
X253792654Y-91779205D01*
X253792649Y-91779201D01*
X253588848Y-91631132D01*
X253588847Y-91631131D01*
X253588845Y-91631130D01*
X253513265Y-91592620D01*
X253364383Y-91516760D01*
X253124785Y-91438910D01*
X252875962Y-91399500D01*
X252624038Y-91399500D01*
X252499626Y-91419205D01*
X252375214Y-91438910D01*
X252135616Y-91516760D01*
X251911151Y-91631132D01*
X251707350Y-91779201D01*
X251707345Y-91779205D01*
X251529205Y-91957345D01*
X251499318Y-91998482D01*
X251443988Y-92041147D01*
X251374374Y-92047126D01*
X251312579Y-92014520D01*
X251278222Y-91953681D01*
X251275000Y-91925596D01*
X251275000Y-91652172D01*
X251274999Y-91652155D01*
X251268598Y-91592627D01*
X251268596Y-91592620D01*
X251218354Y-91457913D01*
X251218350Y-91457906D01*
X251132190Y-91342812D01*
X251132187Y-91342809D01*
X251017093Y-91256649D01*
X251017086Y-91256645D01*
X250882379Y-91206403D01*
X250882372Y-91206401D01*
X250822844Y-91200000D01*
X249725000Y-91200000D01*
X249225000Y-91200000D01*
X248127155Y-91200000D01*
X248067627Y-91206401D01*
X248067620Y-91206403D01*
X247932913Y-91256645D01*
X247932906Y-91256649D01*
X247817812Y-91342809D01*
X247817809Y-91342812D01*
X247731649Y-91457906D01*
X247731645Y-91457913D01*
X247681403Y-91592620D01*
X247681401Y-91592627D01*
X247675000Y-91652155D01*
X247675000Y-92750000D01*
X234330854Y-92750000D01*
X234311090Y-92625215D01*
X234233241Y-92385621D01*
X234233239Y-92385618D01*
X234233239Y-92385616D01*
X234191747Y-92304184D01*
X234118870Y-92161155D01*
X234099952Y-92135117D01*
X233970798Y-91957350D01*
X233970794Y-91957345D01*
X233792654Y-91779205D01*
X233792649Y-91779201D01*
X233588848Y-91631132D01*
X233588847Y-91631131D01*
X233588845Y-91631130D01*
X233513265Y-91592620D01*
X233364383Y-91516760D01*
X233124785Y-91438910D01*
X232875962Y-91399500D01*
X232624038Y-91399500D01*
X232499626Y-91419205D01*
X232375214Y-91438910D01*
X232135616Y-91516760D01*
X231911151Y-91631132D01*
X231707350Y-91779201D01*
X231707345Y-91779205D01*
X231529205Y-91957345D01*
X231499318Y-91998482D01*
X231443988Y-92041147D01*
X231374374Y-92047126D01*
X231312579Y-92014520D01*
X231278222Y-91953681D01*
X231275000Y-91925596D01*
X231275000Y-91652172D01*
X231274999Y-91652155D01*
X231268598Y-91592627D01*
X231268596Y-91592620D01*
X231218354Y-91457913D01*
X231218350Y-91457906D01*
X231132190Y-91342812D01*
X231132187Y-91342809D01*
X231017093Y-91256649D01*
X231017086Y-91256645D01*
X230882379Y-91206403D01*
X230882372Y-91206401D01*
X230822844Y-91200000D01*
X229725000Y-91200000D01*
X229225000Y-91200000D01*
X228127155Y-91200000D01*
X228067627Y-91206401D01*
X228067620Y-91206403D01*
X227932913Y-91256645D01*
X227932906Y-91256649D01*
X227817812Y-91342809D01*
X227817809Y-91342812D01*
X227731649Y-91457906D01*
X227731645Y-91457913D01*
X227681403Y-91592620D01*
X227681401Y-91592627D01*
X227675000Y-91652155D01*
X227675000Y-92750000D01*
X214330854Y-92750000D01*
X214311090Y-92625215D01*
X214233241Y-92385621D01*
X214233239Y-92385618D01*
X214233239Y-92385616D01*
X214191747Y-92304184D01*
X214118870Y-92161155D01*
X214099952Y-92135117D01*
X213970798Y-91957350D01*
X213970794Y-91957345D01*
X213792654Y-91779205D01*
X213792649Y-91779201D01*
X213588848Y-91631132D01*
X213588847Y-91631131D01*
X213588845Y-91631130D01*
X213513265Y-91592620D01*
X213364383Y-91516760D01*
X213124785Y-91438910D01*
X212875962Y-91399500D01*
X212624038Y-91399500D01*
X212499626Y-91419205D01*
X212375214Y-91438910D01*
X212135616Y-91516760D01*
X211911151Y-91631132D01*
X211707350Y-91779201D01*
X211707345Y-91779205D01*
X211529205Y-91957345D01*
X211499318Y-91998482D01*
X211443988Y-92041147D01*
X211374374Y-92047126D01*
X211312579Y-92014520D01*
X211278222Y-91953681D01*
X211275000Y-91925596D01*
X211275000Y-91652172D01*
X211274999Y-91652155D01*
X211268598Y-91592627D01*
X211268596Y-91592620D01*
X211218354Y-91457913D01*
X211218350Y-91457906D01*
X211132190Y-91342812D01*
X211132187Y-91342809D01*
X211017093Y-91256649D01*
X211017086Y-91256645D01*
X210882379Y-91206403D01*
X210882372Y-91206401D01*
X210822844Y-91200000D01*
X209725000Y-91200000D01*
X209225000Y-91200000D01*
X208127155Y-91200000D01*
X208067627Y-91206401D01*
X208067620Y-91206403D01*
X207932913Y-91256645D01*
X207932906Y-91256649D01*
X207817812Y-91342809D01*
X207817809Y-91342812D01*
X207731649Y-91457906D01*
X207731645Y-91457913D01*
X207681403Y-91592620D01*
X207681401Y-91592627D01*
X207675000Y-91652155D01*
X207675000Y-92750000D01*
X194330854Y-92750000D01*
X194311090Y-92625215D01*
X194233241Y-92385621D01*
X194233239Y-92385618D01*
X194233239Y-92385616D01*
X194191747Y-92304184D01*
X194118870Y-92161155D01*
X194099952Y-92135117D01*
X193970798Y-91957350D01*
X193970794Y-91957345D01*
X193792654Y-91779205D01*
X193792649Y-91779201D01*
X193588848Y-91631132D01*
X193588847Y-91631131D01*
X193588845Y-91631130D01*
X193513265Y-91592620D01*
X193364383Y-91516760D01*
X193124785Y-91438910D01*
X192875962Y-91399500D01*
X192624038Y-91399500D01*
X192499626Y-91419205D01*
X192375214Y-91438910D01*
X192135616Y-91516760D01*
X191911151Y-91631132D01*
X191707350Y-91779201D01*
X191707345Y-91779205D01*
X191529205Y-91957345D01*
X191499318Y-91998482D01*
X191443988Y-92041147D01*
X191374374Y-92047126D01*
X191312579Y-92014520D01*
X191278222Y-91953681D01*
X191275000Y-91925596D01*
X191275000Y-91652172D01*
X191274999Y-91652155D01*
X191268598Y-91592627D01*
X191268596Y-91592620D01*
X191218354Y-91457913D01*
X191218350Y-91457906D01*
X191132190Y-91342812D01*
X191132187Y-91342809D01*
X191017093Y-91256649D01*
X191017086Y-91256645D01*
X190882379Y-91206403D01*
X190882372Y-91206401D01*
X190822844Y-91200000D01*
X189725000Y-91200000D01*
X189225000Y-91200000D01*
X188174500Y-91200000D01*
X188107461Y-91180315D01*
X188061706Y-91127511D01*
X188050500Y-91076000D01*
X188050500Y-89353469D01*
X191199500Y-89353469D01*
X191239868Y-89556412D01*
X191239870Y-89556420D01*
X191319058Y-89747596D01*
X191434024Y-89919657D01*
X191580342Y-90065975D01*
X191580345Y-90065977D01*
X191752402Y-90180941D01*
X191943580Y-90260130D01*
X192146530Y-90300499D01*
X192146534Y-90300500D01*
X192146535Y-90300500D01*
X192353466Y-90300500D01*
X192353467Y-90300499D01*
X192556420Y-90260130D01*
X192747598Y-90180941D01*
X192919655Y-90065977D01*
X193065977Y-89919655D01*
X193180941Y-89747598D01*
X193260130Y-89556420D01*
X193293776Y-89387267D01*
X195655600Y-89387267D01*
X195655601Y-89387283D01*
X195691434Y-89659463D01*
X195691435Y-89659468D01*
X195691436Y-89659474D01*
X195715049Y-89747598D01*
X195762494Y-89924666D01*
X195762497Y-89924676D01*
X195867556Y-90178310D01*
X195867560Y-90178320D01*
X196004832Y-90416082D01*
X196171966Y-90633895D01*
X196171972Y-90633902D01*
X196366097Y-90828027D01*
X196366104Y-90828033D01*
X196583917Y-90995167D01*
X196821679Y-91132439D01*
X196821680Y-91132439D01*
X196821683Y-91132441D01*
X197075333Y-91237506D01*
X197340526Y-91308564D01*
X197612726Y-91344400D01*
X197612733Y-91344400D01*
X197887267Y-91344400D01*
X197887274Y-91344400D01*
X198159474Y-91308564D01*
X198424667Y-91237506D01*
X198678317Y-91132441D01*
X198916083Y-90995167D01*
X199133897Y-90828032D01*
X199328032Y-90633897D01*
X199495167Y-90416083D01*
X199632441Y-90178317D01*
X199737506Y-89924667D01*
X199808564Y-89659474D01*
X199844400Y-89387274D01*
X199844400Y-89353469D01*
X202199500Y-89353469D01*
X202239868Y-89556412D01*
X202239870Y-89556420D01*
X202319058Y-89747596D01*
X202434024Y-89919657D01*
X202580342Y-90065975D01*
X202580345Y-90065977D01*
X202752402Y-90180941D01*
X202943580Y-90260130D01*
X203146530Y-90300499D01*
X203146534Y-90300500D01*
X203146535Y-90300500D01*
X203353466Y-90300500D01*
X203353467Y-90300499D01*
X203556420Y-90260130D01*
X203747598Y-90180941D01*
X203919655Y-90065977D01*
X204065977Y-89919655D01*
X204180941Y-89747598D01*
X204260130Y-89556420D01*
X204300499Y-89353469D01*
X211199500Y-89353469D01*
X211239868Y-89556412D01*
X211239870Y-89556420D01*
X211319058Y-89747596D01*
X211434024Y-89919657D01*
X211580342Y-90065975D01*
X211580345Y-90065977D01*
X211752402Y-90180941D01*
X211943580Y-90260130D01*
X212146530Y-90300499D01*
X212146534Y-90300500D01*
X212146535Y-90300500D01*
X212353466Y-90300500D01*
X212353467Y-90300499D01*
X212556420Y-90260130D01*
X212747598Y-90180941D01*
X212919655Y-90065977D01*
X213065977Y-89919655D01*
X213180941Y-89747598D01*
X213260130Y-89556420D01*
X213293776Y-89387267D01*
X215655600Y-89387267D01*
X215655601Y-89387283D01*
X215691434Y-89659463D01*
X215691435Y-89659468D01*
X215691436Y-89659474D01*
X215715049Y-89747598D01*
X215762494Y-89924666D01*
X215762497Y-89924676D01*
X215867556Y-90178310D01*
X215867560Y-90178320D01*
X216004832Y-90416082D01*
X216171966Y-90633895D01*
X216171972Y-90633902D01*
X216366097Y-90828027D01*
X216366104Y-90828033D01*
X216583917Y-90995167D01*
X216821679Y-91132439D01*
X216821680Y-91132439D01*
X216821683Y-91132441D01*
X217075333Y-91237506D01*
X217340526Y-91308564D01*
X217612726Y-91344400D01*
X217612733Y-91344400D01*
X217887267Y-91344400D01*
X217887274Y-91344400D01*
X218159474Y-91308564D01*
X218424667Y-91237506D01*
X218678317Y-91132441D01*
X218916083Y-90995167D01*
X219133897Y-90828032D01*
X219328032Y-90633897D01*
X219495167Y-90416083D01*
X219632441Y-90178317D01*
X219737506Y-89924667D01*
X219808564Y-89659474D01*
X219844400Y-89387274D01*
X219844400Y-89353469D01*
X222199500Y-89353469D01*
X222239868Y-89556412D01*
X222239870Y-89556420D01*
X222319058Y-89747596D01*
X222434024Y-89919657D01*
X222580342Y-90065975D01*
X222580345Y-90065977D01*
X222752402Y-90180941D01*
X222943580Y-90260130D01*
X223146530Y-90300499D01*
X223146534Y-90300500D01*
X223146535Y-90300500D01*
X223353466Y-90300500D01*
X223353467Y-90300499D01*
X223556420Y-90260130D01*
X223747598Y-90180941D01*
X223919655Y-90065977D01*
X224065977Y-89919655D01*
X224180941Y-89747598D01*
X224260130Y-89556420D01*
X224300499Y-89353469D01*
X231199500Y-89353469D01*
X231239868Y-89556412D01*
X231239870Y-89556420D01*
X231319058Y-89747596D01*
X231434024Y-89919657D01*
X231580342Y-90065975D01*
X231580345Y-90065977D01*
X231752402Y-90180941D01*
X231943580Y-90260130D01*
X232146530Y-90300499D01*
X232146534Y-90300500D01*
X232146535Y-90300500D01*
X232353466Y-90300500D01*
X232353467Y-90300499D01*
X232556420Y-90260130D01*
X232747598Y-90180941D01*
X232919655Y-90065977D01*
X233065977Y-89919655D01*
X233180941Y-89747598D01*
X233260130Y-89556420D01*
X233293776Y-89387267D01*
X235655600Y-89387267D01*
X235655601Y-89387283D01*
X235691434Y-89659463D01*
X235691435Y-89659468D01*
X235691436Y-89659474D01*
X235715049Y-89747598D01*
X235762494Y-89924666D01*
X235762497Y-89924676D01*
X235867556Y-90178310D01*
X235867560Y-90178320D01*
X236004832Y-90416082D01*
X236171966Y-90633895D01*
X236171972Y-90633902D01*
X236366097Y-90828027D01*
X236366104Y-90828033D01*
X236583917Y-90995167D01*
X236821679Y-91132439D01*
X236821680Y-91132439D01*
X236821683Y-91132441D01*
X237075333Y-91237506D01*
X237340526Y-91308564D01*
X237612726Y-91344400D01*
X237612733Y-91344400D01*
X237887267Y-91344400D01*
X237887274Y-91344400D01*
X238159474Y-91308564D01*
X238424667Y-91237506D01*
X238678317Y-91132441D01*
X238916083Y-90995167D01*
X239133897Y-90828032D01*
X239328032Y-90633897D01*
X239495167Y-90416083D01*
X239632441Y-90178317D01*
X239737506Y-89924667D01*
X239808564Y-89659474D01*
X239844400Y-89387274D01*
X239844400Y-89353469D01*
X242199500Y-89353469D01*
X242239868Y-89556412D01*
X242239870Y-89556420D01*
X242319058Y-89747596D01*
X242434024Y-89919657D01*
X242580342Y-90065975D01*
X242580345Y-90065977D01*
X242752402Y-90180941D01*
X242943580Y-90260130D01*
X243146530Y-90300499D01*
X243146534Y-90300500D01*
X243146535Y-90300500D01*
X243353466Y-90300500D01*
X243353467Y-90300499D01*
X243556420Y-90260130D01*
X243747598Y-90180941D01*
X243919655Y-90065977D01*
X244065977Y-89919655D01*
X244180941Y-89747598D01*
X244260130Y-89556420D01*
X244300499Y-89353469D01*
X251199500Y-89353469D01*
X251239868Y-89556412D01*
X251239870Y-89556420D01*
X251319058Y-89747596D01*
X251434024Y-89919657D01*
X251580342Y-90065975D01*
X251580345Y-90065977D01*
X251752402Y-90180941D01*
X251943580Y-90260130D01*
X252146530Y-90300499D01*
X252146534Y-90300500D01*
X252146535Y-90300500D01*
X252353466Y-90300500D01*
X252353467Y-90300499D01*
X252556420Y-90260130D01*
X252747598Y-90180941D01*
X252919655Y-90065977D01*
X253065977Y-89919655D01*
X253180941Y-89747598D01*
X253260130Y-89556420D01*
X253293776Y-89387267D01*
X255655600Y-89387267D01*
X255655601Y-89387283D01*
X255691434Y-89659463D01*
X255691435Y-89659468D01*
X255691436Y-89659474D01*
X255715049Y-89747598D01*
X255762494Y-89924666D01*
X255762497Y-89924676D01*
X255867556Y-90178310D01*
X255867560Y-90178320D01*
X256004832Y-90416082D01*
X256171966Y-90633895D01*
X256171972Y-90633902D01*
X256366097Y-90828027D01*
X256366104Y-90828033D01*
X256583917Y-90995167D01*
X256821679Y-91132439D01*
X256821680Y-91132439D01*
X256821683Y-91132441D01*
X257075333Y-91237506D01*
X257340526Y-91308564D01*
X257612726Y-91344400D01*
X257612733Y-91344400D01*
X257887267Y-91344400D01*
X257887274Y-91344400D01*
X258159474Y-91308564D01*
X258424667Y-91237506D01*
X258678317Y-91132441D01*
X258916083Y-90995167D01*
X259133897Y-90828032D01*
X259328032Y-90633897D01*
X259495167Y-90416083D01*
X259632441Y-90178317D01*
X259737506Y-89924667D01*
X259808564Y-89659474D01*
X259844400Y-89387274D01*
X259844400Y-89353469D01*
X262199500Y-89353469D01*
X262239868Y-89556412D01*
X262239870Y-89556420D01*
X262319058Y-89747596D01*
X262434024Y-89919657D01*
X262580342Y-90065975D01*
X262580345Y-90065977D01*
X262752402Y-90180941D01*
X262943580Y-90260130D01*
X263146530Y-90300499D01*
X263146534Y-90300500D01*
X263146535Y-90300500D01*
X263353466Y-90300500D01*
X263353467Y-90300499D01*
X263556420Y-90260130D01*
X263747598Y-90180941D01*
X263919655Y-90065977D01*
X264065977Y-89919655D01*
X264180941Y-89747598D01*
X264260130Y-89556420D01*
X264300500Y-89353465D01*
X264300500Y-89146535D01*
X264260130Y-88943580D01*
X264180941Y-88752402D01*
X264065977Y-88580345D01*
X264065975Y-88580342D01*
X263919657Y-88434024D01*
X263751519Y-88321679D01*
X263747598Y-88319059D01*
X263556420Y-88239870D01*
X263556412Y-88239868D01*
X263353469Y-88199500D01*
X263353465Y-88199500D01*
X263146535Y-88199500D01*
X263146530Y-88199500D01*
X262943587Y-88239868D01*
X262943579Y-88239870D01*
X262752403Y-88319058D01*
X262580342Y-88434024D01*
X262434024Y-88580342D01*
X262319058Y-88752403D01*
X262239870Y-88943579D01*
X262239868Y-88943587D01*
X262199500Y-89146530D01*
X262199500Y-89353469D01*
X259844400Y-89353469D01*
X259844400Y-89112726D01*
X259808564Y-88840526D01*
X259737506Y-88575333D01*
X259632441Y-88321683D01*
X259630925Y-88319058D01*
X259495167Y-88083917D01*
X259328033Y-87866104D01*
X259328027Y-87866097D01*
X259133902Y-87671972D01*
X259133895Y-87671966D01*
X258916082Y-87504832D01*
X258678320Y-87367560D01*
X258678310Y-87367556D01*
X258424676Y-87262497D01*
X258424669Y-87262495D01*
X258424667Y-87262494D01*
X258159474Y-87191436D01*
X258159468Y-87191435D01*
X258159463Y-87191434D01*
X257887283Y-87155601D01*
X257887280Y-87155600D01*
X257887274Y-87155600D01*
X257612726Y-87155600D01*
X257612720Y-87155600D01*
X257612716Y-87155601D01*
X257340536Y-87191434D01*
X257340529Y-87191435D01*
X257340526Y-87191436D01*
X257075333Y-87262494D01*
X257075323Y-87262497D01*
X256821689Y-87367556D01*
X256821679Y-87367560D01*
X256583917Y-87504832D01*
X256366104Y-87671966D01*
X256366097Y-87671972D01*
X256171972Y-87866097D01*
X256171966Y-87866104D01*
X256004832Y-88083917D01*
X255867560Y-88321679D01*
X255867556Y-88321689D01*
X255762497Y-88575323D01*
X255762494Y-88575333D01*
X255715049Y-88752403D01*
X255691437Y-88840523D01*
X255691434Y-88840536D01*
X255655601Y-89112716D01*
X255655600Y-89112732D01*
X255655600Y-89387267D01*
X253293776Y-89387267D01*
X253300500Y-89353465D01*
X253300500Y-89146535D01*
X253260130Y-88943580D01*
X253180941Y-88752402D01*
X253065977Y-88580345D01*
X253065975Y-88580342D01*
X252919657Y-88434024D01*
X252751519Y-88321679D01*
X252747598Y-88319059D01*
X252556420Y-88239870D01*
X252556412Y-88239868D01*
X252353469Y-88199500D01*
X252353465Y-88199500D01*
X252146535Y-88199500D01*
X252146530Y-88199500D01*
X251943587Y-88239868D01*
X251943579Y-88239870D01*
X251752403Y-88319058D01*
X251580342Y-88434024D01*
X251434024Y-88580342D01*
X251319058Y-88752403D01*
X251239870Y-88943579D01*
X251239868Y-88943587D01*
X251199500Y-89146530D01*
X251199500Y-89353469D01*
X244300499Y-89353469D01*
X244300500Y-89353465D01*
X244300500Y-89146535D01*
X244260130Y-88943580D01*
X244180941Y-88752402D01*
X244065977Y-88580345D01*
X244065975Y-88580342D01*
X243919657Y-88434024D01*
X243751519Y-88321679D01*
X243747598Y-88319059D01*
X243556420Y-88239870D01*
X243556412Y-88239868D01*
X243353469Y-88199500D01*
X243353465Y-88199500D01*
X243146535Y-88199500D01*
X243146530Y-88199500D01*
X242943587Y-88239868D01*
X242943579Y-88239870D01*
X242752403Y-88319058D01*
X242580342Y-88434024D01*
X242434024Y-88580342D01*
X242319058Y-88752403D01*
X242239870Y-88943579D01*
X242239868Y-88943587D01*
X242199500Y-89146530D01*
X242199500Y-89353469D01*
X239844400Y-89353469D01*
X239844400Y-89112726D01*
X239808564Y-88840526D01*
X239737506Y-88575333D01*
X239632441Y-88321683D01*
X239630925Y-88319058D01*
X239495167Y-88083917D01*
X239328033Y-87866104D01*
X239328027Y-87866097D01*
X239133902Y-87671972D01*
X239133895Y-87671966D01*
X238916082Y-87504832D01*
X238678320Y-87367560D01*
X238678310Y-87367556D01*
X238424676Y-87262497D01*
X238424669Y-87262495D01*
X238424667Y-87262494D01*
X238159474Y-87191436D01*
X238159468Y-87191435D01*
X238159463Y-87191434D01*
X237887283Y-87155601D01*
X237887280Y-87155600D01*
X237887274Y-87155600D01*
X237612726Y-87155600D01*
X237612720Y-87155600D01*
X237612716Y-87155601D01*
X237340536Y-87191434D01*
X237340529Y-87191435D01*
X237340526Y-87191436D01*
X237075333Y-87262494D01*
X237075323Y-87262497D01*
X236821689Y-87367556D01*
X236821679Y-87367560D01*
X236583917Y-87504832D01*
X236366104Y-87671966D01*
X236366097Y-87671972D01*
X236171972Y-87866097D01*
X236171966Y-87866104D01*
X236004832Y-88083917D01*
X235867560Y-88321679D01*
X235867556Y-88321689D01*
X235762497Y-88575323D01*
X235762494Y-88575333D01*
X235715049Y-88752403D01*
X235691437Y-88840523D01*
X235691434Y-88840536D01*
X235655601Y-89112716D01*
X235655600Y-89112732D01*
X235655600Y-89387267D01*
X233293776Y-89387267D01*
X233300500Y-89353465D01*
X233300500Y-89146535D01*
X233260130Y-88943580D01*
X233180941Y-88752402D01*
X233065977Y-88580345D01*
X233065975Y-88580342D01*
X232919657Y-88434024D01*
X232751519Y-88321679D01*
X232747598Y-88319059D01*
X232556420Y-88239870D01*
X232556412Y-88239868D01*
X232353469Y-88199500D01*
X232353465Y-88199500D01*
X232146535Y-88199500D01*
X232146530Y-88199500D01*
X231943587Y-88239868D01*
X231943579Y-88239870D01*
X231752403Y-88319058D01*
X231580342Y-88434024D01*
X231434024Y-88580342D01*
X231319058Y-88752403D01*
X231239870Y-88943579D01*
X231239868Y-88943587D01*
X231199500Y-89146530D01*
X231199500Y-89353469D01*
X224300499Y-89353469D01*
X224300500Y-89353465D01*
X224300500Y-89146535D01*
X224260130Y-88943580D01*
X224180941Y-88752402D01*
X224065977Y-88580345D01*
X224065975Y-88580342D01*
X223919657Y-88434024D01*
X223751519Y-88321679D01*
X223747598Y-88319059D01*
X223556420Y-88239870D01*
X223556412Y-88239868D01*
X223353469Y-88199500D01*
X223353465Y-88199500D01*
X223146535Y-88199500D01*
X223146530Y-88199500D01*
X222943587Y-88239868D01*
X222943579Y-88239870D01*
X222752403Y-88319058D01*
X222580342Y-88434024D01*
X222434024Y-88580342D01*
X222319058Y-88752403D01*
X222239870Y-88943579D01*
X222239868Y-88943587D01*
X222199500Y-89146530D01*
X222199500Y-89353469D01*
X219844400Y-89353469D01*
X219844400Y-89112726D01*
X219808564Y-88840526D01*
X219737506Y-88575333D01*
X219632441Y-88321683D01*
X219630925Y-88319058D01*
X219495167Y-88083917D01*
X219328033Y-87866104D01*
X219328027Y-87866097D01*
X219133902Y-87671972D01*
X219133895Y-87671966D01*
X218916082Y-87504832D01*
X218678320Y-87367560D01*
X218678310Y-87367556D01*
X218424676Y-87262497D01*
X218424669Y-87262495D01*
X218424667Y-87262494D01*
X218159474Y-87191436D01*
X218159468Y-87191435D01*
X218159463Y-87191434D01*
X217887283Y-87155601D01*
X217887280Y-87155600D01*
X217887274Y-87155600D01*
X217612726Y-87155600D01*
X217612720Y-87155600D01*
X217612716Y-87155601D01*
X217340536Y-87191434D01*
X217340529Y-87191435D01*
X217340526Y-87191436D01*
X217075333Y-87262494D01*
X217075323Y-87262497D01*
X216821689Y-87367556D01*
X216821679Y-87367560D01*
X216583917Y-87504832D01*
X216366104Y-87671966D01*
X216366097Y-87671972D01*
X216171972Y-87866097D01*
X216171966Y-87866104D01*
X216004832Y-88083917D01*
X215867560Y-88321679D01*
X215867556Y-88321689D01*
X215762497Y-88575323D01*
X215762494Y-88575333D01*
X215715049Y-88752403D01*
X215691437Y-88840523D01*
X215691434Y-88840536D01*
X215655601Y-89112716D01*
X215655600Y-89112732D01*
X215655600Y-89387267D01*
X213293776Y-89387267D01*
X213300500Y-89353465D01*
X213300500Y-89146535D01*
X213260130Y-88943580D01*
X213180941Y-88752402D01*
X213065977Y-88580345D01*
X213065975Y-88580342D01*
X212919657Y-88434024D01*
X212751519Y-88321679D01*
X212747598Y-88319059D01*
X212556420Y-88239870D01*
X212556412Y-88239868D01*
X212353469Y-88199500D01*
X212353465Y-88199500D01*
X212146535Y-88199500D01*
X212146530Y-88199500D01*
X211943587Y-88239868D01*
X211943579Y-88239870D01*
X211752403Y-88319058D01*
X211580342Y-88434024D01*
X211434024Y-88580342D01*
X211319058Y-88752403D01*
X211239870Y-88943579D01*
X211239868Y-88943587D01*
X211199500Y-89146530D01*
X211199500Y-89353469D01*
X204300499Y-89353469D01*
X204300500Y-89353465D01*
X204300500Y-89146535D01*
X204260130Y-88943580D01*
X204180941Y-88752402D01*
X204065977Y-88580345D01*
X204065975Y-88580342D01*
X203919657Y-88434024D01*
X203751519Y-88321679D01*
X203747598Y-88319059D01*
X203556420Y-88239870D01*
X203556412Y-88239868D01*
X203353469Y-88199500D01*
X203353465Y-88199500D01*
X203146535Y-88199500D01*
X203146530Y-88199500D01*
X202943587Y-88239868D01*
X202943579Y-88239870D01*
X202752403Y-88319058D01*
X202580342Y-88434024D01*
X202434024Y-88580342D01*
X202319058Y-88752403D01*
X202239870Y-88943579D01*
X202239868Y-88943587D01*
X202199500Y-89146530D01*
X202199500Y-89353469D01*
X199844400Y-89353469D01*
X199844400Y-89112726D01*
X199808564Y-88840526D01*
X199737506Y-88575333D01*
X199632441Y-88321683D01*
X199630925Y-88319058D01*
X199495167Y-88083917D01*
X199328033Y-87866104D01*
X199328027Y-87866097D01*
X199133902Y-87671972D01*
X199133895Y-87671966D01*
X198916082Y-87504832D01*
X198678320Y-87367560D01*
X198678310Y-87367556D01*
X198424676Y-87262497D01*
X198424669Y-87262495D01*
X198424667Y-87262494D01*
X198159474Y-87191436D01*
X198159468Y-87191435D01*
X198159463Y-87191434D01*
X197887283Y-87155601D01*
X197887280Y-87155600D01*
X197887274Y-87155600D01*
X197612726Y-87155600D01*
X197612720Y-87155600D01*
X197612716Y-87155601D01*
X197340536Y-87191434D01*
X197340529Y-87191435D01*
X197340526Y-87191436D01*
X197075333Y-87262494D01*
X197075323Y-87262497D01*
X196821689Y-87367556D01*
X196821679Y-87367560D01*
X196583917Y-87504832D01*
X196366104Y-87671966D01*
X196366097Y-87671972D01*
X196171972Y-87866097D01*
X196171966Y-87866104D01*
X196004832Y-88083917D01*
X195867560Y-88321679D01*
X195867556Y-88321689D01*
X195762497Y-88575323D01*
X195762494Y-88575333D01*
X195715049Y-88752403D01*
X195691437Y-88840523D01*
X195691434Y-88840536D01*
X195655601Y-89112716D01*
X195655600Y-89112732D01*
X195655600Y-89387267D01*
X193293776Y-89387267D01*
X193300500Y-89353465D01*
X193300500Y-89146535D01*
X193260130Y-88943580D01*
X193180941Y-88752402D01*
X193065977Y-88580345D01*
X193065975Y-88580342D01*
X192919657Y-88434024D01*
X192751519Y-88321679D01*
X192747598Y-88319059D01*
X192556420Y-88239870D01*
X192556412Y-88239868D01*
X192353469Y-88199500D01*
X192353465Y-88199500D01*
X192146535Y-88199500D01*
X192146530Y-88199500D01*
X191943587Y-88239868D01*
X191943579Y-88239870D01*
X191752403Y-88319058D01*
X191580342Y-88434024D01*
X191434024Y-88580342D01*
X191319058Y-88752403D01*
X191239870Y-88943579D01*
X191239868Y-88943587D01*
X191199500Y-89146530D01*
X191199500Y-89353469D01*
X188050500Y-89353469D01*
X188050500Y-85090003D01*
X199854435Y-85090003D01*
X199874630Y-85269249D01*
X199874631Y-85269254D01*
X199934211Y-85439523D01*
X200030184Y-85592262D01*
X200157738Y-85719816D01*
X200310478Y-85815789D01*
X200480745Y-85875368D01*
X200480750Y-85875369D01*
X200659996Y-85895565D01*
X200660000Y-85895565D01*
X200660004Y-85895565D01*
X200839249Y-85875369D01*
X200839252Y-85875368D01*
X200839255Y-85875368D01*
X201009522Y-85815789D01*
X201162262Y-85719816D01*
X201162267Y-85719810D01*
X201165097Y-85717555D01*
X201167275Y-85716665D01*
X201168158Y-85716111D01*
X201168255Y-85716265D01*
X201229783Y-85691145D01*
X201242412Y-85690500D01*
X202973331Y-85690500D01*
X202973347Y-85690501D01*
X202980943Y-85690501D01*
X203139054Y-85690501D01*
X203139057Y-85690501D01*
X203291785Y-85649577D01*
X203354272Y-85613500D01*
X203428716Y-85570520D01*
X203540520Y-85458716D01*
X203540520Y-85458714D01*
X203550724Y-85448511D01*
X203550728Y-85448506D01*
X204036230Y-84963003D01*
X219539435Y-84963003D01*
X219559630Y-85142249D01*
X219559631Y-85142254D01*
X219619211Y-85312523D01*
X219711069Y-85458713D01*
X219715184Y-85465262D01*
X219842738Y-85592816D01*
X219995478Y-85688789D01*
X220165745Y-85748368D01*
X220165750Y-85748369D01*
X220344996Y-85768565D01*
X220345000Y-85768565D01*
X220345004Y-85768565D01*
X220524249Y-85748369D01*
X220524252Y-85748368D01*
X220524255Y-85748368D01*
X220694522Y-85688789D01*
X220847262Y-85592816D01*
X220974816Y-85465262D01*
X221070789Y-85312522D01*
X221130368Y-85142255D01*
X221135128Y-85100003D01*
X240794435Y-85100003D01*
X240814630Y-85279249D01*
X240814631Y-85279254D01*
X240874211Y-85449523D01*
X240884101Y-85465262D01*
X240970184Y-85602262D01*
X241097738Y-85729816D01*
X241127265Y-85748369D01*
X241234561Y-85815788D01*
X241250478Y-85825789D01*
X241420745Y-85885368D01*
X241420750Y-85885369D01*
X241599996Y-85905565D01*
X241600000Y-85905565D01*
X241600004Y-85905565D01*
X241779249Y-85885369D01*
X241779252Y-85885368D01*
X241779255Y-85885368D01*
X241949522Y-85825789D01*
X242102262Y-85729816D01*
X242229816Y-85602262D01*
X242325789Y-85449522D01*
X242385368Y-85279255D01*
X242386496Y-85269249D01*
X242402273Y-85129219D01*
X242429339Y-85064805D01*
X242437802Y-85055431D01*
X246906535Y-80586698D01*
X246967856Y-80553215D01*
X246980311Y-80551163D01*
X247067255Y-80541368D01*
X247237522Y-80481789D01*
X247390262Y-80385816D01*
X247517816Y-80258262D01*
X247613789Y-80105522D01*
X247673368Y-79935255D01*
X247673369Y-79935249D01*
X247693565Y-79756003D01*
X247693565Y-79755996D01*
X247673369Y-79576750D01*
X247673368Y-79576745D01*
X247613788Y-79406476D01*
X247517815Y-79253737D01*
X247390262Y-79126184D01*
X247237523Y-79030211D01*
X247067254Y-78970631D01*
X247067249Y-78970630D01*
X246888004Y-78950435D01*
X246887996Y-78950435D01*
X246708750Y-78970630D01*
X246708745Y-78970631D01*
X246538476Y-79030211D01*
X246385737Y-79126184D01*
X246258184Y-79253737D01*
X246162210Y-79406478D01*
X246102630Y-79576750D01*
X246092837Y-79663668D01*
X246065770Y-79728082D01*
X246057298Y-79737465D01*
X241518354Y-84276409D01*
X241457031Y-84309894D01*
X241444561Y-84311948D01*
X241431885Y-84313376D01*
X241420745Y-84314632D01*
X241420744Y-84314632D01*
X241250478Y-84374210D01*
X241097737Y-84470184D01*
X240970184Y-84597737D01*
X240874211Y-84750476D01*
X240814631Y-84920745D01*
X240814630Y-84920750D01*
X240794435Y-85099996D01*
X240794435Y-85100003D01*
X221135128Y-85100003D01*
X221140161Y-85055329D01*
X221167226Y-84990918D01*
X221175690Y-84981543D01*
X225920713Y-80236521D01*
X225920716Y-80236520D01*
X226032520Y-80124716D01*
X226082639Y-80037904D01*
X226111577Y-79987785D01*
X226152501Y-79835057D01*
X226152501Y-79676943D01*
X226152501Y-79669348D01*
X226152500Y-79669330D01*
X226152500Y-77544412D01*
X226172185Y-77477373D01*
X226179555Y-77467097D01*
X226181810Y-77464267D01*
X226181816Y-77464262D01*
X226277789Y-77311522D01*
X226337368Y-77141255D01*
X226337369Y-77141249D01*
X226357565Y-76962003D01*
X226357565Y-76961996D01*
X226337369Y-76782750D01*
X226337368Y-76782745D01*
X226323227Y-76742332D01*
X226277789Y-76612478D01*
X226274652Y-76607486D01*
X226181815Y-76459737D01*
X226054262Y-76332184D01*
X225901523Y-76236211D01*
X225731254Y-76176631D01*
X225731249Y-76176630D01*
X225552004Y-76156435D01*
X225551996Y-76156435D01*
X225372750Y-76176630D01*
X225372745Y-76176631D01*
X225202476Y-76236211D01*
X225049737Y-76332184D01*
X224922184Y-76459737D01*
X224826211Y-76612476D01*
X224766631Y-76782745D01*
X224766630Y-76782750D01*
X224746435Y-76961996D01*
X224746435Y-76962003D01*
X224766630Y-77141249D01*
X224766631Y-77141254D01*
X224826211Y-77311523D01*
X224922185Y-77464263D01*
X224924445Y-77467097D01*
X224925334Y-77469275D01*
X224925889Y-77470158D01*
X224925734Y-77470255D01*
X224950855Y-77531783D01*
X224951500Y-77544412D01*
X224951500Y-79455902D01*
X224931815Y-79522941D01*
X224915181Y-79543583D01*
X220326465Y-84132298D01*
X220265142Y-84165783D01*
X220252668Y-84167837D01*
X220165750Y-84177630D01*
X219995478Y-84237210D01*
X219842737Y-84333184D01*
X219715184Y-84460737D01*
X219619211Y-84613476D01*
X219559631Y-84783745D01*
X219559630Y-84783750D01*
X219539435Y-84962996D01*
X219539435Y-84963003D01*
X204036230Y-84963003D01*
X204037535Y-84961698D01*
X204098856Y-84928215D01*
X204111311Y-84926163D01*
X204198255Y-84916368D01*
X204368522Y-84856789D01*
X204521262Y-84760816D01*
X204648816Y-84633262D01*
X204744789Y-84480522D01*
X204804368Y-84310255D01*
X204805002Y-84304630D01*
X204824565Y-84131003D01*
X204824565Y-84130996D01*
X204804369Y-83951750D01*
X204804368Y-83951745D01*
X204800893Y-83941815D01*
X204744789Y-83781478D01*
X204648816Y-83628738D01*
X204521262Y-83501184D01*
X204505451Y-83491249D01*
X204368523Y-83405211D01*
X204198254Y-83345631D01*
X204198249Y-83345630D01*
X204019004Y-83325435D01*
X204018996Y-83325435D01*
X203839750Y-83345630D01*
X203839745Y-83345631D01*
X203669476Y-83405211D01*
X203516737Y-83501184D01*
X203389184Y-83628737D01*
X203293210Y-83781478D01*
X203233630Y-83951750D01*
X203223837Y-84038668D01*
X203196770Y-84103082D01*
X203188298Y-84112465D01*
X202847584Y-84453181D01*
X202786261Y-84486666D01*
X202759903Y-84489500D01*
X201242412Y-84489500D01*
X201175373Y-84469815D01*
X201165097Y-84462445D01*
X201162263Y-84460185D01*
X201162262Y-84460184D01*
X201105496Y-84424515D01*
X201009523Y-84364211D01*
X200839254Y-84304631D01*
X200839249Y-84304630D01*
X200660004Y-84284435D01*
X200659996Y-84284435D01*
X200480750Y-84304630D01*
X200480745Y-84304631D01*
X200310476Y-84364211D01*
X200157737Y-84460184D01*
X200030184Y-84587737D01*
X199934211Y-84740476D01*
X199874631Y-84910745D01*
X199874630Y-84910750D01*
X199854435Y-85089996D01*
X199854435Y-85090003D01*
X188050500Y-85090003D01*
X188050500Y-75325961D01*
X196149500Y-75325961D01*
X196188910Y-75574785D01*
X196266760Y-75814383D01*
X196381132Y-76038848D01*
X196529201Y-76242649D01*
X196529205Y-76242654D01*
X196707345Y-76420794D01*
X196707350Y-76420798D01*
X196760947Y-76459738D01*
X196911155Y-76568870D01*
X196996737Y-76612476D01*
X197135616Y-76683239D01*
X197135618Y-76683239D01*
X197135621Y-76683241D01*
X197375215Y-76761090D01*
X197624038Y-76800500D01*
X197624039Y-76800500D01*
X197875961Y-76800500D01*
X197875962Y-76800500D01*
X198124785Y-76761090D01*
X198364379Y-76683241D01*
X198588845Y-76568870D01*
X198792656Y-76420793D01*
X198970793Y-76242656D01*
X199000181Y-76202205D01*
X199055509Y-76159540D01*
X199125123Y-76153559D01*
X199186918Y-76186164D01*
X199221277Y-76247002D01*
X199224500Y-76275090D01*
X199224500Y-76547869D01*
X199224501Y-76547876D01*
X199230908Y-76607483D01*
X199281202Y-76742328D01*
X199281206Y-76742335D01*
X199367452Y-76857544D01*
X199367455Y-76857547D01*
X199482664Y-76943793D01*
X199482671Y-76943797D01*
X199617517Y-76994091D01*
X199617516Y-76994091D01*
X199624444Y-76994835D01*
X199677127Y-77000500D01*
X201067902Y-77000499D01*
X201134941Y-77020184D01*
X201155583Y-77036818D01*
X206833818Y-82715053D01*
X206867303Y-82776376D01*
X206862319Y-82846068D01*
X206851131Y-82868706D01*
X206792211Y-82962476D01*
X206732631Y-83132745D01*
X206732630Y-83132750D01*
X206712435Y-83311996D01*
X206712435Y-83312003D01*
X206732630Y-83491249D01*
X206732631Y-83491254D01*
X206792211Y-83661523D01*
X206867583Y-83781476D01*
X206888184Y-83814262D01*
X207015738Y-83941816D01*
X207168478Y-84037789D01*
X207338745Y-84097368D01*
X207338750Y-84097369D01*
X207517996Y-84117565D01*
X207518000Y-84117565D01*
X207518004Y-84117565D01*
X207697249Y-84097369D01*
X207697252Y-84097368D01*
X207697255Y-84097368D01*
X207867522Y-84037789D01*
X208020262Y-83941816D01*
X208147816Y-83814262D01*
X208243789Y-83661522D01*
X208303368Y-83491255D01*
X208319776Y-83345630D01*
X208323565Y-83312003D01*
X208323565Y-83311996D01*
X208303369Y-83132750D01*
X208303368Y-83132745D01*
X208243788Y-82962476D01*
X208184868Y-82868706D01*
X208147816Y-82809738D01*
X208147814Y-82809736D01*
X208147813Y-82809734D01*
X208145550Y-82806896D01*
X208144659Y-82804715D01*
X208144111Y-82803842D01*
X208144264Y-82803745D01*
X208119144Y-82742209D01*
X208118500Y-82729587D01*
X208118500Y-82639060D01*
X208118501Y-82639047D01*
X208118501Y-82470944D01*
X208077576Y-82318214D01*
X208077573Y-82318209D01*
X207998524Y-82181290D01*
X207998518Y-82181282D01*
X205393981Y-79576745D01*
X202755197Y-76937962D01*
X202721713Y-76876640D01*
X202726697Y-76806948D01*
X202743612Y-76775971D01*
X202768796Y-76742331D01*
X202819091Y-76607483D01*
X202825500Y-76547873D01*
X202825500Y-75325961D01*
X216149500Y-75325961D01*
X216188910Y-75574785D01*
X216266760Y-75814383D01*
X216381132Y-76038848D01*
X216529201Y-76242649D01*
X216529205Y-76242654D01*
X216707345Y-76420794D01*
X216707350Y-76420798D01*
X216760947Y-76459738D01*
X216911155Y-76568870D01*
X216996737Y-76612476D01*
X217135616Y-76683239D01*
X217135618Y-76683239D01*
X217135621Y-76683241D01*
X217375215Y-76761090D01*
X217624038Y-76800500D01*
X217624039Y-76800500D01*
X217875961Y-76800500D01*
X217875962Y-76800500D01*
X218124785Y-76761090D01*
X218364379Y-76683241D01*
X218588845Y-76568870D01*
X218792656Y-76420793D01*
X218970793Y-76242656D01*
X219000181Y-76202205D01*
X219055509Y-76159540D01*
X219125123Y-76153559D01*
X219186918Y-76186164D01*
X219221277Y-76247002D01*
X219224500Y-76275090D01*
X219224500Y-76547869D01*
X219224501Y-76547876D01*
X219230908Y-76607483D01*
X219281202Y-76742328D01*
X219281206Y-76742335D01*
X219367452Y-76857544D01*
X219367455Y-76857547D01*
X219482664Y-76943793D01*
X219482671Y-76943797D01*
X219617517Y-76994091D01*
X219617516Y-76994091D01*
X219624444Y-76994835D01*
X219677127Y-77000500D01*
X222372872Y-77000499D01*
X222432483Y-76994091D01*
X222567331Y-76943796D01*
X222682546Y-76857546D01*
X222768796Y-76742331D01*
X222819091Y-76607483D01*
X222825500Y-76547873D01*
X222825499Y-76346772D01*
X222845183Y-76279734D01*
X222897987Y-76233979D01*
X222930479Y-76224976D01*
X222930466Y-76224918D01*
X222931741Y-76224626D01*
X222935620Y-76223552D01*
X222937255Y-76223368D01*
X223107522Y-76163789D01*
X223260262Y-76067816D01*
X223387816Y-75940262D01*
X223483789Y-75787522D01*
X223543368Y-75617255D01*
X223543369Y-75617249D01*
X223563565Y-75438003D01*
X223563565Y-75437996D01*
X223550942Y-75325961D01*
X236149500Y-75325961D01*
X236188910Y-75574785D01*
X236266760Y-75814383D01*
X236381132Y-76038848D01*
X236529201Y-76242649D01*
X236529205Y-76242654D01*
X236707345Y-76420794D01*
X236707350Y-76420798D01*
X236760947Y-76459738D01*
X236911155Y-76568870D01*
X236996737Y-76612476D01*
X237135616Y-76683239D01*
X237135618Y-76683239D01*
X237135621Y-76683241D01*
X237375215Y-76761090D01*
X237624038Y-76800500D01*
X237624039Y-76800500D01*
X237756905Y-76800500D01*
X237823944Y-76820185D01*
X237869699Y-76872989D01*
X237879643Y-76942147D01*
X237861899Y-76990472D01*
X237780211Y-77120476D01*
X237720631Y-77290745D01*
X237720630Y-77290750D01*
X237700435Y-77469996D01*
X237700435Y-77470003D01*
X237720630Y-77649249D01*
X237720631Y-77649254D01*
X237780211Y-77819523D01*
X237792271Y-77838716D01*
X237876184Y-77972262D01*
X238003738Y-78099816D01*
X238156478Y-78195789D01*
X238181430Y-78204520D01*
X238326745Y-78255368D01*
X238326750Y-78255369D01*
X238505996Y-78275565D01*
X238506000Y-78275565D01*
X238506004Y-78275565D01*
X238685249Y-78255369D01*
X238685252Y-78255368D01*
X238685255Y-78255368D01*
X238855522Y-78195789D01*
X239008262Y-78099816D01*
X239135816Y-77972262D01*
X239185600Y-77893028D01*
X239202911Y-77871324D01*
X239245722Y-77828514D01*
X239245729Y-77828504D01*
X240037416Y-77036818D01*
X240098739Y-77003333D01*
X240125097Y-77000499D01*
X242372871Y-77000499D01*
X242372872Y-77000499D01*
X242432483Y-76994091D01*
X242567331Y-76943796D01*
X242682546Y-76857546D01*
X242768796Y-76742331D01*
X242819091Y-76607483D01*
X242825500Y-76547873D01*
X242825500Y-75325961D01*
X256149500Y-75325961D01*
X256188910Y-75574785D01*
X256266760Y-75814383D01*
X256381132Y-76038848D01*
X256529201Y-76242649D01*
X256529205Y-76242654D01*
X256707345Y-76420794D01*
X256707350Y-76420798D01*
X256760947Y-76459738D01*
X256911155Y-76568870D01*
X257135621Y-76683241D01*
X257171137Y-76694781D01*
X257228812Y-76734216D01*
X257256011Y-76798575D01*
X257244097Y-76867421D01*
X257196854Y-76918898D01*
X257146707Y-76935931D01*
X257122747Y-76938631D01*
X257122745Y-76938631D01*
X256952476Y-76998211D01*
X256799737Y-77094184D01*
X256672184Y-77221737D01*
X256576211Y-77374476D01*
X256516631Y-77544745D01*
X256516630Y-77544750D01*
X256496435Y-77723996D01*
X256496435Y-77724003D01*
X256516630Y-77903249D01*
X256516631Y-77903254D01*
X256576211Y-78073523D01*
X256672184Y-78226262D01*
X256799738Y-78353816D01*
X256952478Y-78449789D01*
X257122745Y-78509368D01*
X257122750Y-78509369D01*
X257301996Y-78529565D01*
X257302000Y-78529565D01*
X257302004Y-78529565D01*
X257481249Y-78509369D01*
X257481252Y-78509368D01*
X257481255Y-78509368D01*
X257651522Y-78449789D01*
X257804262Y-78353816D01*
X257804267Y-78353810D01*
X257807097Y-78351555D01*
X257809275Y-78350665D01*
X257810158Y-78350111D01*
X257810255Y-78350265D01*
X257871783Y-78325145D01*
X257884412Y-78324500D01*
X258414331Y-78324500D01*
X258414347Y-78324501D01*
X258421943Y-78324501D01*
X258580054Y-78324501D01*
X258580057Y-78324501D01*
X258732785Y-78283577D01*
X258782904Y-78254639D01*
X258869716Y-78204520D01*
X258981520Y-78092716D01*
X258981520Y-78092714D01*
X258991728Y-78082507D01*
X258991730Y-78082504D01*
X260037416Y-77036818D01*
X260098739Y-77003333D01*
X260125097Y-77000499D01*
X262372871Y-77000499D01*
X262372872Y-77000499D01*
X262432483Y-76994091D01*
X262567331Y-76943796D01*
X262682546Y-76857546D01*
X262768796Y-76742331D01*
X262819091Y-76607483D01*
X262825500Y-76547873D01*
X262825499Y-73852128D01*
X262819091Y-73792517D01*
X262790835Y-73716760D01*
X262768797Y-73657671D01*
X262768793Y-73657664D01*
X262682547Y-73542455D01*
X262682544Y-73542452D01*
X262567335Y-73456206D01*
X262567328Y-73456202D01*
X262432482Y-73405908D01*
X262432483Y-73405908D01*
X262372883Y-73399501D01*
X262372881Y-73399500D01*
X262372873Y-73399500D01*
X262372864Y-73399500D01*
X259677129Y-73399500D01*
X259677123Y-73399501D01*
X259617516Y-73405908D01*
X259482671Y-73456202D01*
X259482664Y-73456206D01*
X259367455Y-73542452D01*
X259367452Y-73542455D01*
X259281206Y-73657664D01*
X259281202Y-73657671D01*
X259230908Y-73792517D01*
X259224501Y-73852116D01*
X259224501Y-73852123D01*
X259224500Y-73852135D01*
X259224500Y-74124908D01*
X259204815Y-74191947D01*
X259152011Y-74237702D01*
X259082853Y-74247646D01*
X259019297Y-74218621D01*
X259000182Y-74197793D01*
X258970798Y-74157350D01*
X258970794Y-74157345D01*
X258792654Y-73979205D01*
X258792649Y-73979201D01*
X258588848Y-73831132D01*
X258588847Y-73831131D01*
X258588845Y-73831130D01*
X258513061Y-73792516D01*
X258364383Y-73716760D01*
X258124785Y-73638910D01*
X257875962Y-73599500D01*
X257624038Y-73599500D01*
X257530071Y-73614383D01*
X257375214Y-73638910D01*
X257135616Y-73716760D01*
X256911151Y-73831132D01*
X256707350Y-73979201D01*
X256707345Y-73979205D01*
X256529205Y-74157345D01*
X256529201Y-74157350D01*
X256381132Y-74361151D01*
X256266760Y-74585616D01*
X256188910Y-74825214D01*
X256149500Y-75074038D01*
X256149500Y-75325961D01*
X242825500Y-75325961D01*
X242825499Y-73852128D01*
X242819091Y-73792517D01*
X242790835Y-73716760D01*
X242768797Y-73657671D01*
X242768793Y-73657664D01*
X242682547Y-73542455D01*
X242682544Y-73542452D01*
X242567335Y-73456206D01*
X242567328Y-73456202D01*
X242432482Y-73405908D01*
X242432483Y-73405908D01*
X242372883Y-73399501D01*
X242372881Y-73399500D01*
X242372873Y-73399500D01*
X242372864Y-73399500D01*
X239677129Y-73399500D01*
X239677123Y-73399501D01*
X239617516Y-73405908D01*
X239482671Y-73456202D01*
X239482664Y-73456206D01*
X239367455Y-73542452D01*
X239367452Y-73542455D01*
X239281206Y-73657664D01*
X239281202Y-73657671D01*
X239230908Y-73792517D01*
X239224501Y-73852116D01*
X239224501Y-73852123D01*
X239224500Y-73852135D01*
X239224500Y-74124908D01*
X239204815Y-74191947D01*
X239152011Y-74237702D01*
X239082853Y-74247646D01*
X239019297Y-74218621D01*
X239000182Y-74197793D01*
X238970798Y-74157350D01*
X238970794Y-74157345D01*
X238792654Y-73979205D01*
X238792649Y-73979201D01*
X238588848Y-73831132D01*
X238588847Y-73831131D01*
X238588845Y-73831130D01*
X238513061Y-73792516D01*
X238364383Y-73716760D01*
X238124785Y-73638910D01*
X237875962Y-73599500D01*
X237624038Y-73599500D01*
X237530071Y-73614383D01*
X237375214Y-73638910D01*
X237135616Y-73716760D01*
X236911151Y-73831132D01*
X236707350Y-73979201D01*
X236707345Y-73979205D01*
X236529205Y-74157345D01*
X236529201Y-74157350D01*
X236381132Y-74361151D01*
X236266760Y-74585616D01*
X236188910Y-74825214D01*
X236149500Y-75074038D01*
X236149500Y-75325961D01*
X223550942Y-75325961D01*
X223543369Y-75258750D01*
X223543368Y-75258745D01*
X223483788Y-75088476D01*
X223387815Y-74935737D01*
X223260262Y-74808184D01*
X223107521Y-74712210D01*
X222937246Y-74652629D01*
X222935608Y-74652445D01*
X222934621Y-74652030D01*
X222930459Y-74651080D01*
X222930625Y-74650351D01*
X222871196Y-74625375D01*
X222831644Y-74567778D01*
X222825499Y-74529226D01*
X222825499Y-73852129D01*
X222825498Y-73852123D01*
X222825497Y-73852116D01*
X222819091Y-73792517D01*
X222790835Y-73716760D01*
X222768797Y-73657671D01*
X222768793Y-73657664D01*
X222682547Y-73542455D01*
X222682544Y-73542452D01*
X222567335Y-73456206D01*
X222567328Y-73456202D01*
X222432482Y-73405908D01*
X222432483Y-73405908D01*
X222372883Y-73399501D01*
X222372881Y-73399500D01*
X222372873Y-73399500D01*
X222372864Y-73399500D01*
X219677129Y-73399500D01*
X219677123Y-73399501D01*
X219617516Y-73405908D01*
X219482671Y-73456202D01*
X219482664Y-73456206D01*
X219367455Y-73542452D01*
X219367452Y-73542455D01*
X219281206Y-73657664D01*
X219281202Y-73657671D01*
X219230908Y-73792517D01*
X219224501Y-73852116D01*
X219224501Y-73852123D01*
X219224500Y-73852135D01*
X219224500Y-74124908D01*
X219204815Y-74191947D01*
X219152011Y-74237702D01*
X219082853Y-74247646D01*
X219019297Y-74218621D01*
X219000182Y-74197793D01*
X218970798Y-74157350D01*
X218970794Y-74157345D01*
X218792654Y-73979205D01*
X218792649Y-73979201D01*
X218588848Y-73831132D01*
X218588847Y-73831131D01*
X218588845Y-73831130D01*
X218513061Y-73792516D01*
X218364383Y-73716760D01*
X218124785Y-73638910D01*
X217875962Y-73599500D01*
X217624038Y-73599500D01*
X217530071Y-73614383D01*
X217375214Y-73638910D01*
X217135616Y-73716760D01*
X216911151Y-73831132D01*
X216707350Y-73979201D01*
X216707345Y-73979205D01*
X216529205Y-74157345D01*
X216529201Y-74157350D01*
X216381132Y-74361151D01*
X216266760Y-74585616D01*
X216188910Y-74825214D01*
X216149500Y-75074038D01*
X216149500Y-75325961D01*
X202825500Y-75325961D01*
X202825499Y-73852128D01*
X202819091Y-73792517D01*
X202790835Y-73716760D01*
X202768797Y-73657671D01*
X202768793Y-73657664D01*
X202682547Y-73542455D01*
X202682544Y-73542452D01*
X202567335Y-73456206D01*
X202567328Y-73456202D01*
X202432482Y-73405908D01*
X202432483Y-73405908D01*
X202372883Y-73399501D01*
X202372881Y-73399500D01*
X202372873Y-73399500D01*
X202372864Y-73399500D01*
X199677129Y-73399500D01*
X199677123Y-73399501D01*
X199617516Y-73405908D01*
X199482671Y-73456202D01*
X199482664Y-73456206D01*
X199367455Y-73542452D01*
X199367452Y-73542455D01*
X199281206Y-73657664D01*
X199281202Y-73657671D01*
X199230908Y-73792517D01*
X199224501Y-73852116D01*
X199224501Y-73852123D01*
X199224500Y-73852135D01*
X199224500Y-74124908D01*
X199204815Y-74191947D01*
X199152011Y-74237702D01*
X199082853Y-74247646D01*
X199019297Y-74218621D01*
X199000182Y-74197793D01*
X198970798Y-74157350D01*
X198970794Y-74157345D01*
X198792654Y-73979205D01*
X198792649Y-73979201D01*
X198588848Y-73831132D01*
X198588847Y-73831131D01*
X198588845Y-73831130D01*
X198513061Y-73792516D01*
X198364383Y-73716760D01*
X198124785Y-73638910D01*
X197875962Y-73599500D01*
X197624038Y-73599500D01*
X197530071Y-73614383D01*
X197375214Y-73638910D01*
X197135616Y-73716760D01*
X196911151Y-73831132D01*
X196707350Y-73979201D01*
X196707345Y-73979205D01*
X196529205Y-74157345D01*
X196529201Y-74157350D01*
X196381132Y-74361151D01*
X196266760Y-74585616D01*
X196188910Y-74825214D01*
X196149500Y-75074038D01*
X196149500Y-75325961D01*
X188050500Y-75325961D01*
X188050500Y-74924000D01*
X188070185Y-74856961D01*
X188122989Y-74811206D01*
X188174500Y-74800000D01*
X189225000Y-74800000D01*
X189225000Y-71200000D01*
X189725000Y-71200000D01*
X189725000Y-74800000D01*
X190822828Y-74800000D01*
X190822844Y-74799999D01*
X190882372Y-74793598D01*
X190882379Y-74793596D01*
X191017086Y-74743354D01*
X191017093Y-74743350D01*
X191132187Y-74657190D01*
X191132190Y-74657187D01*
X191218350Y-74542093D01*
X191218354Y-74542086D01*
X191268596Y-74407379D01*
X191268598Y-74407372D01*
X191274999Y-74347844D01*
X191275000Y-74347827D01*
X191275000Y-74074403D01*
X191294685Y-74007364D01*
X191347489Y-73961609D01*
X191416647Y-73951665D01*
X191480203Y-73980690D01*
X191499319Y-74001518D01*
X191529207Y-74042656D01*
X191707345Y-74220794D01*
X191707350Y-74220798D01*
X191882192Y-74347827D01*
X191911155Y-74368870D01*
X192054184Y-74441747D01*
X192135616Y-74483239D01*
X192135618Y-74483239D01*
X192135621Y-74483241D01*
X192375215Y-74561090D01*
X192624038Y-74600500D01*
X192624039Y-74600500D01*
X192875961Y-74600500D01*
X192875962Y-74600500D01*
X193124785Y-74561090D01*
X193364379Y-74483241D01*
X193588845Y-74368870D01*
X193792656Y-74220793D01*
X193970793Y-74042656D01*
X194118870Y-73838845D01*
X194233241Y-73614379D01*
X194311090Y-73374785D01*
X194330854Y-73250000D01*
X207675000Y-73250000D01*
X207675000Y-74347844D01*
X207681401Y-74407372D01*
X207681403Y-74407379D01*
X207731645Y-74542086D01*
X207731649Y-74542093D01*
X207817809Y-74657187D01*
X207817812Y-74657190D01*
X207932906Y-74743350D01*
X207932913Y-74743354D01*
X208067620Y-74793596D01*
X208067627Y-74793598D01*
X208127155Y-74799999D01*
X208127172Y-74800000D01*
X209225000Y-74800000D01*
X209225000Y-73250000D01*
X207675000Y-73250000D01*
X194330854Y-73250000D01*
X194350500Y-73125962D01*
X194350500Y-72874038D01*
X194330854Y-72750000D01*
X207675000Y-72750000D01*
X209225000Y-72750000D01*
X209225000Y-71200000D01*
X209725000Y-71200000D01*
X209725000Y-74800000D01*
X210822828Y-74800000D01*
X210822844Y-74799999D01*
X210882372Y-74793598D01*
X210882379Y-74793596D01*
X211017086Y-74743354D01*
X211017093Y-74743350D01*
X211132187Y-74657190D01*
X211132190Y-74657187D01*
X211218350Y-74542093D01*
X211218354Y-74542086D01*
X211268596Y-74407379D01*
X211268598Y-74407372D01*
X211274999Y-74347844D01*
X211275000Y-74347827D01*
X211275000Y-74074403D01*
X211294685Y-74007364D01*
X211347489Y-73961609D01*
X211416647Y-73951665D01*
X211480203Y-73980690D01*
X211499319Y-74001518D01*
X211529207Y-74042656D01*
X211707345Y-74220794D01*
X211707350Y-74220798D01*
X211882192Y-74347827D01*
X211911155Y-74368870D01*
X212054184Y-74441747D01*
X212135616Y-74483239D01*
X212135618Y-74483239D01*
X212135621Y-74483241D01*
X212375215Y-74561090D01*
X212624038Y-74600500D01*
X212624039Y-74600500D01*
X212875961Y-74600500D01*
X212875962Y-74600500D01*
X213124785Y-74561090D01*
X213364379Y-74483241D01*
X213588845Y-74368870D01*
X213792656Y-74220793D01*
X213970793Y-74042656D01*
X214118870Y-73838845D01*
X214233241Y-73614379D01*
X214311090Y-73374785D01*
X214330854Y-73250000D01*
X227675000Y-73250000D01*
X227675000Y-74347844D01*
X227681401Y-74407372D01*
X227681403Y-74407379D01*
X227731645Y-74542086D01*
X227731649Y-74542093D01*
X227817809Y-74657187D01*
X227817812Y-74657190D01*
X227932906Y-74743350D01*
X227932913Y-74743354D01*
X228067620Y-74793596D01*
X228067627Y-74793598D01*
X228127155Y-74799999D01*
X228127172Y-74800000D01*
X229225000Y-74800000D01*
X229225000Y-73250000D01*
X227675000Y-73250000D01*
X214330854Y-73250000D01*
X214350500Y-73125962D01*
X214350500Y-72874038D01*
X214330854Y-72750000D01*
X227675000Y-72750000D01*
X229225000Y-72750000D01*
X229225000Y-71200000D01*
X229725000Y-71200000D01*
X229725000Y-74800000D01*
X230822828Y-74800000D01*
X230822844Y-74799999D01*
X230882372Y-74793598D01*
X230882379Y-74793596D01*
X231017086Y-74743354D01*
X231017093Y-74743350D01*
X231132187Y-74657190D01*
X231132190Y-74657187D01*
X231218350Y-74542093D01*
X231218354Y-74542086D01*
X231268596Y-74407379D01*
X231268598Y-74407372D01*
X231274999Y-74347844D01*
X231275000Y-74347827D01*
X231275000Y-74074403D01*
X231294685Y-74007364D01*
X231347489Y-73961609D01*
X231416647Y-73951665D01*
X231480203Y-73980690D01*
X231499319Y-74001518D01*
X231529207Y-74042656D01*
X231707345Y-74220794D01*
X231707350Y-74220798D01*
X231882192Y-74347827D01*
X231911155Y-74368870D01*
X232054184Y-74441747D01*
X232135616Y-74483239D01*
X232135618Y-74483239D01*
X232135621Y-74483241D01*
X232375215Y-74561090D01*
X232624038Y-74600500D01*
X232624039Y-74600500D01*
X232875961Y-74600500D01*
X232875962Y-74600500D01*
X233124785Y-74561090D01*
X233364379Y-74483241D01*
X233588845Y-74368870D01*
X233792656Y-74220793D01*
X233970793Y-74042656D01*
X234118870Y-73838845D01*
X234233241Y-73614379D01*
X234311090Y-73374785D01*
X234330854Y-73250000D01*
X247675000Y-73250000D01*
X247675000Y-74347844D01*
X247681401Y-74407372D01*
X247681403Y-74407379D01*
X247731645Y-74542086D01*
X247731649Y-74542093D01*
X247817809Y-74657187D01*
X247817812Y-74657190D01*
X247932906Y-74743350D01*
X247932913Y-74743354D01*
X248067620Y-74793596D01*
X248067627Y-74793598D01*
X248127155Y-74799999D01*
X248127172Y-74800000D01*
X249225000Y-74800000D01*
X249225000Y-73250000D01*
X247675000Y-73250000D01*
X234330854Y-73250000D01*
X234350500Y-73125962D01*
X234350500Y-72874038D01*
X234330854Y-72750000D01*
X247675000Y-72750000D01*
X249225000Y-72750000D01*
X249225000Y-71200000D01*
X249725000Y-71200000D01*
X249725000Y-74800000D01*
X250822828Y-74800000D01*
X250822844Y-74799999D01*
X250882372Y-74793598D01*
X250882379Y-74793596D01*
X251017086Y-74743354D01*
X251017093Y-74743350D01*
X251132187Y-74657190D01*
X251132190Y-74657187D01*
X251218350Y-74542093D01*
X251218354Y-74542086D01*
X251268596Y-74407379D01*
X251268598Y-74407372D01*
X251274999Y-74347844D01*
X251275000Y-74347827D01*
X251275000Y-74074403D01*
X251294685Y-74007364D01*
X251347489Y-73961609D01*
X251416647Y-73951665D01*
X251480203Y-73980690D01*
X251499319Y-74001518D01*
X251529207Y-74042656D01*
X251707345Y-74220794D01*
X251707350Y-74220798D01*
X251882192Y-74347827D01*
X251911155Y-74368870D01*
X252054184Y-74441747D01*
X252135616Y-74483239D01*
X252135618Y-74483239D01*
X252135621Y-74483241D01*
X252375215Y-74561090D01*
X252624038Y-74600500D01*
X252624039Y-74600500D01*
X252875961Y-74600500D01*
X252875962Y-74600500D01*
X253124785Y-74561090D01*
X253364379Y-74483241D01*
X253588845Y-74368870D01*
X253792656Y-74220793D01*
X253970793Y-74042656D01*
X254118870Y-73838845D01*
X254233241Y-73614379D01*
X254311090Y-73374785D01*
X254350500Y-73125962D01*
X254350500Y-72874038D01*
X254311090Y-72625215D01*
X254233241Y-72385621D01*
X254233239Y-72385618D01*
X254233239Y-72385616D01*
X254191747Y-72304184D01*
X254118870Y-72161155D01*
X254099952Y-72135117D01*
X253970798Y-71957350D01*
X253970794Y-71957345D01*
X253792654Y-71779205D01*
X253792649Y-71779201D01*
X253588848Y-71631132D01*
X253588847Y-71631131D01*
X253588845Y-71631130D01*
X253513265Y-71592620D01*
X253364383Y-71516760D01*
X253124785Y-71438910D01*
X252875962Y-71399500D01*
X252624038Y-71399500D01*
X252499626Y-71419205D01*
X252375214Y-71438910D01*
X252135616Y-71516760D01*
X251911151Y-71631132D01*
X251707350Y-71779201D01*
X251707345Y-71779205D01*
X251529205Y-71957345D01*
X251499318Y-71998482D01*
X251443988Y-72041147D01*
X251374374Y-72047126D01*
X251312579Y-72014520D01*
X251278222Y-71953681D01*
X251275000Y-71925596D01*
X251275000Y-71652172D01*
X251274999Y-71652155D01*
X251268598Y-71592627D01*
X251268596Y-71592620D01*
X251218354Y-71457913D01*
X251218350Y-71457906D01*
X251132190Y-71342812D01*
X251132187Y-71342809D01*
X251017093Y-71256649D01*
X251017086Y-71256645D01*
X250882379Y-71206403D01*
X250882372Y-71206401D01*
X250822844Y-71200000D01*
X249725000Y-71200000D01*
X249225000Y-71200000D01*
X248127155Y-71200000D01*
X248067627Y-71206401D01*
X248067620Y-71206403D01*
X247932913Y-71256645D01*
X247932906Y-71256649D01*
X247817812Y-71342809D01*
X247817809Y-71342812D01*
X247731649Y-71457906D01*
X247731645Y-71457913D01*
X247681403Y-71592620D01*
X247681401Y-71592627D01*
X247675000Y-71652155D01*
X247675000Y-72750000D01*
X234330854Y-72750000D01*
X234311090Y-72625215D01*
X234233241Y-72385621D01*
X234233239Y-72385618D01*
X234233239Y-72385616D01*
X234191747Y-72304184D01*
X234118870Y-72161155D01*
X234099952Y-72135117D01*
X233970798Y-71957350D01*
X233970794Y-71957345D01*
X233792654Y-71779205D01*
X233792649Y-71779201D01*
X233588848Y-71631132D01*
X233588847Y-71631131D01*
X233588845Y-71631130D01*
X233513265Y-71592620D01*
X233364383Y-71516760D01*
X233124785Y-71438910D01*
X232875962Y-71399500D01*
X232624038Y-71399500D01*
X232499626Y-71419205D01*
X232375214Y-71438910D01*
X232135616Y-71516760D01*
X231911151Y-71631132D01*
X231707350Y-71779201D01*
X231707345Y-71779205D01*
X231529205Y-71957345D01*
X231499318Y-71998482D01*
X231443988Y-72041147D01*
X231374374Y-72047126D01*
X231312579Y-72014520D01*
X231278222Y-71953681D01*
X231275000Y-71925596D01*
X231275000Y-71652172D01*
X231274999Y-71652155D01*
X231268598Y-71592627D01*
X231268596Y-71592620D01*
X231218354Y-71457913D01*
X231218350Y-71457906D01*
X231132190Y-71342812D01*
X231132187Y-71342809D01*
X231017093Y-71256649D01*
X231017086Y-71256645D01*
X230882379Y-71206403D01*
X230882372Y-71206401D01*
X230822844Y-71200000D01*
X229725000Y-71200000D01*
X229225000Y-71200000D01*
X228127155Y-71200000D01*
X228067627Y-71206401D01*
X228067620Y-71206403D01*
X227932913Y-71256645D01*
X227932906Y-71256649D01*
X227817812Y-71342809D01*
X227817809Y-71342812D01*
X227731649Y-71457906D01*
X227731645Y-71457913D01*
X227681403Y-71592620D01*
X227681401Y-71592627D01*
X227675000Y-71652155D01*
X227675000Y-72750000D01*
X214330854Y-72750000D01*
X214311090Y-72625215D01*
X214233241Y-72385621D01*
X214233239Y-72385618D01*
X214233239Y-72385616D01*
X214191747Y-72304184D01*
X214118870Y-72161155D01*
X214099952Y-72135117D01*
X213970798Y-71957350D01*
X213970794Y-71957345D01*
X213792654Y-71779205D01*
X213792649Y-71779201D01*
X213588848Y-71631132D01*
X213588847Y-71631131D01*
X213588845Y-71631130D01*
X213513265Y-71592620D01*
X213364383Y-71516760D01*
X213124785Y-71438910D01*
X212875962Y-71399500D01*
X212624038Y-71399500D01*
X212499626Y-71419205D01*
X212375214Y-71438910D01*
X212135616Y-71516760D01*
X211911151Y-71631132D01*
X211707350Y-71779201D01*
X211707345Y-71779205D01*
X211529205Y-71957345D01*
X211499318Y-71998482D01*
X211443988Y-72041147D01*
X211374374Y-72047126D01*
X211312579Y-72014520D01*
X211278222Y-71953681D01*
X211275000Y-71925596D01*
X211275000Y-71652172D01*
X211274999Y-71652155D01*
X211268598Y-71592627D01*
X211268596Y-71592620D01*
X211218354Y-71457913D01*
X211218350Y-71457906D01*
X211132190Y-71342812D01*
X211132187Y-71342809D01*
X211017093Y-71256649D01*
X211017086Y-71256645D01*
X210882379Y-71206403D01*
X210882372Y-71206401D01*
X210822844Y-71200000D01*
X209725000Y-71200000D01*
X209225000Y-71200000D01*
X208127155Y-71200000D01*
X208067627Y-71206401D01*
X208067620Y-71206403D01*
X207932913Y-71256645D01*
X207932906Y-71256649D01*
X207817812Y-71342809D01*
X207817809Y-71342812D01*
X207731649Y-71457906D01*
X207731645Y-71457913D01*
X207681403Y-71592620D01*
X207681401Y-71592627D01*
X207675000Y-71652155D01*
X207675000Y-72750000D01*
X194330854Y-72750000D01*
X194311090Y-72625215D01*
X194233241Y-72385621D01*
X194233239Y-72385618D01*
X194233239Y-72385616D01*
X194191747Y-72304184D01*
X194118870Y-72161155D01*
X194099952Y-72135117D01*
X193970798Y-71957350D01*
X193970794Y-71957345D01*
X193792654Y-71779205D01*
X193792649Y-71779201D01*
X193588848Y-71631132D01*
X193588847Y-71631131D01*
X193588845Y-71631130D01*
X193513265Y-71592620D01*
X193364383Y-71516760D01*
X193124785Y-71438910D01*
X192875962Y-71399500D01*
X192624038Y-71399500D01*
X192499626Y-71419205D01*
X192375214Y-71438910D01*
X192135616Y-71516760D01*
X191911151Y-71631132D01*
X191707350Y-71779201D01*
X191707345Y-71779205D01*
X191529205Y-71957345D01*
X191499318Y-71998482D01*
X191443988Y-72041147D01*
X191374374Y-72047126D01*
X191312579Y-72014520D01*
X191278222Y-71953681D01*
X191275000Y-71925596D01*
X191275000Y-71652172D01*
X191274999Y-71652155D01*
X191268598Y-71592627D01*
X191268596Y-71592620D01*
X191218354Y-71457913D01*
X191218350Y-71457906D01*
X191132190Y-71342812D01*
X191132187Y-71342809D01*
X191017093Y-71256649D01*
X191017086Y-71256645D01*
X190882379Y-71206403D01*
X190882372Y-71206401D01*
X190822844Y-71200000D01*
X189725000Y-71200000D01*
X189225000Y-71200000D01*
X188174500Y-71200000D01*
X188107461Y-71180315D01*
X188061706Y-71127511D01*
X188050500Y-71076000D01*
X188050500Y-69353469D01*
X191199500Y-69353469D01*
X191239868Y-69556412D01*
X191239870Y-69556420D01*
X191319058Y-69747596D01*
X191434024Y-69919657D01*
X191580342Y-70065975D01*
X191580345Y-70065977D01*
X191752402Y-70180941D01*
X191943580Y-70260130D01*
X192146530Y-70300499D01*
X192146534Y-70300500D01*
X192146535Y-70300500D01*
X192353466Y-70300500D01*
X192353467Y-70300499D01*
X192556420Y-70260130D01*
X192747598Y-70180941D01*
X192919655Y-70065977D01*
X193065977Y-69919655D01*
X193180941Y-69747598D01*
X193260130Y-69556420D01*
X193293776Y-69387267D01*
X195655600Y-69387267D01*
X195655601Y-69387283D01*
X195691434Y-69659463D01*
X195691435Y-69659468D01*
X195691436Y-69659474D01*
X195715049Y-69747598D01*
X195762494Y-69924666D01*
X195762497Y-69924676D01*
X195867556Y-70178310D01*
X195867560Y-70178320D01*
X196004832Y-70416082D01*
X196171966Y-70633895D01*
X196171972Y-70633902D01*
X196366097Y-70828027D01*
X196366104Y-70828033D01*
X196583917Y-70995167D01*
X196821679Y-71132439D01*
X196821680Y-71132439D01*
X196821683Y-71132441D01*
X197075333Y-71237506D01*
X197340526Y-71308564D01*
X197612726Y-71344400D01*
X197612733Y-71344400D01*
X197887267Y-71344400D01*
X197887274Y-71344400D01*
X198159474Y-71308564D01*
X198424667Y-71237506D01*
X198678317Y-71132441D01*
X198916083Y-70995167D01*
X199133897Y-70828032D01*
X199328032Y-70633897D01*
X199495167Y-70416083D01*
X199632441Y-70178317D01*
X199737506Y-69924667D01*
X199808564Y-69659474D01*
X199844400Y-69387274D01*
X199844400Y-69353469D01*
X202199500Y-69353469D01*
X202239868Y-69556412D01*
X202239870Y-69556420D01*
X202319058Y-69747596D01*
X202434024Y-69919657D01*
X202580342Y-70065975D01*
X202580345Y-70065977D01*
X202752402Y-70180941D01*
X202943580Y-70260130D01*
X203146530Y-70300499D01*
X203146534Y-70300500D01*
X203146535Y-70300500D01*
X203353466Y-70300500D01*
X203353467Y-70300499D01*
X203556420Y-70260130D01*
X203747598Y-70180941D01*
X203919655Y-70065977D01*
X204065977Y-69919655D01*
X204180941Y-69747598D01*
X204260130Y-69556420D01*
X204300499Y-69353469D01*
X211199500Y-69353469D01*
X211239868Y-69556412D01*
X211239870Y-69556420D01*
X211319058Y-69747596D01*
X211434024Y-69919657D01*
X211580342Y-70065975D01*
X211580345Y-70065977D01*
X211752402Y-70180941D01*
X211943580Y-70260130D01*
X212146530Y-70300499D01*
X212146534Y-70300500D01*
X212146535Y-70300500D01*
X212353466Y-70300500D01*
X212353467Y-70300499D01*
X212556420Y-70260130D01*
X212747598Y-70180941D01*
X212919655Y-70065977D01*
X213065977Y-69919655D01*
X213180941Y-69747598D01*
X213260130Y-69556420D01*
X213293776Y-69387267D01*
X215655600Y-69387267D01*
X215655601Y-69387283D01*
X215691434Y-69659463D01*
X215691435Y-69659468D01*
X215691436Y-69659474D01*
X215715049Y-69747598D01*
X215762494Y-69924666D01*
X215762497Y-69924676D01*
X215867556Y-70178310D01*
X215867560Y-70178320D01*
X216004832Y-70416082D01*
X216171966Y-70633895D01*
X216171972Y-70633902D01*
X216366097Y-70828027D01*
X216366104Y-70828033D01*
X216583917Y-70995167D01*
X216821679Y-71132439D01*
X216821680Y-71132439D01*
X216821683Y-71132441D01*
X217075333Y-71237506D01*
X217340526Y-71308564D01*
X217612726Y-71344400D01*
X217612733Y-71344400D01*
X217887267Y-71344400D01*
X217887274Y-71344400D01*
X218159474Y-71308564D01*
X218424667Y-71237506D01*
X218678317Y-71132441D01*
X218916083Y-70995167D01*
X219133897Y-70828032D01*
X219328032Y-70633897D01*
X219495167Y-70416083D01*
X219632441Y-70178317D01*
X219737506Y-69924667D01*
X219808564Y-69659474D01*
X219844400Y-69387274D01*
X219844400Y-69353469D01*
X222199500Y-69353469D01*
X222239868Y-69556412D01*
X222239870Y-69556420D01*
X222319058Y-69747596D01*
X222434024Y-69919657D01*
X222580342Y-70065975D01*
X222580345Y-70065977D01*
X222752402Y-70180941D01*
X222943580Y-70260130D01*
X223146530Y-70300499D01*
X223146534Y-70300500D01*
X223146535Y-70300500D01*
X223353466Y-70300500D01*
X223353467Y-70300499D01*
X223556420Y-70260130D01*
X223747598Y-70180941D01*
X223919655Y-70065977D01*
X224065977Y-69919655D01*
X224180941Y-69747598D01*
X224260130Y-69556420D01*
X224300499Y-69353469D01*
X231199500Y-69353469D01*
X231239868Y-69556412D01*
X231239870Y-69556420D01*
X231319058Y-69747596D01*
X231434024Y-69919657D01*
X231580342Y-70065975D01*
X231580345Y-70065977D01*
X231752402Y-70180941D01*
X231943580Y-70260130D01*
X232146530Y-70300499D01*
X232146534Y-70300500D01*
X232146535Y-70300500D01*
X232353466Y-70300500D01*
X232353467Y-70300499D01*
X232556420Y-70260130D01*
X232747598Y-70180941D01*
X232919655Y-70065977D01*
X233065977Y-69919655D01*
X233180941Y-69747598D01*
X233260130Y-69556420D01*
X233293776Y-69387267D01*
X235655600Y-69387267D01*
X235655601Y-69387283D01*
X235691434Y-69659463D01*
X235691435Y-69659468D01*
X235691436Y-69659474D01*
X235715049Y-69747598D01*
X235762494Y-69924666D01*
X235762497Y-69924676D01*
X235867556Y-70178310D01*
X235867560Y-70178320D01*
X236004832Y-70416082D01*
X236171966Y-70633895D01*
X236171972Y-70633902D01*
X236366097Y-70828027D01*
X236366104Y-70828033D01*
X236583917Y-70995167D01*
X236821679Y-71132439D01*
X236821680Y-71132439D01*
X236821683Y-71132441D01*
X237075333Y-71237506D01*
X237340526Y-71308564D01*
X237612726Y-71344400D01*
X237612733Y-71344400D01*
X237887267Y-71344400D01*
X237887274Y-71344400D01*
X238159474Y-71308564D01*
X238424667Y-71237506D01*
X238678317Y-71132441D01*
X238916083Y-70995167D01*
X239133897Y-70828032D01*
X239328032Y-70633897D01*
X239495167Y-70416083D01*
X239632441Y-70178317D01*
X239737506Y-69924667D01*
X239808564Y-69659474D01*
X239844400Y-69387274D01*
X239844400Y-69353469D01*
X242199500Y-69353469D01*
X242239868Y-69556412D01*
X242239870Y-69556420D01*
X242319058Y-69747596D01*
X242434024Y-69919657D01*
X242580342Y-70065975D01*
X242580345Y-70065977D01*
X242752402Y-70180941D01*
X242943580Y-70260130D01*
X243146530Y-70300499D01*
X243146534Y-70300500D01*
X243146535Y-70300500D01*
X243353466Y-70300500D01*
X243353467Y-70300499D01*
X243556420Y-70260130D01*
X243747598Y-70180941D01*
X243919655Y-70065977D01*
X244065977Y-69919655D01*
X244180941Y-69747598D01*
X244260130Y-69556420D01*
X244300499Y-69353469D01*
X251199500Y-69353469D01*
X251239868Y-69556412D01*
X251239870Y-69556420D01*
X251319058Y-69747596D01*
X251434024Y-69919657D01*
X251580342Y-70065975D01*
X251580345Y-70065977D01*
X251752402Y-70180941D01*
X251943580Y-70260130D01*
X252146530Y-70300499D01*
X252146534Y-70300500D01*
X252146535Y-70300500D01*
X252353466Y-70300500D01*
X252353467Y-70300499D01*
X252556420Y-70260130D01*
X252747598Y-70180941D01*
X252919655Y-70065977D01*
X253065977Y-69919655D01*
X253180941Y-69747598D01*
X253260130Y-69556420D01*
X253293776Y-69387267D01*
X255655600Y-69387267D01*
X255655601Y-69387283D01*
X255691434Y-69659463D01*
X255691435Y-69659468D01*
X255691436Y-69659474D01*
X255715049Y-69747598D01*
X255762494Y-69924666D01*
X255762497Y-69924676D01*
X255867556Y-70178310D01*
X255867560Y-70178320D01*
X256004832Y-70416082D01*
X256171966Y-70633895D01*
X256171972Y-70633902D01*
X256366097Y-70828027D01*
X256366104Y-70828033D01*
X256583917Y-70995167D01*
X256821679Y-71132439D01*
X256821680Y-71132439D01*
X256821683Y-71132441D01*
X257075333Y-71237506D01*
X257340526Y-71308564D01*
X257612726Y-71344400D01*
X257612733Y-71344400D01*
X257887267Y-71344400D01*
X257887274Y-71344400D01*
X258159474Y-71308564D01*
X258424667Y-71237506D01*
X258678317Y-71132441D01*
X258916083Y-70995167D01*
X259133897Y-70828032D01*
X259328032Y-70633897D01*
X259495167Y-70416083D01*
X259632441Y-70178317D01*
X259737506Y-69924667D01*
X259808564Y-69659474D01*
X259844400Y-69387274D01*
X259844400Y-69353469D01*
X262199500Y-69353469D01*
X262239868Y-69556412D01*
X262239870Y-69556420D01*
X262319058Y-69747596D01*
X262434024Y-69919657D01*
X262580342Y-70065975D01*
X262580345Y-70065977D01*
X262752402Y-70180941D01*
X262943580Y-70260130D01*
X263146530Y-70300499D01*
X263146534Y-70300500D01*
X263146535Y-70300500D01*
X263353466Y-70300500D01*
X263353467Y-70300499D01*
X263556420Y-70260130D01*
X263747598Y-70180941D01*
X263919655Y-70065977D01*
X264065977Y-69919655D01*
X264180941Y-69747598D01*
X264260130Y-69556420D01*
X264300500Y-69353465D01*
X264300500Y-69146535D01*
X264260130Y-68943580D01*
X264180941Y-68752402D01*
X264065977Y-68580345D01*
X264065975Y-68580342D01*
X263919657Y-68434024D01*
X263751519Y-68321679D01*
X263747598Y-68319059D01*
X263556420Y-68239870D01*
X263556412Y-68239868D01*
X263353469Y-68199500D01*
X263353465Y-68199500D01*
X263146535Y-68199500D01*
X263146530Y-68199500D01*
X262943587Y-68239868D01*
X262943579Y-68239870D01*
X262752403Y-68319058D01*
X262580342Y-68434024D01*
X262434024Y-68580342D01*
X262319058Y-68752403D01*
X262239870Y-68943579D01*
X262239868Y-68943587D01*
X262199500Y-69146530D01*
X262199500Y-69353469D01*
X259844400Y-69353469D01*
X259844400Y-69112726D01*
X259808564Y-68840526D01*
X259737506Y-68575333D01*
X259632441Y-68321683D01*
X259630925Y-68319058D01*
X259495167Y-68083917D01*
X259328033Y-67866104D01*
X259328027Y-67866097D01*
X259133902Y-67671972D01*
X259133895Y-67671966D01*
X258916082Y-67504832D01*
X258678320Y-67367560D01*
X258678310Y-67367556D01*
X258424676Y-67262497D01*
X258424669Y-67262495D01*
X258424667Y-67262494D01*
X258159474Y-67191436D01*
X258159468Y-67191435D01*
X258159463Y-67191434D01*
X257887283Y-67155601D01*
X257887280Y-67155600D01*
X257887274Y-67155600D01*
X257612726Y-67155600D01*
X257612720Y-67155600D01*
X257612716Y-67155601D01*
X257340536Y-67191434D01*
X257340529Y-67191435D01*
X257340526Y-67191436D01*
X257075333Y-67262494D01*
X257075323Y-67262497D01*
X256821689Y-67367556D01*
X256821679Y-67367560D01*
X256583917Y-67504832D01*
X256366104Y-67671966D01*
X256366097Y-67671972D01*
X256171972Y-67866097D01*
X256171966Y-67866104D01*
X256004832Y-68083917D01*
X255867560Y-68321679D01*
X255867556Y-68321689D01*
X255762497Y-68575323D01*
X255762494Y-68575333D01*
X255715049Y-68752403D01*
X255691437Y-68840523D01*
X255691434Y-68840536D01*
X255655601Y-69112716D01*
X255655600Y-69112732D01*
X255655600Y-69387267D01*
X253293776Y-69387267D01*
X253300500Y-69353465D01*
X253300500Y-69146535D01*
X253260130Y-68943580D01*
X253180941Y-68752402D01*
X253065977Y-68580345D01*
X253065975Y-68580342D01*
X252919657Y-68434024D01*
X252751519Y-68321679D01*
X252747598Y-68319059D01*
X252556420Y-68239870D01*
X252556412Y-68239868D01*
X252353469Y-68199500D01*
X252353465Y-68199500D01*
X252146535Y-68199500D01*
X252146530Y-68199500D01*
X251943587Y-68239868D01*
X251943579Y-68239870D01*
X251752403Y-68319058D01*
X251580342Y-68434024D01*
X251434024Y-68580342D01*
X251319058Y-68752403D01*
X251239870Y-68943579D01*
X251239868Y-68943587D01*
X251199500Y-69146530D01*
X251199500Y-69353469D01*
X244300499Y-69353469D01*
X244300500Y-69353465D01*
X244300500Y-69146535D01*
X244260130Y-68943580D01*
X244180941Y-68752402D01*
X244065977Y-68580345D01*
X244065975Y-68580342D01*
X243919657Y-68434024D01*
X243751519Y-68321679D01*
X243747598Y-68319059D01*
X243556420Y-68239870D01*
X243556412Y-68239868D01*
X243353469Y-68199500D01*
X243353465Y-68199500D01*
X243146535Y-68199500D01*
X243146530Y-68199500D01*
X242943587Y-68239868D01*
X242943579Y-68239870D01*
X242752403Y-68319058D01*
X242580342Y-68434024D01*
X242434024Y-68580342D01*
X242319058Y-68752403D01*
X242239870Y-68943579D01*
X242239868Y-68943587D01*
X242199500Y-69146530D01*
X242199500Y-69353469D01*
X239844400Y-69353469D01*
X239844400Y-69112726D01*
X239808564Y-68840526D01*
X239737506Y-68575333D01*
X239632441Y-68321683D01*
X239630925Y-68319058D01*
X239495167Y-68083917D01*
X239328033Y-67866104D01*
X239328027Y-67866097D01*
X239133902Y-67671972D01*
X239133895Y-67671966D01*
X238916082Y-67504832D01*
X238678320Y-67367560D01*
X238678310Y-67367556D01*
X238424676Y-67262497D01*
X238424669Y-67262495D01*
X238424667Y-67262494D01*
X238159474Y-67191436D01*
X238159468Y-67191435D01*
X238159463Y-67191434D01*
X237887283Y-67155601D01*
X237887280Y-67155600D01*
X237887274Y-67155600D01*
X237612726Y-67155600D01*
X237612720Y-67155600D01*
X237612716Y-67155601D01*
X237340536Y-67191434D01*
X237340529Y-67191435D01*
X237340526Y-67191436D01*
X237075333Y-67262494D01*
X237075323Y-67262497D01*
X236821689Y-67367556D01*
X236821679Y-67367560D01*
X236583917Y-67504832D01*
X236366104Y-67671966D01*
X236366097Y-67671972D01*
X236171972Y-67866097D01*
X236171966Y-67866104D01*
X236004832Y-68083917D01*
X235867560Y-68321679D01*
X235867556Y-68321689D01*
X235762497Y-68575323D01*
X235762494Y-68575333D01*
X235715049Y-68752403D01*
X235691437Y-68840523D01*
X235691434Y-68840536D01*
X235655601Y-69112716D01*
X235655600Y-69112732D01*
X235655600Y-69387267D01*
X233293776Y-69387267D01*
X233300500Y-69353465D01*
X233300500Y-69146535D01*
X233260130Y-68943580D01*
X233180941Y-68752402D01*
X233065977Y-68580345D01*
X233065975Y-68580342D01*
X232919657Y-68434024D01*
X232751519Y-68321679D01*
X232747598Y-68319059D01*
X232556420Y-68239870D01*
X232556412Y-68239868D01*
X232353469Y-68199500D01*
X232353465Y-68199500D01*
X232146535Y-68199500D01*
X232146530Y-68199500D01*
X231943587Y-68239868D01*
X231943579Y-68239870D01*
X231752403Y-68319058D01*
X231580342Y-68434024D01*
X231434024Y-68580342D01*
X231319058Y-68752403D01*
X231239870Y-68943579D01*
X231239868Y-68943587D01*
X231199500Y-69146530D01*
X231199500Y-69353469D01*
X224300499Y-69353469D01*
X224300500Y-69353465D01*
X224300500Y-69146535D01*
X224260130Y-68943580D01*
X224180941Y-68752402D01*
X224065977Y-68580345D01*
X224065975Y-68580342D01*
X223919657Y-68434024D01*
X223751519Y-68321679D01*
X223747598Y-68319059D01*
X223556420Y-68239870D01*
X223556412Y-68239868D01*
X223353469Y-68199500D01*
X223353465Y-68199500D01*
X223146535Y-68199500D01*
X223146530Y-68199500D01*
X222943587Y-68239868D01*
X222943579Y-68239870D01*
X222752403Y-68319058D01*
X222580342Y-68434024D01*
X222434024Y-68580342D01*
X222319058Y-68752403D01*
X222239870Y-68943579D01*
X222239868Y-68943587D01*
X222199500Y-69146530D01*
X222199500Y-69353469D01*
X219844400Y-69353469D01*
X219844400Y-69112726D01*
X219808564Y-68840526D01*
X219737506Y-68575333D01*
X219632441Y-68321683D01*
X219630925Y-68319058D01*
X219495167Y-68083917D01*
X219328033Y-67866104D01*
X219328027Y-67866097D01*
X219133902Y-67671972D01*
X219133895Y-67671966D01*
X218916082Y-67504832D01*
X218678320Y-67367560D01*
X218678310Y-67367556D01*
X218424676Y-67262497D01*
X218424669Y-67262495D01*
X218424667Y-67262494D01*
X218159474Y-67191436D01*
X218159468Y-67191435D01*
X218159463Y-67191434D01*
X217887283Y-67155601D01*
X217887280Y-67155600D01*
X217887274Y-67155600D01*
X217612726Y-67155600D01*
X217612720Y-67155600D01*
X217612716Y-67155601D01*
X217340536Y-67191434D01*
X217340529Y-67191435D01*
X217340526Y-67191436D01*
X217075333Y-67262494D01*
X217075323Y-67262497D01*
X216821689Y-67367556D01*
X216821679Y-67367560D01*
X216583917Y-67504832D01*
X216366104Y-67671966D01*
X216366097Y-67671972D01*
X216171972Y-67866097D01*
X216171966Y-67866104D01*
X216004832Y-68083917D01*
X215867560Y-68321679D01*
X215867556Y-68321689D01*
X215762497Y-68575323D01*
X215762494Y-68575333D01*
X215715049Y-68752403D01*
X215691437Y-68840523D01*
X215691434Y-68840536D01*
X215655601Y-69112716D01*
X215655600Y-69112732D01*
X215655600Y-69387267D01*
X213293776Y-69387267D01*
X213300500Y-69353465D01*
X213300500Y-69146535D01*
X213260130Y-68943580D01*
X213180941Y-68752402D01*
X213065977Y-68580345D01*
X213065975Y-68580342D01*
X212919657Y-68434024D01*
X212751519Y-68321679D01*
X212747598Y-68319059D01*
X212556420Y-68239870D01*
X212556412Y-68239868D01*
X212353469Y-68199500D01*
X212353465Y-68199500D01*
X212146535Y-68199500D01*
X212146530Y-68199500D01*
X211943587Y-68239868D01*
X211943579Y-68239870D01*
X211752403Y-68319058D01*
X211580342Y-68434024D01*
X211434024Y-68580342D01*
X211319058Y-68752403D01*
X211239870Y-68943579D01*
X211239868Y-68943587D01*
X211199500Y-69146530D01*
X211199500Y-69353469D01*
X204300499Y-69353469D01*
X204300500Y-69353465D01*
X204300500Y-69146535D01*
X204260130Y-68943580D01*
X204180941Y-68752402D01*
X204065977Y-68580345D01*
X204065975Y-68580342D01*
X203919657Y-68434024D01*
X203751519Y-68321679D01*
X203747598Y-68319059D01*
X203556420Y-68239870D01*
X203556412Y-68239868D01*
X203353469Y-68199500D01*
X203353465Y-68199500D01*
X203146535Y-68199500D01*
X203146530Y-68199500D01*
X202943587Y-68239868D01*
X202943579Y-68239870D01*
X202752403Y-68319058D01*
X202580342Y-68434024D01*
X202434024Y-68580342D01*
X202319058Y-68752403D01*
X202239870Y-68943579D01*
X202239868Y-68943587D01*
X202199500Y-69146530D01*
X202199500Y-69353469D01*
X199844400Y-69353469D01*
X199844400Y-69112726D01*
X199808564Y-68840526D01*
X199737506Y-68575333D01*
X199632441Y-68321683D01*
X199630925Y-68319058D01*
X199495167Y-68083917D01*
X199328033Y-67866104D01*
X199328027Y-67866097D01*
X199133902Y-67671972D01*
X199133895Y-67671966D01*
X198916082Y-67504832D01*
X198678320Y-67367560D01*
X198678310Y-67367556D01*
X198424676Y-67262497D01*
X198424669Y-67262495D01*
X198424667Y-67262494D01*
X198159474Y-67191436D01*
X198159468Y-67191435D01*
X198159463Y-67191434D01*
X197887283Y-67155601D01*
X197887280Y-67155600D01*
X197887274Y-67155600D01*
X197612726Y-67155600D01*
X197612720Y-67155600D01*
X197612716Y-67155601D01*
X197340536Y-67191434D01*
X197340529Y-67191435D01*
X197340526Y-67191436D01*
X197075333Y-67262494D01*
X197075323Y-67262497D01*
X196821689Y-67367556D01*
X196821679Y-67367560D01*
X196583917Y-67504832D01*
X196366104Y-67671966D01*
X196366097Y-67671972D01*
X196171972Y-67866097D01*
X196171966Y-67866104D01*
X196004832Y-68083917D01*
X195867560Y-68321679D01*
X195867556Y-68321689D01*
X195762497Y-68575323D01*
X195762494Y-68575333D01*
X195715049Y-68752403D01*
X195691437Y-68840523D01*
X195691434Y-68840536D01*
X195655601Y-69112716D01*
X195655600Y-69112732D01*
X195655600Y-69387267D01*
X193293776Y-69387267D01*
X193300500Y-69353465D01*
X193300500Y-69146535D01*
X193260130Y-68943580D01*
X193180941Y-68752402D01*
X193065977Y-68580345D01*
X193065975Y-68580342D01*
X192919657Y-68434024D01*
X192751519Y-68321679D01*
X192747598Y-68319059D01*
X192556420Y-68239870D01*
X192556412Y-68239868D01*
X192353469Y-68199500D01*
X192353465Y-68199500D01*
X192146535Y-68199500D01*
X192146530Y-68199500D01*
X191943587Y-68239868D01*
X191943579Y-68239870D01*
X191752403Y-68319058D01*
X191580342Y-68434024D01*
X191434024Y-68580342D01*
X191319058Y-68752403D01*
X191239870Y-68943579D01*
X191239868Y-68943587D01*
X191199500Y-69146530D01*
X191199500Y-69353469D01*
X188050500Y-69353469D01*
X188050500Y-63150003D01*
X197444435Y-63150003D01*
X197464630Y-63329249D01*
X197464631Y-63329254D01*
X197524211Y-63499523D01*
X197620184Y-63652262D01*
X197747738Y-63779816D01*
X197900478Y-63875789D01*
X198070745Y-63935368D01*
X198070750Y-63935369D01*
X198249996Y-63955565D01*
X198250000Y-63955565D01*
X198250004Y-63955565D01*
X198429249Y-63935369D01*
X198429252Y-63935368D01*
X198429255Y-63935368D01*
X198599522Y-63875789D01*
X198752262Y-63779816D01*
X198879816Y-63652262D01*
X198975789Y-63499522D01*
X199035368Y-63329255D01*
X199049479Y-63204012D01*
X199076545Y-63139599D01*
X199085008Y-63130225D01*
X200493230Y-61722003D01*
X245574435Y-61722003D01*
X245594630Y-61901249D01*
X245594631Y-61901254D01*
X245654211Y-62071523D01*
X245750184Y-62224262D01*
X245877738Y-62351816D01*
X246030478Y-62447789D01*
X246200745Y-62507368D01*
X246200750Y-62507369D01*
X246379996Y-62527565D01*
X246380000Y-62527565D01*
X246380004Y-62527565D01*
X246559249Y-62507369D01*
X246559252Y-62507368D01*
X246559255Y-62507368D01*
X246729522Y-62447789D01*
X246882262Y-62351816D01*
X246882267Y-62351810D01*
X246885097Y-62349555D01*
X246887275Y-62348665D01*
X246888158Y-62348111D01*
X246888255Y-62348265D01*
X246949783Y-62323145D01*
X246962412Y-62322500D01*
X248845588Y-62322500D01*
X248912627Y-62342185D01*
X248922903Y-62349555D01*
X248925736Y-62351814D01*
X248925738Y-62351816D01*
X249078478Y-62447789D01*
X249248745Y-62507368D01*
X249248750Y-62507369D01*
X249427996Y-62527565D01*
X249428000Y-62527565D01*
X249428004Y-62527565D01*
X249607249Y-62507369D01*
X249607252Y-62507368D01*
X249607255Y-62507368D01*
X249777522Y-62447789D01*
X249930262Y-62351816D01*
X250057816Y-62224262D01*
X250153789Y-62071522D01*
X250213368Y-61901255D01*
X250233565Y-61722000D01*
X250221076Y-61611160D01*
X250213369Y-61542750D01*
X250213368Y-61542745D01*
X250153788Y-61372476D01*
X250057813Y-61219734D01*
X250055550Y-61216896D01*
X250054659Y-61214715D01*
X250054111Y-61213842D01*
X250054264Y-61213745D01*
X250029144Y-61152209D01*
X250028500Y-61139587D01*
X250028500Y-61034412D01*
X250048185Y-60967373D01*
X250055555Y-60957097D01*
X250057810Y-60954267D01*
X250057816Y-60954262D01*
X250153789Y-60801522D01*
X250213368Y-60631255D01*
X250233565Y-60452000D01*
X250213368Y-60272745D01*
X250153789Y-60102478D01*
X250057816Y-59949738D01*
X249930262Y-59822184D01*
X249777523Y-59726211D01*
X249607254Y-59666631D01*
X249607249Y-59666630D01*
X249428004Y-59646435D01*
X249427996Y-59646435D01*
X249248750Y-59666630D01*
X249248745Y-59666631D01*
X249078476Y-59726211D01*
X248925736Y-59822185D01*
X248922903Y-59824445D01*
X248920724Y-59825334D01*
X248919842Y-59825889D01*
X248919744Y-59825734D01*
X248858217Y-59850855D01*
X248845588Y-59851500D01*
X246962412Y-59851500D01*
X246895373Y-59831815D01*
X246885097Y-59824445D01*
X246882263Y-59822185D01*
X246882262Y-59822184D01*
X246825496Y-59786515D01*
X246729523Y-59726211D01*
X246559254Y-59666631D01*
X246559249Y-59666630D01*
X246380004Y-59646435D01*
X246379996Y-59646435D01*
X246200750Y-59666630D01*
X246200745Y-59666631D01*
X246030476Y-59726211D01*
X245877737Y-59822184D01*
X245750184Y-59949737D01*
X245654211Y-60102476D01*
X245594631Y-60272745D01*
X245594630Y-60272750D01*
X245574435Y-60451996D01*
X245574435Y-60452003D01*
X245594630Y-60631249D01*
X245594631Y-60631254D01*
X245654211Y-60801523D01*
X245750184Y-60954262D01*
X245750185Y-60954263D01*
X245795241Y-60999320D01*
X245828725Y-61060643D01*
X245823740Y-61130335D01*
X245795241Y-61174680D01*
X245750184Y-61219737D01*
X245654211Y-61372476D01*
X245594631Y-61542745D01*
X245594630Y-61542750D01*
X245574435Y-61721996D01*
X245574435Y-61722003D01*
X200493230Y-61722003D01*
X200568535Y-61646698D01*
X200629856Y-61613215D01*
X200642311Y-61611163D01*
X200729255Y-61601368D01*
X200899522Y-61541789D01*
X201052262Y-61445816D01*
X201179816Y-61318262D01*
X201275789Y-61165522D01*
X201335368Y-60995255D01*
X201338510Y-60967373D01*
X201355565Y-60816003D01*
X201355565Y-60815996D01*
X201335369Y-60636750D01*
X201335368Y-60636745D01*
X201275788Y-60466476D01*
X201179815Y-60313737D01*
X201052262Y-60186184D01*
X200899523Y-60090211D01*
X200729254Y-60030631D01*
X200729249Y-60030630D01*
X200550004Y-60010435D01*
X200549996Y-60010435D01*
X200370750Y-60030630D01*
X200370745Y-60030631D01*
X200200476Y-60090211D01*
X200047737Y-60186184D01*
X199920184Y-60313737D01*
X199824210Y-60466478D01*
X199764630Y-60636750D01*
X199754837Y-60723668D01*
X199727770Y-60788082D01*
X199719298Y-60797465D01*
X198193148Y-62323615D01*
X198131825Y-62357100D01*
X198119352Y-62359154D01*
X198070750Y-62364630D01*
X197900478Y-62424210D01*
X197747737Y-62520184D01*
X197620184Y-62647737D01*
X197524211Y-62800476D01*
X197464631Y-62970745D01*
X197464630Y-62970750D01*
X197444435Y-63149996D01*
X197444435Y-63150003D01*
X188050500Y-63150003D01*
X188050500Y-55325962D01*
X196149500Y-55325962D01*
X196157701Y-55377738D01*
X196188910Y-55574785D01*
X196266760Y-55814383D01*
X196381132Y-56038848D01*
X196529201Y-56242649D01*
X196529205Y-56242654D01*
X196707345Y-56420794D01*
X196707350Y-56420798D01*
X196829874Y-56509816D01*
X196911155Y-56568870D01*
X197052785Y-56641034D01*
X197135616Y-56683239D01*
X197135618Y-56683239D01*
X197135621Y-56683241D01*
X197375215Y-56761090D01*
X197624038Y-56800500D01*
X197624039Y-56800500D01*
X197875961Y-56800500D01*
X197875962Y-56800500D01*
X198124785Y-56761090D01*
X198364379Y-56683241D01*
X198588845Y-56568870D01*
X198792656Y-56420793D01*
X198970793Y-56242656D01*
X199000181Y-56202205D01*
X199055509Y-56159540D01*
X199125123Y-56153559D01*
X199186918Y-56186164D01*
X199221277Y-56247002D01*
X199224500Y-56275090D01*
X199224500Y-56547869D01*
X199224501Y-56547876D01*
X199230908Y-56607483D01*
X199281202Y-56742328D01*
X199281206Y-56742335D01*
X199367452Y-56857544D01*
X199367455Y-56857547D01*
X199482664Y-56943793D01*
X199482671Y-56943797D01*
X199617517Y-56994091D01*
X199617516Y-56994091D01*
X199624444Y-56994835D01*
X199677127Y-57000500D01*
X202372872Y-57000499D01*
X202432483Y-56994091D01*
X202567331Y-56943796D01*
X202682546Y-56857546D01*
X202768796Y-56742331D01*
X202819091Y-56607483D01*
X202825500Y-56547873D01*
X202825500Y-55924500D01*
X202845185Y-55857461D01*
X202897989Y-55811706D01*
X202949500Y-55800500D01*
X205775903Y-55800500D01*
X205842942Y-55820185D01*
X205863584Y-55836819D01*
X205925298Y-55898533D01*
X205958783Y-55959856D01*
X205960837Y-55972330D01*
X205970630Y-56059249D01*
X206030210Y-56229521D01*
X206041194Y-56247002D01*
X206126184Y-56382262D01*
X206253738Y-56509816D01*
X206314310Y-56547876D01*
X206404254Y-56604392D01*
X206406478Y-56605789D01*
X206550056Y-56656029D01*
X206576745Y-56665368D01*
X206576750Y-56665369D01*
X206755996Y-56685565D01*
X206756000Y-56685565D01*
X206756004Y-56685565D01*
X206935249Y-56665369D01*
X206935252Y-56665368D01*
X206935255Y-56665368D01*
X207105522Y-56605789D01*
X207258262Y-56509816D01*
X207385816Y-56382262D01*
X207481789Y-56229522D01*
X207541368Y-56059255D01*
X207541369Y-56059249D01*
X207561565Y-55880003D01*
X207561565Y-55879996D01*
X207541369Y-55700750D01*
X207541368Y-55700745D01*
X207481789Y-55530478D01*
X207385816Y-55377738D01*
X207334040Y-55325962D01*
X216149500Y-55325962D01*
X216157701Y-55377738D01*
X216188910Y-55574785D01*
X216266760Y-55814383D01*
X216381132Y-56038848D01*
X216529201Y-56242649D01*
X216529205Y-56242654D01*
X216707345Y-56420794D01*
X216707350Y-56420798D01*
X216829874Y-56509816D01*
X216911155Y-56568870D01*
X217052785Y-56641034D01*
X217135616Y-56683239D01*
X217135618Y-56683239D01*
X217135621Y-56683241D01*
X217375215Y-56761090D01*
X217624038Y-56800500D01*
X217624039Y-56800500D01*
X217875961Y-56800500D01*
X217875962Y-56800500D01*
X218124785Y-56761090D01*
X218364379Y-56683241D01*
X218473473Y-56627654D01*
X218542140Y-56614758D01*
X218606881Y-56641034D01*
X218647138Y-56698140D01*
X218650131Y-56767945D01*
X218634761Y-56804110D01*
X218574212Y-56900474D01*
X218514631Y-57070745D01*
X218514630Y-57070750D01*
X218494435Y-57249996D01*
X218494435Y-57250003D01*
X218514630Y-57429249D01*
X218514631Y-57429254D01*
X218574211Y-57599523D01*
X218670184Y-57752262D01*
X218797738Y-57879816D01*
X218839827Y-57906262D01*
X218931042Y-57963577D01*
X218950478Y-57975789D01*
X219107305Y-58030665D01*
X219120745Y-58035368D01*
X219120750Y-58035369D01*
X219299996Y-58055565D01*
X219300000Y-58055565D01*
X219300004Y-58055565D01*
X219479249Y-58035369D01*
X219479252Y-58035368D01*
X219479255Y-58035368D01*
X219649522Y-57975789D01*
X219802262Y-57879816D01*
X219929816Y-57752262D01*
X220025789Y-57599522D01*
X220085368Y-57429255D01*
X220085369Y-57429249D01*
X220088214Y-57404003D01*
X232874435Y-57404003D01*
X232894630Y-57583249D01*
X232894631Y-57583254D01*
X232954211Y-57753523D01*
X233050184Y-57906262D01*
X233177738Y-58033816D01*
X233330478Y-58129789D01*
X233500745Y-58189368D01*
X233500750Y-58189369D01*
X233679996Y-58209565D01*
X233680000Y-58209565D01*
X233680004Y-58209565D01*
X233859249Y-58189369D01*
X233859252Y-58189368D01*
X233859255Y-58189368D01*
X234029522Y-58129789D01*
X234182262Y-58033816D01*
X234182267Y-58033810D01*
X234185097Y-58031555D01*
X234187275Y-58030665D01*
X234188158Y-58030111D01*
X234188255Y-58030265D01*
X234249783Y-58005145D01*
X234262412Y-58004500D01*
X238734331Y-58004500D01*
X238734347Y-58004501D01*
X238741943Y-58004501D01*
X238900054Y-58004501D01*
X238900057Y-58004501D01*
X239052785Y-57963577D01*
X239102904Y-57934639D01*
X239189716Y-57884520D01*
X239301520Y-57772716D01*
X239301520Y-57772714D01*
X239311728Y-57762507D01*
X239311730Y-57762504D01*
X240037416Y-57036818D01*
X240098739Y-57003333D01*
X240125097Y-57000499D01*
X242372871Y-57000499D01*
X242372872Y-57000499D01*
X242432483Y-56994091D01*
X242567331Y-56943796D01*
X242682546Y-56857546D01*
X242768796Y-56742331D01*
X242819091Y-56607483D01*
X242825500Y-56547873D01*
X242825500Y-55325962D01*
X256149500Y-55325962D01*
X256157701Y-55377738D01*
X256188910Y-55574785D01*
X256266760Y-55814383D01*
X256381132Y-56038848D01*
X256529201Y-56242649D01*
X256529205Y-56242654D01*
X256707345Y-56420794D01*
X256707350Y-56420798D01*
X256829874Y-56509816D01*
X256911155Y-56568870D01*
X257052785Y-56641034D01*
X257135616Y-56683239D01*
X257135618Y-56683239D01*
X257135621Y-56683241D01*
X257375215Y-56761090D01*
X257624038Y-56800500D01*
X257624039Y-56800500D01*
X257781435Y-56800500D01*
X257848474Y-56820185D01*
X257894229Y-56872989D01*
X257904173Y-56942147D01*
X257886428Y-56990473D01*
X257846211Y-57054475D01*
X257786631Y-57224745D01*
X257786630Y-57224750D01*
X257766435Y-57403996D01*
X257766435Y-57404003D01*
X257786630Y-57583249D01*
X257786631Y-57583254D01*
X257846211Y-57753523D01*
X257942184Y-57906262D01*
X258069738Y-58033816D01*
X258222478Y-58129789D01*
X258392745Y-58189368D01*
X258392750Y-58189369D01*
X258571996Y-58209565D01*
X258572000Y-58209565D01*
X258572004Y-58209565D01*
X258751249Y-58189369D01*
X258751252Y-58189368D01*
X258751255Y-58189368D01*
X258921522Y-58129789D01*
X259074262Y-58033816D01*
X259201816Y-57906262D01*
X259251600Y-57827028D01*
X259268911Y-57805324D01*
X259311722Y-57762514D01*
X259311729Y-57762504D01*
X260037416Y-57036818D01*
X260098739Y-57003333D01*
X260125097Y-57000499D01*
X262372871Y-57000499D01*
X262372872Y-57000499D01*
X262432483Y-56994091D01*
X262567331Y-56943796D01*
X262682546Y-56857546D01*
X262768796Y-56742331D01*
X262819091Y-56607483D01*
X262825500Y-56547873D01*
X262825499Y-53852128D01*
X262819091Y-53792517D01*
X262790835Y-53716760D01*
X262768797Y-53657671D01*
X262768793Y-53657664D01*
X262682547Y-53542455D01*
X262682544Y-53542452D01*
X262567335Y-53456206D01*
X262567328Y-53456202D01*
X262432482Y-53405908D01*
X262432483Y-53405908D01*
X262372883Y-53399501D01*
X262372881Y-53399500D01*
X262372873Y-53399500D01*
X262372864Y-53399500D01*
X259677129Y-53399500D01*
X259677123Y-53399501D01*
X259617516Y-53405908D01*
X259482671Y-53456202D01*
X259482664Y-53456206D01*
X259367455Y-53542452D01*
X259367452Y-53542455D01*
X259281206Y-53657664D01*
X259281202Y-53657671D01*
X259230908Y-53792517D01*
X259224501Y-53852116D01*
X259224501Y-53852123D01*
X259224500Y-53852135D01*
X259224500Y-54124908D01*
X259204815Y-54191947D01*
X259152011Y-54237702D01*
X259082853Y-54247646D01*
X259019297Y-54218621D01*
X259000182Y-54197793D01*
X258970798Y-54157350D01*
X258970794Y-54157345D01*
X258792654Y-53979205D01*
X258792649Y-53979201D01*
X258588848Y-53831132D01*
X258588847Y-53831131D01*
X258588845Y-53831130D01*
X258513061Y-53792516D01*
X258364383Y-53716760D01*
X258124785Y-53638910D01*
X257875962Y-53599500D01*
X257624038Y-53599500D01*
X257530071Y-53614383D01*
X257375214Y-53638910D01*
X257135616Y-53716760D01*
X256911151Y-53831132D01*
X256707350Y-53979201D01*
X256707345Y-53979205D01*
X256529205Y-54157345D01*
X256529201Y-54157350D01*
X256381132Y-54361151D01*
X256266760Y-54585616D01*
X256188910Y-54825214D01*
X256188910Y-54825215D01*
X256149500Y-55074038D01*
X256149500Y-55325962D01*
X242825500Y-55325962D01*
X242825499Y-53852128D01*
X242819091Y-53792517D01*
X242790835Y-53716760D01*
X242768797Y-53657671D01*
X242768793Y-53657664D01*
X242682547Y-53542455D01*
X242682544Y-53542452D01*
X242567335Y-53456206D01*
X242567328Y-53456202D01*
X242432482Y-53405908D01*
X242432483Y-53405908D01*
X242372883Y-53399501D01*
X242372881Y-53399500D01*
X242372873Y-53399500D01*
X242372864Y-53399500D01*
X239677129Y-53399500D01*
X239677123Y-53399501D01*
X239617516Y-53405908D01*
X239482671Y-53456202D01*
X239482664Y-53456206D01*
X239367455Y-53542452D01*
X239367452Y-53542455D01*
X239281206Y-53657664D01*
X239281202Y-53657671D01*
X239230908Y-53792517D01*
X239224501Y-53852116D01*
X239224501Y-53852123D01*
X239224500Y-53852135D01*
X239224500Y-54124908D01*
X239204815Y-54191947D01*
X239152011Y-54237702D01*
X239082853Y-54247646D01*
X239019297Y-54218621D01*
X239000182Y-54197793D01*
X238970798Y-54157350D01*
X238970794Y-54157345D01*
X238792654Y-53979205D01*
X238792649Y-53979201D01*
X238588848Y-53831132D01*
X238588847Y-53831131D01*
X238588845Y-53831130D01*
X238513061Y-53792516D01*
X238364383Y-53716760D01*
X238124785Y-53638910D01*
X237875962Y-53599500D01*
X237624038Y-53599500D01*
X237530071Y-53614383D01*
X237375214Y-53638910D01*
X237135616Y-53716760D01*
X236911151Y-53831132D01*
X236707350Y-53979201D01*
X236707345Y-53979205D01*
X236529205Y-54157345D01*
X236529201Y-54157350D01*
X236381132Y-54361151D01*
X236266760Y-54585616D01*
X236188910Y-54825214D01*
X236188910Y-54825215D01*
X236149500Y-55074038D01*
X236149500Y-55325962D01*
X236157701Y-55377738D01*
X236188910Y-55574785D01*
X236266760Y-55814383D01*
X236381132Y-56038848D01*
X236529201Y-56242649D01*
X236529205Y-56242654D01*
X236707345Y-56420794D01*
X236707350Y-56420798D01*
X236911153Y-56568869D01*
X236911439Y-56569015D01*
X236911528Y-56569099D01*
X236915307Y-56571415D01*
X236914820Y-56572208D01*
X236962235Y-56616988D01*
X236979031Y-56684809D01*
X236956494Y-56750944D01*
X236901780Y-56794396D01*
X236855145Y-56803500D01*
X234262412Y-56803500D01*
X234195373Y-56783815D01*
X234185097Y-56776445D01*
X234182263Y-56774185D01*
X234182262Y-56774184D01*
X234061239Y-56698140D01*
X234029523Y-56678211D01*
X233859254Y-56618631D01*
X233859249Y-56618630D01*
X233680004Y-56598435D01*
X233679996Y-56598435D01*
X233500750Y-56618630D01*
X233500745Y-56618631D01*
X233330476Y-56678211D01*
X233177737Y-56774184D01*
X233050184Y-56901737D01*
X232954211Y-57054476D01*
X232894631Y-57224745D01*
X232894630Y-57224750D01*
X232874435Y-57403996D01*
X232874435Y-57404003D01*
X220088214Y-57404003D01*
X220105565Y-57250003D01*
X220105565Y-57249997D01*
X220092989Y-57138383D01*
X220105043Y-57069561D01*
X220152392Y-57018181D01*
X220216209Y-57000499D01*
X222372871Y-57000499D01*
X222372872Y-57000499D01*
X222432483Y-56994091D01*
X222567331Y-56943796D01*
X222682546Y-56857546D01*
X222768796Y-56742331D01*
X222819091Y-56607483D01*
X222825500Y-56547873D01*
X222825499Y-53852128D01*
X222819091Y-53792517D01*
X222790835Y-53716760D01*
X222768797Y-53657671D01*
X222768793Y-53657664D01*
X222682547Y-53542455D01*
X222682544Y-53542452D01*
X222567335Y-53456206D01*
X222567328Y-53456202D01*
X222432482Y-53405908D01*
X222432483Y-53405908D01*
X222372883Y-53399501D01*
X222372881Y-53399500D01*
X222372873Y-53399500D01*
X222372864Y-53399500D01*
X219677129Y-53399500D01*
X219677123Y-53399501D01*
X219617516Y-53405908D01*
X219482671Y-53456202D01*
X219482664Y-53456206D01*
X219367455Y-53542452D01*
X219367452Y-53542455D01*
X219281206Y-53657664D01*
X219281202Y-53657671D01*
X219230908Y-53792517D01*
X219224501Y-53852116D01*
X219224501Y-53852123D01*
X219224500Y-53852135D01*
X219224500Y-54124908D01*
X219204815Y-54191947D01*
X219152011Y-54237702D01*
X219082853Y-54247646D01*
X219019297Y-54218621D01*
X219000182Y-54197793D01*
X218970798Y-54157350D01*
X218970794Y-54157345D01*
X218792654Y-53979205D01*
X218792649Y-53979201D01*
X218588848Y-53831132D01*
X218588847Y-53831131D01*
X218588845Y-53831130D01*
X218513061Y-53792516D01*
X218364383Y-53716760D01*
X218124785Y-53638910D01*
X217875962Y-53599500D01*
X217624038Y-53599500D01*
X217530071Y-53614383D01*
X217375214Y-53638910D01*
X217135616Y-53716760D01*
X216911151Y-53831132D01*
X216707350Y-53979201D01*
X216707345Y-53979205D01*
X216529205Y-54157345D01*
X216529201Y-54157350D01*
X216381132Y-54361151D01*
X216266760Y-54585616D01*
X216188910Y-54825214D01*
X216188910Y-54825215D01*
X216149500Y-55074038D01*
X216149500Y-55325962D01*
X207334040Y-55325962D01*
X207258262Y-55250184D01*
X207105521Y-55154210D01*
X206935249Y-55094630D01*
X206848330Y-55084837D01*
X206783916Y-55057770D01*
X206774533Y-55049298D01*
X206563590Y-54838355D01*
X206563588Y-54838352D01*
X206444717Y-54719481D01*
X206444716Y-54719480D01*
X206357904Y-54669360D01*
X206357904Y-54669359D01*
X206357900Y-54669358D01*
X206307785Y-54640423D01*
X206155057Y-54599499D01*
X205996943Y-54599499D01*
X205989347Y-54599499D01*
X205989331Y-54599500D01*
X202949499Y-54599500D01*
X202882460Y-54579815D01*
X202836705Y-54527011D01*
X202825499Y-54475500D01*
X202825499Y-53852129D01*
X202825498Y-53852123D01*
X202825497Y-53852116D01*
X202819091Y-53792517D01*
X202790835Y-53716760D01*
X202768797Y-53657671D01*
X202768793Y-53657664D01*
X202682547Y-53542455D01*
X202682544Y-53542452D01*
X202567335Y-53456206D01*
X202567328Y-53456202D01*
X202432482Y-53405908D01*
X202432483Y-53405908D01*
X202372883Y-53399501D01*
X202372881Y-53399500D01*
X202372873Y-53399500D01*
X202372864Y-53399500D01*
X199677129Y-53399500D01*
X199677123Y-53399501D01*
X199617516Y-53405908D01*
X199482671Y-53456202D01*
X199482664Y-53456206D01*
X199367455Y-53542452D01*
X199367452Y-53542455D01*
X199281206Y-53657664D01*
X199281202Y-53657671D01*
X199230908Y-53792517D01*
X199224501Y-53852116D01*
X199224501Y-53852123D01*
X199224500Y-53852135D01*
X199224500Y-54124908D01*
X199204815Y-54191947D01*
X199152011Y-54237702D01*
X199082853Y-54247646D01*
X199019297Y-54218621D01*
X199000182Y-54197793D01*
X198970798Y-54157350D01*
X198970794Y-54157345D01*
X198792654Y-53979205D01*
X198792649Y-53979201D01*
X198588848Y-53831132D01*
X198588847Y-53831131D01*
X198588845Y-53831130D01*
X198513061Y-53792516D01*
X198364383Y-53716760D01*
X198124785Y-53638910D01*
X197875962Y-53599500D01*
X197624038Y-53599500D01*
X197530071Y-53614383D01*
X197375214Y-53638910D01*
X197135616Y-53716760D01*
X196911151Y-53831132D01*
X196707350Y-53979201D01*
X196707345Y-53979205D01*
X196529205Y-54157345D01*
X196529201Y-54157350D01*
X196381132Y-54361151D01*
X196266760Y-54585616D01*
X196188910Y-54825214D01*
X196188910Y-54825215D01*
X196149500Y-55074038D01*
X196149500Y-55325962D01*
X188050500Y-55325962D01*
X188050500Y-54924000D01*
X188070185Y-54856961D01*
X188122989Y-54811206D01*
X188174500Y-54800000D01*
X189225000Y-54800000D01*
X189225000Y-51200000D01*
X189725000Y-51200000D01*
X189725000Y-54800000D01*
X190822828Y-54800000D01*
X190822844Y-54799999D01*
X190882372Y-54793598D01*
X190882379Y-54793596D01*
X191017086Y-54743354D01*
X191017093Y-54743350D01*
X191132187Y-54657190D01*
X191132190Y-54657187D01*
X191218350Y-54542093D01*
X191218354Y-54542086D01*
X191268596Y-54407379D01*
X191268598Y-54407372D01*
X191274999Y-54347844D01*
X191275000Y-54347827D01*
X191275000Y-54074403D01*
X191294685Y-54007364D01*
X191347489Y-53961609D01*
X191416647Y-53951665D01*
X191480203Y-53980690D01*
X191499319Y-54001518D01*
X191529207Y-54042656D01*
X191707345Y-54220794D01*
X191707350Y-54220798D01*
X191882192Y-54347827D01*
X191911155Y-54368870D01*
X192054184Y-54441747D01*
X192135616Y-54483239D01*
X192135618Y-54483239D01*
X192135621Y-54483241D01*
X192375215Y-54561090D01*
X192624038Y-54600500D01*
X192624039Y-54600500D01*
X192875961Y-54600500D01*
X192875962Y-54600500D01*
X193124785Y-54561090D01*
X193364379Y-54483241D01*
X193588845Y-54368870D01*
X193792656Y-54220793D01*
X193970793Y-54042656D01*
X194118870Y-53838845D01*
X194233241Y-53614379D01*
X194311090Y-53374785D01*
X194330854Y-53250000D01*
X207675000Y-53250000D01*
X207675000Y-54347844D01*
X207681401Y-54407372D01*
X207681403Y-54407379D01*
X207731645Y-54542086D01*
X207731649Y-54542093D01*
X207817809Y-54657187D01*
X207817812Y-54657190D01*
X207932906Y-54743350D01*
X207932913Y-54743354D01*
X208067620Y-54793596D01*
X208067627Y-54793598D01*
X208127155Y-54799999D01*
X208127172Y-54800000D01*
X209225000Y-54800000D01*
X209225000Y-53250000D01*
X207675000Y-53250000D01*
X194330854Y-53250000D01*
X194350500Y-53125962D01*
X194350500Y-52874038D01*
X194330854Y-52750000D01*
X207675000Y-52750000D01*
X209225000Y-52750000D01*
X209225000Y-51200000D01*
X209725000Y-51200000D01*
X209725000Y-54800000D01*
X210822828Y-54800000D01*
X210822844Y-54799999D01*
X210882372Y-54793598D01*
X210882379Y-54793596D01*
X211017086Y-54743354D01*
X211017093Y-54743350D01*
X211132187Y-54657190D01*
X211132190Y-54657187D01*
X211218350Y-54542093D01*
X211218354Y-54542086D01*
X211268596Y-54407379D01*
X211268598Y-54407372D01*
X211274999Y-54347844D01*
X211275000Y-54347827D01*
X211275000Y-54074403D01*
X211294685Y-54007364D01*
X211347489Y-53961609D01*
X211416647Y-53951665D01*
X211480203Y-53980690D01*
X211499319Y-54001518D01*
X211529207Y-54042656D01*
X211707345Y-54220794D01*
X211707350Y-54220798D01*
X211882192Y-54347827D01*
X211911155Y-54368870D01*
X212054184Y-54441747D01*
X212135616Y-54483239D01*
X212135618Y-54483239D01*
X212135621Y-54483241D01*
X212375215Y-54561090D01*
X212624038Y-54600500D01*
X212624039Y-54600500D01*
X212875961Y-54600500D01*
X212875962Y-54600500D01*
X213124785Y-54561090D01*
X213364379Y-54483241D01*
X213588845Y-54368870D01*
X213792656Y-54220793D01*
X213970793Y-54042656D01*
X214118870Y-53838845D01*
X214233241Y-53614379D01*
X214311090Y-53374785D01*
X214330854Y-53250000D01*
X227675000Y-53250000D01*
X227675000Y-54347844D01*
X227681401Y-54407372D01*
X227681403Y-54407379D01*
X227731645Y-54542086D01*
X227731649Y-54542093D01*
X227817809Y-54657187D01*
X227817812Y-54657190D01*
X227932906Y-54743350D01*
X227932913Y-54743354D01*
X228067620Y-54793596D01*
X228067627Y-54793598D01*
X228127155Y-54799999D01*
X228127172Y-54800000D01*
X229225000Y-54800000D01*
X229225000Y-53250000D01*
X227675000Y-53250000D01*
X214330854Y-53250000D01*
X214350500Y-53125962D01*
X214350500Y-52874038D01*
X214330854Y-52750000D01*
X227675000Y-52750000D01*
X229225000Y-52750000D01*
X229225000Y-51200000D01*
X229725000Y-51200000D01*
X229725000Y-54800000D01*
X230822828Y-54800000D01*
X230822844Y-54799999D01*
X230882372Y-54793598D01*
X230882379Y-54793596D01*
X231017086Y-54743354D01*
X231017093Y-54743350D01*
X231132187Y-54657190D01*
X231132190Y-54657187D01*
X231218350Y-54542093D01*
X231218354Y-54542086D01*
X231268596Y-54407379D01*
X231268598Y-54407372D01*
X231274999Y-54347844D01*
X231275000Y-54347827D01*
X231275000Y-54074403D01*
X231294685Y-54007364D01*
X231347489Y-53961609D01*
X231416647Y-53951665D01*
X231480203Y-53980690D01*
X231499319Y-54001518D01*
X231529207Y-54042656D01*
X231707345Y-54220794D01*
X231707350Y-54220798D01*
X231882192Y-54347827D01*
X231911155Y-54368870D01*
X232054184Y-54441747D01*
X232135616Y-54483239D01*
X232135618Y-54483239D01*
X232135621Y-54483241D01*
X232375215Y-54561090D01*
X232624038Y-54600500D01*
X232624039Y-54600500D01*
X232875961Y-54600500D01*
X232875962Y-54600500D01*
X233124785Y-54561090D01*
X233364379Y-54483241D01*
X233588845Y-54368870D01*
X233792656Y-54220793D01*
X233970793Y-54042656D01*
X234118870Y-53838845D01*
X234233241Y-53614379D01*
X234311090Y-53374785D01*
X234330854Y-53250000D01*
X247675000Y-53250000D01*
X247675000Y-54347844D01*
X247681401Y-54407372D01*
X247681403Y-54407379D01*
X247731645Y-54542086D01*
X247731649Y-54542093D01*
X247817809Y-54657187D01*
X247817812Y-54657190D01*
X247932906Y-54743350D01*
X247932913Y-54743354D01*
X248067620Y-54793596D01*
X248067627Y-54793598D01*
X248127155Y-54799999D01*
X248127172Y-54800000D01*
X249225000Y-54800000D01*
X249225000Y-53250000D01*
X247675000Y-53250000D01*
X234330854Y-53250000D01*
X234350500Y-53125962D01*
X234350500Y-52874038D01*
X234330854Y-52750000D01*
X247675000Y-52750000D01*
X249225000Y-52750000D01*
X249225000Y-51200000D01*
X249725000Y-51200000D01*
X249725000Y-54800000D01*
X250822828Y-54800000D01*
X250822844Y-54799999D01*
X250882372Y-54793598D01*
X250882379Y-54793596D01*
X251017086Y-54743354D01*
X251017093Y-54743350D01*
X251132187Y-54657190D01*
X251132190Y-54657187D01*
X251218350Y-54542093D01*
X251218354Y-54542086D01*
X251268596Y-54407379D01*
X251268598Y-54407372D01*
X251274999Y-54347844D01*
X251275000Y-54347827D01*
X251275000Y-54074403D01*
X251294685Y-54007364D01*
X251347489Y-53961609D01*
X251416647Y-53951665D01*
X251480203Y-53980690D01*
X251499319Y-54001518D01*
X251529207Y-54042656D01*
X251707345Y-54220794D01*
X251707350Y-54220798D01*
X251882192Y-54347827D01*
X251911155Y-54368870D01*
X252054184Y-54441747D01*
X252135616Y-54483239D01*
X252135618Y-54483239D01*
X252135621Y-54483241D01*
X252375215Y-54561090D01*
X252624038Y-54600500D01*
X252624039Y-54600500D01*
X252875961Y-54600500D01*
X252875962Y-54600500D01*
X253124785Y-54561090D01*
X253364379Y-54483241D01*
X253588845Y-54368870D01*
X253792656Y-54220793D01*
X253970793Y-54042656D01*
X254118870Y-53838845D01*
X254233241Y-53614379D01*
X254311090Y-53374785D01*
X254350500Y-53125962D01*
X254350500Y-52874038D01*
X254311090Y-52625215D01*
X254233241Y-52385621D01*
X254233239Y-52385618D01*
X254233239Y-52385616D01*
X254191747Y-52304184D01*
X254118870Y-52161155D01*
X254099952Y-52135117D01*
X253970798Y-51957350D01*
X253970794Y-51957345D01*
X253792654Y-51779205D01*
X253792649Y-51779201D01*
X253588848Y-51631132D01*
X253588847Y-51631131D01*
X253588845Y-51631130D01*
X253513265Y-51592620D01*
X253364383Y-51516760D01*
X253124785Y-51438910D01*
X252875962Y-51399500D01*
X252624038Y-51399500D01*
X252499626Y-51419205D01*
X252375214Y-51438910D01*
X252135616Y-51516760D01*
X251911151Y-51631132D01*
X251707350Y-51779201D01*
X251707345Y-51779205D01*
X251529205Y-51957345D01*
X251499318Y-51998482D01*
X251443988Y-52041147D01*
X251374374Y-52047126D01*
X251312579Y-52014520D01*
X251278222Y-51953681D01*
X251275000Y-51925596D01*
X251275000Y-51652172D01*
X251274999Y-51652155D01*
X251268598Y-51592627D01*
X251268596Y-51592620D01*
X251218354Y-51457913D01*
X251218350Y-51457906D01*
X251132190Y-51342812D01*
X251132187Y-51342809D01*
X251017093Y-51256649D01*
X251017086Y-51256645D01*
X250882379Y-51206403D01*
X250882372Y-51206401D01*
X250822844Y-51200000D01*
X249725000Y-51200000D01*
X249225000Y-51200000D01*
X248127155Y-51200000D01*
X248067627Y-51206401D01*
X248067620Y-51206403D01*
X247932913Y-51256645D01*
X247932906Y-51256649D01*
X247817812Y-51342809D01*
X247817809Y-51342812D01*
X247731649Y-51457906D01*
X247731645Y-51457913D01*
X247681403Y-51592620D01*
X247681401Y-51592627D01*
X247675000Y-51652155D01*
X247675000Y-52750000D01*
X234330854Y-52750000D01*
X234311090Y-52625215D01*
X234233241Y-52385621D01*
X234233239Y-52385618D01*
X234233239Y-52385616D01*
X234191747Y-52304184D01*
X234118870Y-52161155D01*
X234099952Y-52135117D01*
X233970798Y-51957350D01*
X233970794Y-51957345D01*
X233792654Y-51779205D01*
X233792649Y-51779201D01*
X233588848Y-51631132D01*
X233588847Y-51631131D01*
X233588845Y-51631130D01*
X233513265Y-51592620D01*
X233364383Y-51516760D01*
X233124785Y-51438910D01*
X232875962Y-51399500D01*
X232624038Y-51399500D01*
X232499626Y-51419205D01*
X232375214Y-51438910D01*
X232135616Y-51516760D01*
X231911151Y-51631132D01*
X231707350Y-51779201D01*
X231707345Y-51779205D01*
X231529205Y-51957345D01*
X231499318Y-51998482D01*
X231443988Y-52041147D01*
X231374374Y-52047126D01*
X231312579Y-52014520D01*
X231278222Y-51953681D01*
X231275000Y-51925596D01*
X231275000Y-51652172D01*
X231274999Y-51652155D01*
X231268598Y-51592627D01*
X231268596Y-51592620D01*
X231218354Y-51457913D01*
X231218350Y-51457906D01*
X231132190Y-51342812D01*
X231132187Y-51342809D01*
X231017093Y-51256649D01*
X231017086Y-51256645D01*
X230882379Y-51206403D01*
X230882372Y-51206401D01*
X230822844Y-51200000D01*
X229725000Y-51200000D01*
X229225000Y-51200000D01*
X228127155Y-51200000D01*
X228067627Y-51206401D01*
X228067620Y-51206403D01*
X227932913Y-51256645D01*
X227932906Y-51256649D01*
X227817812Y-51342809D01*
X227817809Y-51342812D01*
X227731649Y-51457906D01*
X227731645Y-51457913D01*
X227681403Y-51592620D01*
X227681401Y-51592627D01*
X227675000Y-51652155D01*
X227675000Y-52750000D01*
X214330854Y-52750000D01*
X214311090Y-52625215D01*
X214233241Y-52385621D01*
X214233239Y-52385618D01*
X214233239Y-52385616D01*
X214191747Y-52304184D01*
X214118870Y-52161155D01*
X214099952Y-52135117D01*
X213970798Y-51957350D01*
X213970794Y-51957345D01*
X213792654Y-51779205D01*
X213792649Y-51779201D01*
X213588848Y-51631132D01*
X213588847Y-51631131D01*
X213588845Y-51631130D01*
X213513265Y-51592620D01*
X213364383Y-51516760D01*
X213124785Y-51438910D01*
X212875962Y-51399500D01*
X212624038Y-51399500D01*
X212499626Y-51419205D01*
X212375214Y-51438910D01*
X212135616Y-51516760D01*
X211911151Y-51631132D01*
X211707350Y-51779201D01*
X211707345Y-51779205D01*
X211529205Y-51957345D01*
X211499318Y-51998482D01*
X211443988Y-52041147D01*
X211374374Y-52047126D01*
X211312579Y-52014520D01*
X211278222Y-51953681D01*
X211275000Y-51925596D01*
X211275000Y-51652172D01*
X211274999Y-51652155D01*
X211268598Y-51592627D01*
X211268596Y-51592620D01*
X211218354Y-51457913D01*
X211218350Y-51457906D01*
X211132190Y-51342812D01*
X211132187Y-51342809D01*
X211017093Y-51256649D01*
X211017086Y-51256645D01*
X210882379Y-51206403D01*
X210882372Y-51206401D01*
X210822844Y-51200000D01*
X209725000Y-51200000D01*
X209225000Y-51200000D01*
X208127155Y-51200000D01*
X208067627Y-51206401D01*
X208067620Y-51206403D01*
X207932913Y-51256645D01*
X207932906Y-51256649D01*
X207817812Y-51342809D01*
X207817809Y-51342812D01*
X207731649Y-51457906D01*
X207731645Y-51457913D01*
X207681403Y-51592620D01*
X207681401Y-51592627D01*
X207675000Y-51652155D01*
X207675000Y-52750000D01*
X194330854Y-52750000D01*
X194311090Y-52625215D01*
X194233241Y-52385621D01*
X194233239Y-52385618D01*
X194233239Y-52385616D01*
X194191747Y-52304184D01*
X194118870Y-52161155D01*
X194099952Y-52135117D01*
X193970798Y-51957350D01*
X193970794Y-51957345D01*
X193792654Y-51779205D01*
X193792649Y-51779201D01*
X193588848Y-51631132D01*
X193588847Y-51631131D01*
X193588845Y-51631130D01*
X193513265Y-51592620D01*
X193364383Y-51516760D01*
X193124785Y-51438910D01*
X192875962Y-51399500D01*
X192624038Y-51399500D01*
X192499626Y-51419205D01*
X192375214Y-51438910D01*
X192135616Y-51516760D01*
X191911151Y-51631132D01*
X191707350Y-51779201D01*
X191707345Y-51779205D01*
X191529205Y-51957345D01*
X191499318Y-51998482D01*
X191443988Y-52041147D01*
X191374374Y-52047126D01*
X191312579Y-52014520D01*
X191278222Y-51953681D01*
X191275000Y-51925596D01*
X191275000Y-51652172D01*
X191274999Y-51652155D01*
X191268598Y-51592627D01*
X191268596Y-51592620D01*
X191218354Y-51457913D01*
X191218350Y-51457906D01*
X191132190Y-51342812D01*
X191132187Y-51342809D01*
X191017093Y-51256649D01*
X191017086Y-51256645D01*
X190882379Y-51206403D01*
X190882372Y-51206401D01*
X190822844Y-51200000D01*
X189725000Y-51200000D01*
X189225000Y-51200000D01*
X188174500Y-51200000D01*
X188107461Y-51180315D01*
X188061706Y-51127511D01*
X188050500Y-51076000D01*
X188050500Y-49353469D01*
X191199500Y-49353469D01*
X191239868Y-49556412D01*
X191239870Y-49556420D01*
X191319058Y-49747596D01*
X191434024Y-49919657D01*
X191580342Y-50065975D01*
X191580345Y-50065977D01*
X191752402Y-50180941D01*
X191943580Y-50260130D01*
X192146530Y-50300499D01*
X192146534Y-50300500D01*
X192146535Y-50300500D01*
X192353466Y-50300500D01*
X192353467Y-50300499D01*
X192556420Y-50260130D01*
X192747598Y-50180941D01*
X192919655Y-50065977D01*
X193065977Y-49919655D01*
X193180941Y-49747598D01*
X193260130Y-49556420D01*
X193293776Y-49387267D01*
X195655600Y-49387267D01*
X195655601Y-49387283D01*
X195691434Y-49659463D01*
X195691435Y-49659468D01*
X195691436Y-49659474D01*
X195715049Y-49747598D01*
X195762494Y-49924666D01*
X195762497Y-49924676D01*
X195867556Y-50178310D01*
X195867560Y-50178320D01*
X196004832Y-50416082D01*
X196171966Y-50633895D01*
X196171972Y-50633902D01*
X196366097Y-50828027D01*
X196366104Y-50828033D01*
X196583917Y-50995167D01*
X196821679Y-51132439D01*
X196821680Y-51132439D01*
X196821683Y-51132441D01*
X197075333Y-51237506D01*
X197340526Y-51308564D01*
X197612726Y-51344400D01*
X197612733Y-51344400D01*
X197887267Y-51344400D01*
X197887274Y-51344400D01*
X198159474Y-51308564D01*
X198424667Y-51237506D01*
X198678317Y-51132441D01*
X198916083Y-50995167D01*
X199133897Y-50828032D01*
X199328032Y-50633897D01*
X199495167Y-50416083D01*
X199632441Y-50178317D01*
X199737506Y-49924667D01*
X199808564Y-49659474D01*
X199844400Y-49387274D01*
X199844400Y-49353469D01*
X202199500Y-49353469D01*
X202239868Y-49556412D01*
X202239870Y-49556420D01*
X202319058Y-49747596D01*
X202434024Y-49919657D01*
X202580342Y-50065975D01*
X202580345Y-50065977D01*
X202752402Y-50180941D01*
X202943580Y-50260130D01*
X203146530Y-50300499D01*
X203146534Y-50300500D01*
X203146535Y-50300500D01*
X203353466Y-50300500D01*
X203353467Y-50300499D01*
X203556420Y-50260130D01*
X203747598Y-50180941D01*
X203919655Y-50065977D01*
X204065977Y-49919655D01*
X204180941Y-49747598D01*
X204260130Y-49556420D01*
X204300499Y-49353469D01*
X211199500Y-49353469D01*
X211239868Y-49556412D01*
X211239870Y-49556420D01*
X211319058Y-49747596D01*
X211434024Y-49919657D01*
X211580342Y-50065975D01*
X211580345Y-50065977D01*
X211752402Y-50180941D01*
X211943580Y-50260130D01*
X212146530Y-50300499D01*
X212146534Y-50300500D01*
X212146535Y-50300500D01*
X212353466Y-50300500D01*
X212353467Y-50300499D01*
X212556420Y-50260130D01*
X212747598Y-50180941D01*
X212919655Y-50065977D01*
X213065977Y-49919655D01*
X213180941Y-49747598D01*
X213260130Y-49556420D01*
X213293776Y-49387267D01*
X215655600Y-49387267D01*
X215655601Y-49387283D01*
X215691434Y-49659463D01*
X215691435Y-49659468D01*
X215691436Y-49659474D01*
X215715049Y-49747598D01*
X215762494Y-49924666D01*
X215762497Y-49924676D01*
X215867556Y-50178310D01*
X215867560Y-50178320D01*
X216004832Y-50416082D01*
X216171966Y-50633895D01*
X216171972Y-50633902D01*
X216366097Y-50828027D01*
X216366104Y-50828033D01*
X216583917Y-50995167D01*
X216821679Y-51132439D01*
X216821680Y-51132439D01*
X216821683Y-51132441D01*
X217075333Y-51237506D01*
X217340526Y-51308564D01*
X217612726Y-51344400D01*
X217612733Y-51344400D01*
X217887267Y-51344400D01*
X217887274Y-51344400D01*
X218159474Y-51308564D01*
X218424667Y-51237506D01*
X218678317Y-51132441D01*
X218916083Y-50995167D01*
X219133897Y-50828032D01*
X219328032Y-50633897D01*
X219495167Y-50416083D01*
X219632441Y-50178317D01*
X219737506Y-49924667D01*
X219808564Y-49659474D01*
X219844400Y-49387274D01*
X219844400Y-49353469D01*
X222199500Y-49353469D01*
X222239868Y-49556412D01*
X222239870Y-49556420D01*
X222319058Y-49747596D01*
X222434024Y-49919657D01*
X222580342Y-50065975D01*
X222580345Y-50065977D01*
X222752402Y-50180941D01*
X222943580Y-50260130D01*
X223146530Y-50300499D01*
X223146534Y-50300500D01*
X223146535Y-50300500D01*
X223353466Y-50300500D01*
X223353467Y-50300499D01*
X223556420Y-50260130D01*
X223747598Y-50180941D01*
X223919655Y-50065977D01*
X224065977Y-49919655D01*
X224180941Y-49747598D01*
X224260130Y-49556420D01*
X224300499Y-49353469D01*
X231199500Y-49353469D01*
X231239868Y-49556412D01*
X231239870Y-49556420D01*
X231319058Y-49747596D01*
X231434024Y-49919657D01*
X231580342Y-50065975D01*
X231580345Y-50065977D01*
X231752402Y-50180941D01*
X231943580Y-50260130D01*
X232146530Y-50300499D01*
X232146534Y-50300500D01*
X232146535Y-50300500D01*
X232353466Y-50300500D01*
X232353467Y-50300499D01*
X232556420Y-50260130D01*
X232747598Y-50180941D01*
X232919655Y-50065977D01*
X233065977Y-49919655D01*
X233180941Y-49747598D01*
X233260130Y-49556420D01*
X233293776Y-49387267D01*
X235655600Y-49387267D01*
X235655601Y-49387283D01*
X235691434Y-49659463D01*
X235691435Y-49659468D01*
X235691436Y-49659474D01*
X235715049Y-49747598D01*
X235762494Y-49924666D01*
X235762497Y-49924676D01*
X235867556Y-50178310D01*
X235867560Y-50178320D01*
X236004832Y-50416082D01*
X236171966Y-50633895D01*
X236171972Y-50633902D01*
X236366097Y-50828027D01*
X236366104Y-50828033D01*
X236583917Y-50995167D01*
X236821679Y-51132439D01*
X236821680Y-51132439D01*
X236821683Y-51132441D01*
X237075333Y-51237506D01*
X237340526Y-51308564D01*
X237612726Y-51344400D01*
X237612733Y-51344400D01*
X237887267Y-51344400D01*
X237887274Y-51344400D01*
X238159474Y-51308564D01*
X238424667Y-51237506D01*
X238678317Y-51132441D01*
X238916083Y-50995167D01*
X239133897Y-50828032D01*
X239328032Y-50633897D01*
X239495167Y-50416083D01*
X239632441Y-50178317D01*
X239737506Y-49924667D01*
X239808564Y-49659474D01*
X239844400Y-49387274D01*
X239844400Y-49353469D01*
X242199500Y-49353469D01*
X242239868Y-49556412D01*
X242239870Y-49556420D01*
X242319058Y-49747596D01*
X242434024Y-49919657D01*
X242580342Y-50065975D01*
X242580345Y-50065977D01*
X242752402Y-50180941D01*
X242943580Y-50260130D01*
X243146530Y-50300499D01*
X243146534Y-50300500D01*
X243146535Y-50300500D01*
X243353466Y-50300500D01*
X243353467Y-50300499D01*
X243556420Y-50260130D01*
X243747598Y-50180941D01*
X243919655Y-50065977D01*
X244065977Y-49919655D01*
X244180941Y-49747598D01*
X244260130Y-49556420D01*
X244300499Y-49353469D01*
X251199500Y-49353469D01*
X251239868Y-49556412D01*
X251239870Y-49556420D01*
X251319058Y-49747596D01*
X251434024Y-49919657D01*
X251580342Y-50065975D01*
X251580345Y-50065977D01*
X251752402Y-50180941D01*
X251943580Y-50260130D01*
X252146530Y-50300499D01*
X252146534Y-50300500D01*
X252146535Y-50300500D01*
X252353466Y-50300500D01*
X252353467Y-50300499D01*
X252556420Y-50260130D01*
X252747598Y-50180941D01*
X252919655Y-50065977D01*
X253065977Y-49919655D01*
X253180941Y-49747598D01*
X253260130Y-49556420D01*
X253293776Y-49387267D01*
X255655600Y-49387267D01*
X255655601Y-49387283D01*
X255691434Y-49659463D01*
X255691435Y-49659468D01*
X255691436Y-49659474D01*
X255715049Y-49747598D01*
X255762494Y-49924666D01*
X255762497Y-49924676D01*
X255867556Y-50178310D01*
X255867560Y-50178320D01*
X256004832Y-50416082D01*
X256171966Y-50633895D01*
X256171972Y-50633902D01*
X256366097Y-50828027D01*
X256366104Y-50828033D01*
X256583917Y-50995167D01*
X256821679Y-51132439D01*
X256821680Y-51132439D01*
X256821683Y-51132441D01*
X257075333Y-51237506D01*
X257340526Y-51308564D01*
X257612726Y-51344400D01*
X257612733Y-51344400D01*
X257887267Y-51344400D01*
X257887274Y-51344400D01*
X258159474Y-51308564D01*
X258424667Y-51237506D01*
X258678317Y-51132441D01*
X258916083Y-50995167D01*
X259133897Y-50828032D01*
X259328032Y-50633897D01*
X259495167Y-50416083D01*
X259632441Y-50178317D01*
X259737506Y-49924667D01*
X259808564Y-49659474D01*
X259844400Y-49387274D01*
X259844400Y-49353469D01*
X262199500Y-49353469D01*
X262239868Y-49556412D01*
X262239870Y-49556420D01*
X262319058Y-49747596D01*
X262434024Y-49919657D01*
X262580342Y-50065975D01*
X262580345Y-50065977D01*
X262752402Y-50180941D01*
X262943580Y-50260130D01*
X263146530Y-50300499D01*
X263146534Y-50300500D01*
X263146535Y-50300500D01*
X263353466Y-50300500D01*
X263353467Y-50300499D01*
X263556420Y-50260130D01*
X263747598Y-50180941D01*
X263919655Y-50065977D01*
X264065977Y-49919655D01*
X264180941Y-49747598D01*
X264260130Y-49556420D01*
X264300500Y-49353465D01*
X264300500Y-49146535D01*
X264260130Y-48943580D01*
X264180941Y-48752402D01*
X264065977Y-48580345D01*
X264065975Y-48580342D01*
X263919657Y-48434024D01*
X263751519Y-48321679D01*
X263747598Y-48319059D01*
X263556420Y-48239870D01*
X263556412Y-48239868D01*
X263353469Y-48199500D01*
X263353465Y-48199500D01*
X263146535Y-48199500D01*
X263146530Y-48199500D01*
X262943587Y-48239868D01*
X262943579Y-48239870D01*
X262752403Y-48319058D01*
X262580342Y-48434024D01*
X262434024Y-48580342D01*
X262319058Y-48752403D01*
X262239870Y-48943579D01*
X262239868Y-48943587D01*
X262199500Y-49146530D01*
X262199500Y-49353469D01*
X259844400Y-49353469D01*
X259844400Y-49112726D01*
X259808564Y-48840526D01*
X259737506Y-48575333D01*
X259632441Y-48321683D01*
X259630925Y-48319058D01*
X259495167Y-48083917D01*
X259328033Y-47866104D01*
X259328027Y-47866097D01*
X259133902Y-47671972D01*
X259133895Y-47671966D01*
X258916082Y-47504832D01*
X258678320Y-47367560D01*
X258678310Y-47367556D01*
X258424676Y-47262497D01*
X258424669Y-47262495D01*
X258424667Y-47262494D01*
X258159474Y-47191436D01*
X258159468Y-47191435D01*
X258159463Y-47191434D01*
X257887283Y-47155601D01*
X257887280Y-47155600D01*
X257887274Y-47155600D01*
X257612726Y-47155600D01*
X257612720Y-47155600D01*
X257612716Y-47155601D01*
X257340536Y-47191434D01*
X257340529Y-47191435D01*
X257340526Y-47191436D01*
X257075333Y-47262494D01*
X257075323Y-47262497D01*
X256821689Y-47367556D01*
X256821679Y-47367560D01*
X256583917Y-47504832D01*
X256366104Y-47671966D01*
X256366097Y-47671972D01*
X256171972Y-47866097D01*
X256171966Y-47866104D01*
X256004832Y-48083917D01*
X255867560Y-48321679D01*
X255867556Y-48321689D01*
X255762497Y-48575323D01*
X255762494Y-48575333D01*
X255715049Y-48752403D01*
X255691437Y-48840523D01*
X255691434Y-48840536D01*
X255655601Y-49112716D01*
X255655600Y-49112732D01*
X255655600Y-49387267D01*
X253293776Y-49387267D01*
X253300500Y-49353465D01*
X253300500Y-49146535D01*
X253260130Y-48943580D01*
X253180941Y-48752402D01*
X253065977Y-48580345D01*
X253065975Y-48580342D01*
X252919657Y-48434024D01*
X252751519Y-48321679D01*
X252747598Y-48319059D01*
X252556420Y-48239870D01*
X252556412Y-48239868D01*
X252353469Y-48199500D01*
X252353465Y-48199500D01*
X252146535Y-48199500D01*
X252146530Y-48199500D01*
X251943587Y-48239868D01*
X251943579Y-48239870D01*
X251752403Y-48319058D01*
X251580342Y-48434024D01*
X251434024Y-48580342D01*
X251319058Y-48752403D01*
X251239870Y-48943579D01*
X251239868Y-48943587D01*
X251199500Y-49146530D01*
X251199500Y-49353469D01*
X244300499Y-49353469D01*
X244300500Y-49353465D01*
X244300500Y-49146535D01*
X244260130Y-48943580D01*
X244180941Y-48752402D01*
X244065977Y-48580345D01*
X244065975Y-48580342D01*
X243919657Y-48434024D01*
X243751519Y-48321679D01*
X243747598Y-48319059D01*
X243556420Y-48239870D01*
X243556412Y-48239868D01*
X243353469Y-48199500D01*
X243353465Y-48199500D01*
X243146535Y-48199500D01*
X243146530Y-48199500D01*
X242943587Y-48239868D01*
X242943579Y-48239870D01*
X242752403Y-48319058D01*
X242580342Y-48434024D01*
X242434024Y-48580342D01*
X242319058Y-48752403D01*
X242239870Y-48943579D01*
X242239868Y-48943587D01*
X242199500Y-49146530D01*
X242199500Y-49353469D01*
X239844400Y-49353469D01*
X239844400Y-49112726D01*
X239808564Y-48840526D01*
X239737506Y-48575333D01*
X239632441Y-48321683D01*
X239630925Y-48319058D01*
X239495167Y-48083917D01*
X239328033Y-47866104D01*
X239328027Y-47866097D01*
X239133902Y-47671972D01*
X239133895Y-47671966D01*
X238916082Y-47504832D01*
X238678320Y-47367560D01*
X238678310Y-47367556D01*
X238424676Y-47262497D01*
X238424669Y-47262495D01*
X238424667Y-47262494D01*
X238159474Y-47191436D01*
X238159468Y-47191435D01*
X238159463Y-47191434D01*
X237887283Y-47155601D01*
X237887280Y-47155600D01*
X237887274Y-47155600D01*
X237612726Y-47155600D01*
X237612720Y-47155600D01*
X237612716Y-47155601D01*
X237340536Y-47191434D01*
X237340529Y-47191435D01*
X237340526Y-47191436D01*
X237075333Y-47262494D01*
X237075323Y-47262497D01*
X236821689Y-47367556D01*
X236821679Y-47367560D01*
X236583917Y-47504832D01*
X236366104Y-47671966D01*
X236366097Y-47671972D01*
X236171972Y-47866097D01*
X236171966Y-47866104D01*
X236004832Y-48083917D01*
X235867560Y-48321679D01*
X235867556Y-48321689D01*
X235762497Y-48575323D01*
X235762494Y-48575333D01*
X235715049Y-48752403D01*
X235691437Y-48840523D01*
X235691434Y-48840536D01*
X235655601Y-49112716D01*
X235655600Y-49112732D01*
X235655600Y-49387267D01*
X233293776Y-49387267D01*
X233300500Y-49353465D01*
X233300500Y-49146535D01*
X233260130Y-48943580D01*
X233180941Y-48752402D01*
X233065977Y-48580345D01*
X233065975Y-48580342D01*
X232919657Y-48434024D01*
X232751519Y-48321679D01*
X232747598Y-48319059D01*
X232556420Y-48239870D01*
X232556412Y-48239868D01*
X232353469Y-48199500D01*
X232353465Y-48199500D01*
X232146535Y-48199500D01*
X232146530Y-48199500D01*
X231943587Y-48239868D01*
X231943579Y-48239870D01*
X231752403Y-48319058D01*
X231580342Y-48434024D01*
X231434024Y-48580342D01*
X231319058Y-48752403D01*
X231239870Y-48943579D01*
X231239868Y-48943587D01*
X231199500Y-49146530D01*
X231199500Y-49353469D01*
X224300499Y-49353469D01*
X224300500Y-49353465D01*
X224300500Y-49146535D01*
X224260130Y-48943580D01*
X224180941Y-48752402D01*
X224065977Y-48580345D01*
X224065975Y-48580342D01*
X223919657Y-48434024D01*
X223751519Y-48321679D01*
X223747598Y-48319059D01*
X223556420Y-48239870D01*
X223556412Y-48239868D01*
X223353469Y-48199500D01*
X223353465Y-48199500D01*
X223146535Y-48199500D01*
X223146530Y-48199500D01*
X222943587Y-48239868D01*
X222943579Y-48239870D01*
X222752403Y-48319058D01*
X222580342Y-48434024D01*
X222434024Y-48580342D01*
X222319058Y-48752403D01*
X222239870Y-48943579D01*
X222239868Y-48943587D01*
X222199500Y-49146530D01*
X222199500Y-49353469D01*
X219844400Y-49353469D01*
X219844400Y-49112726D01*
X219808564Y-48840526D01*
X219737506Y-48575333D01*
X219632441Y-48321683D01*
X219630925Y-48319058D01*
X219495167Y-48083917D01*
X219328033Y-47866104D01*
X219328027Y-47866097D01*
X219133902Y-47671972D01*
X219133895Y-47671966D01*
X218916082Y-47504832D01*
X218678320Y-47367560D01*
X218678310Y-47367556D01*
X218424676Y-47262497D01*
X218424669Y-47262495D01*
X218424667Y-47262494D01*
X218159474Y-47191436D01*
X218159468Y-47191435D01*
X218159463Y-47191434D01*
X217887283Y-47155601D01*
X217887280Y-47155600D01*
X217887274Y-47155600D01*
X217612726Y-47155600D01*
X217612720Y-47155600D01*
X217612716Y-47155601D01*
X217340536Y-47191434D01*
X217340529Y-47191435D01*
X217340526Y-47191436D01*
X217075333Y-47262494D01*
X217075323Y-47262497D01*
X216821689Y-47367556D01*
X216821679Y-47367560D01*
X216583917Y-47504832D01*
X216366104Y-47671966D01*
X216366097Y-47671972D01*
X216171972Y-47866097D01*
X216171966Y-47866104D01*
X216004832Y-48083917D01*
X215867560Y-48321679D01*
X215867556Y-48321689D01*
X215762497Y-48575323D01*
X215762494Y-48575333D01*
X215715049Y-48752403D01*
X215691437Y-48840523D01*
X215691434Y-48840536D01*
X215655601Y-49112716D01*
X215655600Y-49112732D01*
X215655600Y-49387267D01*
X213293776Y-49387267D01*
X213300500Y-49353465D01*
X213300500Y-49146535D01*
X213260130Y-48943580D01*
X213180941Y-48752402D01*
X213065977Y-48580345D01*
X213065975Y-48580342D01*
X212919657Y-48434024D01*
X212751519Y-48321679D01*
X212747598Y-48319059D01*
X212556420Y-48239870D01*
X212556412Y-48239868D01*
X212353469Y-48199500D01*
X212353465Y-48199500D01*
X212146535Y-48199500D01*
X212146530Y-48199500D01*
X211943587Y-48239868D01*
X211943579Y-48239870D01*
X211752403Y-48319058D01*
X211580342Y-48434024D01*
X211434024Y-48580342D01*
X211319058Y-48752403D01*
X211239870Y-48943579D01*
X211239868Y-48943587D01*
X211199500Y-49146530D01*
X211199500Y-49353469D01*
X204300499Y-49353469D01*
X204300500Y-49353465D01*
X204300500Y-49146535D01*
X204260130Y-48943580D01*
X204180941Y-48752402D01*
X204065977Y-48580345D01*
X204065975Y-48580342D01*
X203919657Y-48434024D01*
X203751519Y-48321679D01*
X203747598Y-48319059D01*
X203556420Y-48239870D01*
X203556412Y-48239868D01*
X203353469Y-48199500D01*
X203353465Y-48199500D01*
X203146535Y-48199500D01*
X203146530Y-48199500D01*
X202943587Y-48239868D01*
X202943579Y-48239870D01*
X202752403Y-48319058D01*
X202580342Y-48434024D01*
X202434024Y-48580342D01*
X202319058Y-48752403D01*
X202239870Y-48943579D01*
X202239868Y-48943587D01*
X202199500Y-49146530D01*
X202199500Y-49353469D01*
X199844400Y-49353469D01*
X199844400Y-49112726D01*
X199808564Y-48840526D01*
X199737506Y-48575333D01*
X199632441Y-48321683D01*
X199630925Y-48319058D01*
X199495167Y-48083917D01*
X199328033Y-47866104D01*
X199328027Y-47866097D01*
X199133902Y-47671972D01*
X199133895Y-47671966D01*
X198916082Y-47504832D01*
X198678320Y-47367560D01*
X198678310Y-47367556D01*
X198424676Y-47262497D01*
X198424669Y-47262495D01*
X198424667Y-47262494D01*
X198159474Y-47191436D01*
X198159468Y-47191435D01*
X198159463Y-47191434D01*
X197887283Y-47155601D01*
X197887280Y-47155600D01*
X197887274Y-47155600D01*
X197612726Y-47155600D01*
X197612720Y-47155600D01*
X197612716Y-47155601D01*
X197340536Y-47191434D01*
X197340529Y-47191435D01*
X197340526Y-47191436D01*
X197075333Y-47262494D01*
X197075323Y-47262497D01*
X196821689Y-47367556D01*
X196821679Y-47367560D01*
X196583917Y-47504832D01*
X196366104Y-47671966D01*
X196366097Y-47671972D01*
X196171972Y-47866097D01*
X196171966Y-47866104D01*
X196004832Y-48083917D01*
X195867560Y-48321679D01*
X195867556Y-48321689D01*
X195762497Y-48575323D01*
X195762494Y-48575333D01*
X195715049Y-48752403D01*
X195691437Y-48840523D01*
X195691434Y-48840536D01*
X195655601Y-49112716D01*
X195655600Y-49112732D01*
X195655600Y-49387267D01*
X193293776Y-49387267D01*
X193300500Y-49353465D01*
X193300500Y-49146535D01*
X193260130Y-48943580D01*
X193180941Y-48752402D01*
X193065977Y-48580345D01*
X193065975Y-48580342D01*
X192919657Y-48434024D01*
X192751519Y-48321679D01*
X192747598Y-48319059D01*
X192556420Y-48239870D01*
X192556412Y-48239868D01*
X192353469Y-48199500D01*
X192353465Y-48199500D01*
X192146535Y-48199500D01*
X192146530Y-48199500D01*
X191943587Y-48239868D01*
X191943579Y-48239870D01*
X191752403Y-48319058D01*
X191580342Y-48434024D01*
X191434024Y-48580342D01*
X191319058Y-48752403D01*
X191239870Y-48943579D01*
X191239868Y-48943587D01*
X191199500Y-49146530D01*
X191199500Y-49353469D01*
X188050500Y-49353469D01*
X188050500Y-46736003D01*
X225254435Y-46736003D01*
X225274630Y-46915249D01*
X225274631Y-46915254D01*
X225334211Y-47085523D01*
X225400760Y-47191434D01*
X225430184Y-47238262D01*
X225557738Y-47365816D01*
X225710478Y-47461789D01*
X225833488Y-47504832D01*
X225880745Y-47521368D01*
X225880750Y-47521369D01*
X226059996Y-47541565D01*
X226060000Y-47541565D01*
X226060004Y-47541565D01*
X226239249Y-47521369D01*
X226239252Y-47521368D01*
X226239255Y-47521368D01*
X226409522Y-47461789D01*
X226562262Y-47365816D01*
X226689816Y-47238262D01*
X226785789Y-47085522D01*
X226845368Y-46915255D01*
X226855161Y-46828329D01*
X226882226Y-46763918D01*
X226890690Y-46754543D01*
X229380535Y-44264698D01*
X229441856Y-44231215D01*
X229454311Y-44229163D01*
X229541255Y-44219368D01*
X229711522Y-44159789D01*
X229864262Y-44063816D01*
X229991816Y-43936262D01*
X230087789Y-43783522D01*
X230147368Y-43613255D01*
X230153840Y-43555815D01*
X230167565Y-43434003D01*
X230167565Y-43433996D01*
X230147369Y-43254750D01*
X230147368Y-43254745D01*
X230121215Y-43180003D01*
X230087789Y-43084478D01*
X229991816Y-42931738D01*
X229864262Y-42804184D01*
X229711523Y-42708211D01*
X229608047Y-42672003D01*
X247098435Y-42672003D01*
X247118630Y-42851249D01*
X247118631Y-42851254D01*
X247178211Y-43021523D01*
X247217769Y-43084478D01*
X247274184Y-43174262D01*
X247401738Y-43301816D01*
X247554478Y-43397789D01*
X247724745Y-43457368D01*
X247811669Y-43467161D01*
X247876080Y-43494226D01*
X247885465Y-43502700D01*
X248435139Y-44052374D01*
X248435149Y-44052385D01*
X248439479Y-44056715D01*
X248439480Y-44056716D01*
X248551284Y-44168520D01*
X248638095Y-44218639D01*
X248638097Y-44218641D01*
X248688213Y-44247576D01*
X248688215Y-44247577D01*
X248806998Y-44279405D01*
X248866657Y-44315769D01*
X248894289Y-44368698D01*
X248894333Y-44368683D01*
X248894438Y-44368983D01*
X248895791Y-44371575D01*
X248896628Y-44375244D01*
X248956210Y-44545521D01*
X249052184Y-44698262D01*
X249179738Y-44825816D01*
X249332478Y-44921789D01*
X249502745Y-44981368D01*
X249502750Y-44981369D01*
X249681996Y-45001565D01*
X249682000Y-45001565D01*
X249682004Y-45001565D01*
X249861249Y-44981369D01*
X249861252Y-44981368D01*
X249861255Y-44981368D01*
X250031522Y-44921789D01*
X250184262Y-44825816D01*
X250311816Y-44698262D01*
X250407789Y-44545522D01*
X250467368Y-44375255D01*
X250467369Y-44375249D01*
X250487565Y-44196003D01*
X250487565Y-44195997D01*
X250477489Y-44106576D01*
X250489543Y-44037754D01*
X250536892Y-43986375D01*
X250586824Y-43969472D01*
X250623255Y-43965368D01*
X250793522Y-43905789D01*
X250946262Y-43809816D01*
X251073816Y-43682262D01*
X251169789Y-43529522D01*
X251229368Y-43359255D01*
X251231350Y-43341668D01*
X251249565Y-43180003D01*
X251249565Y-43179996D01*
X251229369Y-43000750D01*
X251229368Y-43000745D01*
X251203215Y-42926003D01*
X251169789Y-42830478D01*
X251153267Y-42804184D01*
X251073815Y-42677737D01*
X250946262Y-42550184D01*
X250793521Y-42454210D01*
X250623249Y-42394630D01*
X250536330Y-42384837D01*
X250471916Y-42357770D01*
X250462533Y-42349298D01*
X249750700Y-41637465D01*
X249717215Y-41576142D01*
X249715163Y-41563686D01*
X249705368Y-41476745D01*
X249645789Y-41306478D01*
X249549816Y-41153738D01*
X249422262Y-41026184D01*
X249269523Y-40930211D01*
X249099254Y-40870631D01*
X249099249Y-40870630D01*
X248920004Y-40850435D01*
X248919996Y-40850435D01*
X248740750Y-40870630D01*
X248740745Y-40870631D01*
X248570476Y-40930211D01*
X248417737Y-41026184D01*
X248290184Y-41153737D01*
X248194211Y-41306476D01*
X248134631Y-41476745D01*
X248134630Y-41476750D01*
X248114435Y-41655996D01*
X248114435Y-41656005D01*
X248123745Y-41738643D01*
X248111690Y-41807465D01*
X248064340Y-41858843D01*
X247996730Y-41876467D01*
X247986643Y-41875745D01*
X247904005Y-41866435D01*
X247903996Y-41866435D01*
X247724750Y-41886630D01*
X247724745Y-41886631D01*
X247554476Y-41946211D01*
X247401737Y-42042184D01*
X247274184Y-42169737D01*
X247178211Y-42322476D01*
X247118631Y-42492745D01*
X247118630Y-42492750D01*
X247098435Y-42671996D01*
X247098435Y-42672003D01*
X229608047Y-42672003D01*
X229541254Y-42648631D01*
X229541249Y-42648630D01*
X229362004Y-42628435D01*
X229361996Y-42628435D01*
X229182750Y-42648630D01*
X229182745Y-42648631D01*
X229012476Y-42708211D01*
X228859737Y-42804184D01*
X228732184Y-42931737D01*
X228636210Y-43084478D01*
X228576630Y-43254750D01*
X228566837Y-43341668D01*
X228539770Y-43406082D01*
X228531298Y-43415465D01*
X226041465Y-45905298D01*
X225980142Y-45938783D01*
X225967668Y-45940837D01*
X225880750Y-45950630D01*
X225710478Y-46010210D01*
X225557737Y-46106184D01*
X225430184Y-46233737D01*
X225334211Y-46386476D01*
X225274631Y-46556745D01*
X225274630Y-46556750D01*
X225254435Y-46735996D01*
X225254435Y-46736003D01*
X188050500Y-46736003D01*
X188050500Y-45720003D01*
X207220435Y-45720003D01*
X207240630Y-45899249D01*
X207240631Y-45899254D01*
X207300211Y-46069523D01*
X207323247Y-46106184D01*
X207396184Y-46222262D01*
X207523738Y-46349816D01*
X207676478Y-46445789D01*
X207846745Y-46505368D01*
X207846750Y-46505369D01*
X208025996Y-46525565D01*
X208026000Y-46525565D01*
X208026004Y-46525565D01*
X208205249Y-46505369D01*
X208205252Y-46505368D01*
X208205255Y-46505368D01*
X208375522Y-46445789D01*
X208528262Y-46349816D01*
X208655816Y-46222262D01*
X208751789Y-46069522D01*
X208811368Y-45899255D01*
X208821161Y-45812329D01*
X208848226Y-45747918D01*
X208856690Y-45738543D01*
X210838536Y-43756698D01*
X210899857Y-43723215D01*
X210912310Y-43721163D01*
X210999255Y-43711368D01*
X211169522Y-43651789D01*
X211322262Y-43555816D01*
X211449816Y-43428262D01*
X211545789Y-43275522D01*
X211605368Y-43105255D01*
X211607709Y-43084478D01*
X211625565Y-42926003D01*
X211625565Y-42925996D01*
X211605369Y-42746750D01*
X211605368Y-42746745D01*
X211579215Y-42672003D01*
X211545789Y-42576478D01*
X211529267Y-42550184D01*
X211493176Y-42492745D01*
X211449816Y-42423738D01*
X211322262Y-42296184D01*
X211169523Y-42200211D01*
X210999254Y-42140631D01*
X210999249Y-42140630D01*
X210820004Y-42120435D01*
X210819996Y-42120435D01*
X210640750Y-42140630D01*
X210640745Y-42140631D01*
X210470476Y-42200211D01*
X210317737Y-42296184D01*
X210190184Y-42423737D01*
X210094210Y-42576478D01*
X210034630Y-42746750D01*
X210024837Y-42833667D01*
X209997770Y-42898081D01*
X209989298Y-42907464D01*
X208007465Y-44889298D01*
X207946142Y-44922783D01*
X207933668Y-44924837D01*
X207846750Y-44934630D01*
X207676478Y-44994210D01*
X207523737Y-45090184D01*
X207396184Y-45217737D01*
X207300211Y-45370476D01*
X207240631Y-45540745D01*
X207240630Y-45540750D01*
X207220435Y-45719996D01*
X207220435Y-45720003D01*
X188050500Y-45720003D01*
X188050500Y-37846005D01*
X188856754Y-37846005D01*
X188875718Y-38147446D01*
X188875719Y-38147453D01*
X188932320Y-38444164D01*
X189025659Y-38731431D01*
X189025661Y-38731436D01*
X189154265Y-39004732D01*
X189154268Y-39004738D01*
X189316111Y-39259763D01*
X189508652Y-39492505D01*
X189728836Y-39699272D01*
X189728846Y-39699280D01*
X189973193Y-39876808D01*
X189973198Y-39876810D01*
X189973205Y-39876816D01*
X190237896Y-40022332D01*
X190237901Y-40022334D01*
X190237903Y-40022335D01*
X190237904Y-40022336D01*
X190518734Y-40133524D01*
X190518737Y-40133525D01*
X190616259Y-40158564D01*
X190811302Y-40208642D01*
X190958039Y-40227179D01*
X191110963Y-40246499D01*
X191110969Y-40246499D01*
X191110973Y-40246500D01*
X191110975Y-40246500D01*
X191413025Y-40246500D01*
X191413027Y-40246500D01*
X191413032Y-40246499D01*
X191413036Y-40246499D01*
X191492591Y-40236448D01*
X191712698Y-40208642D01*
X192005262Y-40133525D01*
X192005265Y-40133524D01*
X192286095Y-40022336D01*
X192286096Y-40022335D01*
X192286094Y-40022335D01*
X192286104Y-40022332D01*
X192550795Y-39876816D01*
X192795162Y-39699274D01*
X193015349Y-39492504D01*
X193207885Y-39259768D01*
X193369733Y-39004736D01*
X193498341Y-38731430D01*
X193591681Y-38444160D01*
X193648280Y-38147457D01*
X193648281Y-38147446D01*
X193667246Y-37846005D01*
X193667246Y-37845994D01*
X193651266Y-37592005D01*
X261754754Y-37592005D01*
X261773718Y-37893446D01*
X261773719Y-37893453D01*
X261830320Y-38190164D01*
X261923659Y-38477431D01*
X261923661Y-38477436D01*
X262052265Y-38750732D01*
X262052268Y-38750738D01*
X262214111Y-39005763D01*
X262406652Y-39238505D01*
X262626836Y-39445272D01*
X262626846Y-39445280D01*
X262871193Y-39622808D01*
X262871198Y-39622810D01*
X262871205Y-39622816D01*
X263135896Y-39768332D01*
X263135901Y-39768334D01*
X263135903Y-39768335D01*
X263135904Y-39768336D01*
X263416734Y-39879524D01*
X263416737Y-39879525D01*
X263514259Y-39904564D01*
X263709302Y-39954642D01*
X263856039Y-39973179D01*
X264008963Y-39992499D01*
X264008969Y-39992499D01*
X264008973Y-39992500D01*
X264008975Y-39992500D01*
X264311025Y-39992500D01*
X264311027Y-39992500D01*
X264311032Y-39992499D01*
X264311036Y-39992499D01*
X264390591Y-39982448D01*
X264610698Y-39954642D01*
X264903262Y-39879525D01*
X264903265Y-39879524D01*
X265184095Y-39768336D01*
X265184096Y-39768335D01*
X265184094Y-39768335D01*
X265184104Y-39768332D01*
X265448795Y-39622816D01*
X265693162Y-39445274D01*
X265913349Y-39238504D01*
X266105885Y-39005768D01*
X266267733Y-38750736D01*
X266396341Y-38477430D01*
X266489681Y-38190160D01*
X266546280Y-37893457D01*
X266546281Y-37893446D01*
X266565246Y-37592005D01*
X266565246Y-37591994D01*
X266546281Y-37290553D01*
X266546280Y-37290546D01*
X266546280Y-37290543D01*
X266489681Y-36993840D01*
X266396341Y-36706570D01*
X266387256Y-36687264D01*
X266267734Y-36433267D01*
X266267733Y-36433264D01*
X266119380Y-36199496D01*
X266105888Y-36178236D01*
X265913347Y-35945494D01*
X265693163Y-35738727D01*
X265693153Y-35738719D01*
X265448806Y-35561191D01*
X265448799Y-35561186D01*
X265448795Y-35561184D01*
X265184104Y-35415668D01*
X265184101Y-35415666D01*
X265184096Y-35415664D01*
X265184095Y-35415663D01*
X264903265Y-35304475D01*
X264903262Y-35304474D01*
X264610695Y-35229357D01*
X264311036Y-35191500D01*
X264311027Y-35191500D01*
X264008973Y-35191500D01*
X264008963Y-35191500D01*
X263709304Y-35229357D01*
X263416737Y-35304474D01*
X263416734Y-35304475D01*
X263135904Y-35415663D01*
X263135903Y-35415664D01*
X262871205Y-35561184D01*
X262871193Y-35561191D01*
X262626846Y-35738719D01*
X262626836Y-35738727D01*
X262406652Y-35945494D01*
X262214111Y-36178236D01*
X262052268Y-36433261D01*
X262052265Y-36433267D01*
X261923661Y-36706563D01*
X261923659Y-36706568D01*
X261830320Y-36993835D01*
X261773719Y-37290546D01*
X261773718Y-37290553D01*
X261754754Y-37591994D01*
X261754754Y-37592005D01*
X193651266Y-37592005D01*
X193648281Y-37544553D01*
X193648280Y-37544546D01*
X193648280Y-37544543D01*
X193591681Y-37247840D01*
X193498341Y-36960570D01*
X193369733Y-36687264D01*
X193207885Y-36432232D01*
X193015349Y-36199496D01*
X192992709Y-36178236D01*
X192795163Y-35992727D01*
X192795153Y-35992719D01*
X192550806Y-35815191D01*
X192550799Y-35815186D01*
X192550795Y-35815184D01*
X192286104Y-35669668D01*
X192286101Y-35669666D01*
X192286096Y-35669664D01*
X192286095Y-35669663D01*
X192005265Y-35558475D01*
X192005262Y-35558474D01*
X191712695Y-35483357D01*
X191413036Y-35445500D01*
X191413027Y-35445500D01*
X191110973Y-35445500D01*
X191110963Y-35445500D01*
X190811304Y-35483357D01*
X190518737Y-35558474D01*
X190518734Y-35558475D01*
X190237904Y-35669663D01*
X190237903Y-35669664D01*
X189973205Y-35815184D01*
X189973193Y-35815191D01*
X189728846Y-35992719D01*
X189728836Y-35992727D01*
X189508652Y-36199494D01*
X189316111Y-36432236D01*
X189154268Y-36687261D01*
X189154265Y-36687267D01*
X189025661Y-36960563D01*
X189025659Y-36960568D01*
X188932320Y-37247835D01*
X188875719Y-37544546D01*
X188875718Y-37544553D01*
X188856754Y-37845994D01*
X188856754Y-37846005D01*
X188050500Y-37846005D01*
X188050500Y-34674500D01*
X188070185Y-34607461D01*
X188122989Y-34561706D01*
X188174500Y-34550500D01*
X267325500Y-34550500D01*
X267392539Y-34570185D01*
G37*
%TD.AperFunction*%
%TD*%
M02*
