%TF.GenerationSoftware,KiCad,Pcbnew,8.0.1*%
%TF.CreationDate,2024-09-23T21:29:01+02:00*%
%TF.ProjectId,Macro keyboard,4d616372-6f20-46b6-9579-626f6172642e,rev?*%
%TF.SameCoordinates,Original*%
%TF.FileFunction,Paste,Top*%
%TF.FilePolarity,Positive*%
%FSLAX46Y46*%
G04 Gerber Fmt 4.6, Leading zero omitted, Abs format (unit mm)*
G04 Created by KiCad (PCBNEW 8.0.1) date 2024-09-23 21:29:01*
%MOMM*%
%LPD*%
G01*
G04 APERTURE LIST*
G04 Aperture macros list*
%AMRoundRect*
0 Rectangle with rounded corners*
0 $1 Rounding radius*
0 $2 $3 $4 $5 $6 $7 $8 $9 X,Y pos of 4 corners*
0 Add a 4 corners polygon primitive as box body*
4,1,4,$2,$3,$4,$5,$6,$7,$8,$9,$2,$3,0*
0 Add four circle primitives for the rounded corners*
1,1,$1+$1,$2,$3*
1,1,$1+$1,$4,$5*
1,1,$1+$1,$6,$7*
1,1,$1+$1,$8,$9*
0 Add four rect primitives between the rounded corners*
20,1,$1+$1,$2,$3,$4,$5,0*
20,1,$1+$1,$4,$5,$6,$7,0*
20,1,$1+$1,$6,$7,$8,$9,0*
20,1,$1+$1,$8,$9,$2,$3,0*%
G04 Aperture macros list end*
%ADD10R,0.850000X0.650000*%
%ADD11RoundRect,0.225000X0.250000X-0.225000X0.250000X0.225000X-0.250000X0.225000X-0.250000X-0.225000X0*%
G04 APERTURE END LIST*
D10*
%TO.C,D7*%
X219600000Y-85200000D03*
X219600000Y-83900000D03*
X218250000Y-83900000D03*
X218250000Y-85200000D03*
%TD*%
%TO.C,D2*%
X199475000Y-45150000D03*
X199475000Y-43850000D03*
X198125000Y-43850000D03*
X198125000Y-45150000D03*
%TD*%
D11*
%TO.C,C13*%
X196450000Y-45325000D03*
X196450000Y-43775000D03*
%TD*%
%TO.C,C21*%
X235950000Y-85300000D03*
X235950000Y-83750000D03*
%TD*%
D10*
%TO.C,D9*%
X239600000Y-65150000D03*
X239600000Y-63850000D03*
X238250000Y-63850000D03*
X238250000Y-65150000D03*
%TD*%
D11*
%TO.C,C23*%
X196000000Y-85325000D03*
X196000000Y-83775000D03*
%TD*%
D10*
%TO.C,D6*%
X219600000Y-65200000D03*
X219600000Y-63900000D03*
X218250000Y-63900000D03*
X218250000Y-65200000D03*
%TD*%
D11*
%TO.C,C22*%
X216000000Y-85300000D03*
X216000000Y-83750000D03*
%TD*%
%TO.C,C18*%
X215950000Y-65275000D03*
X215950000Y-63725000D03*
%TD*%
%TO.C,C24*%
X256050000Y-85275000D03*
X256050000Y-83725000D03*
%TD*%
%TO.C,C20*%
X256000000Y-65300000D03*
X256000000Y-63750000D03*
%TD*%
D10*
%TO.C,D10*%
X239600000Y-85100000D03*
X239600000Y-83800000D03*
X238250000Y-83800000D03*
X238250000Y-85100000D03*
%TD*%
%TO.C,D3*%
X199600000Y-65150000D03*
X199600000Y-63850000D03*
X198250000Y-63850000D03*
X198250000Y-65150000D03*
%TD*%
%TO.C,D13*%
X259550000Y-85100000D03*
X259550000Y-83800000D03*
X258200000Y-83800000D03*
X258200000Y-85100000D03*
%TD*%
%TO.C,D4*%
X199600000Y-85150000D03*
X199600000Y-83850000D03*
X198250000Y-83850000D03*
X198250000Y-85150000D03*
%TD*%
D11*
%TO.C,C17*%
X196000000Y-65325000D03*
X196000000Y-63775000D03*
%TD*%
D10*
%TO.C,D12*%
X259600000Y-65150000D03*
X259600000Y-63850000D03*
X258250000Y-63850000D03*
X258250000Y-65150000D03*
%TD*%
%TO.C,D11*%
X259625000Y-45250000D03*
X259625000Y-43950000D03*
X258275000Y-43950000D03*
X258275000Y-45250000D03*
%TD*%
D11*
%TO.C,C15*%
X236450000Y-45275000D03*
X236450000Y-43725000D03*
%TD*%
%TO.C,C19*%
X236000000Y-65350000D03*
X236000000Y-63800000D03*
%TD*%
D10*
%TO.C,D8*%
X239525000Y-45200000D03*
X239525000Y-43900000D03*
X238175000Y-43900000D03*
X238175000Y-45200000D03*
%TD*%
%TO.C,D5*%
X219475000Y-45200000D03*
X219475000Y-43900000D03*
X218125000Y-43900000D03*
X218125000Y-45200000D03*
%TD*%
D11*
%TO.C,C16*%
X256000000Y-45350000D03*
X256000000Y-43800000D03*
%TD*%
%TO.C,C14*%
X216400000Y-45325000D03*
X216400000Y-43775000D03*
%TD*%
M02*
