%TF.GenerationSoftware,KiCad,Pcbnew,8.0.1*%
%TF.CreationDate,2024-09-23T21:28:50+02:00*%
%TF.ProjectId,Macro keyboard,4d616372-6f20-46b6-9579-626f6172642e,rev?*%
%TF.SameCoordinates,Original*%
%TF.FileFunction,Drillmap*%
%TF.FilePolarity,Positive*%
%FSLAX45Y45*%
G04 Gerber Fmt 4.5, Leading zero omitted, Abs format (unit mm)*
G04 Created by KiCad (PCBNEW 8.0.1) date 2024-09-23 21:28:50*
%MOMM*%
%LPD*%
G01*
G04 APERTURE LIST*
%ADD10C,0.200000*%
%ADD11C,0.125000*%
%ADD12C,0.190000*%
%ADD13C,0.300000*%
%ADD14C,0.398780*%
G04 APERTURE END LIST*
D10*
X18775000Y-3425000D02*
X26775000Y-3425000D01*
X26775000Y-10732600D01*
X18775000Y-10732600D01*
X18775000Y-3425000D01*
D11*
X20539900Y-10409900D02*
X20664900Y-10534900D01*
X20664900Y-10409900D02*
X20539900Y-10534900D01*
D12*
X19320000Y-4925000D02*
G75*
G02*
X19130000Y-4925000I-95000J0D01*
G01*
X19130000Y-4925000D02*
G75*
G02*
X19320000Y-4925000I95000J0D01*
G01*
X19320000Y-6925000D02*
G75*
G02*
X19130000Y-6925000I-95000J0D01*
G01*
X19130000Y-6925000D02*
G75*
G02*
X19320000Y-6925000I95000J0D01*
G01*
X19320000Y-8925000D02*
G75*
G02*
X19130000Y-8925000I-95000J0D01*
G01*
X19130000Y-8925000D02*
G75*
G02*
X19320000Y-8925000I95000J0D01*
G01*
X20420000Y-4925000D02*
G75*
G02*
X20230000Y-4925000I-95000J0D01*
G01*
X20230000Y-4925000D02*
G75*
G02*
X20420000Y-4925000I95000J0D01*
G01*
X20420000Y-6925000D02*
G75*
G02*
X20230000Y-6925000I-95000J0D01*
G01*
X20230000Y-6925000D02*
G75*
G02*
X20420000Y-6925000I95000J0D01*
G01*
X20420000Y-8925000D02*
G75*
G02*
X20230000Y-8925000I-95000J0D01*
G01*
X20230000Y-8925000D02*
G75*
G02*
X20420000Y-8925000I95000J0D01*
G01*
X21320000Y-4925000D02*
G75*
G02*
X21130000Y-4925000I-95000J0D01*
G01*
X21130000Y-4925000D02*
G75*
G02*
X21320000Y-4925000I95000J0D01*
G01*
X21320000Y-6925000D02*
G75*
G02*
X21130000Y-6925000I-95000J0D01*
G01*
X21130000Y-6925000D02*
G75*
G02*
X21320000Y-6925000I95000J0D01*
G01*
X21320000Y-8925000D02*
G75*
G02*
X21130000Y-8925000I-95000J0D01*
G01*
X21130000Y-8925000D02*
G75*
G02*
X21320000Y-8925000I95000J0D01*
G01*
X22420000Y-4925000D02*
G75*
G02*
X22230000Y-4925000I-95000J0D01*
G01*
X22230000Y-4925000D02*
G75*
G02*
X22420000Y-4925000I95000J0D01*
G01*
X22420000Y-6925000D02*
G75*
G02*
X22230000Y-6925000I-95000J0D01*
G01*
X22230000Y-6925000D02*
G75*
G02*
X22420000Y-6925000I95000J0D01*
G01*
X22420000Y-8925000D02*
G75*
G02*
X22230000Y-8925000I-95000J0D01*
G01*
X22230000Y-8925000D02*
G75*
G02*
X22420000Y-8925000I95000J0D01*
G01*
X23320000Y-4925000D02*
G75*
G02*
X23130000Y-4925000I-95000J0D01*
G01*
X23130000Y-4925000D02*
G75*
G02*
X23320000Y-4925000I95000J0D01*
G01*
X23320000Y-6925000D02*
G75*
G02*
X23130000Y-6925000I-95000J0D01*
G01*
X23130000Y-6925000D02*
G75*
G02*
X23320000Y-6925000I95000J0D01*
G01*
X23320000Y-8925000D02*
G75*
G02*
X23130000Y-8925000I-95000J0D01*
G01*
X23130000Y-8925000D02*
G75*
G02*
X23320000Y-8925000I95000J0D01*
G01*
X24420000Y-4925000D02*
G75*
G02*
X24230000Y-4925000I-95000J0D01*
G01*
X24230000Y-4925000D02*
G75*
G02*
X24420000Y-4925000I95000J0D01*
G01*
X24420000Y-6925000D02*
G75*
G02*
X24230000Y-6925000I-95000J0D01*
G01*
X24230000Y-6925000D02*
G75*
G02*
X24420000Y-6925000I95000J0D01*
G01*
X24420000Y-8925000D02*
G75*
G02*
X24230000Y-8925000I-95000J0D01*
G01*
X24230000Y-8925000D02*
G75*
G02*
X24420000Y-8925000I95000J0D01*
G01*
X25320000Y-4925000D02*
G75*
G02*
X25130000Y-4925000I-95000J0D01*
G01*
X25130000Y-4925000D02*
G75*
G02*
X25320000Y-4925000I95000J0D01*
G01*
X25320000Y-6925000D02*
G75*
G02*
X25130000Y-6925000I-95000J0D01*
G01*
X25130000Y-6925000D02*
G75*
G02*
X25320000Y-6925000I95000J0D01*
G01*
X25320000Y-8925000D02*
G75*
G02*
X25130000Y-8925000I-95000J0D01*
G01*
X25130000Y-8925000D02*
G75*
G02*
X25320000Y-8925000I95000J0D01*
G01*
X26420000Y-4925000D02*
G75*
G02*
X26230000Y-4925000I-95000J0D01*
G01*
X26230000Y-4925000D02*
G75*
G02*
X26420000Y-4925000I95000J0D01*
G01*
X26420000Y-6925000D02*
G75*
G02*
X26230000Y-6925000I-95000J0D01*
G01*
X26230000Y-6925000D02*
G75*
G02*
X26420000Y-6925000I95000J0D01*
G01*
X26420000Y-8925000D02*
G75*
G02*
X26230000Y-8925000I-95000J0D01*
G01*
X26230000Y-8925000D02*
G75*
G02*
X26420000Y-8925000I95000J0D01*
G01*
D13*
X19275000Y-5150000D02*
X19275000Y-5450000D01*
X19125000Y-5300000D02*
X19425000Y-5300000D01*
X19275000Y-7150000D02*
X19275000Y-7450000D01*
X19125000Y-7300000D02*
X19425000Y-7300000D01*
X19275000Y-9150000D02*
X19275000Y-9450000D01*
X19125000Y-9300000D02*
X19425000Y-9300000D01*
X19775000Y-5370000D02*
X19775000Y-5670000D01*
X19625000Y-5520000D02*
X19925000Y-5520000D01*
X19775000Y-7370000D02*
X19775000Y-7670000D01*
X19625000Y-7520000D02*
X19925000Y-7520000D01*
X19775000Y-9370000D02*
X19775000Y-9670000D01*
X19625000Y-9520000D02*
X19925000Y-9520000D01*
X21275000Y-5150000D02*
X21275000Y-5450000D01*
X21125000Y-5300000D02*
X21425000Y-5300000D01*
X21275000Y-7150000D02*
X21275000Y-7450000D01*
X21125000Y-7300000D02*
X21425000Y-7300000D01*
X21275000Y-9150000D02*
X21275000Y-9450000D01*
X21125000Y-9300000D02*
X21425000Y-9300000D01*
X21775000Y-5370000D02*
X21775000Y-5670000D01*
X21625000Y-5520000D02*
X21925000Y-5520000D01*
X21775000Y-7370000D02*
X21775000Y-7670000D01*
X21625000Y-7520000D02*
X21925000Y-7520000D01*
X21775000Y-9370000D02*
X21775000Y-9670000D01*
X21625000Y-9520000D02*
X21925000Y-9520000D01*
X23275000Y-5150000D02*
X23275000Y-5450000D01*
X23125000Y-5300000D02*
X23425000Y-5300000D01*
X23275000Y-7150000D02*
X23275000Y-7450000D01*
X23125000Y-7300000D02*
X23425000Y-7300000D01*
X23275000Y-9150000D02*
X23275000Y-9450000D01*
X23125000Y-9300000D02*
X23425000Y-9300000D01*
X23775000Y-5370000D02*
X23775000Y-5670000D01*
X23625000Y-5520000D02*
X23925000Y-5520000D01*
X23775000Y-7370000D02*
X23775000Y-7670000D01*
X23625000Y-7520000D02*
X23925000Y-7520000D01*
X23775000Y-9370000D02*
X23775000Y-9670000D01*
X23625000Y-9520000D02*
X23925000Y-9520000D01*
X25275000Y-5150000D02*
X25275000Y-5450000D01*
X25125000Y-5300000D02*
X25425000Y-5300000D01*
X25275000Y-7150000D02*
X25275000Y-7450000D01*
X25125000Y-7300000D02*
X25425000Y-7300000D01*
X25275000Y-9150000D02*
X25275000Y-9450000D01*
X25125000Y-9300000D02*
X25425000Y-9300000D01*
X25775000Y-5370000D02*
X25775000Y-5670000D01*
X25625000Y-5520000D02*
X25925000Y-5520000D01*
X25775000Y-7370000D02*
X25775000Y-7670000D01*
X25625000Y-7520000D02*
X25925000Y-7520000D01*
X25775000Y-9370000D02*
X25775000Y-9670000D01*
X25625000Y-9520000D02*
X25925000Y-9520000D01*
D14*
X19915991Y-5065991D02*
X19915991Y-4784009D01*
X19634009Y-4784009D01*
X19634009Y-5065991D01*
X19915991Y-5065991D01*
X19915991Y-7065991D02*
X19915991Y-6784009D01*
X19634009Y-6784009D01*
X19634009Y-7065991D01*
X19915991Y-7065991D01*
X19915991Y-9065991D02*
X19915991Y-8784009D01*
X19634009Y-8784009D01*
X19634009Y-9065991D01*
X19915991Y-9065991D01*
X21915991Y-5065991D02*
X21915991Y-4784009D01*
X21634009Y-4784009D01*
X21634009Y-5065991D01*
X21915991Y-5065991D01*
X21915991Y-7065991D02*
X21915991Y-6784009D01*
X21634009Y-6784009D01*
X21634009Y-7065991D01*
X21915991Y-7065991D01*
X21915991Y-9065991D02*
X21915991Y-8784009D01*
X21634009Y-8784009D01*
X21634009Y-9065991D01*
X21915991Y-9065991D01*
X23915991Y-5065991D02*
X23915991Y-4784009D01*
X23634009Y-4784009D01*
X23634009Y-5065991D01*
X23915991Y-5065991D01*
X23915991Y-7065991D02*
X23915991Y-6784009D01*
X23634009Y-6784009D01*
X23634009Y-7065991D01*
X23915991Y-7065991D01*
X23915991Y-9065991D02*
X23915991Y-8784009D01*
X23634009Y-8784009D01*
X23634009Y-9065991D01*
X23915991Y-9065991D01*
X25915991Y-5065991D02*
X25915991Y-4784009D01*
X25634009Y-4784009D01*
X25634009Y-5065991D01*
X25915991Y-5065991D01*
X25915991Y-7065991D02*
X25915991Y-6784009D01*
X25634009Y-6784009D01*
X25634009Y-7065991D01*
X25915991Y-7065991D01*
X25915991Y-9065991D02*
X25915991Y-8784009D01*
X25634009Y-8784009D01*
X25634009Y-9065991D01*
X25915991Y-9065991D01*
D10*
X19025777Y-11054084D02*
X19025777Y-10854084D01*
X19025777Y-10854084D02*
X19073396Y-10854084D01*
X19073396Y-10854084D02*
X19101967Y-10863608D01*
X19101967Y-10863608D02*
X19121015Y-10882655D01*
X19121015Y-10882655D02*
X19130539Y-10901703D01*
X19130539Y-10901703D02*
X19140063Y-10939798D01*
X19140063Y-10939798D02*
X19140063Y-10968370D01*
X19140063Y-10968370D02*
X19130539Y-11006465D01*
X19130539Y-11006465D02*
X19121015Y-11025512D01*
X19121015Y-11025512D02*
X19101967Y-11044560D01*
X19101967Y-11044560D02*
X19073396Y-11054084D01*
X19073396Y-11054084D02*
X19025777Y-11054084D01*
X19225777Y-11054084D02*
X19225777Y-10920750D01*
X19225777Y-10958846D02*
X19235301Y-10939798D01*
X19235301Y-10939798D02*
X19244824Y-10930274D01*
X19244824Y-10930274D02*
X19263872Y-10920750D01*
X19263872Y-10920750D02*
X19282920Y-10920750D01*
X19349586Y-11054084D02*
X19349586Y-10920750D01*
X19349586Y-10854084D02*
X19340063Y-10863608D01*
X19340063Y-10863608D02*
X19349586Y-10873131D01*
X19349586Y-10873131D02*
X19359110Y-10863608D01*
X19359110Y-10863608D02*
X19349586Y-10854084D01*
X19349586Y-10854084D02*
X19349586Y-10873131D01*
X19473396Y-11054084D02*
X19454348Y-11044560D01*
X19454348Y-11044560D02*
X19444824Y-11025512D01*
X19444824Y-11025512D02*
X19444824Y-10854084D01*
X19578158Y-11054084D02*
X19559110Y-11044560D01*
X19559110Y-11044560D02*
X19549586Y-11025512D01*
X19549586Y-11025512D02*
X19549586Y-10854084D01*
X19806729Y-11054084D02*
X19806729Y-10854084D01*
X19806729Y-10854084D02*
X19873396Y-10996941D01*
X19873396Y-10996941D02*
X19940063Y-10854084D01*
X19940063Y-10854084D02*
X19940063Y-11054084D01*
X20121015Y-11054084D02*
X20121015Y-10949322D01*
X20121015Y-10949322D02*
X20111491Y-10930274D01*
X20111491Y-10930274D02*
X20092444Y-10920750D01*
X20092444Y-10920750D02*
X20054348Y-10920750D01*
X20054348Y-10920750D02*
X20035301Y-10930274D01*
X20121015Y-11044560D02*
X20101967Y-11054084D01*
X20101967Y-11054084D02*
X20054348Y-11054084D01*
X20054348Y-11054084D02*
X20035301Y-11044560D01*
X20035301Y-11044560D02*
X20025777Y-11025512D01*
X20025777Y-11025512D02*
X20025777Y-11006465D01*
X20025777Y-11006465D02*
X20035301Y-10987417D01*
X20035301Y-10987417D02*
X20054348Y-10977893D01*
X20054348Y-10977893D02*
X20101967Y-10977893D01*
X20101967Y-10977893D02*
X20121015Y-10968370D01*
X20216253Y-10920750D02*
X20216253Y-11120750D01*
X20216253Y-10930274D02*
X20235301Y-10920750D01*
X20235301Y-10920750D02*
X20273396Y-10920750D01*
X20273396Y-10920750D02*
X20292444Y-10930274D01*
X20292444Y-10930274D02*
X20301967Y-10939798D01*
X20301967Y-10939798D02*
X20311491Y-10958846D01*
X20311491Y-10958846D02*
X20311491Y-11015989D01*
X20311491Y-11015989D02*
X20301967Y-11035036D01*
X20301967Y-11035036D02*
X20292444Y-11044560D01*
X20292444Y-11044560D02*
X20273396Y-11054084D01*
X20273396Y-11054084D02*
X20235301Y-11054084D01*
X20235301Y-11054084D02*
X20216253Y-11044560D01*
X20397205Y-11035036D02*
X20406729Y-11044560D01*
X20406729Y-11044560D02*
X20397205Y-11054084D01*
X20397205Y-11054084D02*
X20387682Y-11044560D01*
X20387682Y-11044560D02*
X20397205Y-11035036D01*
X20397205Y-11035036D02*
X20397205Y-11054084D01*
X20397205Y-10930274D02*
X20406729Y-10939798D01*
X20406729Y-10939798D02*
X20397205Y-10949322D01*
X20397205Y-10949322D02*
X20387682Y-10939798D01*
X20387682Y-10939798D02*
X20397205Y-10930274D01*
X20397205Y-10930274D02*
X20397205Y-10949322D01*
D11*
X18640000Y-11320100D02*
X18765000Y-11445100D01*
X18765000Y-11320100D02*
X18640000Y-11445100D01*
D10*
X19130539Y-11474084D02*
X19016253Y-11474084D01*
X19073396Y-11474084D02*
X19073396Y-11274084D01*
X19073396Y-11274084D02*
X19054348Y-11302655D01*
X19054348Y-11302655D02*
X19035301Y-11321703D01*
X19035301Y-11321703D02*
X19016253Y-11331227D01*
X19216253Y-11455036D02*
X19225777Y-11464560D01*
X19225777Y-11464560D02*
X19216253Y-11474084D01*
X19216253Y-11474084D02*
X19206729Y-11464560D01*
X19206729Y-11464560D02*
X19216253Y-11455036D01*
X19216253Y-11455036D02*
X19216253Y-11474084D01*
X19301967Y-11293131D02*
X19311491Y-11283608D01*
X19311491Y-11283608D02*
X19330539Y-11274084D01*
X19330539Y-11274084D02*
X19378158Y-11274084D01*
X19378158Y-11274084D02*
X19397205Y-11283608D01*
X19397205Y-11283608D02*
X19406729Y-11293131D01*
X19406729Y-11293131D02*
X19416253Y-11312179D01*
X19416253Y-11312179D02*
X19416253Y-11331227D01*
X19416253Y-11331227D02*
X19406729Y-11359798D01*
X19406729Y-11359798D02*
X19292444Y-11474084D01*
X19292444Y-11474084D02*
X19416253Y-11474084D01*
X19597205Y-11274084D02*
X19501967Y-11274084D01*
X19501967Y-11274084D02*
X19492444Y-11369322D01*
X19492444Y-11369322D02*
X19501967Y-11359798D01*
X19501967Y-11359798D02*
X19521015Y-11350274D01*
X19521015Y-11350274D02*
X19568634Y-11350274D01*
X19568634Y-11350274D02*
X19587682Y-11359798D01*
X19587682Y-11359798D02*
X19597205Y-11369322D01*
X19597205Y-11369322D02*
X19606729Y-11388369D01*
X19606729Y-11388369D02*
X19606729Y-11435988D01*
X19606729Y-11435988D02*
X19597205Y-11455036D01*
X19597205Y-11455036D02*
X19587682Y-11464560D01*
X19587682Y-11464560D02*
X19568634Y-11474084D01*
X19568634Y-11474084D02*
X19521015Y-11474084D01*
X19521015Y-11474084D02*
X19501967Y-11464560D01*
X19501967Y-11464560D02*
X19492444Y-11455036D01*
X19730539Y-11274084D02*
X19749586Y-11274084D01*
X19749586Y-11274084D02*
X19768634Y-11283608D01*
X19768634Y-11283608D02*
X19778158Y-11293131D01*
X19778158Y-11293131D02*
X19787682Y-11312179D01*
X19787682Y-11312179D02*
X19797205Y-11350274D01*
X19797205Y-11350274D02*
X19797205Y-11397893D01*
X19797205Y-11397893D02*
X19787682Y-11435988D01*
X19787682Y-11435988D02*
X19778158Y-11455036D01*
X19778158Y-11455036D02*
X19768634Y-11464560D01*
X19768634Y-11464560D02*
X19749586Y-11474084D01*
X19749586Y-11474084D02*
X19730539Y-11474084D01*
X19730539Y-11474084D02*
X19711491Y-11464560D01*
X19711491Y-11464560D02*
X19701967Y-11455036D01*
X19701967Y-11455036D02*
X19692444Y-11435988D01*
X19692444Y-11435988D02*
X19682920Y-11397893D01*
X19682920Y-11397893D02*
X19682920Y-11350274D01*
X19682920Y-11350274D02*
X19692444Y-11312179D01*
X19692444Y-11312179D02*
X19701967Y-11293131D01*
X19701967Y-11293131D02*
X19711491Y-11283608D01*
X19711491Y-11283608D02*
X19730539Y-11274084D01*
X19882920Y-11474084D02*
X19882920Y-11340750D01*
X19882920Y-11359798D02*
X19892444Y-11350274D01*
X19892444Y-11350274D02*
X19911491Y-11340750D01*
X19911491Y-11340750D02*
X19940063Y-11340750D01*
X19940063Y-11340750D02*
X19959110Y-11350274D01*
X19959110Y-11350274D02*
X19968634Y-11369322D01*
X19968634Y-11369322D02*
X19968634Y-11474084D01*
X19968634Y-11369322D02*
X19978158Y-11350274D01*
X19978158Y-11350274D02*
X19997205Y-11340750D01*
X19997205Y-11340750D02*
X20025777Y-11340750D01*
X20025777Y-11340750D02*
X20044825Y-11350274D01*
X20044825Y-11350274D02*
X20054348Y-11369322D01*
X20054348Y-11369322D02*
X20054348Y-11474084D01*
X20149586Y-11474084D02*
X20149586Y-11340750D01*
X20149586Y-11359798D02*
X20159110Y-11350274D01*
X20159110Y-11350274D02*
X20178158Y-11340750D01*
X20178158Y-11340750D02*
X20206729Y-11340750D01*
X20206729Y-11340750D02*
X20225777Y-11350274D01*
X20225777Y-11350274D02*
X20235301Y-11369322D01*
X20235301Y-11369322D02*
X20235301Y-11474084D01*
X20235301Y-11369322D02*
X20244825Y-11350274D01*
X20244825Y-11350274D02*
X20263872Y-11340750D01*
X20263872Y-11340750D02*
X20292444Y-11340750D01*
X20292444Y-11340750D02*
X20311491Y-11350274D01*
X20311491Y-11350274D02*
X20321015Y-11369322D01*
X20321015Y-11369322D02*
X20321015Y-11474084D01*
X20711491Y-11264560D02*
X20540063Y-11521703D01*
X20968634Y-11274084D02*
X20987682Y-11274084D01*
X20987682Y-11274084D02*
X21006729Y-11283608D01*
X21006729Y-11283608D02*
X21016253Y-11293131D01*
X21016253Y-11293131D02*
X21025777Y-11312179D01*
X21025777Y-11312179D02*
X21035301Y-11350274D01*
X21035301Y-11350274D02*
X21035301Y-11397893D01*
X21035301Y-11397893D02*
X21025777Y-11435988D01*
X21025777Y-11435988D02*
X21016253Y-11455036D01*
X21016253Y-11455036D02*
X21006729Y-11464560D01*
X21006729Y-11464560D02*
X20987682Y-11474084D01*
X20987682Y-11474084D02*
X20968634Y-11474084D01*
X20968634Y-11474084D02*
X20949587Y-11464560D01*
X20949587Y-11464560D02*
X20940063Y-11455036D01*
X20940063Y-11455036D02*
X20930539Y-11435988D01*
X20930539Y-11435988D02*
X20921015Y-11397893D01*
X20921015Y-11397893D02*
X20921015Y-11350274D01*
X20921015Y-11350274D02*
X20930539Y-11312179D01*
X20930539Y-11312179D02*
X20940063Y-11293131D01*
X20940063Y-11293131D02*
X20949587Y-11283608D01*
X20949587Y-11283608D02*
X20968634Y-11274084D01*
X21121015Y-11455036D02*
X21130539Y-11464560D01*
X21130539Y-11464560D02*
X21121015Y-11474084D01*
X21121015Y-11474084D02*
X21111491Y-11464560D01*
X21111491Y-11464560D02*
X21121015Y-11455036D01*
X21121015Y-11455036D02*
X21121015Y-11474084D01*
X21254348Y-11274084D02*
X21273396Y-11274084D01*
X21273396Y-11274084D02*
X21292444Y-11283608D01*
X21292444Y-11283608D02*
X21301968Y-11293131D01*
X21301968Y-11293131D02*
X21311491Y-11312179D01*
X21311491Y-11312179D02*
X21321015Y-11350274D01*
X21321015Y-11350274D02*
X21321015Y-11397893D01*
X21321015Y-11397893D02*
X21311491Y-11435988D01*
X21311491Y-11435988D02*
X21301968Y-11455036D01*
X21301968Y-11455036D02*
X21292444Y-11464560D01*
X21292444Y-11464560D02*
X21273396Y-11474084D01*
X21273396Y-11474084D02*
X21254348Y-11474084D01*
X21254348Y-11474084D02*
X21235301Y-11464560D01*
X21235301Y-11464560D02*
X21225777Y-11455036D01*
X21225777Y-11455036D02*
X21216253Y-11435988D01*
X21216253Y-11435988D02*
X21206729Y-11397893D01*
X21206729Y-11397893D02*
X21206729Y-11350274D01*
X21206729Y-11350274D02*
X21216253Y-11312179D01*
X21216253Y-11312179D02*
X21225777Y-11293131D01*
X21225777Y-11293131D02*
X21235301Y-11283608D01*
X21235301Y-11283608D02*
X21254348Y-11274084D01*
X21492444Y-11340750D02*
X21492444Y-11474084D01*
X21444825Y-11264560D02*
X21397206Y-11407417D01*
X21397206Y-11407417D02*
X21521015Y-11407417D01*
X21606729Y-11474084D02*
X21644825Y-11474084D01*
X21644825Y-11474084D02*
X21663872Y-11464560D01*
X21663872Y-11464560D02*
X21673396Y-11455036D01*
X21673396Y-11455036D02*
X21692444Y-11426465D01*
X21692444Y-11426465D02*
X21701968Y-11388369D01*
X21701968Y-11388369D02*
X21701968Y-11312179D01*
X21701968Y-11312179D02*
X21692444Y-11293131D01*
X21692444Y-11293131D02*
X21682920Y-11283608D01*
X21682920Y-11283608D02*
X21663872Y-11274084D01*
X21663872Y-11274084D02*
X21625777Y-11274084D01*
X21625777Y-11274084D02*
X21606729Y-11283608D01*
X21606729Y-11283608D02*
X21597206Y-11293131D01*
X21597206Y-11293131D02*
X21587682Y-11312179D01*
X21587682Y-11312179D02*
X21587682Y-11359798D01*
X21587682Y-11359798D02*
X21597206Y-11378846D01*
X21597206Y-11378846D02*
X21606729Y-11388369D01*
X21606729Y-11388369D02*
X21625777Y-11397893D01*
X21625777Y-11397893D02*
X21663872Y-11397893D01*
X21663872Y-11397893D02*
X21682920Y-11388369D01*
X21682920Y-11388369D02*
X21692444Y-11378846D01*
X21692444Y-11378846D02*
X21701968Y-11359798D01*
X21778158Y-11293131D02*
X21787682Y-11283608D01*
X21787682Y-11283608D02*
X21806729Y-11274084D01*
X21806729Y-11274084D02*
X21854349Y-11274084D01*
X21854349Y-11274084D02*
X21873396Y-11283608D01*
X21873396Y-11283608D02*
X21882920Y-11293131D01*
X21882920Y-11293131D02*
X21892444Y-11312179D01*
X21892444Y-11312179D02*
X21892444Y-11331227D01*
X21892444Y-11331227D02*
X21882920Y-11359798D01*
X21882920Y-11359798D02*
X21768634Y-11474084D01*
X21768634Y-11474084D02*
X21892444Y-11474084D01*
X21968634Y-11274084D02*
X21968634Y-11312179D01*
X22044825Y-11274084D02*
X22044825Y-11312179D01*
X22340063Y-11550274D02*
X22330539Y-11540750D01*
X22330539Y-11540750D02*
X22311491Y-11512179D01*
X22311491Y-11512179D02*
X22301968Y-11493131D01*
X22301968Y-11493131D02*
X22292444Y-11464560D01*
X22292444Y-11464560D02*
X22282920Y-11416941D01*
X22282920Y-11416941D02*
X22282920Y-11378846D01*
X22282920Y-11378846D02*
X22292444Y-11331227D01*
X22292444Y-11331227D02*
X22301968Y-11302655D01*
X22301968Y-11302655D02*
X22311491Y-11283608D01*
X22311491Y-11283608D02*
X22330539Y-11255036D01*
X22330539Y-11255036D02*
X22340063Y-11245512D01*
X22521015Y-11474084D02*
X22406729Y-11474084D01*
X22463872Y-11474084D02*
X22463872Y-11274084D01*
X22463872Y-11274084D02*
X22444825Y-11302655D01*
X22444825Y-11302655D02*
X22425777Y-11321703D01*
X22425777Y-11321703D02*
X22406729Y-11331227D01*
X22759110Y-11474084D02*
X22759110Y-11274084D01*
X22844825Y-11474084D02*
X22844825Y-11369322D01*
X22844825Y-11369322D02*
X22835301Y-11350274D01*
X22835301Y-11350274D02*
X22816253Y-11340750D01*
X22816253Y-11340750D02*
X22787682Y-11340750D01*
X22787682Y-11340750D02*
X22768634Y-11350274D01*
X22768634Y-11350274D02*
X22759110Y-11359798D01*
X22968634Y-11474084D02*
X22949587Y-11464560D01*
X22949587Y-11464560D02*
X22940063Y-11455036D01*
X22940063Y-11455036D02*
X22930539Y-11435988D01*
X22930539Y-11435988D02*
X22930539Y-11378846D01*
X22930539Y-11378846D02*
X22940063Y-11359798D01*
X22940063Y-11359798D02*
X22949587Y-11350274D01*
X22949587Y-11350274D02*
X22968634Y-11340750D01*
X22968634Y-11340750D02*
X22997206Y-11340750D01*
X22997206Y-11340750D02*
X23016253Y-11350274D01*
X23016253Y-11350274D02*
X23025777Y-11359798D01*
X23025777Y-11359798D02*
X23035301Y-11378846D01*
X23035301Y-11378846D02*
X23035301Y-11435988D01*
X23035301Y-11435988D02*
X23025777Y-11455036D01*
X23025777Y-11455036D02*
X23016253Y-11464560D01*
X23016253Y-11464560D02*
X22997206Y-11474084D01*
X22997206Y-11474084D02*
X22968634Y-11474084D01*
X23149587Y-11474084D02*
X23130539Y-11464560D01*
X23130539Y-11464560D02*
X23121015Y-11445512D01*
X23121015Y-11445512D02*
X23121015Y-11274084D01*
X23301968Y-11464560D02*
X23282920Y-11474084D01*
X23282920Y-11474084D02*
X23244825Y-11474084D01*
X23244825Y-11474084D02*
X23225777Y-11464560D01*
X23225777Y-11464560D02*
X23216253Y-11445512D01*
X23216253Y-11445512D02*
X23216253Y-11369322D01*
X23216253Y-11369322D02*
X23225777Y-11350274D01*
X23225777Y-11350274D02*
X23244825Y-11340750D01*
X23244825Y-11340750D02*
X23282920Y-11340750D01*
X23282920Y-11340750D02*
X23301968Y-11350274D01*
X23301968Y-11350274D02*
X23311491Y-11369322D01*
X23311491Y-11369322D02*
X23311491Y-11388369D01*
X23311491Y-11388369D02*
X23216253Y-11407417D01*
X23378158Y-11550274D02*
X23387682Y-11540750D01*
X23387682Y-11540750D02*
X23406730Y-11512179D01*
X23406730Y-11512179D02*
X23416253Y-11493131D01*
X23416253Y-11493131D02*
X23425777Y-11464560D01*
X23425777Y-11464560D02*
X23435301Y-11416941D01*
X23435301Y-11416941D02*
X23435301Y-11378846D01*
X23435301Y-11378846D02*
X23425777Y-11331227D01*
X23425777Y-11331227D02*
X23416253Y-11302655D01*
X23416253Y-11302655D02*
X23406730Y-11283608D01*
X23406730Y-11283608D02*
X23387682Y-11255036D01*
X23387682Y-11255036D02*
X23378158Y-11245512D01*
X23740063Y-11550274D02*
X23730539Y-11540750D01*
X23730539Y-11540750D02*
X23711491Y-11512179D01*
X23711491Y-11512179D02*
X23701968Y-11493131D01*
X23701968Y-11493131D02*
X23692444Y-11464560D01*
X23692444Y-11464560D02*
X23682920Y-11416941D01*
X23682920Y-11416941D02*
X23682920Y-11378846D01*
X23682920Y-11378846D02*
X23692444Y-11331227D01*
X23692444Y-11331227D02*
X23701968Y-11302655D01*
X23701968Y-11302655D02*
X23711491Y-11283608D01*
X23711491Y-11283608D02*
X23730539Y-11255036D01*
X23730539Y-11255036D02*
X23740063Y-11245512D01*
X23816253Y-11340750D02*
X23816253Y-11474084D01*
X23816253Y-11359798D02*
X23825777Y-11350274D01*
X23825777Y-11350274D02*
X23844825Y-11340750D01*
X23844825Y-11340750D02*
X23873396Y-11340750D01*
X23873396Y-11340750D02*
X23892444Y-11350274D01*
X23892444Y-11350274D02*
X23901968Y-11369322D01*
X23901968Y-11369322D02*
X23901968Y-11474084D01*
X24025777Y-11474084D02*
X24006730Y-11464560D01*
X24006730Y-11464560D02*
X23997206Y-11455036D01*
X23997206Y-11455036D02*
X23987682Y-11435988D01*
X23987682Y-11435988D02*
X23987682Y-11378846D01*
X23987682Y-11378846D02*
X23997206Y-11359798D01*
X23997206Y-11359798D02*
X24006730Y-11350274D01*
X24006730Y-11350274D02*
X24025777Y-11340750D01*
X24025777Y-11340750D02*
X24054349Y-11340750D01*
X24054349Y-11340750D02*
X24073396Y-11350274D01*
X24073396Y-11350274D02*
X24082920Y-11359798D01*
X24082920Y-11359798D02*
X24092444Y-11378846D01*
X24092444Y-11378846D02*
X24092444Y-11435988D01*
X24092444Y-11435988D02*
X24082920Y-11455036D01*
X24082920Y-11455036D02*
X24073396Y-11464560D01*
X24073396Y-11464560D02*
X24054349Y-11474084D01*
X24054349Y-11474084D02*
X24025777Y-11474084D01*
X24149587Y-11340750D02*
X24225777Y-11340750D01*
X24178158Y-11274084D02*
X24178158Y-11445512D01*
X24178158Y-11445512D02*
X24187682Y-11464560D01*
X24187682Y-11464560D02*
X24206730Y-11474084D01*
X24206730Y-11474084D02*
X24225777Y-11474084D01*
X24444825Y-11340750D02*
X24444825Y-11540750D01*
X24444825Y-11350274D02*
X24463872Y-11340750D01*
X24463872Y-11340750D02*
X24501968Y-11340750D01*
X24501968Y-11340750D02*
X24521015Y-11350274D01*
X24521015Y-11350274D02*
X24530539Y-11359798D01*
X24530539Y-11359798D02*
X24540063Y-11378846D01*
X24540063Y-11378846D02*
X24540063Y-11435988D01*
X24540063Y-11435988D02*
X24530539Y-11455036D01*
X24530539Y-11455036D02*
X24521015Y-11464560D01*
X24521015Y-11464560D02*
X24501968Y-11474084D01*
X24501968Y-11474084D02*
X24463872Y-11474084D01*
X24463872Y-11474084D02*
X24444825Y-11464560D01*
X24654349Y-11474084D02*
X24635301Y-11464560D01*
X24635301Y-11464560D02*
X24625777Y-11445512D01*
X24625777Y-11445512D02*
X24625777Y-11274084D01*
X24816253Y-11474084D02*
X24816253Y-11369322D01*
X24816253Y-11369322D02*
X24806730Y-11350274D01*
X24806730Y-11350274D02*
X24787682Y-11340750D01*
X24787682Y-11340750D02*
X24749587Y-11340750D01*
X24749587Y-11340750D02*
X24730539Y-11350274D01*
X24816253Y-11464560D02*
X24797206Y-11474084D01*
X24797206Y-11474084D02*
X24749587Y-11474084D01*
X24749587Y-11474084D02*
X24730539Y-11464560D01*
X24730539Y-11464560D02*
X24721015Y-11445512D01*
X24721015Y-11445512D02*
X24721015Y-11426465D01*
X24721015Y-11426465D02*
X24730539Y-11407417D01*
X24730539Y-11407417D02*
X24749587Y-11397893D01*
X24749587Y-11397893D02*
X24797206Y-11397893D01*
X24797206Y-11397893D02*
X24816253Y-11388369D01*
X24882920Y-11340750D02*
X24959111Y-11340750D01*
X24911492Y-11274084D02*
X24911492Y-11445512D01*
X24911492Y-11445512D02*
X24921015Y-11464560D01*
X24921015Y-11464560D02*
X24940063Y-11474084D01*
X24940063Y-11474084D02*
X24959111Y-11474084D01*
X25101968Y-11464560D02*
X25082920Y-11474084D01*
X25082920Y-11474084D02*
X25044825Y-11474084D01*
X25044825Y-11474084D02*
X25025777Y-11464560D01*
X25025777Y-11464560D02*
X25016253Y-11445512D01*
X25016253Y-11445512D02*
X25016253Y-11369322D01*
X25016253Y-11369322D02*
X25025777Y-11350274D01*
X25025777Y-11350274D02*
X25044825Y-11340750D01*
X25044825Y-11340750D02*
X25082920Y-11340750D01*
X25082920Y-11340750D02*
X25101968Y-11350274D01*
X25101968Y-11350274D02*
X25111492Y-11369322D01*
X25111492Y-11369322D02*
X25111492Y-11388369D01*
X25111492Y-11388369D02*
X25016253Y-11407417D01*
X25282920Y-11474084D02*
X25282920Y-11274084D01*
X25282920Y-11464560D02*
X25263873Y-11474084D01*
X25263873Y-11474084D02*
X25225777Y-11474084D01*
X25225777Y-11474084D02*
X25206730Y-11464560D01*
X25206730Y-11464560D02*
X25197206Y-11455036D01*
X25197206Y-11455036D02*
X25187682Y-11435988D01*
X25187682Y-11435988D02*
X25187682Y-11378846D01*
X25187682Y-11378846D02*
X25197206Y-11359798D01*
X25197206Y-11359798D02*
X25206730Y-11350274D01*
X25206730Y-11350274D02*
X25225777Y-11340750D01*
X25225777Y-11340750D02*
X25263873Y-11340750D01*
X25263873Y-11340750D02*
X25282920Y-11350274D01*
X25359111Y-11550274D02*
X25368634Y-11540750D01*
X25368634Y-11540750D02*
X25387682Y-11512179D01*
X25387682Y-11512179D02*
X25397206Y-11493131D01*
X25397206Y-11493131D02*
X25406730Y-11464560D01*
X25406730Y-11464560D02*
X25416253Y-11416941D01*
X25416253Y-11416941D02*
X25416253Y-11378846D01*
X25416253Y-11378846D02*
X25406730Y-11331227D01*
X25406730Y-11331227D02*
X25397206Y-11302655D01*
X25397206Y-11302655D02*
X25387682Y-11283608D01*
X25387682Y-11283608D02*
X25368634Y-11255036D01*
X25368634Y-11255036D02*
X25359111Y-11245512D01*
D12*
X18765000Y-11646600D02*
G75*
G02*
X18575000Y-11646600I-95000J0D01*
G01*
X18575000Y-11646600D02*
G75*
G02*
X18765000Y-11646600I95000J0D01*
G01*
D10*
X19130539Y-11738084D02*
X19016253Y-11738084D01*
X19073396Y-11738084D02*
X19073396Y-11538084D01*
X19073396Y-11538084D02*
X19054348Y-11566655D01*
X19054348Y-11566655D02*
X19035301Y-11585703D01*
X19035301Y-11585703D02*
X19016253Y-11595227D01*
X19216253Y-11719036D02*
X19225777Y-11728560D01*
X19225777Y-11728560D02*
X19216253Y-11738084D01*
X19216253Y-11738084D02*
X19206729Y-11728560D01*
X19206729Y-11728560D02*
X19216253Y-11719036D01*
X19216253Y-11719036D02*
X19216253Y-11738084D01*
X19321015Y-11738084D02*
X19359110Y-11738084D01*
X19359110Y-11738084D02*
X19378158Y-11728560D01*
X19378158Y-11728560D02*
X19387682Y-11719036D01*
X19387682Y-11719036D02*
X19406729Y-11690465D01*
X19406729Y-11690465D02*
X19416253Y-11652369D01*
X19416253Y-11652369D02*
X19416253Y-11576179D01*
X19416253Y-11576179D02*
X19406729Y-11557131D01*
X19406729Y-11557131D02*
X19397205Y-11547608D01*
X19397205Y-11547608D02*
X19378158Y-11538084D01*
X19378158Y-11538084D02*
X19340063Y-11538084D01*
X19340063Y-11538084D02*
X19321015Y-11547608D01*
X19321015Y-11547608D02*
X19311491Y-11557131D01*
X19311491Y-11557131D02*
X19301967Y-11576179D01*
X19301967Y-11576179D02*
X19301967Y-11623798D01*
X19301967Y-11623798D02*
X19311491Y-11642846D01*
X19311491Y-11642846D02*
X19321015Y-11652369D01*
X19321015Y-11652369D02*
X19340063Y-11661893D01*
X19340063Y-11661893D02*
X19378158Y-11661893D01*
X19378158Y-11661893D02*
X19397205Y-11652369D01*
X19397205Y-11652369D02*
X19406729Y-11642846D01*
X19406729Y-11642846D02*
X19416253Y-11623798D01*
X19540063Y-11538084D02*
X19559110Y-11538084D01*
X19559110Y-11538084D02*
X19578158Y-11547608D01*
X19578158Y-11547608D02*
X19587682Y-11557131D01*
X19587682Y-11557131D02*
X19597205Y-11576179D01*
X19597205Y-11576179D02*
X19606729Y-11614274D01*
X19606729Y-11614274D02*
X19606729Y-11661893D01*
X19606729Y-11661893D02*
X19597205Y-11699988D01*
X19597205Y-11699988D02*
X19587682Y-11719036D01*
X19587682Y-11719036D02*
X19578158Y-11728560D01*
X19578158Y-11728560D02*
X19559110Y-11738084D01*
X19559110Y-11738084D02*
X19540063Y-11738084D01*
X19540063Y-11738084D02*
X19521015Y-11728560D01*
X19521015Y-11728560D02*
X19511491Y-11719036D01*
X19511491Y-11719036D02*
X19501967Y-11699988D01*
X19501967Y-11699988D02*
X19492444Y-11661893D01*
X19492444Y-11661893D02*
X19492444Y-11614274D01*
X19492444Y-11614274D02*
X19501967Y-11576179D01*
X19501967Y-11576179D02*
X19511491Y-11557131D01*
X19511491Y-11557131D02*
X19521015Y-11547608D01*
X19521015Y-11547608D02*
X19540063Y-11538084D01*
X19730539Y-11538084D02*
X19749586Y-11538084D01*
X19749586Y-11538084D02*
X19768634Y-11547608D01*
X19768634Y-11547608D02*
X19778158Y-11557131D01*
X19778158Y-11557131D02*
X19787682Y-11576179D01*
X19787682Y-11576179D02*
X19797205Y-11614274D01*
X19797205Y-11614274D02*
X19797205Y-11661893D01*
X19797205Y-11661893D02*
X19787682Y-11699988D01*
X19787682Y-11699988D02*
X19778158Y-11719036D01*
X19778158Y-11719036D02*
X19768634Y-11728560D01*
X19768634Y-11728560D02*
X19749586Y-11738084D01*
X19749586Y-11738084D02*
X19730539Y-11738084D01*
X19730539Y-11738084D02*
X19711491Y-11728560D01*
X19711491Y-11728560D02*
X19701967Y-11719036D01*
X19701967Y-11719036D02*
X19692444Y-11699988D01*
X19692444Y-11699988D02*
X19682920Y-11661893D01*
X19682920Y-11661893D02*
X19682920Y-11614274D01*
X19682920Y-11614274D02*
X19692444Y-11576179D01*
X19692444Y-11576179D02*
X19701967Y-11557131D01*
X19701967Y-11557131D02*
X19711491Y-11547608D01*
X19711491Y-11547608D02*
X19730539Y-11538084D01*
X19882920Y-11738084D02*
X19882920Y-11604750D01*
X19882920Y-11623798D02*
X19892444Y-11614274D01*
X19892444Y-11614274D02*
X19911491Y-11604750D01*
X19911491Y-11604750D02*
X19940063Y-11604750D01*
X19940063Y-11604750D02*
X19959110Y-11614274D01*
X19959110Y-11614274D02*
X19968634Y-11633322D01*
X19968634Y-11633322D02*
X19968634Y-11738084D01*
X19968634Y-11633322D02*
X19978158Y-11614274D01*
X19978158Y-11614274D02*
X19997205Y-11604750D01*
X19997205Y-11604750D02*
X20025777Y-11604750D01*
X20025777Y-11604750D02*
X20044825Y-11614274D01*
X20044825Y-11614274D02*
X20054348Y-11633322D01*
X20054348Y-11633322D02*
X20054348Y-11738084D01*
X20149586Y-11738084D02*
X20149586Y-11604750D01*
X20149586Y-11623798D02*
X20159110Y-11614274D01*
X20159110Y-11614274D02*
X20178158Y-11604750D01*
X20178158Y-11604750D02*
X20206729Y-11604750D01*
X20206729Y-11604750D02*
X20225777Y-11614274D01*
X20225777Y-11614274D02*
X20235301Y-11633322D01*
X20235301Y-11633322D02*
X20235301Y-11738084D01*
X20235301Y-11633322D02*
X20244825Y-11614274D01*
X20244825Y-11614274D02*
X20263872Y-11604750D01*
X20263872Y-11604750D02*
X20292444Y-11604750D01*
X20292444Y-11604750D02*
X20311491Y-11614274D01*
X20311491Y-11614274D02*
X20321015Y-11633322D01*
X20321015Y-11633322D02*
X20321015Y-11738084D01*
X20711491Y-11528560D02*
X20540063Y-11785703D01*
X20968634Y-11538084D02*
X20987682Y-11538084D01*
X20987682Y-11538084D02*
X21006729Y-11547608D01*
X21006729Y-11547608D02*
X21016253Y-11557131D01*
X21016253Y-11557131D02*
X21025777Y-11576179D01*
X21025777Y-11576179D02*
X21035301Y-11614274D01*
X21035301Y-11614274D02*
X21035301Y-11661893D01*
X21035301Y-11661893D02*
X21025777Y-11699988D01*
X21025777Y-11699988D02*
X21016253Y-11719036D01*
X21016253Y-11719036D02*
X21006729Y-11728560D01*
X21006729Y-11728560D02*
X20987682Y-11738084D01*
X20987682Y-11738084D02*
X20968634Y-11738084D01*
X20968634Y-11738084D02*
X20949587Y-11728560D01*
X20949587Y-11728560D02*
X20940063Y-11719036D01*
X20940063Y-11719036D02*
X20930539Y-11699988D01*
X20930539Y-11699988D02*
X20921015Y-11661893D01*
X20921015Y-11661893D02*
X20921015Y-11614274D01*
X20921015Y-11614274D02*
X20930539Y-11576179D01*
X20930539Y-11576179D02*
X20940063Y-11557131D01*
X20940063Y-11557131D02*
X20949587Y-11547608D01*
X20949587Y-11547608D02*
X20968634Y-11538084D01*
X21121015Y-11719036D02*
X21130539Y-11728560D01*
X21130539Y-11728560D02*
X21121015Y-11738084D01*
X21121015Y-11738084D02*
X21111491Y-11728560D01*
X21111491Y-11728560D02*
X21121015Y-11719036D01*
X21121015Y-11719036D02*
X21121015Y-11738084D01*
X21254348Y-11538084D02*
X21273396Y-11538084D01*
X21273396Y-11538084D02*
X21292444Y-11547608D01*
X21292444Y-11547608D02*
X21301968Y-11557131D01*
X21301968Y-11557131D02*
X21311491Y-11576179D01*
X21311491Y-11576179D02*
X21321015Y-11614274D01*
X21321015Y-11614274D02*
X21321015Y-11661893D01*
X21321015Y-11661893D02*
X21311491Y-11699988D01*
X21311491Y-11699988D02*
X21301968Y-11719036D01*
X21301968Y-11719036D02*
X21292444Y-11728560D01*
X21292444Y-11728560D02*
X21273396Y-11738084D01*
X21273396Y-11738084D02*
X21254348Y-11738084D01*
X21254348Y-11738084D02*
X21235301Y-11728560D01*
X21235301Y-11728560D02*
X21225777Y-11719036D01*
X21225777Y-11719036D02*
X21216253Y-11699988D01*
X21216253Y-11699988D02*
X21206729Y-11661893D01*
X21206729Y-11661893D02*
X21206729Y-11614274D01*
X21206729Y-11614274D02*
X21216253Y-11576179D01*
X21216253Y-11576179D02*
X21225777Y-11557131D01*
X21225777Y-11557131D02*
X21235301Y-11547608D01*
X21235301Y-11547608D02*
X21254348Y-11538084D01*
X21387682Y-11538084D02*
X21521015Y-11538084D01*
X21521015Y-11538084D02*
X21435301Y-11738084D01*
X21682920Y-11604750D02*
X21682920Y-11738084D01*
X21635301Y-11528560D02*
X21587682Y-11671417D01*
X21587682Y-11671417D02*
X21711491Y-11671417D01*
X21816253Y-11623798D02*
X21797206Y-11614274D01*
X21797206Y-11614274D02*
X21787682Y-11604750D01*
X21787682Y-11604750D02*
X21778158Y-11585703D01*
X21778158Y-11585703D02*
X21778158Y-11576179D01*
X21778158Y-11576179D02*
X21787682Y-11557131D01*
X21787682Y-11557131D02*
X21797206Y-11547608D01*
X21797206Y-11547608D02*
X21816253Y-11538084D01*
X21816253Y-11538084D02*
X21854349Y-11538084D01*
X21854349Y-11538084D02*
X21873396Y-11547608D01*
X21873396Y-11547608D02*
X21882920Y-11557131D01*
X21882920Y-11557131D02*
X21892444Y-11576179D01*
X21892444Y-11576179D02*
X21892444Y-11585703D01*
X21892444Y-11585703D02*
X21882920Y-11604750D01*
X21882920Y-11604750D02*
X21873396Y-11614274D01*
X21873396Y-11614274D02*
X21854349Y-11623798D01*
X21854349Y-11623798D02*
X21816253Y-11623798D01*
X21816253Y-11623798D02*
X21797206Y-11633322D01*
X21797206Y-11633322D02*
X21787682Y-11642846D01*
X21787682Y-11642846D02*
X21778158Y-11661893D01*
X21778158Y-11661893D02*
X21778158Y-11699988D01*
X21778158Y-11699988D02*
X21787682Y-11719036D01*
X21787682Y-11719036D02*
X21797206Y-11728560D01*
X21797206Y-11728560D02*
X21816253Y-11738084D01*
X21816253Y-11738084D02*
X21854349Y-11738084D01*
X21854349Y-11738084D02*
X21873396Y-11728560D01*
X21873396Y-11728560D02*
X21882920Y-11719036D01*
X21882920Y-11719036D02*
X21892444Y-11699988D01*
X21892444Y-11699988D02*
X21892444Y-11661893D01*
X21892444Y-11661893D02*
X21882920Y-11642846D01*
X21882920Y-11642846D02*
X21873396Y-11633322D01*
X21873396Y-11633322D02*
X21854349Y-11623798D01*
X21968634Y-11538084D02*
X21968634Y-11576179D01*
X22044825Y-11538084D02*
X22044825Y-11576179D01*
X22340063Y-11814274D02*
X22330539Y-11804750D01*
X22330539Y-11804750D02*
X22311491Y-11776179D01*
X22311491Y-11776179D02*
X22301968Y-11757131D01*
X22301968Y-11757131D02*
X22292444Y-11728560D01*
X22292444Y-11728560D02*
X22282920Y-11680941D01*
X22282920Y-11680941D02*
X22282920Y-11642846D01*
X22282920Y-11642846D02*
X22292444Y-11595227D01*
X22292444Y-11595227D02*
X22301968Y-11566655D01*
X22301968Y-11566655D02*
X22311491Y-11547608D01*
X22311491Y-11547608D02*
X22330539Y-11519036D01*
X22330539Y-11519036D02*
X22340063Y-11509512D01*
X22406729Y-11557131D02*
X22416253Y-11547608D01*
X22416253Y-11547608D02*
X22435301Y-11538084D01*
X22435301Y-11538084D02*
X22482920Y-11538084D01*
X22482920Y-11538084D02*
X22501968Y-11547608D01*
X22501968Y-11547608D02*
X22511491Y-11557131D01*
X22511491Y-11557131D02*
X22521015Y-11576179D01*
X22521015Y-11576179D02*
X22521015Y-11595227D01*
X22521015Y-11595227D02*
X22511491Y-11623798D01*
X22511491Y-11623798D02*
X22397206Y-11738084D01*
X22397206Y-11738084D02*
X22521015Y-11738084D01*
X22692444Y-11604750D02*
X22692444Y-11738084D01*
X22644825Y-11528560D02*
X22597206Y-11671417D01*
X22597206Y-11671417D02*
X22721015Y-11671417D01*
X22949587Y-11738084D02*
X22949587Y-11538084D01*
X23035301Y-11738084D02*
X23035301Y-11633322D01*
X23035301Y-11633322D02*
X23025777Y-11614274D01*
X23025777Y-11614274D02*
X23006730Y-11604750D01*
X23006730Y-11604750D02*
X22978158Y-11604750D01*
X22978158Y-11604750D02*
X22959110Y-11614274D01*
X22959110Y-11614274D02*
X22949587Y-11623798D01*
X23159110Y-11738084D02*
X23140063Y-11728560D01*
X23140063Y-11728560D02*
X23130539Y-11719036D01*
X23130539Y-11719036D02*
X23121015Y-11699988D01*
X23121015Y-11699988D02*
X23121015Y-11642846D01*
X23121015Y-11642846D02*
X23130539Y-11623798D01*
X23130539Y-11623798D02*
X23140063Y-11614274D01*
X23140063Y-11614274D02*
X23159110Y-11604750D01*
X23159110Y-11604750D02*
X23187682Y-11604750D01*
X23187682Y-11604750D02*
X23206730Y-11614274D01*
X23206730Y-11614274D02*
X23216253Y-11623798D01*
X23216253Y-11623798D02*
X23225777Y-11642846D01*
X23225777Y-11642846D02*
X23225777Y-11699988D01*
X23225777Y-11699988D02*
X23216253Y-11719036D01*
X23216253Y-11719036D02*
X23206730Y-11728560D01*
X23206730Y-11728560D02*
X23187682Y-11738084D01*
X23187682Y-11738084D02*
X23159110Y-11738084D01*
X23340063Y-11738084D02*
X23321015Y-11728560D01*
X23321015Y-11728560D02*
X23311491Y-11709512D01*
X23311491Y-11709512D02*
X23311491Y-11538084D01*
X23492444Y-11728560D02*
X23473396Y-11738084D01*
X23473396Y-11738084D02*
X23435301Y-11738084D01*
X23435301Y-11738084D02*
X23416253Y-11728560D01*
X23416253Y-11728560D02*
X23406730Y-11709512D01*
X23406730Y-11709512D02*
X23406730Y-11633322D01*
X23406730Y-11633322D02*
X23416253Y-11614274D01*
X23416253Y-11614274D02*
X23435301Y-11604750D01*
X23435301Y-11604750D02*
X23473396Y-11604750D01*
X23473396Y-11604750D02*
X23492444Y-11614274D01*
X23492444Y-11614274D02*
X23501968Y-11633322D01*
X23501968Y-11633322D02*
X23501968Y-11652369D01*
X23501968Y-11652369D02*
X23406730Y-11671417D01*
X23578158Y-11728560D02*
X23597206Y-11738084D01*
X23597206Y-11738084D02*
X23635301Y-11738084D01*
X23635301Y-11738084D02*
X23654349Y-11728560D01*
X23654349Y-11728560D02*
X23663872Y-11709512D01*
X23663872Y-11709512D02*
X23663872Y-11699988D01*
X23663872Y-11699988D02*
X23654349Y-11680941D01*
X23654349Y-11680941D02*
X23635301Y-11671417D01*
X23635301Y-11671417D02*
X23606730Y-11671417D01*
X23606730Y-11671417D02*
X23587682Y-11661893D01*
X23587682Y-11661893D02*
X23578158Y-11642846D01*
X23578158Y-11642846D02*
X23578158Y-11633322D01*
X23578158Y-11633322D02*
X23587682Y-11614274D01*
X23587682Y-11614274D02*
X23606730Y-11604750D01*
X23606730Y-11604750D02*
X23635301Y-11604750D01*
X23635301Y-11604750D02*
X23654349Y-11614274D01*
X23730539Y-11814274D02*
X23740063Y-11804750D01*
X23740063Y-11804750D02*
X23759111Y-11776179D01*
X23759111Y-11776179D02*
X23768634Y-11757131D01*
X23768634Y-11757131D02*
X23778158Y-11728560D01*
X23778158Y-11728560D02*
X23787682Y-11680941D01*
X23787682Y-11680941D02*
X23787682Y-11642846D01*
X23787682Y-11642846D02*
X23778158Y-11595227D01*
X23778158Y-11595227D02*
X23768634Y-11566655D01*
X23768634Y-11566655D02*
X23759111Y-11547608D01*
X23759111Y-11547608D02*
X23740063Y-11519036D01*
X23740063Y-11519036D02*
X23730539Y-11509512D01*
X24092444Y-11814274D02*
X24082920Y-11804750D01*
X24082920Y-11804750D02*
X24063872Y-11776179D01*
X24063872Y-11776179D02*
X24054349Y-11757131D01*
X24054349Y-11757131D02*
X24044825Y-11728560D01*
X24044825Y-11728560D02*
X24035301Y-11680941D01*
X24035301Y-11680941D02*
X24035301Y-11642846D01*
X24035301Y-11642846D02*
X24044825Y-11595227D01*
X24044825Y-11595227D02*
X24054349Y-11566655D01*
X24054349Y-11566655D02*
X24063872Y-11547608D01*
X24063872Y-11547608D02*
X24082920Y-11519036D01*
X24082920Y-11519036D02*
X24092444Y-11509512D01*
X24168634Y-11604750D02*
X24168634Y-11738084D01*
X24168634Y-11623798D02*
X24178158Y-11614274D01*
X24178158Y-11614274D02*
X24197206Y-11604750D01*
X24197206Y-11604750D02*
X24225777Y-11604750D01*
X24225777Y-11604750D02*
X24244825Y-11614274D01*
X24244825Y-11614274D02*
X24254349Y-11633322D01*
X24254349Y-11633322D02*
X24254349Y-11738084D01*
X24378158Y-11738084D02*
X24359111Y-11728560D01*
X24359111Y-11728560D02*
X24349587Y-11719036D01*
X24349587Y-11719036D02*
X24340063Y-11699988D01*
X24340063Y-11699988D02*
X24340063Y-11642846D01*
X24340063Y-11642846D02*
X24349587Y-11623798D01*
X24349587Y-11623798D02*
X24359111Y-11614274D01*
X24359111Y-11614274D02*
X24378158Y-11604750D01*
X24378158Y-11604750D02*
X24406730Y-11604750D01*
X24406730Y-11604750D02*
X24425777Y-11614274D01*
X24425777Y-11614274D02*
X24435301Y-11623798D01*
X24435301Y-11623798D02*
X24444825Y-11642846D01*
X24444825Y-11642846D02*
X24444825Y-11699988D01*
X24444825Y-11699988D02*
X24435301Y-11719036D01*
X24435301Y-11719036D02*
X24425777Y-11728560D01*
X24425777Y-11728560D02*
X24406730Y-11738084D01*
X24406730Y-11738084D02*
X24378158Y-11738084D01*
X24501968Y-11604750D02*
X24578158Y-11604750D01*
X24530539Y-11538084D02*
X24530539Y-11709512D01*
X24530539Y-11709512D02*
X24540063Y-11728560D01*
X24540063Y-11728560D02*
X24559111Y-11738084D01*
X24559111Y-11738084D02*
X24578158Y-11738084D01*
X24797206Y-11604750D02*
X24797206Y-11804750D01*
X24797206Y-11614274D02*
X24816253Y-11604750D01*
X24816253Y-11604750D02*
X24854349Y-11604750D01*
X24854349Y-11604750D02*
X24873396Y-11614274D01*
X24873396Y-11614274D02*
X24882920Y-11623798D01*
X24882920Y-11623798D02*
X24892444Y-11642846D01*
X24892444Y-11642846D02*
X24892444Y-11699988D01*
X24892444Y-11699988D02*
X24882920Y-11719036D01*
X24882920Y-11719036D02*
X24873396Y-11728560D01*
X24873396Y-11728560D02*
X24854349Y-11738084D01*
X24854349Y-11738084D02*
X24816253Y-11738084D01*
X24816253Y-11738084D02*
X24797206Y-11728560D01*
X25006730Y-11738084D02*
X24987682Y-11728560D01*
X24987682Y-11728560D02*
X24978158Y-11709512D01*
X24978158Y-11709512D02*
X24978158Y-11538084D01*
X25168634Y-11738084D02*
X25168634Y-11633322D01*
X25168634Y-11633322D02*
X25159111Y-11614274D01*
X25159111Y-11614274D02*
X25140063Y-11604750D01*
X25140063Y-11604750D02*
X25101968Y-11604750D01*
X25101968Y-11604750D02*
X25082920Y-11614274D01*
X25168634Y-11728560D02*
X25149587Y-11738084D01*
X25149587Y-11738084D02*
X25101968Y-11738084D01*
X25101968Y-11738084D02*
X25082920Y-11728560D01*
X25082920Y-11728560D02*
X25073396Y-11709512D01*
X25073396Y-11709512D02*
X25073396Y-11690465D01*
X25073396Y-11690465D02*
X25082920Y-11671417D01*
X25082920Y-11671417D02*
X25101968Y-11661893D01*
X25101968Y-11661893D02*
X25149587Y-11661893D01*
X25149587Y-11661893D02*
X25168634Y-11652369D01*
X25235301Y-11604750D02*
X25311492Y-11604750D01*
X25263873Y-11538084D02*
X25263873Y-11709512D01*
X25263873Y-11709512D02*
X25273396Y-11728560D01*
X25273396Y-11728560D02*
X25292444Y-11738084D01*
X25292444Y-11738084D02*
X25311492Y-11738084D01*
X25454349Y-11728560D02*
X25435301Y-11738084D01*
X25435301Y-11738084D02*
X25397206Y-11738084D01*
X25397206Y-11738084D02*
X25378158Y-11728560D01*
X25378158Y-11728560D02*
X25368634Y-11709512D01*
X25368634Y-11709512D02*
X25368634Y-11633322D01*
X25368634Y-11633322D02*
X25378158Y-11614274D01*
X25378158Y-11614274D02*
X25397206Y-11604750D01*
X25397206Y-11604750D02*
X25435301Y-11604750D01*
X25435301Y-11604750D02*
X25454349Y-11614274D01*
X25454349Y-11614274D02*
X25463873Y-11633322D01*
X25463873Y-11633322D02*
X25463873Y-11652369D01*
X25463873Y-11652369D02*
X25368634Y-11671417D01*
X25635301Y-11738084D02*
X25635301Y-11538084D01*
X25635301Y-11728560D02*
X25616254Y-11738084D01*
X25616254Y-11738084D02*
X25578158Y-11738084D01*
X25578158Y-11738084D02*
X25559111Y-11728560D01*
X25559111Y-11728560D02*
X25549587Y-11719036D01*
X25549587Y-11719036D02*
X25540063Y-11699988D01*
X25540063Y-11699988D02*
X25540063Y-11642846D01*
X25540063Y-11642846D02*
X25549587Y-11623798D01*
X25549587Y-11623798D02*
X25559111Y-11614274D01*
X25559111Y-11614274D02*
X25578158Y-11604750D01*
X25578158Y-11604750D02*
X25616254Y-11604750D01*
X25616254Y-11604750D02*
X25635301Y-11614274D01*
X25711492Y-11814274D02*
X25721015Y-11804750D01*
X25721015Y-11804750D02*
X25740063Y-11776179D01*
X25740063Y-11776179D02*
X25749587Y-11757131D01*
X25749587Y-11757131D02*
X25759111Y-11728560D01*
X25759111Y-11728560D02*
X25768634Y-11680941D01*
X25768634Y-11680941D02*
X25768634Y-11642846D01*
X25768634Y-11642846D02*
X25759111Y-11595227D01*
X25759111Y-11595227D02*
X25749587Y-11566655D01*
X25749587Y-11566655D02*
X25740063Y-11547608D01*
X25740063Y-11547608D02*
X25721015Y-11519036D01*
X25721015Y-11519036D02*
X25711492Y-11509512D01*
X18665000Y-11856600D02*
X18665000Y-12056600D01*
X18565000Y-11956600D02*
X18765000Y-11956600D01*
X19006729Y-11848084D02*
X19130539Y-11848084D01*
X19130539Y-11848084D02*
X19063872Y-11924274D01*
X19063872Y-11924274D02*
X19092444Y-11924274D01*
X19092444Y-11924274D02*
X19111491Y-11933798D01*
X19111491Y-11933798D02*
X19121015Y-11943322D01*
X19121015Y-11943322D02*
X19130539Y-11962369D01*
X19130539Y-11962369D02*
X19130539Y-12009988D01*
X19130539Y-12009988D02*
X19121015Y-12029036D01*
X19121015Y-12029036D02*
X19111491Y-12038560D01*
X19111491Y-12038560D02*
X19092444Y-12048084D01*
X19092444Y-12048084D02*
X19035301Y-12048084D01*
X19035301Y-12048084D02*
X19016253Y-12038560D01*
X19016253Y-12038560D02*
X19006729Y-12029036D01*
X19216253Y-12029036D02*
X19225777Y-12038560D01*
X19225777Y-12038560D02*
X19216253Y-12048084D01*
X19216253Y-12048084D02*
X19206729Y-12038560D01*
X19206729Y-12038560D02*
X19216253Y-12029036D01*
X19216253Y-12029036D02*
X19216253Y-12048084D01*
X19349586Y-11848084D02*
X19368634Y-11848084D01*
X19368634Y-11848084D02*
X19387682Y-11857608D01*
X19387682Y-11857608D02*
X19397205Y-11867131D01*
X19397205Y-11867131D02*
X19406729Y-11886179D01*
X19406729Y-11886179D02*
X19416253Y-11924274D01*
X19416253Y-11924274D02*
X19416253Y-11971893D01*
X19416253Y-11971893D02*
X19406729Y-12009988D01*
X19406729Y-12009988D02*
X19397205Y-12029036D01*
X19397205Y-12029036D02*
X19387682Y-12038560D01*
X19387682Y-12038560D02*
X19368634Y-12048084D01*
X19368634Y-12048084D02*
X19349586Y-12048084D01*
X19349586Y-12048084D02*
X19330539Y-12038560D01*
X19330539Y-12038560D02*
X19321015Y-12029036D01*
X19321015Y-12029036D02*
X19311491Y-12009988D01*
X19311491Y-12009988D02*
X19301967Y-11971893D01*
X19301967Y-11971893D02*
X19301967Y-11924274D01*
X19301967Y-11924274D02*
X19311491Y-11886179D01*
X19311491Y-11886179D02*
X19321015Y-11867131D01*
X19321015Y-11867131D02*
X19330539Y-11857608D01*
X19330539Y-11857608D02*
X19349586Y-11848084D01*
X19540063Y-11848084D02*
X19559110Y-11848084D01*
X19559110Y-11848084D02*
X19578158Y-11857608D01*
X19578158Y-11857608D02*
X19587682Y-11867131D01*
X19587682Y-11867131D02*
X19597205Y-11886179D01*
X19597205Y-11886179D02*
X19606729Y-11924274D01*
X19606729Y-11924274D02*
X19606729Y-11971893D01*
X19606729Y-11971893D02*
X19597205Y-12009988D01*
X19597205Y-12009988D02*
X19587682Y-12029036D01*
X19587682Y-12029036D02*
X19578158Y-12038560D01*
X19578158Y-12038560D02*
X19559110Y-12048084D01*
X19559110Y-12048084D02*
X19540063Y-12048084D01*
X19540063Y-12048084D02*
X19521015Y-12038560D01*
X19521015Y-12038560D02*
X19511491Y-12029036D01*
X19511491Y-12029036D02*
X19501967Y-12009988D01*
X19501967Y-12009988D02*
X19492444Y-11971893D01*
X19492444Y-11971893D02*
X19492444Y-11924274D01*
X19492444Y-11924274D02*
X19501967Y-11886179D01*
X19501967Y-11886179D02*
X19511491Y-11867131D01*
X19511491Y-11867131D02*
X19521015Y-11857608D01*
X19521015Y-11857608D02*
X19540063Y-11848084D01*
X19730539Y-11848084D02*
X19749586Y-11848084D01*
X19749586Y-11848084D02*
X19768634Y-11857608D01*
X19768634Y-11857608D02*
X19778158Y-11867131D01*
X19778158Y-11867131D02*
X19787682Y-11886179D01*
X19787682Y-11886179D02*
X19797205Y-11924274D01*
X19797205Y-11924274D02*
X19797205Y-11971893D01*
X19797205Y-11971893D02*
X19787682Y-12009988D01*
X19787682Y-12009988D02*
X19778158Y-12029036D01*
X19778158Y-12029036D02*
X19768634Y-12038560D01*
X19768634Y-12038560D02*
X19749586Y-12048084D01*
X19749586Y-12048084D02*
X19730539Y-12048084D01*
X19730539Y-12048084D02*
X19711491Y-12038560D01*
X19711491Y-12038560D02*
X19701967Y-12029036D01*
X19701967Y-12029036D02*
X19692444Y-12009988D01*
X19692444Y-12009988D02*
X19682920Y-11971893D01*
X19682920Y-11971893D02*
X19682920Y-11924274D01*
X19682920Y-11924274D02*
X19692444Y-11886179D01*
X19692444Y-11886179D02*
X19701967Y-11867131D01*
X19701967Y-11867131D02*
X19711491Y-11857608D01*
X19711491Y-11857608D02*
X19730539Y-11848084D01*
X19882920Y-12048084D02*
X19882920Y-11914750D01*
X19882920Y-11933798D02*
X19892444Y-11924274D01*
X19892444Y-11924274D02*
X19911491Y-11914750D01*
X19911491Y-11914750D02*
X19940063Y-11914750D01*
X19940063Y-11914750D02*
X19959110Y-11924274D01*
X19959110Y-11924274D02*
X19968634Y-11943322D01*
X19968634Y-11943322D02*
X19968634Y-12048084D01*
X19968634Y-11943322D02*
X19978158Y-11924274D01*
X19978158Y-11924274D02*
X19997205Y-11914750D01*
X19997205Y-11914750D02*
X20025777Y-11914750D01*
X20025777Y-11914750D02*
X20044825Y-11924274D01*
X20044825Y-11924274D02*
X20054348Y-11943322D01*
X20054348Y-11943322D02*
X20054348Y-12048084D01*
X20149586Y-12048084D02*
X20149586Y-11914750D01*
X20149586Y-11933798D02*
X20159110Y-11924274D01*
X20159110Y-11924274D02*
X20178158Y-11914750D01*
X20178158Y-11914750D02*
X20206729Y-11914750D01*
X20206729Y-11914750D02*
X20225777Y-11924274D01*
X20225777Y-11924274D02*
X20235301Y-11943322D01*
X20235301Y-11943322D02*
X20235301Y-12048084D01*
X20235301Y-11943322D02*
X20244825Y-11924274D01*
X20244825Y-11924274D02*
X20263872Y-11914750D01*
X20263872Y-11914750D02*
X20292444Y-11914750D01*
X20292444Y-11914750D02*
X20311491Y-11924274D01*
X20311491Y-11924274D02*
X20321015Y-11943322D01*
X20321015Y-11943322D02*
X20321015Y-12048084D01*
X20711491Y-11838560D02*
X20540063Y-12095703D01*
X20968634Y-11848084D02*
X20987682Y-11848084D01*
X20987682Y-11848084D02*
X21006729Y-11857608D01*
X21006729Y-11857608D02*
X21016253Y-11867131D01*
X21016253Y-11867131D02*
X21025777Y-11886179D01*
X21025777Y-11886179D02*
X21035301Y-11924274D01*
X21035301Y-11924274D02*
X21035301Y-11971893D01*
X21035301Y-11971893D02*
X21025777Y-12009988D01*
X21025777Y-12009988D02*
X21016253Y-12029036D01*
X21016253Y-12029036D02*
X21006729Y-12038560D01*
X21006729Y-12038560D02*
X20987682Y-12048084D01*
X20987682Y-12048084D02*
X20968634Y-12048084D01*
X20968634Y-12048084D02*
X20949587Y-12038560D01*
X20949587Y-12038560D02*
X20940063Y-12029036D01*
X20940063Y-12029036D02*
X20930539Y-12009988D01*
X20930539Y-12009988D02*
X20921015Y-11971893D01*
X20921015Y-11971893D02*
X20921015Y-11924274D01*
X20921015Y-11924274D02*
X20930539Y-11886179D01*
X20930539Y-11886179D02*
X20940063Y-11867131D01*
X20940063Y-11867131D02*
X20949587Y-11857608D01*
X20949587Y-11857608D02*
X20968634Y-11848084D01*
X21121015Y-12029036D02*
X21130539Y-12038560D01*
X21130539Y-12038560D02*
X21121015Y-12048084D01*
X21121015Y-12048084D02*
X21111491Y-12038560D01*
X21111491Y-12038560D02*
X21121015Y-12029036D01*
X21121015Y-12029036D02*
X21121015Y-12048084D01*
X21321015Y-12048084D02*
X21206729Y-12048084D01*
X21263872Y-12048084D02*
X21263872Y-11848084D01*
X21263872Y-11848084D02*
X21244825Y-11876655D01*
X21244825Y-11876655D02*
X21225777Y-11895703D01*
X21225777Y-11895703D02*
X21206729Y-11905227D01*
X21511491Y-12048084D02*
X21397206Y-12048084D01*
X21454348Y-12048084D02*
X21454348Y-11848084D01*
X21454348Y-11848084D02*
X21435301Y-11876655D01*
X21435301Y-11876655D02*
X21416253Y-11895703D01*
X21416253Y-11895703D02*
X21397206Y-11905227D01*
X21625777Y-11933798D02*
X21606729Y-11924274D01*
X21606729Y-11924274D02*
X21597206Y-11914750D01*
X21597206Y-11914750D02*
X21587682Y-11895703D01*
X21587682Y-11895703D02*
X21587682Y-11886179D01*
X21587682Y-11886179D02*
X21597206Y-11867131D01*
X21597206Y-11867131D02*
X21606729Y-11857608D01*
X21606729Y-11857608D02*
X21625777Y-11848084D01*
X21625777Y-11848084D02*
X21663872Y-11848084D01*
X21663872Y-11848084D02*
X21682920Y-11857608D01*
X21682920Y-11857608D02*
X21692444Y-11867131D01*
X21692444Y-11867131D02*
X21701968Y-11886179D01*
X21701968Y-11886179D02*
X21701968Y-11895703D01*
X21701968Y-11895703D02*
X21692444Y-11914750D01*
X21692444Y-11914750D02*
X21682920Y-11924274D01*
X21682920Y-11924274D02*
X21663872Y-11933798D01*
X21663872Y-11933798D02*
X21625777Y-11933798D01*
X21625777Y-11933798D02*
X21606729Y-11943322D01*
X21606729Y-11943322D02*
X21597206Y-11952846D01*
X21597206Y-11952846D02*
X21587682Y-11971893D01*
X21587682Y-11971893D02*
X21587682Y-12009988D01*
X21587682Y-12009988D02*
X21597206Y-12029036D01*
X21597206Y-12029036D02*
X21606729Y-12038560D01*
X21606729Y-12038560D02*
X21625777Y-12048084D01*
X21625777Y-12048084D02*
X21663872Y-12048084D01*
X21663872Y-12048084D02*
X21682920Y-12038560D01*
X21682920Y-12038560D02*
X21692444Y-12029036D01*
X21692444Y-12029036D02*
X21701968Y-12009988D01*
X21701968Y-12009988D02*
X21701968Y-11971893D01*
X21701968Y-11971893D02*
X21692444Y-11952846D01*
X21692444Y-11952846D02*
X21682920Y-11943322D01*
X21682920Y-11943322D02*
X21663872Y-11933798D01*
X21892444Y-12048084D02*
X21778158Y-12048084D01*
X21835301Y-12048084D02*
X21835301Y-11848084D01*
X21835301Y-11848084D02*
X21816253Y-11876655D01*
X21816253Y-11876655D02*
X21797206Y-11895703D01*
X21797206Y-11895703D02*
X21778158Y-11905227D01*
X21968634Y-11848084D02*
X21968634Y-11886179D01*
X22044825Y-11848084D02*
X22044825Y-11886179D01*
X22340063Y-12124274D02*
X22330539Y-12114750D01*
X22330539Y-12114750D02*
X22311491Y-12086179D01*
X22311491Y-12086179D02*
X22301968Y-12067131D01*
X22301968Y-12067131D02*
X22292444Y-12038560D01*
X22292444Y-12038560D02*
X22282920Y-11990941D01*
X22282920Y-11990941D02*
X22282920Y-11952846D01*
X22282920Y-11952846D02*
X22292444Y-11905227D01*
X22292444Y-11905227D02*
X22301968Y-11876655D01*
X22301968Y-11876655D02*
X22311491Y-11857608D01*
X22311491Y-11857608D02*
X22330539Y-11829036D01*
X22330539Y-11829036D02*
X22340063Y-11819512D01*
X22406729Y-11867131D02*
X22416253Y-11857608D01*
X22416253Y-11857608D02*
X22435301Y-11848084D01*
X22435301Y-11848084D02*
X22482920Y-11848084D01*
X22482920Y-11848084D02*
X22501968Y-11857608D01*
X22501968Y-11857608D02*
X22511491Y-11867131D01*
X22511491Y-11867131D02*
X22521015Y-11886179D01*
X22521015Y-11886179D02*
X22521015Y-11905227D01*
X22521015Y-11905227D02*
X22511491Y-11933798D01*
X22511491Y-11933798D02*
X22397206Y-12048084D01*
X22397206Y-12048084D02*
X22521015Y-12048084D01*
X22692444Y-11914750D02*
X22692444Y-12048084D01*
X22644825Y-11838560D02*
X22597206Y-11981417D01*
X22597206Y-11981417D02*
X22721015Y-11981417D01*
X22949587Y-12048084D02*
X22949587Y-11848084D01*
X23035301Y-12048084D02*
X23035301Y-11943322D01*
X23035301Y-11943322D02*
X23025777Y-11924274D01*
X23025777Y-11924274D02*
X23006730Y-11914750D01*
X23006730Y-11914750D02*
X22978158Y-11914750D01*
X22978158Y-11914750D02*
X22959110Y-11924274D01*
X22959110Y-11924274D02*
X22949587Y-11933798D01*
X23159110Y-12048084D02*
X23140063Y-12038560D01*
X23140063Y-12038560D02*
X23130539Y-12029036D01*
X23130539Y-12029036D02*
X23121015Y-12009988D01*
X23121015Y-12009988D02*
X23121015Y-11952846D01*
X23121015Y-11952846D02*
X23130539Y-11933798D01*
X23130539Y-11933798D02*
X23140063Y-11924274D01*
X23140063Y-11924274D02*
X23159110Y-11914750D01*
X23159110Y-11914750D02*
X23187682Y-11914750D01*
X23187682Y-11914750D02*
X23206730Y-11924274D01*
X23206730Y-11924274D02*
X23216253Y-11933798D01*
X23216253Y-11933798D02*
X23225777Y-11952846D01*
X23225777Y-11952846D02*
X23225777Y-12009988D01*
X23225777Y-12009988D02*
X23216253Y-12029036D01*
X23216253Y-12029036D02*
X23206730Y-12038560D01*
X23206730Y-12038560D02*
X23187682Y-12048084D01*
X23187682Y-12048084D02*
X23159110Y-12048084D01*
X23340063Y-12048084D02*
X23321015Y-12038560D01*
X23321015Y-12038560D02*
X23311491Y-12019512D01*
X23311491Y-12019512D02*
X23311491Y-11848084D01*
X23492444Y-12038560D02*
X23473396Y-12048084D01*
X23473396Y-12048084D02*
X23435301Y-12048084D01*
X23435301Y-12048084D02*
X23416253Y-12038560D01*
X23416253Y-12038560D02*
X23406730Y-12019512D01*
X23406730Y-12019512D02*
X23406730Y-11943322D01*
X23406730Y-11943322D02*
X23416253Y-11924274D01*
X23416253Y-11924274D02*
X23435301Y-11914750D01*
X23435301Y-11914750D02*
X23473396Y-11914750D01*
X23473396Y-11914750D02*
X23492444Y-11924274D01*
X23492444Y-11924274D02*
X23501968Y-11943322D01*
X23501968Y-11943322D02*
X23501968Y-11962369D01*
X23501968Y-11962369D02*
X23406730Y-11981417D01*
X23578158Y-12038560D02*
X23597206Y-12048084D01*
X23597206Y-12048084D02*
X23635301Y-12048084D01*
X23635301Y-12048084D02*
X23654349Y-12038560D01*
X23654349Y-12038560D02*
X23663872Y-12019512D01*
X23663872Y-12019512D02*
X23663872Y-12009988D01*
X23663872Y-12009988D02*
X23654349Y-11990941D01*
X23654349Y-11990941D02*
X23635301Y-11981417D01*
X23635301Y-11981417D02*
X23606730Y-11981417D01*
X23606730Y-11981417D02*
X23587682Y-11971893D01*
X23587682Y-11971893D02*
X23578158Y-11952846D01*
X23578158Y-11952846D02*
X23578158Y-11943322D01*
X23578158Y-11943322D02*
X23587682Y-11924274D01*
X23587682Y-11924274D02*
X23606730Y-11914750D01*
X23606730Y-11914750D02*
X23635301Y-11914750D01*
X23635301Y-11914750D02*
X23654349Y-11924274D01*
X23730539Y-12124274D02*
X23740063Y-12114750D01*
X23740063Y-12114750D02*
X23759111Y-12086179D01*
X23759111Y-12086179D02*
X23768634Y-12067131D01*
X23768634Y-12067131D02*
X23778158Y-12038560D01*
X23778158Y-12038560D02*
X23787682Y-11990941D01*
X23787682Y-11990941D02*
X23787682Y-11952846D01*
X23787682Y-11952846D02*
X23778158Y-11905227D01*
X23778158Y-11905227D02*
X23768634Y-11876655D01*
X23768634Y-11876655D02*
X23759111Y-11857608D01*
X23759111Y-11857608D02*
X23740063Y-11829036D01*
X23740063Y-11829036D02*
X23730539Y-11819512D01*
X24092444Y-12124274D02*
X24082920Y-12114750D01*
X24082920Y-12114750D02*
X24063872Y-12086179D01*
X24063872Y-12086179D02*
X24054349Y-12067131D01*
X24054349Y-12067131D02*
X24044825Y-12038560D01*
X24044825Y-12038560D02*
X24035301Y-11990941D01*
X24035301Y-11990941D02*
X24035301Y-11952846D01*
X24035301Y-11952846D02*
X24044825Y-11905227D01*
X24044825Y-11905227D02*
X24054349Y-11876655D01*
X24054349Y-11876655D02*
X24063872Y-11857608D01*
X24063872Y-11857608D02*
X24082920Y-11829036D01*
X24082920Y-11829036D02*
X24092444Y-11819512D01*
X24168634Y-11914750D02*
X24168634Y-12048084D01*
X24168634Y-11933798D02*
X24178158Y-11924274D01*
X24178158Y-11924274D02*
X24197206Y-11914750D01*
X24197206Y-11914750D02*
X24225777Y-11914750D01*
X24225777Y-11914750D02*
X24244825Y-11924274D01*
X24244825Y-11924274D02*
X24254349Y-11943322D01*
X24254349Y-11943322D02*
X24254349Y-12048084D01*
X24378158Y-12048084D02*
X24359111Y-12038560D01*
X24359111Y-12038560D02*
X24349587Y-12029036D01*
X24349587Y-12029036D02*
X24340063Y-12009988D01*
X24340063Y-12009988D02*
X24340063Y-11952846D01*
X24340063Y-11952846D02*
X24349587Y-11933798D01*
X24349587Y-11933798D02*
X24359111Y-11924274D01*
X24359111Y-11924274D02*
X24378158Y-11914750D01*
X24378158Y-11914750D02*
X24406730Y-11914750D01*
X24406730Y-11914750D02*
X24425777Y-11924274D01*
X24425777Y-11924274D02*
X24435301Y-11933798D01*
X24435301Y-11933798D02*
X24444825Y-11952846D01*
X24444825Y-11952846D02*
X24444825Y-12009988D01*
X24444825Y-12009988D02*
X24435301Y-12029036D01*
X24435301Y-12029036D02*
X24425777Y-12038560D01*
X24425777Y-12038560D02*
X24406730Y-12048084D01*
X24406730Y-12048084D02*
X24378158Y-12048084D01*
X24501968Y-11914750D02*
X24578158Y-11914750D01*
X24530539Y-11848084D02*
X24530539Y-12019512D01*
X24530539Y-12019512D02*
X24540063Y-12038560D01*
X24540063Y-12038560D02*
X24559111Y-12048084D01*
X24559111Y-12048084D02*
X24578158Y-12048084D01*
X24797206Y-11914750D02*
X24797206Y-12114750D01*
X24797206Y-11924274D02*
X24816253Y-11914750D01*
X24816253Y-11914750D02*
X24854349Y-11914750D01*
X24854349Y-11914750D02*
X24873396Y-11924274D01*
X24873396Y-11924274D02*
X24882920Y-11933798D01*
X24882920Y-11933798D02*
X24892444Y-11952846D01*
X24892444Y-11952846D02*
X24892444Y-12009988D01*
X24892444Y-12009988D02*
X24882920Y-12029036D01*
X24882920Y-12029036D02*
X24873396Y-12038560D01*
X24873396Y-12038560D02*
X24854349Y-12048084D01*
X24854349Y-12048084D02*
X24816253Y-12048084D01*
X24816253Y-12048084D02*
X24797206Y-12038560D01*
X25006730Y-12048084D02*
X24987682Y-12038560D01*
X24987682Y-12038560D02*
X24978158Y-12019512D01*
X24978158Y-12019512D02*
X24978158Y-11848084D01*
X25168634Y-12048084D02*
X25168634Y-11943322D01*
X25168634Y-11943322D02*
X25159111Y-11924274D01*
X25159111Y-11924274D02*
X25140063Y-11914750D01*
X25140063Y-11914750D02*
X25101968Y-11914750D01*
X25101968Y-11914750D02*
X25082920Y-11924274D01*
X25168634Y-12038560D02*
X25149587Y-12048084D01*
X25149587Y-12048084D02*
X25101968Y-12048084D01*
X25101968Y-12048084D02*
X25082920Y-12038560D01*
X25082920Y-12038560D02*
X25073396Y-12019512D01*
X25073396Y-12019512D02*
X25073396Y-12000465D01*
X25073396Y-12000465D02*
X25082920Y-11981417D01*
X25082920Y-11981417D02*
X25101968Y-11971893D01*
X25101968Y-11971893D02*
X25149587Y-11971893D01*
X25149587Y-11971893D02*
X25168634Y-11962369D01*
X25235301Y-11914750D02*
X25311492Y-11914750D01*
X25263873Y-11848084D02*
X25263873Y-12019512D01*
X25263873Y-12019512D02*
X25273396Y-12038560D01*
X25273396Y-12038560D02*
X25292444Y-12048084D01*
X25292444Y-12048084D02*
X25311492Y-12048084D01*
X25454349Y-12038560D02*
X25435301Y-12048084D01*
X25435301Y-12048084D02*
X25397206Y-12048084D01*
X25397206Y-12048084D02*
X25378158Y-12038560D01*
X25378158Y-12038560D02*
X25368634Y-12019512D01*
X25368634Y-12019512D02*
X25368634Y-11943322D01*
X25368634Y-11943322D02*
X25378158Y-11924274D01*
X25378158Y-11924274D02*
X25397206Y-11914750D01*
X25397206Y-11914750D02*
X25435301Y-11914750D01*
X25435301Y-11914750D02*
X25454349Y-11924274D01*
X25454349Y-11924274D02*
X25463873Y-11943322D01*
X25463873Y-11943322D02*
X25463873Y-11962369D01*
X25463873Y-11962369D02*
X25368634Y-11981417D01*
X25635301Y-12048084D02*
X25635301Y-11848084D01*
X25635301Y-12038560D02*
X25616254Y-12048084D01*
X25616254Y-12048084D02*
X25578158Y-12048084D01*
X25578158Y-12048084D02*
X25559111Y-12038560D01*
X25559111Y-12038560D02*
X25549587Y-12029036D01*
X25549587Y-12029036D02*
X25540063Y-12009988D01*
X25540063Y-12009988D02*
X25540063Y-11952846D01*
X25540063Y-11952846D02*
X25549587Y-11933798D01*
X25549587Y-11933798D02*
X25559111Y-11924274D01*
X25559111Y-11924274D02*
X25578158Y-11914750D01*
X25578158Y-11914750D02*
X25616254Y-11914750D01*
X25616254Y-11914750D02*
X25635301Y-11924274D01*
X25711492Y-12124274D02*
X25721015Y-12114750D01*
X25721015Y-12114750D02*
X25740063Y-12086179D01*
X25740063Y-12086179D02*
X25749587Y-12067131D01*
X25749587Y-12067131D02*
X25759111Y-12038560D01*
X25759111Y-12038560D02*
X25768634Y-11990941D01*
X25768634Y-11990941D02*
X25768634Y-11952846D01*
X25768634Y-11952846D02*
X25759111Y-11905227D01*
X25759111Y-11905227D02*
X25749587Y-11876655D01*
X25749587Y-11876655D02*
X25740063Y-11857608D01*
X25740063Y-11857608D02*
X25721015Y-11829036D01*
X25721015Y-11829036D02*
X25711492Y-11819512D01*
X18735711Y-12347311D02*
X18735711Y-12205889D01*
X18594289Y-12205889D01*
X18594289Y-12347311D01*
X18735711Y-12347311D01*
X19006729Y-12168084D02*
X19130539Y-12168084D01*
X19130539Y-12168084D02*
X19063872Y-12244274D01*
X19063872Y-12244274D02*
X19092444Y-12244274D01*
X19092444Y-12244274D02*
X19111491Y-12253798D01*
X19111491Y-12253798D02*
X19121015Y-12263322D01*
X19121015Y-12263322D02*
X19130539Y-12282369D01*
X19130539Y-12282369D02*
X19130539Y-12329988D01*
X19130539Y-12329988D02*
X19121015Y-12349036D01*
X19121015Y-12349036D02*
X19111491Y-12358560D01*
X19111491Y-12358560D02*
X19092444Y-12368084D01*
X19092444Y-12368084D02*
X19035301Y-12368084D01*
X19035301Y-12368084D02*
X19016253Y-12358560D01*
X19016253Y-12358560D02*
X19006729Y-12349036D01*
X19216253Y-12349036D02*
X19225777Y-12358560D01*
X19225777Y-12358560D02*
X19216253Y-12368084D01*
X19216253Y-12368084D02*
X19206729Y-12358560D01*
X19206729Y-12358560D02*
X19216253Y-12349036D01*
X19216253Y-12349036D02*
X19216253Y-12368084D01*
X19321015Y-12368084D02*
X19359110Y-12368084D01*
X19359110Y-12368084D02*
X19378158Y-12358560D01*
X19378158Y-12358560D02*
X19387682Y-12349036D01*
X19387682Y-12349036D02*
X19406729Y-12320465D01*
X19406729Y-12320465D02*
X19416253Y-12282369D01*
X19416253Y-12282369D02*
X19416253Y-12206179D01*
X19416253Y-12206179D02*
X19406729Y-12187131D01*
X19406729Y-12187131D02*
X19397205Y-12177608D01*
X19397205Y-12177608D02*
X19378158Y-12168084D01*
X19378158Y-12168084D02*
X19340063Y-12168084D01*
X19340063Y-12168084D02*
X19321015Y-12177608D01*
X19321015Y-12177608D02*
X19311491Y-12187131D01*
X19311491Y-12187131D02*
X19301967Y-12206179D01*
X19301967Y-12206179D02*
X19301967Y-12253798D01*
X19301967Y-12253798D02*
X19311491Y-12272846D01*
X19311491Y-12272846D02*
X19321015Y-12282369D01*
X19321015Y-12282369D02*
X19340063Y-12291893D01*
X19340063Y-12291893D02*
X19378158Y-12291893D01*
X19378158Y-12291893D02*
X19397205Y-12282369D01*
X19397205Y-12282369D02*
X19406729Y-12272846D01*
X19406729Y-12272846D02*
X19416253Y-12253798D01*
X19530539Y-12253798D02*
X19511491Y-12244274D01*
X19511491Y-12244274D02*
X19501967Y-12234750D01*
X19501967Y-12234750D02*
X19492444Y-12215703D01*
X19492444Y-12215703D02*
X19492444Y-12206179D01*
X19492444Y-12206179D02*
X19501967Y-12187131D01*
X19501967Y-12187131D02*
X19511491Y-12177608D01*
X19511491Y-12177608D02*
X19530539Y-12168084D01*
X19530539Y-12168084D02*
X19568634Y-12168084D01*
X19568634Y-12168084D02*
X19587682Y-12177608D01*
X19587682Y-12177608D02*
X19597205Y-12187131D01*
X19597205Y-12187131D02*
X19606729Y-12206179D01*
X19606729Y-12206179D02*
X19606729Y-12215703D01*
X19606729Y-12215703D02*
X19597205Y-12234750D01*
X19597205Y-12234750D02*
X19587682Y-12244274D01*
X19587682Y-12244274D02*
X19568634Y-12253798D01*
X19568634Y-12253798D02*
X19530539Y-12253798D01*
X19530539Y-12253798D02*
X19511491Y-12263322D01*
X19511491Y-12263322D02*
X19501967Y-12272846D01*
X19501967Y-12272846D02*
X19492444Y-12291893D01*
X19492444Y-12291893D02*
X19492444Y-12329988D01*
X19492444Y-12329988D02*
X19501967Y-12349036D01*
X19501967Y-12349036D02*
X19511491Y-12358560D01*
X19511491Y-12358560D02*
X19530539Y-12368084D01*
X19530539Y-12368084D02*
X19568634Y-12368084D01*
X19568634Y-12368084D02*
X19587682Y-12358560D01*
X19587682Y-12358560D02*
X19597205Y-12349036D01*
X19597205Y-12349036D02*
X19606729Y-12329988D01*
X19606729Y-12329988D02*
X19606729Y-12291893D01*
X19606729Y-12291893D02*
X19597205Y-12272846D01*
X19597205Y-12272846D02*
X19587682Y-12263322D01*
X19587682Y-12263322D02*
X19568634Y-12253798D01*
X19721015Y-12253798D02*
X19701967Y-12244274D01*
X19701967Y-12244274D02*
X19692444Y-12234750D01*
X19692444Y-12234750D02*
X19682920Y-12215703D01*
X19682920Y-12215703D02*
X19682920Y-12206179D01*
X19682920Y-12206179D02*
X19692444Y-12187131D01*
X19692444Y-12187131D02*
X19701967Y-12177608D01*
X19701967Y-12177608D02*
X19721015Y-12168084D01*
X19721015Y-12168084D02*
X19759110Y-12168084D01*
X19759110Y-12168084D02*
X19778158Y-12177608D01*
X19778158Y-12177608D02*
X19787682Y-12187131D01*
X19787682Y-12187131D02*
X19797205Y-12206179D01*
X19797205Y-12206179D02*
X19797205Y-12215703D01*
X19797205Y-12215703D02*
X19787682Y-12234750D01*
X19787682Y-12234750D02*
X19778158Y-12244274D01*
X19778158Y-12244274D02*
X19759110Y-12253798D01*
X19759110Y-12253798D02*
X19721015Y-12253798D01*
X19721015Y-12253798D02*
X19701967Y-12263322D01*
X19701967Y-12263322D02*
X19692444Y-12272846D01*
X19692444Y-12272846D02*
X19682920Y-12291893D01*
X19682920Y-12291893D02*
X19682920Y-12329988D01*
X19682920Y-12329988D02*
X19692444Y-12349036D01*
X19692444Y-12349036D02*
X19701967Y-12358560D01*
X19701967Y-12358560D02*
X19721015Y-12368084D01*
X19721015Y-12368084D02*
X19759110Y-12368084D01*
X19759110Y-12368084D02*
X19778158Y-12358560D01*
X19778158Y-12358560D02*
X19787682Y-12349036D01*
X19787682Y-12349036D02*
X19797205Y-12329988D01*
X19797205Y-12329988D02*
X19797205Y-12291893D01*
X19797205Y-12291893D02*
X19787682Y-12272846D01*
X19787682Y-12272846D02*
X19778158Y-12263322D01*
X19778158Y-12263322D02*
X19759110Y-12253798D01*
X19882920Y-12368084D02*
X19882920Y-12234750D01*
X19882920Y-12253798D02*
X19892444Y-12244274D01*
X19892444Y-12244274D02*
X19911491Y-12234750D01*
X19911491Y-12234750D02*
X19940063Y-12234750D01*
X19940063Y-12234750D02*
X19959110Y-12244274D01*
X19959110Y-12244274D02*
X19968634Y-12263322D01*
X19968634Y-12263322D02*
X19968634Y-12368084D01*
X19968634Y-12263322D02*
X19978158Y-12244274D01*
X19978158Y-12244274D02*
X19997205Y-12234750D01*
X19997205Y-12234750D02*
X20025777Y-12234750D01*
X20025777Y-12234750D02*
X20044825Y-12244274D01*
X20044825Y-12244274D02*
X20054348Y-12263322D01*
X20054348Y-12263322D02*
X20054348Y-12368084D01*
X20149586Y-12368084D02*
X20149586Y-12234750D01*
X20149586Y-12253798D02*
X20159110Y-12244274D01*
X20159110Y-12244274D02*
X20178158Y-12234750D01*
X20178158Y-12234750D02*
X20206729Y-12234750D01*
X20206729Y-12234750D02*
X20225777Y-12244274D01*
X20225777Y-12244274D02*
X20235301Y-12263322D01*
X20235301Y-12263322D02*
X20235301Y-12368084D01*
X20235301Y-12263322D02*
X20244825Y-12244274D01*
X20244825Y-12244274D02*
X20263872Y-12234750D01*
X20263872Y-12234750D02*
X20292444Y-12234750D01*
X20292444Y-12234750D02*
X20311491Y-12244274D01*
X20311491Y-12244274D02*
X20321015Y-12263322D01*
X20321015Y-12263322D02*
X20321015Y-12368084D01*
X20711491Y-12158560D02*
X20540063Y-12415703D01*
X20968634Y-12168084D02*
X20987682Y-12168084D01*
X20987682Y-12168084D02*
X21006729Y-12177608D01*
X21006729Y-12177608D02*
X21016253Y-12187131D01*
X21016253Y-12187131D02*
X21025777Y-12206179D01*
X21025777Y-12206179D02*
X21035301Y-12244274D01*
X21035301Y-12244274D02*
X21035301Y-12291893D01*
X21035301Y-12291893D02*
X21025777Y-12329988D01*
X21025777Y-12329988D02*
X21016253Y-12349036D01*
X21016253Y-12349036D02*
X21006729Y-12358560D01*
X21006729Y-12358560D02*
X20987682Y-12368084D01*
X20987682Y-12368084D02*
X20968634Y-12368084D01*
X20968634Y-12368084D02*
X20949587Y-12358560D01*
X20949587Y-12358560D02*
X20940063Y-12349036D01*
X20940063Y-12349036D02*
X20930539Y-12329988D01*
X20930539Y-12329988D02*
X20921015Y-12291893D01*
X20921015Y-12291893D02*
X20921015Y-12244274D01*
X20921015Y-12244274D02*
X20930539Y-12206179D01*
X20930539Y-12206179D02*
X20940063Y-12187131D01*
X20940063Y-12187131D02*
X20949587Y-12177608D01*
X20949587Y-12177608D02*
X20968634Y-12168084D01*
X21121015Y-12349036D02*
X21130539Y-12358560D01*
X21130539Y-12358560D02*
X21121015Y-12368084D01*
X21121015Y-12368084D02*
X21111491Y-12358560D01*
X21111491Y-12358560D02*
X21121015Y-12349036D01*
X21121015Y-12349036D02*
X21121015Y-12368084D01*
X21321015Y-12368084D02*
X21206729Y-12368084D01*
X21263872Y-12368084D02*
X21263872Y-12168084D01*
X21263872Y-12168084D02*
X21244825Y-12196655D01*
X21244825Y-12196655D02*
X21225777Y-12215703D01*
X21225777Y-12215703D02*
X21206729Y-12225227D01*
X21501968Y-12168084D02*
X21406729Y-12168084D01*
X21406729Y-12168084D02*
X21397206Y-12263322D01*
X21397206Y-12263322D02*
X21406729Y-12253798D01*
X21406729Y-12253798D02*
X21425777Y-12244274D01*
X21425777Y-12244274D02*
X21473396Y-12244274D01*
X21473396Y-12244274D02*
X21492444Y-12253798D01*
X21492444Y-12253798D02*
X21501968Y-12263322D01*
X21501968Y-12263322D02*
X21511491Y-12282369D01*
X21511491Y-12282369D02*
X21511491Y-12329988D01*
X21511491Y-12329988D02*
X21501968Y-12349036D01*
X21501968Y-12349036D02*
X21492444Y-12358560D01*
X21492444Y-12358560D02*
X21473396Y-12368084D01*
X21473396Y-12368084D02*
X21425777Y-12368084D01*
X21425777Y-12368084D02*
X21406729Y-12358560D01*
X21406729Y-12358560D02*
X21397206Y-12349036D01*
X21578158Y-12168084D02*
X21711491Y-12168084D01*
X21711491Y-12168084D02*
X21625777Y-12368084D01*
X21825777Y-12168084D02*
X21844825Y-12168084D01*
X21844825Y-12168084D02*
X21863872Y-12177608D01*
X21863872Y-12177608D02*
X21873396Y-12187131D01*
X21873396Y-12187131D02*
X21882920Y-12206179D01*
X21882920Y-12206179D02*
X21892444Y-12244274D01*
X21892444Y-12244274D02*
X21892444Y-12291893D01*
X21892444Y-12291893D02*
X21882920Y-12329988D01*
X21882920Y-12329988D02*
X21873396Y-12349036D01*
X21873396Y-12349036D02*
X21863872Y-12358560D01*
X21863872Y-12358560D02*
X21844825Y-12368084D01*
X21844825Y-12368084D02*
X21825777Y-12368084D01*
X21825777Y-12368084D02*
X21806729Y-12358560D01*
X21806729Y-12358560D02*
X21797206Y-12349036D01*
X21797206Y-12349036D02*
X21787682Y-12329988D01*
X21787682Y-12329988D02*
X21778158Y-12291893D01*
X21778158Y-12291893D02*
X21778158Y-12244274D01*
X21778158Y-12244274D02*
X21787682Y-12206179D01*
X21787682Y-12206179D02*
X21797206Y-12187131D01*
X21797206Y-12187131D02*
X21806729Y-12177608D01*
X21806729Y-12177608D02*
X21825777Y-12168084D01*
X21968634Y-12168084D02*
X21968634Y-12206179D01*
X22044825Y-12168084D02*
X22044825Y-12206179D01*
X22340063Y-12444274D02*
X22330539Y-12434750D01*
X22330539Y-12434750D02*
X22311491Y-12406179D01*
X22311491Y-12406179D02*
X22301968Y-12387131D01*
X22301968Y-12387131D02*
X22292444Y-12358560D01*
X22292444Y-12358560D02*
X22282920Y-12310941D01*
X22282920Y-12310941D02*
X22282920Y-12272846D01*
X22282920Y-12272846D02*
X22292444Y-12225227D01*
X22292444Y-12225227D02*
X22301968Y-12196655D01*
X22301968Y-12196655D02*
X22311491Y-12177608D01*
X22311491Y-12177608D02*
X22330539Y-12149036D01*
X22330539Y-12149036D02*
X22340063Y-12139512D01*
X22521015Y-12368084D02*
X22406729Y-12368084D01*
X22463872Y-12368084D02*
X22463872Y-12168084D01*
X22463872Y-12168084D02*
X22444825Y-12196655D01*
X22444825Y-12196655D02*
X22425777Y-12215703D01*
X22425777Y-12215703D02*
X22406729Y-12225227D01*
X22597206Y-12187131D02*
X22606729Y-12177608D01*
X22606729Y-12177608D02*
X22625777Y-12168084D01*
X22625777Y-12168084D02*
X22673396Y-12168084D01*
X22673396Y-12168084D02*
X22692444Y-12177608D01*
X22692444Y-12177608D02*
X22701968Y-12187131D01*
X22701968Y-12187131D02*
X22711491Y-12206179D01*
X22711491Y-12206179D02*
X22711491Y-12225227D01*
X22711491Y-12225227D02*
X22701968Y-12253798D01*
X22701968Y-12253798D02*
X22587682Y-12368084D01*
X22587682Y-12368084D02*
X22711491Y-12368084D01*
X22949587Y-12368084D02*
X22949587Y-12168084D01*
X23035301Y-12368084D02*
X23035301Y-12263322D01*
X23035301Y-12263322D02*
X23025777Y-12244274D01*
X23025777Y-12244274D02*
X23006730Y-12234750D01*
X23006730Y-12234750D02*
X22978158Y-12234750D01*
X22978158Y-12234750D02*
X22959110Y-12244274D01*
X22959110Y-12244274D02*
X22949587Y-12253798D01*
X23159110Y-12368084D02*
X23140063Y-12358560D01*
X23140063Y-12358560D02*
X23130539Y-12349036D01*
X23130539Y-12349036D02*
X23121015Y-12329988D01*
X23121015Y-12329988D02*
X23121015Y-12272846D01*
X23121015Y-12272846D02*
X23130539Y-12253798D01*
X23130539Y-12253798D02*
X23140063Y-12244274D01*
X23140063Y-12244274D02*
X23159110Y-12234750D01*
X23159110Y-12234750D02*
X23187682Y-12234750D01*
X23187682Y-12234750D02*
X23206730Y-12244274D01*
X23206730Y-12244274D02*
X23216253Y-12253798D01*
X23216253Y-12253798D02*
X23225777Y-12272846D01*
X23225777Y-12272846D02*
X23225777Y-12329988D01*
X23225777Y-12329988D02*
X23216253Y-12349036D01*
X23216253Y-12349036D02*
X23206730Y-12358560D01*
X23206730Y-12358560D02*
X23187682Y-12368084D01*
X23187682Y-12368084D02*
X23159110Y-12368084D01*
X23340063Y-12368084D02*
X23321015Y-12358560D01*
X23321015Y-12358560D02*
X23311491Y-12339512D01*
X23311491Y-12339512D02*
X23311491Y-12168084D01*
X23492444Y-12358560D02*
X23473396Y-12368084D01*
X23473396Y-12368084D02*
X23435301Y-12368084D01*
X23435301Y-12368084D02*
X23416253Y-12358560D01*
X23416253Y-12358560D02*
X23406730Y-12339512D01*
X23406730Y-12339512D02*
X23406730Y-12263322D01*
X23406730Y-12263322D02*
X23416253Y-12244274D01*
X23416253Y-12244274D02*
X23435301Y-12234750D01*
X23435301Y-12234750D02*
X23473396Y-12234750D01*
X23473396Y-12234750D02*
X23492444Y-12244274D01*
X23492444Y-12244274D02*
X23501968Y-12263322D01*
X23501968Y-12263322D02*
X23501968Y-12282369D01*
X23501968Y-12282369D02*
X23406730Y-12301417D01*
X23578158Y-12358560D02*
X23597206Y-12368084D01*
X23597206Y-12368084D02*
X23635301Y-12368084D01*
X23635301Y-12368084D02*
X23654349Y-12358560D01*
X23654349Y-12358560D02*
X23663872Y-12339512D01*
X23663872Y-12339512D02*
X23663872Y-12329988D01*
X23663872Y-12329988D02*
X23654349Y-12310941D01*
X23654349Y-12310941D02*
X23635301Y-12301417D01*
X23635301Y-12301417D02*
X23606730Y-12301417D01*
X23606730Y-12301417D02*
X23587682Y-12291893D01*
X23587682Y-12291893D02*
X23578158Y-12272846D01*
X23578158Y-12272846D02*
X23578158Y-12263322D01*
X23578158Y-12263322D02*
X23587682Y-12244274D01*
X23587682Y-12244274D02*
X23606730Y-12234750D01*
X23606730Y-12234750D02*
X23635301Y-12234750D01*
X23635301Y-12234750D02*
X23654349Y-12244274D01*
X23730539Y-12444274D02*
X23740063Y-12434750D01*
X23740063Y-12434750D02*
X23759111Y-12406179D01*
X23759111Y-12406179D02*
X23768634Y-12387131D01*
X23768634Y-12387131D02*
X23778158Y-12358560D01*
X23778158Y-12358560D02*
X23787682Y-12310941D01*
X23787682Y-12310941D02*
X23787682Y-12272846D01*
X23787682Y-12272846D02*
X23778158Y-12225227D01*
X23778158Y-12225227D02*
X23768634Y-12196655D01*
X23768634Y-12196655D02*
X23759111Y-12177608D01*
X23759111Y-12177608D02*
X23740063Y-12149036D01*
X23740063Y-12149036D02*
X23730539Y-12139512D01*
X24092444Y-12444274D02*
X24082920Y-12434750D01*
X24082920Y-12434750D02*
X24063872Y-12406179D01*
X24063872Y-12406179D02*
X24054349Y-12387131D01*
X24054349Y-12387131D02*
X24044825Y-12358560D01*
X24044825Y-12358560D02*
X24035301Y-12310941D01*
X24035301Y-12310941D02*
X24035301Y-12272846D01*
X24035301Y-12272846D02*
X24044825Y-12225227D01*
X24044825Y-12225227D02*
X24054349Y-12196655D01*
X24054349Y-12196655D02*
X24063872Y-12177608D01*
X24063872Y-12177608D02*
X24082920Y-12149036D01*
X24082920Y-12149036D02*
X24092444Y-12139512D01*
X24168634Y-12234750D02*
X24168634Y-12368084D01*
X24168634Y-12253798D02*
X24178158Y-12244274D01*
X24178158Y-12244274D02*
X24197206Y-12234750D01*
X24197206Y-12234750D02*
X24225777Y-12234750D01*
X24225777Y-12234750D02*
X24244825Y-12244274D01*
X24244825Y-12244274D02*
X24254349Y-12263322D01*
X24254349Y-12263322D02*
X24254349Y-12368084D01*
X24378158Y-12368084D02*
X24359111Y-12358560D01*
X24359111Y-12358560D02*
X24349587Y-12349036D01*
X24349587Y-12349036D02*
X24340063Y-12329988D01*
X24340063Y-12329988D02*
X24340063Y-12272846D01*
X24340063Y-12272846D02*
X24349587Y-12253798D01*
X24349587Y-12253798D02*
X24359111Y-12244274D01*
X24359111Y-12244274D02*
X24378158Y-12234750D01*
X24378158Y-12234750D02*
X24406730Y-12234750D01*
X24406730Y-12234750D02*
X24425777Y-12244274D01*
X24425777Y-12244274D02*
X24435301Y-12253798D01*
X24435301Y-12253798D02*
X24444825Y-12272846D01*
X24444825Y-12272846D02*
X24444825Y-12329988D01*
X24444825Y-12329988D02*
X24435301Y-12349036D01*
X24435301Y-12349036D02*
X24425777Y-12358560D01*
X24425777Y-12358560D02*
X24406730Y-12368084D01*
X24406730Y-12368084D02*
X24378158Y-12368084D01*
X24501968Y-12234750D02*
X24578158Y-12234750D01*
X24530539Y-12168084D02*
X24530539Y-12339512D01*
X24530539Y-12339512D02*
X24540063Y-12358560D01*
X24540063Y-12358560D02*
X24559111Y-12368084D01*
X24559111Y-12368084D02*
X24578158Y-12368084D01*
X24797206Y-12234750D02*
X24797206Y-12434750D01*
X24797206Y-12244274D02*
X24816253Y-12234750D01*
X24816253Y-12234750D02*
X24854349Y-12234750D01*
X24854349Y-12234750D02*
X24873396Y-12244274D01*
X24873396Y-12244274D02*
X24882920Y-12253798D01*
X24882920Y-12253798D02*
X24892444Y-12272846D01*
X24892444Y-12272846D02*
X24892444Y-12329988D01*
X24892444Y-12329988D02*
X24882920Y-12349036D01*
X24882920Y-12349036D02*
X24873396Y-12358560D01*
X24873396Y-12358560D02*
X24854349Y-12368084D01*
X24854349Y-12368084D02*
X24816253Y-12368084D01*
X24816253Y-12368084D02*
X24797206Y-12358560D01*
X25006730Y-12368084D02*
X24987682Y-12358560D01*
X24987682Y-12358560D02*
X24978158Y-12339512D01*
X24978158Y-12339512D02*
X24978158Y-12168084D01*
X25168634Y-12368084D02*
X25168634Y-12263322D01*
X25168634Y-12263322D02*
X25159111Y-12244274D01*
X25159111Y-12244274D02*
X25140063Y-12234750D01*
X25140063Y-12234750D02*
X25101968Y-12234750D01*
X25101968Y-12234750D02*
X25082920Y-12244274D01*
X25168634Y-12358560D02*
X25149587Y-12368084D01*
X25149587Y-12368084D02*
X25101968Y-12368084D01*
X25101968Y-12368084D02*
X25082920Y-12358560D01*
X25082920Y-12358560D02*
X25073396Y-12339512D01*
X25073396Y-12339512D02*
X25073396Y-12320465D01*
X25073396Y-12320465D02*
X25082920Y-12301417D01*
X25082920Y-12301417D02*
X25101968Y-12291893D01*
X25101968Y-12291893D02*
X25149587Y-12291893D01*
X25149587Y-12291893D02*
X25168634Y-12282369D01*
X25235301Y-12234750D02*
X25311492Y-12234750D01*
X25263873Y-12168084D02*
X25263873Y-12339512D01*
X25263873Y-12339512D02*
X25273396Y-12358560D01*
X25273396Y-12358560D02*
X25292444Y-12368084D01*
X25292444Y-12368084D02*
X25311492Y-12368084D01*
X25454349Y-12358560D02*
X25435301Y-12368084D01*
X25435301Y-12368084D02*
X25397206Y-12368084D01*
X25397206Y-12368084D02*
X25378158Y-12358560D01*
X25378158Y-12358560D02*
X25368634Y-12339512D01*
X25368634Y-12339512D02*
X25368634Y-12263322D01*
X25368634Y-12263322D02*
X25378158Y-12244274D01*
X25378158Y-12244274D02*
X25397206Y-12234750D01*
X25397206Y-12234750D02*
X25435301Y-12234750D01*
X25435301Y-12234750D02*
X25454349Y-12244274D01*
X25454349Y-12244274D02*
X25463873Y-12263322D01*
X25463873Y-12263322D02*
X25463873Y-12282369D01*
X25463873Y-12282369D02*
X25368634Y-12301417D01*
X25635301Y-12368084D02*
X25635301Y-12168084D01*
X25635301Y-12358560D02*
X25616254Y-12368084D01*
X25616254Y-12368084D02*
X25578158Y-12368084D01*
X25578158Y-12368084D02*
X25559111Y-12358560D01*
X25559111Y-12358560D02*
X25549587Y-12349036D01*
X25549587Y-12349036D02*
X25540063Y-12329988D01*
X25540063Y-12329988D02*
X25540063Y-12272846D01*
X25540063Y-12272846D02*
X25549587Y-12253798D01*
X25549587Y-12253798D02*
X25559111Y-12244274D01*
X25559111Y-12244274D02*
X25578158Y-12234750D01*
X25578158Y-12234750D02*
X25616254Y-12234750D01*
X25616254Y-12234750D02*
X25635301Y-12244274D01*
X25711492Y-12444274D02*
X25721015Y-12434750D01*
X25721015Y-12434750D02*
X25740063Y-12406179D01*
X25740063Y-12406179D02*
X25749587Y-12387131D01*
X25749587Y-12387131D02*
X25759111Y-12358560D01*
X25759111Y-12358560D02*
X25768634Y-12310941D01*
X25768634Y-12310941D02*
X25768634Y-12272846D01*
X25768634Y-12272846D02*
X25759111Y-12225227D01*
X25759111Y-12225227D02*
X25749587Y-12196655D01*
X25749587Y-12196655D02*
X25740063Y-12177608D01*
X25740063Y-12177608D02*
X25721015Y-12149036D01*
X25721015Y-12149036D02*
X25711492Y-12139512D01*
M02*
