%TF.GenerationSoftware,KiCad,Pcbnew,8.0.1*%
%TF.CreationDate,2024-09-23T21:28:50+02:00*%
%TF.ProjectId,Macro keyboard,4d616372-6f20-46b6-9579-626f6172642e,rev?*%
%TF.SameCoordinates,Original*%
%TF.FileFunction,Drillmap*%
%TF.FilePolarity,Positive*%
%FSLAX45Y45*%
G04 Gerber Fmt 4.5, Leading zero omitted, Abs format (unit mm)*
G04 Created by KiCad (PCBNEW 8.0.1) date 2024-09-23 21:28:50*
%MOMM*%
%LPD*%
G01*
G04 APERTURE LIST*
%ADD10C,0.200000*%
%ADD11C,0.100000*%
%ADD12C,0.220000*%
G04 APERTURE END LIST*
D10*
X18775000Y-3425000D02*
X26775000Y-3425000D01*
X26775000Y-10732600D01*
X18775000Y-10732600D01*
X18775000Y-3425000D01*
D11*
X19494300Y-6362500D02*
X19524300Y-6392500D01*
X19524300Y-6362500D02*
X19494300Y-6392500D01*
X19517600Y-4404600D02*
X19547600Y-4434600D01*
X19547600Y-4404600D02*
X19517600Y-4434600D01*
X19695400Y-8367000D02*
X19725400Y-8397000D01*
X19725400Y-8367000D02*
X19695400Y-8397000D01*
X19810000Y-6300000D02*
X19840000Y-6330000D01*
X19840000Y-6300000D02*
X19810000Y-6330000D01*
X20016000Y-6370000D02*
X20046000Y-6400000D01*
X20046000Y-6370000D02*
X20016000Y-6400000D01*
X20040000Y-6066600D02*
X20070000Y-6096600D01*
X20070000Y-6066600D02*
X20040000Y-6096600D01*
X20041800Y-4370000D02*
X20071800Y-4400000D01*
X20071800Y-4370000D02*
X20041800Y-4400000D01*
X20051000Y-8367000D02*
X20081000Y-8397000D01*
X20081000Y-8367000D02*
X20051000Y-8397000D01*
X20051000Y-8494000D02*
X20081000Y-8524000D01*
X20081000Y-8494000D02*
X20051000Y-8524000D01*
X20386900Y-8398100D02*
X20416900Y-8428100D01*
X20416900Y-8398100D02*
X20386900Y-8428100D01*
X20660600Y-5573000D02*
X20690600Y-5603000D01*
X20690600Y-5573000D02*
X20660600Y-5603000D01*
X20736800Y-8316200D02*
X20766800Y-8346200D01*
X20766800Y-8316200D02*
X20736800Y-8346200D01*
X20787600Y-4557000D02*
X20817600Y-4587000D01*
X20817600Y-4557000D02*
X20787600Y-4587000D01*
X21067000Y-4277600D02*
X21097000Y-4307600D01*
X21097000Y-4277600D02*
X21067000Y-4307600D01*
X21117800Y-9687800D02*
X21147800Y-9717800D01*
X21147800Y-9687800D02*
X21117800Y-9717800D01*
X21448000Y-6385800D02*
X21478000Y-6415800D01*
X21478000Y-6385800D02*
X21448000Y-6415800D01*
X21532900Y-4362500D02*
X21562900Y-4392500D01*
X21562900Y-4362500D02*
X21532900Y-4392500D01*
X21685000Y-8360000D02*
X21715000Y-8390000D01*
X21715000Y-8360000D02*
X21685000Y-8390000D01*
X21915000Y-5710000D02*
X21945000Y-5740000D01*
X21945000Y-5710000D02*
X21915000Y-5740000D01*
X22002600Y-4375000D02*
X22032600Y-4405000D01*
X22032600Y-4375000D02*
X22002600Y-4405000D01*
X22019500Y-8481300D02*
X22049500Y-8511300D01*
X22049500Y-8481300D02*
X22019500Y-8511300D01*
X22035000Y-8325000D02*
X22065000Y-8355000D01*
X22065000Y-8325000D02*
X22035000Y-8355000D01*
X22083000Y-6385800D02*
X22113000Y-6415800D01*
X22113000Y-6385800D02*
X22083000Y-6415800D01*
X22260800Y-7528800D02*
X22290800Y-7558800D01*
X22290800Y-7528800D02*
X22260800Y-7558800D01*
X22497400Y-9899000D02*
X22527400Y-9929000D01*
X22527400Y-9899000D02*
X22497400Y-9929000D01*
X22540200Y-7681200D02*
X22570200Y-7711200D01*
X22570200Y-7681200D02*
X22540200Y-7711200D01*
X22591000Y-4658600D02*
X22621000Y-4688600D01*
X22621000Y-4658600D02*
X22591000Y-4688600D01*
X22921200Y-4328400D02*
X22951200Y-4358400D01*
X22951200Y-4328400D02*
X22921200Y-4358400D01*
X23353000Y-5725400D02*
X23383000Y-5755400D01*
X23383000Y-5725400D02*
X23353000Y-5755400D01*
X23483700Y-4357500D02*
X23513700Y-4387500D01*
X23513700Y-4357500D02*
X23483700Y-4387500D01*
X23500000Y-6365000D02*
X23530000Y-6395000D01*
X23530000Y-6365000D02*
X23500000Y-6395000D01*
X23500000Y-8360000D02*
X23530000Y-8390000D01*
X23530000Y-8360000D02*
X23500000Y-8390000D01*
X23835600Y-7732000D02*
X23865600Y-7762000D01*
X23865600Y-7732000D02*
X23835600Y-7762000D01*
X24025000Y-8365000D02*
X24055000Y-8395000D01*
X24055000Y-8365000D02*
X24025000Y-8395000D01*
X24055000Y-6370000D02*
X24085000Y-6400000D01*
X24085000Y-6370000D02*
X24055000Y-6400000D01*
X24064200Y-4404600D02*
X24094200Y-4434600D01*
X24094200Y-4404600D02*
X24064200Y-4434600D01*
X24089600Y-9662400D02*
X24119600Y-9692400D01*
X24119600Y-9662400D02*
X24089600Y-9692400D01*
X24145000Y-8495000D02*
X24175000Y-8525000D01*
X24175000Y-8495000D02*
X24145000Y-8525000D01*
X24623000Y-6030200D02*
X24653000Y-6060200D01*
X24653000Y-6030200D02*
X24623000Y-6060200D01*
X24623000Y-6157200D02*
X24653000Y-6187200D01*
X24653000Y-6157200D02*
X24623000Y-6187200D01*
X24673800Y-7960600D02*
X24703800Y-7990600D01*
X24703800Y-7960600D02*
X24673800Y-7990600D01*
X24775400Y-4252200D02*
X24805400Y-4282200D01*
X24805400Y-4252200D02*
X24775400Y-4282200D01*
X24877000Y-4150600D02*
X24907000Y-4180600D01*
X24907000Y-4150600D02*
X24877000Y-4180600D01*
X24927800Y-6030200D02*
X24957800Y-6060200D01*
X24957800Y-6030200D02*
X24927800Y-6060200D01*
X24927800Y-6157200D02*
X24957800Y-6187200D01*
X24957800Y-6157200D02*
X24927800Y-6187200D01*
X24953200Y-4404600D02*
X24983200Y-4434600D01*
X24983200Y-4404600D02*
X24953200Y-4434600D01*
X25029400Y-4303000D02*
X25059400Y-4333000D01*
X25059400Y-4303000D02*
X25029400Y-4333000D01*
X25424600Y-4365000D02*
X25454600Y-4395000D01*
X25454600Y-4365000D02*
X25424600Y-4395000D01*
X25650000Y-6360000D02*
X25680000Y-6390000D01*
X25680000Y-6360000D02*
X25650000Y-6390000D01*
X25655000Y-8375000D02*
X25685000Y-8405000D01*
X25685000Y-8375000D02*
X25655000Y-8405000D01*
X25715200Y-7757400D02*
X25745200Y-7787400D01*
X25745200Y-7757400D02*
X25715200Y-7787400D01*
X25842200Y-5725400D02*
X25872200Y-5755400D01*
X25872200Y-5725400D02*
X25842200Y-5755400D01*
X26010000Y-8375000D02*
X26040000Y-8405000D01*
X26040000Y-8375000D02*
X26010000Y-8405000D01*
X26015000Y-6375000D02*
X26045000Y-6405000D01*
X26045000Y-6375000D02*
X26015000Y-6405000D01*
X26070000Y-4380000D02*
X26100000Y-4410000D01*
X26100000Y-4380000D02*
X26070000Y-4410000D01*
X26087500Y-9505000D02*
X26117500Y-9535000D01*
X26117500Y-9505000D02*
X26087500Y-9535000D01*
X20809900Y-10312400D02*
G75*
G02*
X20714900Y-10312400I-47500J0D01*
G01*
X20714900Y-10312400D02*
G75*
G02*
X20809900Y-10312400I47500J0D01*
G01*
X21059900Y-10312400D02*
G75*
G02*
X20964900Y-10312400I-47500J0D01*
G01*
X20964900Y-10312400D02*
G75*
G02*
X21059900Y-10312400I47500J0D01*
G01*
X21309900Y-10312400D02*
G75*
G02*
X21214900Y-10312400I-47500J0D01*
G01*
X21214900Y-10312400D02*
G75*
G02*
X21309900Y-10312400I47500J0D01*
G01*
X21559900Y-10312400D02*
G75*
G02*
X21464900Y-10312400I-47500J0D01*
G01*
X21464900Y-10312400D02*
G75*
G02*
X21559900Y-10312400I47500J0D01*
G01*
X21809900Y-10312400D02*
G75*
G02*
X21714900Y-10312400I-47500J0D01*
G01*
X21714900Y-10312400D02*
G75*
G02*
X21809900Y-10312400I47500J0D01*
G01*
X22059900Y-10312400D02*
G75*
G02*
X21964900Y-10312400I-47500J0D01*
G01*
X21964900Y-10312400D02*
G75*
G02*
X22059900Y-10312400I47500J0D01*
G01*
X22309900Y-10312400D02*
G75*
G02*
X22214900Y-10312400I-47500J0D01*
G01*
X22214900Y-10312400D02*
G75*
G02*
X22309900Y-10312400I47500J0D01*
G01*
X22559900Y-10312400D02*
G75*
G02*
X22464900Y-10312400I-47500J0D01*
G01*
X22464900Y-10312400D02*
G75*
G02*
X22559900Y-10312400I47500J0D01*
G01*
X22809900Y-10312400D02*
G75*
G02*
X22714900Y-10312400I-47500J0D01*
G01*
X22714900Y-10312400D02*
G75*
G02*
X22809900Y-10312400I47500J0D01*
G01*
X23059900Y-10312400D02*
G75*
G02*
X22964900Y-10312400I-47500J0D01*
G01*
X22964900Y-10312400D02*
G75*
G02*
X23059900Y-10312400I47500J0D01*
G01*
X23309900Y-10312400D02*
G75*
G02*
X23214900Y-10312400I-47500J0D01*
G01*
X23214900Y-10312400D02*
G75*
G02*
X23309900Y-10312400I47500J0D01*
G01*
X23559900Y-10312400D02*
G75*
G02*
X23464900Y-10312400I-47500J0D01*
G01*
X23464900Y-10312400D02*
G75*
G02*
X23559900Y-10312400I47500J0D01*
G01*
X23809900Y-10312400D02*
G75*
G02*
X23714900Y-10312400I-47500J0D01*
G01*
X23714900Y-10312400D02*
G75*
G02*
X23809900Y-10312400I47500J0D01*
G01*
X24059900Y-10312400D02*
G75*
G02*
X23964900Y-10312400I-47500J0D01*
G01*
X23964900Y-10312400D02*
G75*
G02*
X24059900Y-10312400I47500J0D01*
G01*
X24309900Y-10312400D02*
G75*
G02*
X24214900Y-10312400I-47500J0D01*
G01*
X24214900Y-10312400D02*
G75*
G02*
X24309900Y-10312400I47500J0D01*
G01*
D12*
X19100800Y-10278600D02*
X19100800Y-10498600D01*
X18990800Y-10388600D02*
X19210800Y-10388600D01*
X19126200Y-3674600D02*
X19126200Y-3894600D01*
X19016200Y-3784600D02*
X19236200Y-3784600D01*
X26416000Y-3649200D02*
X26416000Y-3869200D01*
X26306000Y-3759200D02*
X26526000Y-3759200D01*
X26441400Y-10304000D02*
X26441400Y-10524000D01*
X26331400Y-10414000D02*
X26551400Y-10414000D01*
D10*
X19025777Y-11054084D02*
X19025777Y-10854084D01*
X19025777Y-10854084D02*
X19073396Y-10854084D01*
X19073396Y-10854084D02*
X19101967Y-10863608D01*
X19101967Y-10863608D02*
X19121015Y-10882655D01*
X19121015Y-10882655D02*
X19130539Y-10901703D01*
X19130539Y-10901703D02*
X19140063Y-10939798D01*
X19140063Y-10939798D02*
X19140063Y-10968370D01*
X19140063Y-10968370D02*
X19130539Y-11006465D01*
X19130539Y-11006465D02*
X19121015Y-11025512D01*
X19121015Y-11025512D02*
X19101967Y-11044560D01*
X19101967Y-11044560D02*
X19073396Y-11054084D01*
X19073396Y-11054084D02*
X19025777Y-11054084D01*
X19225777Y-11054084D02*
X19225777Y-10920750D01*
X19225777Y-10958846D02*
X19235301Y-10939798D01*
X19235301Y-10939798D02*
X19244824Y-10930274D01*
X19244824Y-10930274D02*
X19263872Y-10920750D01*
X19263872Y-10920750D02*
X19282920Y-10920750D01*
X19349586Y-11054084D02*
X19349586Y-10920750D01*
X19349586Y-10854084D02*
X19340063Y-10863608D01*
X19340063Y-10863608D02*
X19349586Y-10873131D01*
X19349586Y-10873131D02*
X19359110Y-10863608D01*
X19359110Y-10863608D02*
X19349586Y-10854084D01*
X19349586Y-10854084D02*
X19349586Y-10873131D01*
X19473396Y-11054084D02*
X19454348Y-11044560D01*
X19454348Y-11044560D02*
X19444824Y-11025512D01*
X19444824Y-11025512D02*
X19444824Y-10854084D01*
X19578158Y-11054084D02*
X19559110Y-11044560D01*
X19559110Y-11044560D02*
X19549586Y-11025512D01*
X19549586Y-11025512D02*
X19549586Y-10854084D01*
X19806729Y-11054084D02*
X19806729Y-10854084D01*
X19806729Y-10854084D02*
X19873396Y-10996941D01*
X19873396Y-10996941D02*
X19940063Y-10854084D01*
X19940063Y-10854084D02*
X19940063Y-11054084D01*
X20121015Y-11054084D02*
X20121015Y-10949322D01*
X20121015Y-10949322D02*
X20111491Y-10930274D01*
X20111491Y-10930274D02*
X20092444Y-10920750D01*
X20092444Y-10920750D02*
X20054348Y-10920750D01*
X20054348Y-10920750D02*
X20035301Y-10930274D01*
X20121015Y-11044560D02*
X20101967Y-11054084D01*
X20101967Y-11054084D02*
X20054348Y-11054084D01*
X20054348Y-11054084D02*
X20035301Y-11044560D01*
X20035301Y-11044560D02*
X20025777Y-11025512D01*
X20025777Y-11025512D02*
X20025777Y-11006465D01*
X20025777Y-11006465D02*
X20035301Y-10987417D01*
X20035301Y-10987417D02*
X20054348Y-10977893D01*
X20054348Y-10977893D02*
X20101967Y-10977893D01*
X20101967Y-10977893D02*
X20121015Y-10968370D01*
X20216253Y-10920750D02*
X20216253Y-11120750D01*
X20216253Y-10930274D02*
X20235301Y-10920750D01*
X20235301Y-10920750D02*
X20273396Y-10920750D01*
X20273396Y-10920750D02*
X20292444Y-10930274D01*
X20292444Y-10930274D02*
X20301967Y-10939798D01*
X20301967Y-10939798D02*
X20311491Y-10958846D01*
X20311491Y-10958846D02*
X20311491Y-11015989D01*
X20311491Y-11015989D02*
X20301967Y-11035036D01*
X20301967Y-11035036D02*
X20292444Y-11044560D01*
X20292444Y-11044560D02*
X20273396Y-11054084D01*
X20273396Y-11054084D02*
X20235301Y-11054084D01*
X20235301Y-11054084D02*
X20216253Y-11044560D01*
X20397205Y-11035036D02*
X20406729Y-11044560D01*
X20406729Y-11044560D02*
X20397205Y-11054084D01*
X20397205Y-11054084D02*
X20387682Y-11044560D01*
X20387682Y-11044560D02*
X20397205Y-11035036D01*
X20397205Y-11035036D02*
X20397205Y-11054084D01*
X20397205Y-10930274D02*
X20406729Y-10939798D01*
X20406729Y-10939798D02*
X20397205Y-10949322D01*
X20397205Y-10949322D02*
X20387682Y-10939798D01*
X20387682Y-10939798D02*
X20397205Y-10930274D01*
X20397205Y-10930274D02*
X20397205Y-10949322D01*
D11*
X18735000Y-11367600D02*
X18765000Y-11397600D01*
X18765000Y-11367600D02*
X18735000Y-11397600D01*
D10*
X19063872Y-11274084D02*
X19082920Y-11274084D01*
X19082920Y-11274084D02*
X19101967Y-11283608D01*
X19101967Y-11283608D02*
X19111491Y-11293131D01*
X19111491Y-11293131D02*
X19121015Y-11312179D01*
X19121015Y-11312179D02*
X19130539Y-11350274D01*
X19130539Y-11350274D02*
X19130539Y-11397893D01*
X19130539Y-11397893D02*
X19121015Y-11435988D01*
X19121015Y-11435988D02*
X19111491Y-11455036D01*
X19111491Y-11455036D02*
X19101967Y-11464560D01*
X19101967Y-11464560D02*
X19082920Y-11474084D01*
X19082920Y-11474084D02*
X19063872Y-11474084D01*
X19063872Y-11474084D02*
X19044824Y-11464560D01*
X19044824Y-11464560D02*
X19035301Y-11455036D01*
X19035301Y-11455036D02*
X19025777Y-11435988D01*
X19025777Y-11435988D02*
X19016253Y-11397893D01*
X19016253Y-11397893D02*
X19016253Y-11350274D01*
X19016253Y-11350274D02*
X19025777Y-11312179D01*
X19025777Y-11312179D02*
X19035301Y-11293131D01*
X19035301Y-11293131D02*
X19044824Y-11283608D01*
X19044824Y-11283608D02*
X19063872Y-11274084D01*
X19216253Y-11455036D02*
X19225777Y-11464560D01*
X19225777Y-11464560D02*
X19216253Y-11474084D01*
X19216253Y-11474084D02*
X19206729Y-11464560D01*
X19206729Y-11464560D02*
X19216253Y-11455036D01*
X19216253Y-11455036D02*
X19216253Y-11474084D01*
X19292444Y-11274084D02*
X19416253Y-11274084D01*
X19416253Y-11274084D02*
X19349586Y-11350274D01*
X19349586Y-11350274D02*
X19378158Y-11350274D01*
X19378158Y-11350274D02*
X19397205Y-11359798D01*
X19397205Y-11359798D02*
X19406729Y-11369322D01*
X19406729Y-11369322D02*
X19416253Y-11388369D01*
X19416253Y-11388369D02*
X19416253Y-11435988D01*
X19416253Y-11435988D02*
X19406729Y-11455036D01*
X19406729Y-11455036D02*
X19397205Y-11464560D01*
X19397205Y-11464560D02*
X19378158Y-11474084D01*
X19378158Y-11474084D02*
X19321015Y-11474084D01*
X19321015Y-11474084D02*
X19301967Y-11464560D01*
X19301967Y-11464560D02*
X19292444Y-11455036D01*
X19540063Y-11274084D02*
X19559110Y-11274084D01*
X19559110Y-11274084D02*
X19578158Y-11283608D01*
X19578158Y-11283608D02*
X19587682Y-11293131D01*
X19587682Y-11293131D02*
X19597205Y-11312179D01*
X19597205Y-11312179D02*
X19606729Y-11350274D01*
X19606729Y-11350274D02*
X19606729Y-11397893D01*
X19606729Y-11397893D02*
X19597205Y-11435988D01*
X19597205Y-11435988D02*
X19587682Y-11455036D01*
X19587682Y-11455036D02*
X19578158Y-11464560D01*
X19578158Y-11464560D02*
X19559110Y-11474084D01*
X19559110Y-11474084D02*
X19540063Y-11474084D01*
X19540063Y-11474084D02*
X19521015Y-11464560D01*
X19521015Y-11464560D02*
X19511491Y-11455036D01*
X19511491Y-11455036D02*
X19501967Y-11435988D01*
X19501967Y-11435988D02*
X19492444Y-11397893D01*
X19492444Y-11397893D02*
X19492444Y-11350274D01*
X19492444Y-11350274D02*
X19501967Y-11312179D01*
X19501967Y-11312179D02*
X19511491Y-11293131D01*
X19511491Y-11293131D02*
X19521015Y-11283608D01*
X19521015Y-11283608D02*
X19540063Y-11274084D01*
X19730539Y-11274084D02*
X19749586Y-11274084D01*
X19749586Y-11274084D02*
X19768634Y-11283608D01*
X19768634Y-11283608D02*
X19778158Y-11293131D01*
X19778158Y-11293131D02*
X19787682Y-11312179D01*
X19787682Y-11312179D02*
X19797205Y-11350274D01*
X19797205Y-11350274D02*
X19797205Y-11397893D01*
X19797205Y-11397893D02*
X19787682Y-11435988D01*
X19787682Y-11435988D02*
X19778158Y-11455036D01*
X19778158Y-11455036D02*
X19768634Y-11464560D01*
X19768634Y-11464560D02*
X19749586Y-11474084D01*
X19749586Y-11474084D02*
X19730539Y-11474084D01*
X19730539Y-11474084D02*
X19711491Y-11464560D01*
X19711491Y-11464560D02*
X19701967Y-11455036D01*
X19701967Y-11455036D02*
X19692444Y-11435988D01*
X19692444Y-11435988D02*
X19682920Y-11397893D01*
X19682920Y-11397893D02*
X19682920Y-11350274D01*
X19682920Y-11350274D02*
X19692444Y-11312179D01*
X19692444Y-11312179D02*
X19701967Y-11293131D01*
X19701967Y-11293131D02*
X19711491Y-11283608D01*
X19711491Y-11283608D02*
X19730539Y-11274084D01*
X19882920Y-11474084D02*
X19882920Y-11340750D01*
X19882920Y-11359798D02*
X19892444Y-11350274D01*
X19892444Y-11350274D02*
X19911491Y-11340750D01*
X19911491Y-11340750D02*
X19940063Y-11340750D01*
X19940063Y-11340750D02*
X19959110Y-11350274D01*
X19959110Y-11350274D02*
X19968634Y-11369322D01*
X19968634Y-11369322D02*
X19968634Y-11474084D01*
X19968634Y-11369322D02*
X19978158Y-11350274D01*
X19978158Y-11350274D02*
X19997205Y-11340750D01*
X19997205Y-11340750D02*
X20025777Y-11340750D01*
X20025777Y-11340750D02*
X20044825Y-11350274D01*
X20044825Y-11350274D02*
X20054348Y-11369322D01*
X20054348Y-11369322D02*
X20054348Y-11474084D01*
X20149586Y-11474084D02*
X20149586Y-11340750D01*
X20149586Y-11359798D02*
X20159110Y-11350274D01*
X20159110Y-11350274D02*
X20178158Y-11340750D01*
X20178158Y-11340750D02*
X20206729Y-11340750D01*
X20206729Y-11340750D02*
X20225777Y-11350274D01*
X20225777Y-11350274D02*
X20235301Y-11369322D01*
X20235301Y-11369322D02*
X20235301Y-11474084D01*
X20235301Y-11369322D02*
X20244825Y-11350274D01*
X20244825Y-11350274D02*
X20263872Y-11340750D01*
X20263872Y-11340750D02*
X20292444Y-11340750D01*
X20292444Y-11340750D02*
X20311491Y-11350274D01*
X20311491Y-11350274D02*
X20321015Y-11369322D01*
X20321015Y-11369322D02*
X20321015Y-11474084D01*
X20711491Y-11264560D02*
X20540063Y-11521703D01*
X20968634Y-11274084D02*
X20987682Y-11274084D01*
X20987682Y-11274084D02*
X21006729Y-11283608D01*
X21006729Y-11283608D02*
X21016253Y-11293131D01*
X21016253Y-11293131D02*
X21025777Y-11312179D01*
X21025777Y-11312179D02*
X21035301Y-11350274D01*
X21035301Y-11350274D02*
X21035301Y-11397893D01*
X21035301Y-11397893D02*
X21025777Y-11435988D01*
X21025777Y-11435988D02*
X21016253Y-11455036D01*
X21016253Y-11455036D02*
X21006729Y-11464560D01*
X21006729Y-11464560D02*
X20987682Y-11474084D01*
X20987682Y-11474084D02*
X20968634Y-11474084D01*
X20968634Y-11474084D02*
X20949587Y-11464560D01*
X20949587Y-11464560D02*
X20940063Y-11455036D01*
X20940063Y-11455036D02*
X20930539Y-11435988D01*
X20930539Y-11435988D02*
X20921015Y-11397893D01*
X20921015Y-11397893D02*
X20921015Y-11350274D01*
X20921015Y-11350274D02*
X20930539Y-11312179D01*
X20930539Y-11312179D02*
X20940063Y-11293131D01*
X20940063Y-11293131D02*
X20949587Y-11283608D01*
X20949587Y-11283608D02*
X20968634Y-11274084D01*
X21121015Y-11455036D02*
X21130539Y-11464560D01*
X21130539Y-11464560D02*
X21121015Y-11474084D01*
X21121015Y-11474084D02*
X21111491Y-11464560D01*
X21111491Y-11464560D02*
X21121015Y-11455036D01*
X21121015Y-11455036D02*
X21121015Y-11474084D01*
X21254348Y-11274084D02*
X21273396Y-11274084D01*
X21273396Y-11274084D02*
X21292444Y-11283608D01*
X21292444Y-11283608D02*
X21301968Y-11293131D01*
X21301968Y-11293131D02*
X21311491Y-11312179D01*
X21311491Y-11312179D02*
X21321015Y-11350274D01*
X21321015Y-11350274D02*
X21321015Y-11397893D01*
X21321015Y-11397893D02*
X21311491Y-11435988D01*
X21311491Y-11435988D02*
X21301968Y-11455036D01*
X21301968Y-11455036D02*
X21292444Y-11464560D01*
X21292444Y-11464560D02*
X21273396Y-11474084D01*
X21273396Y-11474084D02*
X21254348Y-11474084D01*
X21254348Y-11474084D02*
X21235301Y-11464560D01*
X21235301Y-11464560D02*
X21225777Y-11455036D01*
X21225777Y-11455036D02*
X21216253Y-11435988D01*
X21216253Y-11435988D02*
X21206729Y-11397893D01*
X21206729Y-11397893D02*
X21206729Y-11350274D01*
X21206729Y-11350274D02*
X21216253Y-11312179D01*
X21216253Y-11312179D02*
X21225777Y-11293131D01*
X21225777Y-11293131D02*
X21235301Y-11283608D01*
X21235301Y-11283608D02*
X21254348Y-11274084D01*
X21511491Y-11474084D02*
X21397206Y-11474084D01*
X21454348Y-11474084D02*
X21454348Y-11274084D01*
X21454348Y-11274084D02*
X21435301Y-11302655D01*
X21435301Y-11302655D02*
X21416253Y-11321703D01*
X21416253Y-11321703D02*
X21397206Y-11331227D01*
X21701968Y-11474084D02*
X21587682Y-11474084D01*
X21644825Y-11474084D02*
X21644825Y-11274084D01*
X21644825Y-11274084D02*
X21625777Y-11302655D01*
X21625777Y-11302655D02*
X21606729Y-11321703D01*
X21606729Y-11321703D02*
X21587682Y-11331227D01*
X21816253Y-11359798D02*
X21797206Y-11350274D01*
X21797206Y-11350274D02*
X21787682Y-11340750D01*
X21787682Y-11340750D02*
X21778158Y-11321703D01*
X21778158Y-11321703D02*
X21778158Y-11312179D01*
X21778158Y-11312179D02*
X21787682Y-11293131D01*
X21787682Y-11293131D02*
X21797206Y-11283608D01*
X21797206Y-11283608D02*
X21816253Y-11274084D01*
X21816253Y-11274084D02*
X21854349Y-11274084D01*
X21854349Y-11274084D02*
X21873396Y-11283608D01*
X21873396Y-11283608D02*
X21882920Y-11293131D01*
X21882920Y-11293131D02*
X21892444Y-11312179D01*
X21892444Y-11312179D02*
X21892444Y-11321703D01*
X21892444Y-11321703D02*
X21882920Y-11340750D01*
X21882920Y-11340750D02*
X21873396Y-11350274D01*
X21873396Y-11350274D02*
X21854349Y-11359798D01*
X21854349Y-11359798D02*
X21816253Y-11359798D01*
X21816253Y-11359798D02*
X21797206Y-11369322D01*
X21797206Y-11369322D02*
X21787682Y-11378846D01*
X21787682Y-11378846D02*
X21778158Y-11397893D01*
X21778158Y-11397893D02*
X21778158Y-11435988D01*
X21778158Y-11435988D02*
X21787682Y-11455036D01*
X21787682Y-11455036D02*
X21797206Y-11464560D01*
X21797206Y-11464560D02*
X21816253Y-11474084D01*
X21816253Y-11474084D02*
X21854349Y-11474084D01*
X21854349Y-11474084D02*
X21873396Y-11464560D01*
X21873396Y-11464560D02*
X21882920Y-11455036D01*
X21882920Y-11455036D02*
X21892444Y-11435988D01*
X21892444Y-11435988D02*
X21892444Y-11397893D01*
X21892444Y-11397893D02*
X21882920Y-11378846D01*
X21882920Y-11378846D02*
X21873396Y-11369322D01*
X21873396Y-11369322D02*
X21854349Y-11359798D01*
X21968634Y-11274084D02*
X21968634Y-11312179D01*
X22044825Y-11274084D02*
X22044825Y-11312179D01*
X22340063Y-11550274D02*
X22330539Y-11540750D01*
X22330539Y-11540750D02*
X22311491Y-11512179D01*
X22311491Y-11512179D02*
X22301968Y-11493131D01*
X22301968Y-11493131D02*
X22292444Y-11464560D01*
X22292444Y-11464560D02*
X22282920Y-11416941D01*
X22282920Y-11416941D02*
X22282920Y-11378846D01*
X22282920Y-11378846D02*
X22292444Y-11331227D01*
X22292444Y-11331227D02*
X22301968Y-11302655D01*
X22301968Y-11302655D02*
X22311491Y-11283608D01*
X22311491Y-11283608D02*
X22330539Y-11255036D01*
X22330539Y-11255036D02*
X22340063Y-11245512D01*
X22511491Y-11274084D02*
X22416253Y-11274084D01*
X22416253Y-11274084D02*
X22406729Y-11369322D01*
X22406729Y-11369322D02*
X22416253Y-11359798D01*
X22416253Y-11359798D02*
X22435301Y-11350274D01*
X22435301Y-11350274D02*
X22482920Y-11350274D01*
X22482920Y-11350274D02*
X22501968Y-11359798D01*
X22501968Y-11359798D02*
X22511491Y-11369322D01*
X22511491Y-11369322D02*
X22521015Y-11388369D01*
X22521015Y-11388369D02*
X22521015Y-11435988D01*
X22521015Y-11435988D02*
X22511491Y-11455036D01*
X22511491Y-11455036D02*
X22501968Y-11464560D01*
X22501968Y-11464560D02*
X22482920Y-11474084D01*
X22482920Y-11474084D02*
X22435301Y-11474084D01*
X22435301Y-11474084D02*
X22416253Y-11464560D01*
X22416253Y-11464560D02*
X22406729Y-11455036D01*
X22692444Y-11274084D02*
X22654348Y-11274084D01*
X22654348Y-11274084D02*
X22635301Y-11283608D01*
X22635301Y-11283608D02*
X22625777Y-11293131D01*
X22625777Y-11293131D02*
X22606729Y-11321703D01*
X22606729Y-11321703D02*
X22597206Y-11359798D01*
X22597206Y-11359798D02*
X22597206Y-11435988D01*
X22597206Y-11435988D02*
X22606729Y-11455036D01*
X22606729Y-11455036D02*
X22616253Y-11464560D01*
X22616253Y-11464560D02*
X22635301Y-11474084D01*
X22635301Y-11474084D02*
X22673396Y-11474084D01*
X22673396Y-11474084D02*
X22692444Y-11464560D01*
X22692444Y-11464560D02*
X22701968Y-11455036D01*
X22701968Y-11455036D02*
X22711491Y-11435988D01*
X22711491Y-11435988D02*
X22711491Y-11388369D01*
X22711491Y-11388369D02*
X22701968Y-11369322D01*
X22701968Y-11369322D02*
X22692444Y-11359798D01*
X22692444Y-11359798D02*
X22673396Y-11350274D01*
X22673396Y-11350274D02*
X22635301Y-11350274D01*
X22635301Y-11350274D02*
X22616253Y-11359798D01*
X22616253Y-11359798D02*
X22606729Y-11369322D01*
X22606729Y-11369322D02*
X22597206Y-11388369D01*
X22949587Y-11474084D02*
X22949587Y-11274084D01*
X23035301Y-11474084D02*
X23035301Y-11369322D01*
X23035301Y-11369322D02*
X23025777Y-11350274D01*
X23025777Y-11350274D02*
X23006730Y-11340750D01*
X23006730Y-11340750D02*
X22978158Y-11340750D01*
X22978158Y-11340750D02*
X22959110Y-11350274D01*
X22959110Y-11350274D02*
X22949587Y-11359798D01*
X23159110Y-11474084D02*
X23140063Y-11464560D01*
X23140063Y-11464560D02*
X23130539Y-11455036D01*
X23130539Y-11455036D02*
X23121015Y-11435988D01*
X23121015Y-11435988D02*
X23121015Y-11378846D01*
X23121015Y-11378846D02*
X23130539Y-11359798D01*
X23130539Y-11359798D02*
X23140063Y-11350274D01*
X23140063Y-11350274D02*
X23159110Y-11340750D01*
X23159110Y-11340750D02*
X23187682Y-11340750D01*
X23187682Y-11340750D02*
X23206730Y-11350274D01*
X23206730Y-11350274D02*
X23216253Y-11359798D01*
X23216253Y-11359798D02*
X23225777Y-11378846D01*
X23225777Y-11378846D02*
X23225777Y-11435988D01*
X23225777Y-11435988D02*
X23216253Y-11455036D01*
X23216253Y-11455036D02*
X23206730Y-11464560D01*
X23206730Y-11464560D02*
X23187682Y-11474084D01*
X23187682Y-11474084D02*
X23159110Y-11474084D01*
X23340063Y-11474084D02*
X23321015Y-11464560D01*
X23321015Y-11464560D02*
X23311491Y-11445512D01*
X23311491Y-11445512D02*
X23311491Y-11274084D01*
X23492444Y-11464560D02*
X23473396Y-11474084D01*
X23473396Y-11474084D02*
X23435301Y-11474084D01*
X23435301Y-11474084D02*
X23416253Y-11464560D01*
X23416253Y-11464560D02*
X23406730Y-11445512D01*
X23406730Y-11445512D02*
X23406730Y-11369322D01*
X23406730Y-11369322D02*
X23416253Y-11350274D01*
X23416253Y-11350274D02*
X23435301Y-11340750D01*
X23435301Y-11340750D02*
X23473396Y-11340750D01*
X23473396Y-11340750D02*
X23492444Y-11350274D01*
X23492444Y-11350274D02*
X23501968Y-11369322D01*
X23501968Y-11369322D02*
X23501968Y-11388369D01*
X23501968Y-11388369D02*
X23406730Y-11407417D01*
X23578158Y-11464560D02*
X23597206Y-11474084D01*
X23597206Y-11474084D02*
X23635301Y-11474084D01*
X23635301Y-11474084D02*
X23654349Y-11464560D01*
X23654349Y-11464560D02*
X23663872Y-11445512D01*
X23663872Y-11445512D02*
X23663872Y-11435988D01*
X23663872Y-11435988D02*
X23654349Y-11416941D01*
X23654349Y-11416941D02*
X23635301Y-11407417D01*
X23635301Y-11407417D02*
X23606730Y-11407417D01*
X23606730Y-11407417D02*
X23587682Y-11397893D01*
X23587682Y-11397893D02*
X23578158Y-11378846D01*
X23578158Y-11378846D02*
X23578158Y-11369322D01*
X23578158Y-11369322D02*
X23587682Y-11350274D01*
X23587682Y-11350274D02*
X23606730Y-11340750D01*
X23606730Y-11340750D02*
X23635301Y-11340750D01*
X23635301Y-11340750D02*
X23654349Y-11350274D01*
X23730539Y-11550274D02*
X23740063Y-11540750D01*
X23740063Y-11540750D02*
X23759111Y-11512179D01*
X23759111Y-11512179D02*
X23768634Y-11493131D01*
X23768634Y-11493131D02*
X23778158Y-11464560D01*
X23778158Y-11464560D02*
X23787682Y-11416941D01*
X23787682Y-11416941D02*
X23787682Y-11378846D01*
X23787682Y-11378846D02*
X23778158Y-11331227D01*
X23778158Y-11331227D02*
X23768634Y-11302655D01*
X23768634Y-11302655D02*
X23759111Y-11283608D01*
X23759111Y-11283608D02*
X23740063Y-11255036D01*
X23740063Y-11255036D02*
X23730539Y-11245512D01*
D11*
X18765000Y-11646600D02*
G75*
G02*
X18670000Y-11646600I-47500J0D01*
G01*
X18670000Y-11646600D02*
G75*
G02*
X18765000Y-11646600I47500J0D01*
G01*
D10*
X19063872Y-11538084D02*
X19082920Y-11538084D01*
X19082920Y-11538084D02*
X19101967Y-11547608D01*
X19101967Y-11547608D02*
X19111491Y-11557131D01*
X19111491Y-11557131D02*
X19121015Y-11576179D01*
X19121015Y-11576179D02*
X19130539Y-11614274D01*
X19130539Y-11614274D02*
X19130539Y-11661893D01*
X19130539Y-11661893D02*
X19121015Y-11699988D01*
X19121015Y-11699988D02*
X19111491Y-11719036D01*
X19111491Y-11719036D02*
X19101967Y-11728560D01*
X19101967Y-11728560D02*
X19082920Y-11738084D01*
X19082920Y-11738084D02*
X19063872Y-11738084D01*
X19063872Y-11738084D02*
X19044824Y-11728560D01*
X19044824Y-11728560D02*
X19035301Y-11719036D01*
X19035301Y-11719036D02*
X19025777Y-11699988D01*
X19025777Y-11699988D02*
X19016253Y-11661893D01*
X19016253Y-11661893D02*
X19016253Y-11614274D01*
X19016253Y-11614274D02*
X19025777Y-11576179D01*
X19025777Y-11576179D02*
X19035301Y-11557131D01*
X19035301Y-11557131D02*
X19044824Y-11547608D01*
X19044824Y-11547608D02*
X19063872Y-11538084D01*
X19216253Y-11719036D02*
X19225777Y-11728560D01*
X19225777Y-11728560D02*
X19216253Y-11738084D01*
X19216253Y-11738084D02*
X19206729Y-11728560D01*
X19206729Y-11728560D02*
X19216253Y-11719036D01*
X19216253Y-11719036D02*
X19216253Y-11738084D01*
X19321015Y-11738084D02*
X19359110Y-11738084D01*
X19359110Y-11738084D02*
X19378158Y-11728560D01*
X19378158Y-11728560D02*
X19387682Y-11719036D01*
X19387682Y-11719036D02*
X19406729Y-11690465D01*
X19406729Y-11690465D02*
X19416253Y-11652369D01*
X19416253Y-11652369D02*
X19416253Y-11576179D01*
X19416253Y-11576179D02*
X19406729Y-11557131D01*
X19406729Y-11557131D02*
X19397205Y-11547608D01*
X19397205Y-11547608D02*
X19378158Y-11538084D01*
X19378158Y-11538084D02*
X19340063Y-11538084D01*
X19340063Y-11538084D02*
X19321015Y-11547608D01*
X19321015Y-11547608D02*
X19311491Y-11557131D01*
X19311491Y-11557131D02*
X19301967Y-11576179D01*
X19301967Y-11576179D02*
X19301967Y-11623798D01*
X19301967Y-11623798D02*
X19311491Y-11642846D01*
X19311491Y-11642846D02*
X19321015Y-11652369D01*
X19321015Y-11652369D02*
X19340063Y-11661893D01*
X19340063Y-11661893D02*
X19378158Y-11661893D01*
X19378158Y-11661893D02*
X19397205Y-11652369D01*
X19397205Y-11652369D02*
X19406729Y-11642846D01*
X19406729Y-11642846D02*
X19416253Y-11623798D01*
X19597205Y-11538084D02*
X19501967Y-11538084D01*
X19501967Y-11538084D02*
X19492444Y-11633322D01*
X19492444Y-11633322D02*
X19501967Y-11623798D01*
X19501967Y-11623798D02*
X19521015Y-11614274D01*
X19521015Y-11614274D02*
X19568634Y-11614274D01*
X19568634Y-11614274D02*
X19587682Y-11623798D01*
X19587682Y-11623798D02*
X19597205Y-11633322D01*
X19597205Y-11633322D02*
X19606729Y-11652369D01*
X19606729Y-11652369D02*
X19606729Y-11699988D01*
X19606729Y-11699988D02*
X19597205Y-11719036D01*
X19597205Y-11719036D02*
X19587682Y-11728560D01*
X19587682Y-11728560D02*
X19568634Y-11738084D01*
X19568634Y-11738084D02*
X19521015Y-11738084D01*
X19521015Y-11738084D02*
X19501967Y-11728560D01*
X19501967Y-11728560D02*
X19492444Y-11719036D01*
X19730539Y-11538084D02*
X19749586Y-11538084D01*
X19749586Y-11538084D02*
X19768634Y-11547608D01*
X19768634Y-11547608D02*
X19778158Y-11557131D01*
X19778158Y-11557131D02*
X19787682Y-11576179D01*
X19787682Y-11576179D02*
X19797205Y-11614274D01*
X19797205Y-11614274D02*
X19797205Y-11661893D01*
X19797205Y-11661893D02*
X19787682Y-11699988D01*
X19787682Y-11699988D02*
X19778158Y-11719036D01*
X19778158Y-11719036D02*
X19768634Y-11728560D01*
X19768634Y-11728560D02*
X19749586Y-11738084D01*
X19749586Y-11738084D02*
X19730539Y-11738084D01*
X19730539Y-11738084D02*
X19711491Y-11728560D01*
X19711491Y-11728560D02*
X19701967Y-11719036D01*
X19701967Y-11719036D02*
X19692444Y-11699988D01*
X19692444Y-11699988D02*
X19682920Y-11661893D01*
X19682920Y-11661893D02*
X19682920Y-11614274D01*
X19682920Y-11614274D02*
X19692444Y-11576179D01*
X19692444Y-11576179D02*
X19701967Y-11557131D01*
X19701967Y-11557131D02*
X19711491Y-11547608D01*
X19711491Y-11547608D02*
X19730539Y-11538084D01*
X19882920Y-11738084D02*
X19882920Y-11604750D01*
X19882920Y-11623798D02*
X19892444Y-11614274D01*
X19892444Y-11614274D02*
X19911491Y-11604750D01*
X19911491Y-11604750D02*
X19940063Y-11604750D01*
X19940063Y-11604750D02*
X19959110Y-11614274D01*
X19959110Y-11614274D02*
X19968634Y-11633322D01*
X19968634Y-11633322D02*
X19968634Y-11738084D01*
X19968634Y-11633322D02*
X19978158Y-11614274D01*
X19978158Y-11614274D02*
X19997205Y-11604750D01*
X19997205Y-11604750D02*
X20025777Y-11604750D01*
X20025777Y-11604750D02*
X20044825Y-11614274D01*
X20044825Y-11614274D02*
X20054348Y-11633322D01*
X20054348Y-11633322D02*
X20054348Y-11738084D01*
X20149586Y-11738084D02*
X20149586Y-11604750D01*
X20149586Y-11623798D02*
X20159110Y-11614274D01*
X20159110Y-11614274D02*
X20178158Y-11604750D01*
X20178158Y-11604750D02*
X20206729Y-11604750D01*
X20206729Y-11604750D02*
X20225777Y-11614274D01*
X20225777Y-11614274D02*
X20235301Y-11633322D01*
X20235301Y-11633322D02*
X20235301Y-11738084D01*
X20235301Y-11633322D02*
X20244825Y-11614274D01*
X20244825Y-11614274D02*
X20263872Y-11604750D01*
X20263872Y-11604750D02*
X20292444Y-11604750D01*
X20292444Y-11604750D02*
X20311491Y-11614274D01*
X20311491Y-11614274D02*
X20321015Y-11633322D01*
X20321015Y-11633322D02*
X20321015Y-11738084D01*
X20711491Y-11528560D02*
X20540063Y-11785703D01*
X20968634Y-11538084D02*
X20987682Y-11538084D01*
X20987682Y-11538084D02*
X21006729Y-11547608D01*
X21006729Y-11547608D02*
X21016253Y-11557131D01*
X21016253Y-11557131D02*
X21025777Y-11576179D01*
X21025777Y-11576179D02*
X21035301Y-11614274D01*
X21035301Y-11614274D02*
X21035301Y-11661893D01*
X21035301Y-11661893D02*
X21025777Y-11699988D01*
X21025777Y-11699988D02*
X21016253Y-11719036D01*
X21016253Y-11719036D02*
X21006729Y-11728560D01*
X21006729Y-11728560D02*
X20987682Y-11738084D01*
X20987682Y-11738084D02*
X20968634Y-11738084D01*
X20968634Y-11738084D02*
X20949587Y-11728560D01*
X20949587Y-11728560D02*
X20940063Y-11719036D01*
X20940063Y-11719036D02*
X20930539Y-11699988D01*
X20930539Y-11699988D02*
X20921015Y-11661893D01*
X20921015Y-11661893D02*
X20921015Y-11614274D01*
X20921015Y-11614274D02*
X20930539Y-11576179D01*
X20930539Y-11576179D02*
X20940063Y-11557131D01*
X20940063Y-11557131D02*
X20949587Y-11547608D01*
X20949587Y-11547608D02*
X20968634Y-11538084D01*
X21121015Y-11719036D02*
X21130539Y-11728560D01*
X21130539Y-11728560D02*
X21121015Y-11738084D01*
X21121015Y-11738084D02*
X21111491Y-11728560D01*
X21111491Y-11728560D02*
X21121015Y-11719036D01*
X21121015Y-11719036D02*
X21121015Y-11738084D01*
X21254348Y-11538084D02*
X21273396Y-11538084D01*
X21273396Y-11538084D02*
X21292444Y-11547608D01*
X21292444Y-11547608D02*
X21301968Y-11557131D01*
X21301968Y-11557131D02*
X21311491Y-11576179D01*
X21311491Y-11576179D02*
X21321015Y-11614274D01*
X21321015Y-11614274D02*
X21321015Y-11661893D01*
X21321015Y-11661893D02*
X21311491Y-11699988D01*
X21311491Y-11699988D02*
X21301968Y-11719036D01*
X21301968Y-11719036D02*
X21292444Y-11728560D01*
X21292444Y-11728560D02*
X21273396Y-11738084D01*
X21273396Y-11738084D02*
X21254348Y-11738084D01*
X21254348Y-11738084D02*
X21235301Y-11728560D01*
X21235301Y-11728560D02*
X21225777Y-11719036D01*
X21225777Y-11719036D02*
X21216253Y-11699988D01*
X21216253Y-11699988D02*
X21206729Y-11661893D01*
X21206729Y-11661893D02*
X21206729Y-11614274D01*
X21206729Y-11614274D02*
X21216253Y-11576179D01*
X21216253Y-11576179D02*
X21225777Y-11557131D01*
X21225777Y-11557131D02*
X21235301Y-11547608D01*
X21235301Y-11547608D02*
X21254348Y-11538084D01*
X21387682Y-11538084D02*
X21511491Y-11538084D01*
X21511491Y-11538084D02*
X21444825Y-11614274D01*
X21444825Y-11614274D02*
X21473396Y-11614274D01*
X21473396Y-11614274D02*
X21492444Y-11623798D01*
X21492444Y-11623798D02*
X21501968Y-11633322D01*
X21501968Y-11633322D02*
X21511491Y-11652369D01*
X21511491Y-11652369D02*
X21511491Y-11699988D01*
X21511491Y-11699988D02*
X21501968Y-11719036D01*
X21501968Y-11719036D02*
X21492444Y-11728560D01*
X21492444Y-11728560D02*
X21473396Y-11738084D01*
X21473396Y-11738084D02*
X21416253Y-11738084D01*
X21416253Y-11738084D02*
X21397206Y-11728560D01*
X21397206Y-11728560D02*
X21387682Y-11719036D01*
X21578158Y-11538084D02*
X21711491Y-11538084D01*
X21711491Y-11538084D02*
X21625777Y-11738084D01*
X21873396Y-11604750D02*
X21873396Y-11738084D01*
X21825777Y-11528560D02*
X21778158Y-11671417D01*
X21778158Y-11671417D02*
X21901968Y-11671417D01*
X21968634Y-11538084D02*
X21968634Y-11576179D01*
X22044825Y-11538084D02*
X22044825Y-11576179D01*
X22340063Y-11814274D02*
X22330539Y-11804750D01*
X22330539Y-11804750D02*
X22311491Y-11776179D01*
X22311491Y-11776179D02*
X22301968Y-11757131D01*
X22301968Y-11757131D02*
X22292444Y-11728560D01*
X22292444Y-11728560D02*
X22282920Y-11680941D01*
X22282920Y-11680941D02*
X22282920Y-11642846D01*
X22282920Y-11642846D02*
X22292444Y-11595227D01*
X22292444Y-11595227D02*
X22301968Y-11566655D01*
X22301968Y-11566655D02*
X22311491Y-11547608D01*
X22311491Y-11547608D02*
X22330539Y-11519036D01*
X22330539Y-11519036D02*
X22340063Y-11509512D01*
X22521015Y-11738084D02*
X22406729Y-11738084D01*
X22463872Y-11738084D02*
X22463872Y-11538084D01*
X22463872Y-11538084D02*
X22444825Y-11566655D01*
X22444825Y-11566655D02*
X22425777Y-11585703D01*
X22425777Y-11585703D02*
X22406729Y-11595227D01*
X22701968Y-11538084D02*
X22606729Y-11538084D01*
X22606729Y-11538084D02*
X22597206Y-11633322D01*
X22597206Y-11633322D02*
X22606729Y-11623798D01*
X22606729Y-11623798D02*
X22625777Y-11614274D01*
X22625777Y-11614274D02*
X22673396Y-11614274D01*
X22673396Y-11614274D02*
X22692444Y-11623798D01*
X22692444Y-11623798D02*
X22701968Y-11633322D01*
X22701968Y-11633322D02*
X22711491Y-11652369D01*
X22711491Y-11652369D02*
X22711491Y-11699988D01*
X22711491Y-11699988D02*
X22701968Y-11719036D01*
X22701968Y-11719036D02*
X22692444Y-11728560D01*
X22692444Y-11728560D02*
X22673396Y-11738084D01*
X22673396Y-11738084D02*
X22625777Y-11738084D01*
X22625777Y-11738084D02*
X22606729Y-11728560D01*
X22606729Y-11728560D02*
X22597206Y-11719036D01*
X22949587Y-11738084D02*
X22949587Y-11538084D01*
X23035301Y-11738084D02*
X23035301Y-11633322D01*
X23035301Y-11633322D02*
X23025777Y-11614274D01*
X23025777Y-11614274D02*
X23006730Y-11604750D01*
X23006730Y-11604750D02*
X22978158Y-11604750D01*
X22978158Y-11604750D02*
X22959110Y-11614274D01*
X22959110Y-11614274D02*
X22949587Y-11623798D01*
X23159110Y-11738084D02*
X23140063Y-11728560D01*
X23140063Y-11728560D02*
X23130539Y-11719036D01*
X23130539Y-11719036D02*
X23121015Y-11699988D01*
X23121015Y-11699988D02*
X23121015Y-11642846D01*
X23121015Y-11642846D02*
X23130539Y-11623798D01*
X23130539Y-11623798D02*
X23140063Y-11614274D01*
X23140063Y-11614274D02*
X23159110Y-11604750D01*
X23159110Y-11604750D02*
X23187682Y-11604750D01*
X23187682Y-11604750D02*
X23206730Y-11614274D01*
X23206730Y-11614274D02*
X23216253Y-11623798D01*
X23216253Y-11623798D02*
X23225777Y-11642846D01*
X23225777Y-11642846D02*
X23225777Y-11699988D01*
X23225777Y-11699988D02*
X23216253Y-11719036D01*
X23216253Y-11719036D02*
X23206730Y-11728560D01*
X23206730Y-11728560D02*
X23187682Y-11738084D01*
X23187682Y-11738084D02*
X23159110Y-11738084D01*
X23340063Y-11738084D02*
X23321015Y-11728560D01*
X23321015Y-11728560D02*
X23311491Y-11709512D01*
X23311491Y-11709512D02*
X23311491Y-11538084D01*
X23492444Y-11728560D02*
X23473396Y-11738084D01*
X23473396Y-11738084D02*
X23435301Y-11738084D01*
X23435301Y-11738084D02*
X23416253Y-11728560D01*
X23416253Y-11728560D02*
X23406730Y-11709512D01*
X23406730Y-11709512D02*
X23406730Y-11633322D01*
X23406730Y-11633322D02*
X23416253Y-11614274D01*
X23416253Y-11614274D02*
X23435301Y-11604750D01*
X23435301Y-11604750D02*
X23473396Y-11604750D01*
X23473396Y-11604750D02*
X23492444Y-11614274D01*
X23492444Y-11614274D02*
X23501968Y-11633322D01*
X23501968Y-11633322D02*
X23501968Y-11652369D01*
X23501968Y-11652369D02*
X23406730Y-11671417D01*
X23578158Y-11728560D02*
X23597206Y-11738084D01*
X23597206Y-11738084D02*
X23635301Y-11738084D01*
X23635301Y-11738084D02*
X23654349Y-11728560D01*
X23654349Y-11728560D02*
X23663872Y-11709512D01*
X23663872Y-11709512D02*
X23663872Y-11699988D01*
X23663872Y-11699988D02*
X23654349Y-11680941D01*
X23654349Y-11680941D02*
X23635301Y-11671417D01*
X23635301Y-11671417D02*
X23606730Y-11671417D01*
X23606730Y-11671417D02*
X23587682Y-11661893D01*
X23587682Y-11661893D02*
X23578158Y-11642846D01*
X23578158Y-11642846D02*
X23578158Y-11633322D01*
X23578158Y-11633322D02*
X23587682Y-11614274D01*
X23587682Y-11614274D02*
X23606730Y-11604750D01*
X23606730Y-11604750D02*
X23635301Y-11604750D01*
X23635301Y-11604750D02*
X23654349Y-11614274D01*
X23730539Y-11814274D02*
X23740063Y-11804750D01*
X23740063Y-11804750D02*
X23759111Y-11776179D01*
X23759111Y-11776179D02*
X23768634Y-11757131D01*
X23768634Y-11757131D02*
X23778158Y-11728560D01*
X23778158Y-11728560D02*
X23787682Y-11680941D01*
X23787682Y-11680941D02*
X23787682Y-11642846D01*
X23787682Y-11642846D02*
X23778158Y-11595227D01*
X23778158Y-11595227D02*
X23768634Y-11566655D01*
X23768634Y-11566655D02*
X23759111Y-11547608D01*
X23759111Y-11547608D02*
X23740063Y-11519036D01*
X23740063Y-11519036D02*
X23730539Y-11509512D01*
X18665000Y-11810600D02*
X18665000Y-12010600D01*
X18565000Y-11910600D02*
X18765000Y-11910600D01*
X19016253Y-11821131D02*
X19025777Y-11811608D01*
X19025777Y-11811608D02*
X19044824Y-11802084D01*
X19044824Y-11802084D02*
X19092444Y-11802084D01*
X19092444Y-11802084D02*
X19111491Y-11811608D01*
X19111491Y-11811608D02*
X19121015Y-11821131D01*
X19121015Y-11821131D02*
X19130539Y-11840179D01*
X19130539Y-11840179D02*
X19130539Y-11859227D01*
X19130539Y-11859227D02*
X19121015Y-11887798D01*
X19121015Y-11887798D02*
X19006729Y-12002084D01*
X19006729Y-12002084D02*
X19130539Y-12002084D01*
X19216253Y-11983036D02*
X19225777Y-11992560D01*
X19225777Y-11992560D02*
X19216253Y-12002084D01*
X19216253Y-12002084D02*
X19206729Y-11992560D01*
X19206729Y-11992560D02*
X19216253Y-11983036D01*
X19216253Y-11983036D02*
X19216253Y-12002084D01*
X19301967Y-11821131D02*
X19311491Y-11811608D01*
X19311491Y-11811608D02*
X19330539Y-11802084D01*
X19330539Y-11802084D02*
X19378158Y-11802084D01*
X19378158Y-11802084D02*
X19397205Y-11811608D01*
X19397205Y-11811608D02*
X19406729Y-11821131D01*
X19406729Y-11821131D02*
X19416253Y-11840179D01*
X19416253Y-11840179D02*
X19416253Y-11859227D01*
X19416253Y-11859227D02*
X19406729Y-11887798D01*
X19406729Y-11887798D02*
X19292444Y-12002084D01*
X19292444Y-12002084D02*
X19416253Y-12002084D01*
X19540063Y-11802084D02*
X19559110Y-11802084D01*
X19559110Y-11802084D02*
X19578158Y-11811608D01*
X19578158Y-11811608D02*
X19587682Y-11821131D01*
X19587682Y-11821131D02*
X19597205Y-11840179D01*
X19597205Y-11840179D02*
X19606729Y-11878274D01*
X19606729Y-11878274D02*
X19606729Y-11925893D01*
X19606729Y-11925893D02*
X19597205Y-11963988D01*
X19597205Y-11963988D02*
X19587682Y-11983036D01*
X19587682Y-11983036D02*
X19578158Y-11992560D01*
X19578158Y-11992560D02*
X19559110Y-12002084D01*
X19559110Y-12002084D02*
X19540063Y-12002084D01*
X19540063Y-12002084D02*
X19521015Y-11992560D01*
X19521015Y-11992560D02*
X19511491Y-11983036D01*
X19511491Y-11983036D02*
X19501967Y-11963988D01*
X19501967Y-11963988D02*
X19492444Y-11925893D01*
X19492444Y-11925893D02*
X19492444Y-11878274D01*
X19492444Y-11878274D02*
X19501967Y-11840179D01*
X19501967Y-11840179D02*
X19511491Y-11821131D01*
X19511491Y-11821131D02*
X19521015Y-11811608D01*
X19521015Y-11811608D02*
X19540063Y-11802084D01*
X19730539Y-11802084D02*
X19749586Y-11802084D01*
X19749586Y-11802084D02*
X19768634Y-11811608D01*
X19768634Y-11811608D02*
X19778158Y-11821131D01*
X19778158Y-11821131D02*
X19787682Y-11840179D01*
X19787682Y-11840179D02*
X19797205Y-11878274D01*
X19797205Y-11878274D02*
X19797205Y-11925893D01*
X19797205Y-11925893D02*
X19787682Y-11963988D01*
X19787682Y-11963988D02*
X19778158Y-11983036D01*
X19778158Y-11983036D02*
X19768634Y-11992560D01*
X19768634Y-11992560D02*
X19749586Y-12002084D01*
X19749586Y-12002084D02*
X19730539Y-12002084D01*
X19730539Y-12002084D02*
X19711491Y-11992560D01*
X19711491Y-11992560D02*
X19701967Y-11983036D01*
X19701967Y-11983036D02*
X19692444Y-11963988D01*
X19692444Y-11963988D02*
X19682920Y-11925893D01*
X19682920Y-11925893D02*
X19682920Y-11878274D01*
X19682920Y-11878274D02*
X19692444Y-11840179D01*
X19692444Y-11840179D02*
X19701967Y-11821131D01*
X19701967Y-11821131D02*
X19711491Y-11811608D01*
X19711491Y-11811608D02*
X19730539Y-11802084D01*
X19882920Y-12002084D02*
X19882920Y-11868750D01*
X19882920Y-11887798D02*
X19892444Y-11878274D01*
X19892444Y-11878274D02*
X19911491Y-11868750D01*
X19911491Y-11868750D02*
X19940063Y-11868750D01*
X19940063Y-11868750D02*
X19959110Y-11878274D01*
X19959110Y-11878274D02*
X19968634Y-11897322D01*
X19968634Y-11897322D02*
X19968634Y-12002084D01*
X19968634Y-11897322D02*
X19978158Y-11878274D01*
X19978158Y-11878274D02*
X19997205Y-11868750D01*
X19997205Y-11868750D02*
X20025777Y-11868750D01*
X20025777Y-11868750D02*
X20044825Y-11878274D01*
X20044825Y-11878274D02*
X20054348Y-11897322D01*
X20054348Y-11897322D02*
X20054348Y-12002084D01*
X20149586Y-12002084D02*
X20149586Y-11868750D01*
X20149586Y-11887798D02*
X20159110Y-11878274D01*
X20159110Y-11878274D02*
X20178158Y-11868750D01*
X20178158Y-11868750D02*
X20206729Y-11868750D01*
X20206729Y-11868750D02*
X20225777Y-11878274D01*
X20225777Y-11878274D02*
X20235301Y-11897322D01*
X20235301Y-11897322D02*
X20235301Y-12002084D01*
X20235301Y-11897322D02*
X20244825Y-11878274D01*
X20244825Y-11878274D02*
X20263872Y-11868750D01*
X20263872Y-11868750D02*
X20292444Y-11868750D01*
X20292444Y-11868750D02*
X20311491Y-11878274D01*
X20311491Y-11878274D02*
X20321015Y-11897322D01*
X20321015Y-11897322D02*
X20321015Y-12002084D01*
X20711491Y-11792560D02*
X20540063Y-12049703D01*
X20968634Y-11802084D02*
X20987682Y-11802084D01*
X20987682Y-11802084D02*
X21006729Y-11811608D01*
X21006729Y-11811608D02*
X21016253Y-11821131D01*
X21016253Y-11821131D02*
X21025777Y-11840179D01*
X21025777Y-11840179D02*
X21035301Y-11878274D01*
X21035301Y-11878274D02*
X21035301Y-11925893D01*
X21035301Y-11925893D02*
X21025777Y-11963988D01*
X21025777Y-11963988D02*
X21016253Y-11983036D01*
X21016253Y-11983036D02*
X21006729Y-11992560D01*
X21006729Y-11992560D02*
X20987682Y-12002084D01*
X20987682Y-12002084D02*
X20968634Y-12002084D01*
X20968634Y-12002084D02*
X20949587Y-11992560D01*
X20949587Y-11992560D02*
X20940063Y-11983036D01*
X20940063Y-11983036D02*
X20930539Y-11963988D01*
X20930539Y-11963988D02*
X20921015Y-11925893D01*
X20921015Y-11925893D02*
X20921015Y-11878274D01*
X20921015Y-11878274D02*
X20930539Y-11840179D01*
X20930539Y-11840179D02*
X20940063Y-11821131D01*
X20940063Y-11821131D02*
X20949587Y-11811608D01*
X20949587Y-11811608D02*
X20968634Y-11802084D01*
X21121015Y-11983036D02*
X21130539Y-11992560D01*
X21130539Y-11992560D02*
X21121015Y-12002084D01*
X21121015Y-12002084D02*
X21111491Y-11992560D01*
X21111491Y-11992560D02*
X21121015Y-11983036D01*
X21121015Y-11983036D02*
X21121015Y-12002084D01*
X21254348Y-11802084D02*
X21273396Y-11802084D01*
X21273396Y-11802084D02*
X21292444Y-11811608D01*
X21292444Y-11811608D02*
X21301968Y-11821131D01*
X21301968Y-11821131D02*
X21311491Y-11840179D01*
X21311491Y-11840179D02*
X21321015Y-11878274D01*
X21321015Y-11878274D02*
X21321015Y-11925893D01*
X21321015Y-11925893D02*
X21311491Y-11963988D01*
X21311491Y-11963988D02*
X21301968Y-11983036D01*
X21301968Y-11983036D02*
X21292444Y-11992560D01*
X21292444Y-11992560D02*
X21273396Y-12002084D01*
X21273396Y-12002084D02*
X21254348Y-12002084D01*
X21254348Y-12002084D02*
X21235301Y-11992560D01*
X21235301Y-11992560D02*
X21225777Y-11983036D01*
X21225777Y-11983036D02*
X21216253Y-11963988D01*
X21216253Y-11963988D02*
X21206729Y-11925893D01*
X21206729Y-11925893D02*
X21206729Y-11878274D01*
X21206729Y-11878274D02*
X21216253Y-11840179D01*
X21216253Y-11840179D02*
X21225777Y-11821131D01*
X21225777Y-11821131D02*
X21235301Y-11811608D01*
X21235301Y-11811608D02*
X21254348Y-11802084D01*
X21435301Y-11887798D02*
X21416253Y-11878274D01*
X21416253Y-11878274D02*
X21406729Y-11868750D01*
X21406729Y-11868750D02*
X21397206Y-11849703D01*
X21397206Y-11849703D02*
X21397206Y-11840179D01*
X21397206Y-11840179D02*
X21406729Y-11821131D01*
X21406729Y-11821131D02*
X21416253Y-11811608D01*
X21416253Y-11811608D02*
X21435301Y-11802084D01*
X21435301Y-11802084D02*
X21473396Y-11802084D01*
X21473396Y-11802084D02*
X21492444Y-11811608D01*
X21492444Y-11811608D02*
X21501968Y-11821131D01*
X21501968Y-11821131D02*
X21511491Y-11840179D01*
X21511491Y-11840179D02*
X21511491Y-11849703D01*
X21511491Y-11849703D02*
X21501968Y-11868750D01*
X21501968Y-11868750D02*
X21492444Y-11878274D01*
X21492444Y-11878274D02*
X21473396Y-11887798D01*
X21473396Y-11887798D02*
X21435301Y-11887798D01*
X21435301Y-11887798D02*
X21416253Y-11897322D01*
X21416253Y-11897322D02*
X21406729Y-11906846D01*
X21406729Y-11906846D02*
X21397206Y-11925893D01*
X21397206Y-11925893D02*
X21397206Y-11963988D01*
X21397206Y-11963988D02*
X21406729Y-11983036D01*
X21406729Y-11983036D02*
X21416253Y-11992560D01*
X21416253Y-11992560D02*
X21435301Y-12002084D01*
X21435301Y-12002084D02*
X21473396Y-12002084D01*
X21473396Y-12002084D02*
X21492444Y-11992560D01*
X21492444Y-11992560D02*
X21501968Y-11983036D01*
X21501968Y-11983036D02*
X21511491Y-11963988D01*
X21511491Y-11963988D02*
X21511491Y-11925893D01*
X21511491Y-11925893D02*
X21501968Y-11906846D01*
X21501968Y-11906846D02*
X21492444Y-11897322D01*
X21492444Y-11897322D02*
X21473396Y-11887798D01*
X21682920Y-11802084D02*
X21644825Y-11802084D01*
X21644825Y-11802084D02*
X21625777Y-11811608D01*
X21625777Y-11811608D02*
X21616253Y-11821131D01*
X21616253Y-11821131D02*
X21597206Y-11849703D01*
X21597206Y-11849703D02*
X21587682Y-11887798D01*
X21587682Y-11887798D02*
X21587682Y-11963988D01*
X21587682Y-11963988D02*
X21597206Y-11983036D01*
X21597206Y-11983036D02*
X21606729Y-11992560D01*
X21606729Y-11992560D02*
X21625777Y-12002084D01*
X21625777Y-12002084D02*
X21663872Y-12002084D01*
X21663872Y-12002084D02*
X21682920Y-11992560D01*
X21682920Y-11992560D02*
X21692444Y-11983036D01*
X21692444Y-11983036D02*
X21701968Y-11963988D01*
X21701968Y-11963988D02*
X21701968Y-11916369D01*
X21701968Y-11916369D02*
X21692444Y-11897322D01*
X21692444Y-11897322D02*
X21682920Y-11887798D01*
X21682920Y-11887798D02*
X21663872Y-11878274D01*
X21663872Y-11878274D02*
X21625777Y-11878274D01*
X21625777Y-11878274D02*
X21606729Y-11887798D01*
X21606729Y-11887798D02*
X21597206Y-11897322D01*
X21597206Y-11897322D02*
X21587682Y-11916369D01*
X21873396Y-11802084D02*
X21835301Y-11802084D01*
X21835301Y-11802084D02*
X21816253Y-11811608D01*
X21816253Y-11811608D02*
X21806729Y-11821131D01*
X21806729Y-11821131D02*
X21787682Y-11849703D01*
X21787682Y-11849703D02*
X21778158Y-11887798D01*
X21778158Y-11887798D02*
X21778158Y-11963988D01*
X21778158Y-11963988D02*
X21787682Y-11983036D01*
X21787682Y-11983036D02*
X21797206Y-11992560D01*
X21797206Y-11992560D02*
X21816253Y-12002084D01*
X21816253Y-12002084D02*
X21854349Y-12002084D01*
X21854349Y-12002084D02*
X21873396Y-11992560D01*
X21873396Y-11992560D02*
X21882920Y-11983036D01*
X21882920Y-11983036D02*
X21892444Y-11963988D01*
X21892444Y-11963988D02*
X21892444Y-11916369D01*
X21892444Y-11916369D02*
X21882920Y-11897322D01*
X21882920Y-11897322D02*
X21873396Y-11887798D01*
X21873396Y-11887798D02*
X21854349Y-11878274D01*
X21854349Y-11878274D02*
X21816253Y-11878274D01*
X21816253Y-11878274D02*
X21797206Y-11887798D01*
X21797206Y-11887798D02*
X21787682Y-11897322D01*
X21787682Y-11897322D02*
X21778158Y-11916369D01*
X21968634Y-11802084D02*
X21968634Y-11840179D01*
X22044825Y-11802084D02*
X22044825Y-11840179D01*
X22340063Y-12078274D02*
X22330539Y-12068750D01*
X22330539Y-12068750D02*
X22311491Y-12040179D01*
X22311491Y-12040179D02*
X22301968Y-12021131D01*
X22301968Y-12021131D02*
X22292444Y-11992560D01*
X22292444Y-11992560D02*
X22282920Y-11944941D01*
X22282920Y-11944941D02*
X22282920Y-11906846D01*
X22282920Y-11906846D02*
X22292444Y-11859227D01*
X22292444Y-11859227D02*
X22301968Y-11830655D01*
X22301968Y-11830655D02*
X22311491Y-11811608D01*
X22311491Y-11811608D02*
X22330539Y-11783036D01*
X22330539Y-11783036D02*
X22340063Y-11773512D01*
X22501968Y-11868750D02*
X22501968Y-12002084D01*
X22454348Y-11792560D02*
X22406729Y-11935417D01*
X22406729Y-11935417D02*
X22530539Y-11935417D01*
X22759110Y-12002084D02*
X22759110Y-11802084D01*
X22844825Y-12002084D02*
X22844825Y-11897322D01*
X22844825Y-11897322D02*
X22835301Y-11878274D01*
X22835301Y-11878274D02*
X22816253Y-11868750D01*
X22816253Y-11868750D02*
X22787682Y-11868750D01*
X22787682Y-11868750D02*
X22768634Y-11878274D01*
X22768634Y-11878274D02*
X22759110Y-11887798D01*
X22968634Y-12002084D02*
X22949587Y-11992560D01*
X22949587Y-11992560D02*
X22940063Y-11983036D01*
X22940063Y-11983036D02*
X22930539Y-11963988D01*
X22930539Y-11963988D02*
X22930539Y-11906846D01*
X22930539Y-11906846D02*
X22940063Y-11887798D01*
X22940063Y-11887798D02*
X22949587Y-11878274D01*
X22949587Y-11878274D02*
X22968634Y-11868750D01*
X22968634Y-11868750D02*
X22997206Y-11868750D01*
X22997206Y-11868750D02*
X23016253Y-11878274D01*
X23016253Y-11878274D02*
X23025777Y-11887798D01*
X23025777Y-11887798D02*
X23035301Y-11906846D01*
X23035301Y-11906846D02*
X23035301Y-11963988D01*
X23035301Y-11963988D02*
X23025777Y-11983036D01*
X23025777Y-11983036D02*
X23016253Y-11992560D01*
X23016253Y-11992560D02*
X22997206Y-12002084D01*
X22997206Y-12002084D02*
X22968634Y-12002084D01*
X23149587Y-12002084D02*
X23130539Y-11992560D01*
X23130539Y-11992560D02*
X23121015Y-11973512D01*
X23121015Y-11973512D02*
X23121015Y-11802084D01*
X23301968Y-11992560D02*
X23282920Y-12002084D01*
X23282920Y-12002084D02*
X23244825Y-12002084D01*
X23244825Y-12002084D02*
X23225777Y-11992560D01*
X23225777Y-11992560D02*
X23216253Y-11973512D01*
X23216253Y-11973512D02*
X23216253Y-11897322D01*
X23216253Y-11897322D02*
X23225777Y-11878274D01*
X23225777Y-11878274D02*
X23244825Y-11868750D01*
X23244825Y-11868750D02*
X23282920Y-11868750D01*
X23282920Y-11868750D02*
X23301968Y-11878274D01*
X23301968Y-11878274D02*
X23311491Y-11897322D01*
X23311491Y-11897322D02*
X23311491Y-11916369D01*
X23311491Y-11916369D02*
X23216253Y-11935417D01*
X23387682Y-11992560D02*
X23406730Y-12002084D01*
X23406730Y-12002084D02*
X23444825Y-12002084D01*
X23444825Y-12002084D02*
X23463872Y-11992560D01*
X23463872Y-11992560D02*
X23473396Y-11973512D01*
X23473396Y-11973512D02*
X23473396Y-11963988D01*
X23473396Y-11963988D02*
X23463872Y-11944941D01*
X23463872Y-11944941D02*
X23444825Y-11935417D01*
X23444825Y-11935417D02*
X23416253Y-11935417D01*
X23416253Y-11935417D02*
X23397206Y-11925893D01*
X23397206Y-11925893D02*
X23387682Y-11906846D01*
X23387682Y-11906846D02*
X23387682Y-11897322D01*
X23387682Y-11897322D02*
X23397206Y-11878274D01*
X23397206Y-11878274D02*
X23416253Y-11868750D01*
X23416253Y-11868750D02*
X23444825Y-11868750D01*
X23444825Y-11868750D02*
X23463872Y-11878274D01*
X23540063Y-12078274D02*
X23549587Y-12068750D01*
X23549587Y-12068750D02*
X23568634Y-12040179D01*
X23568634Y-12040179D02*
X23578158Y-12021131D01*
X23578158Y-12021131D02*
X23587682Y-11992560D01*
X23587682Y-11992560D02*
X23597206Y-11944941D01*
X23597206Y-11944941D02*
X23597206Y-11906846D01*
X23597206Y-11906846D02*
X23587682Y-11859227D01*
X23587682Y-11859227D02*
X23578158Y-11830655D01*
X23578158Y-11830655D02*
X23568634Y-11811608D01*
X23568634Y-11811608D02*
X23549587Y-11783036D01*
X23549587Y-11783036D02*
X23540063Y-11773512D01*
M02*
