%TF.GenerationSoftware,KiCad,Pcbnew,8.0.1*%
%TF.CreationDate,2024-09-23T21:29:01+02:00*%
%TF.ProjectId,Macro keyboard,4d616372-6f20-46b6-9579-626f6172642e,rev?*%
%TF.SameCoordinates,Original*%
%TF.FileFunction,Soldermask,Top*%
%TF.FilePolarity,Negative*%
%FSLAX46Y46*%
G04 Gerber Fmt 4.6, Leading zero omitted, Abs format (unit mm)*
G04 Created by KiCad (PCBNEW 8.0.1) date 2024-09-23 21:29:01*
%MOMM*%
%LPD*%
G01*
G04 APERTURE LIST*
G04 Aperture macros list*
%AMRoundRect*
0 Rectangle with rounded corners*
0 $1 Rounding radius*
0 $2 $3 $4 $5 $6 $7 $8 $9 X,Y pos of 4 corners*
0 Add a 4 corners polygon primitive as box body*
4,1,4,$2,$3,$4,$5,$6,$7,$8,$9,$2,$3,0*
0 Add four circle primitives for the rounded corners*
1,1,$1+$1,$2,$3*
1,1,$1+$1,$4,$5*
1,1,$1+$1,$6,$7*
1,1,$1+$1,$8,$9*
0 Add four rect primitives between the rounded corners*
20,1,$1+$1,$2,$3,$4,$5,0*
20,1,$1+$1,$4,$5,$6,$7,0*
20,1,$1+$1,$6,$7,$8,$9,0*
20,1,$1+$1,$8,$9,$2,$3,0*%
G04 Aperture macros list end*
%ADD10C,2.600000*%
%ADD11C,3.800000*%
%ADD12R,0.850000X0.650000*%
%ADD13RoundRect,0.225000X0.250000X-0.225000X0.250000X0.225000X-0.250000X0.225000X-0.250000X-0.225000X0*%
%ADD14C,1.250000*%
%ADD15RoundRect,0.250000X-0.600000X-0.725000X0.600000X-0.725000X0.600000X0.725000X-0.600000X0.725000X0*%
%ADD16O,1.700000X1.950000*%
%ADD17C,1.900000*%
%ADD18C,3.000000*%
%ADD19C,3.987800*%
G04 APERTURE END LIST*
D10*
%TO.C,REF\u002A\u002A*%
X264160000Y-37592000D03*
D11*
X264160000Y-37592000D03*
%TD*%
D10*
%TO.C,REF\u002A\u002A*%
X191262000Y-37846000D03*
D11*
X191262000Y-37846000D03*
%TD*%
D12*
%TO.C,D7*%
X219600000Y-85200000D03*
X219600000Y-83900000D03*
X218250000Y-83900000D03*
X218250000Y-85200000D03*
%TD*%
%TO.C,D2*%
X199475000Y-45150000D03*
X199475000Y-43850000D03*
X198125000Y-43850000D03*
X198125000Y-45150000D03*
%TD*%
D13*
%TO.C,C13*%
X196450000Y-45325000D03*
X196450000Y-43775000D03*
%TD*%
%TO.C,C21*%
X235950000Y-85300000D03*
X235950000Y-83750000D03*
%TD*%
D12*
%TO.C,D9*%
X239600000Y-65150000D03*
X239600000Y-63850000D03*
X238250000Y-63850000D03*
X238250000Y-65150000D03*
%TD*%
D13*
%TO.C,C23*%
X196000000Y-85325000D03*
X196000000Y-83775000D03*
%TD*%
D10*
%TO.C,REF\u002A\u002A*%
X191008000Y-103886000D03*
D11*
X191008000Y-103886000D03*
%TD*%
D12*
%TO.C,D6*%
X219600000Y-65200000D03*
X219600000Y-63900000D03*
X218250000Y-63900000D03*
X218250000Y-65200000D03*
%TD*%
D13*
%TO.C,C22*%
X216000000Y-85300000D03*
X216000000Y-83750000D03*
%TD*%
%TO.C,C18*%
X215950000Y-65275000D03*
X215950000Y-63725000D03*
%TD*%
%TO.C,C24*%
X256050000Y-85275000D03*
X256050000Y-83725000D03*
%TD*%
%TO.C,C20*%
X256000000Y-65300000D03*
X256000000Y-63750000D03*
%TD*%
D12*
%TO.C,D10*%
X239600000Y-85100000D03*
X239600000Y-83800000D03*
X238250000Y-83800000D03*
X238250000Y-85100000D03*
%TD*%
%TO.C,D3*%
X199600000Y-65150000D03*
X199600000Y-63850000D03*
X198250000Y-63850000D03*
X198250000Y-65150000D03*
%TD*%
%TO.C,D13*%
X259550000Y-85100000D03*
X259550000Y-83800000D03*
X258200000Y-83800000D03*
X258200000Y-85100000D03*
%TD*%
%TO.C,D4*%
X199600000Y-85150000D03*
X199600000Y-83850000D03*
X198250000Y-83850000D03*
X198250000Y-85150000D03*
%TD*%
D13*
%TO.C,C17*%
X196000000Y-65325000D03*
X196000000Y-63775000D03*
%TD*%
D12*
%TO.C,D12*%
X259600000Y-65150000D03*
X259600000Y-63850000D03*
X258250000Y-63850000D03*
X258250000Y-65150000D03*
%TD*%
%TO.C,D11*%
X259625000Y-45250000D03*
X259625000Y-43950000D03*
X258275000Y-43950000D03*
X258275000Y-45250000D03*
%TD*%
D13*
%TO.C,C15*%
X236450000Y-45275000D03*
X236450000Y-43725000D03*
%TD*%
D14*
%TO.C,J1*%
X206024000Y-104724000D03*
D15*
X207624000Y-103124000D03*
D16*
X210124000Y-103124000D03*
X212624000Y-103124000D03*
X215124000Y-103124000D03*
X217624000Y-103124000D03*
X220124000Y-103124000D03*
X222624000Y-103124000D03*
X225124000Y-103124000D03*
X227624000Y-103124000D03*
X230124000Y-103124000D03*
X232624000Y-103124000D03*
X235124000Y-103124000D03*
X237624000Y-103124000D03*
X240124000Y-103124000D03*
X242624000Y-103124000D03*
%TD*%
D10*
%TO.C,REF\u002A\u002A*%
X264414000Y-104140000D03*
D11*
X264414000Y-104140000D03*
%TD*%
D13*
%TO.C,C19*%
X236000000Y-65350000D03*
X236000000Y-63800000D03*
%TD*%
D12*
%TO.C,D8*%
X239525000Y-45200000D03*
X239525000Y-43900000D03*
X238175000Y-43900000D03*
X238175000Y-45200000D03*
%TD*%
%TO.C,D5*%
X219475000Y-45200000D03*
X219475000Y-43900000D03*
X218125000Y-43900000D03*
X218125000Y-45200000D03*
%TD*%
D13*
%TO.C,C16*%
X256000000Y-45350000D03*
X256000000Y-43800000D03*
%TD*%
%TO.C,C14*%
X216400000Y-45325000D03*
X216400000Y-43775000D03*
%TD*%
D17*
%TO.C,J6*%
X223250000Y-69250000D03*
D18*
X217750000Y-75200000D03*
D19*
X217750000Y-69250000D03*
D18*
X212750000Y-73000000D03*
D17*
X212250000Y-69250000D03*
%TD*%
%TO.C,J12*%
X263250000Y-69250000D03*
D18*
X257750000Y-75200000D03*
D19*
X257750000Y-69250000D03*
D18*
X252750000Y-73000000D03*
D17*
X252250000Y-69250000D03*
%TD*%
%TO.C,J8*%
X243250000Y-49250000D03*
D18*
X237750000Y-55200000D03*
D19*
X237750000Y-49250000D03*
D18*
X232750000Y-53000000D03*
D17*
X232250000Y-49250000D03*
%TD*%
%TO.C,J2*%
X203250000Y-49250000D03*
D18*
X197750000Y-55200000D03*
D19*
X197750000Y-49250000D03*
D18*
X192750000Y-53000000D03*
D17*
X192250000Y-49250000D03*
%TD*%
%TO.C,J11*%
X263250000Y-49250000D03*
D18*
X257750000Y-55200000D03*
D19*
X257750000Y-49250000D03*
D18*
X252750000Y-53000000D03*
D17*
X252250000Y-49250000D03*
%TD*%
%TO.C,J5*%
X223250000Y-49250000D03*
D18*
X217750000Y-55200000D03*
D19*
X217750000Y-49250000D03*
D18*
X212750000Y-53000000D03*
D17*
X212250000Y-49250000D03*
%TD*%
%TO.C,J4*%
X203250000Y-89250000D03*
D18*
X197750000Y-95200000D03*
D19*
X197750000Y-89250000D03*
D18*
X192750000Y-93000000D03*
D17*
X192250000Y-89250000D03*
%TD*%
%TO.C,J13*%
X263250000Y-89250000D03*
D18*
X257750000Y-95200000D03*
D19*
X257750000Y-89250000D03*
D18*
X252750000Y-93000000D03*
D17*
X252250000Y-89250000D03*
%TD*%
%TO.C,J3*%
X203250000Y-69250000D03*
D18*
X197750000Y-75200000D03*
D19*
X197750000Y-69250000D03*
D18*
X192750000Y-73000000D03*
D17*
X192250000Y-69250000D03*
%TD*%
%TO.C,J10*%
X243250000Y-89250000D03*
D18*
X237750000Y-95200000D03*
D19*
X237750000Y-89250000D03*
D18*
X232750000Y-93000000D03*
D17*
X232250000Y-89250000D03*
%TD*%
%TO.C,J9*%
X243250000Y-69250000D03*
D18*
X237750000Y-75200000D03*
D19*
X237750000Y-69250000D03*
D18*
X232750000Y-73000000D03*
D17*
X232250000Y-69250000D03*
%TD*%
%TO.C,J7*%
X223250000Y-89250000D03*
D18*
X217750000Y-95200000D03*
D19*
X217750000Y-89250000D03*
D18*
X212750000Y-93000000D03*
D17*
X212250000Y-89250000D03*
%TD*%
M02*
