M48
; DRILL file {KiCad 8.0.1} date 2024-09-23T21:28:17+0200
; FORMAT={-:-/ absolute / inch / decimal}
; #@! TF.CreationDate,2024-09-23T21:28:17+02:00
; #@! TF.GenerationSoftware,Kicad,Pcbnew,8.0.1
; #@! TF.FileFunction,Plated,1,2,PTH
FMAT,2
INCH
; #@! TA.AperFunction,Plated,PTH,ViaDrill
T1C0.0118
; #@! TA.AperFunction,Plated,PTH,ComponentDrill
T2C0.0374
; #@! TA.AperFunction,Plated,PTH,ComponentDrill
T3C0.0866
%
G90
G05
T1
X7.6808Y-2.5108
X7.69Y-1.74
X7.76Y-3.3
X7.8051Y-2.4862
X7.8862Y-2.5138
X7.8957Y-2.3943
X7.8964Y-1.7264
X7.9Y-3.3
X7.9Y-3.35
X8.0322Y-3.3122
X8.14Y-2.2
X8.17Y-3.28
X8.19Y-1.8
X8.3Y-1.69
X8.32Y-3.82
X8.45Y-2.52
X8.4834Y-1.7234
X8.5433Y-3.2972
X8.6339Y-2.2539
X8.6683Y-1.7283
X8.675Y-3.345
X8.6811Y-3.2835
X8.7Y-2.52
X8.77Y-2.97
X8.8631Y-3.9031
X8.88Y-3.03
X8.9Y-1.84
X9.03Y-1.71
X9.2Y-2.26
X9.2515Y-1.7215
X9.2579Y-2.5118
X9.2579Y-3.2972
X9.39Y-3.05
X9.4646Y-3.2992
X9.4764Y-2.5138
X9.48Y-1.74
X9.49Y-3.81
X9.5118Y-3.3504
X9.7Y-2.38
X9.7Y-2.43
X9.72Y-3.14
X9.76Y-1.68
X9.8Y-1.64
X9.82Y-2.38
X9.82Y-2.43
X9.83Y-1.74
X9.86Y-1.7
X10.0156Y-1.7244
X10.1043Y-2.5098
X10.1063Y-3.3031
X10.13Y-3.06
X10.18Y-2.26
X10.2461Y-3.3031
X10.248Y-2.5157
X10.2697Y-1.7303
X10.2766Y-3.748
T2
X8.1742Y-4.06
X8.2726Y-4.06
X8.371Y-4.06
X8.4694Y-4.06
X8.5679Y-4.06
X8.6663Y-4.06
X8.7647Y-4.06
X8.8631Y-4.06
X8.9616Y-4.06
X9.06Y-4.06
X9.1584Y-4.06
X9.2569Y-4.06
X9.3553Y-4.06
X9.4537Y-4.06
X9.5521Y-4.06
T3
X7.52Y-4.09
X7.53Y-1.49
X10.4Y-1.48
X10.41Y-4.1
M30
