%TF.GenerationSoftware,KiCad,Pcbnew,8.0.1*%
%TF.CreationDate,2024-09-01T11:50:54+02:00*%
%TF.ProjectId,Macro keyboard,4d616372-6f20-46b6-9579-626f6172642e,rev?*%
%TF.SameCoordinates,Original*%
%TF.FileFunction,Legend,Top*%
%TF.FilePolarity,Positive*%
%FSLAX46Y46*%
G04 Gerber Fmt 4.6, Leading zero omitted, Abs format (unit mm)*
G04 Created by KiCad (PCBNEW 8.0.1) date 2024-09-01 11:50:54*
%MOMM*%
%LPD*%
G01*
G04 APERTURE LIST*
%ADD10C,0.150000*%
%ADD11C,0.250000*%
%ADD12C,0.120000*%
%ADD13C,0.200000*%
%ADD14C,0.127000*%
G04 APERTURE END LIST*
D10*
X257305057Y-107587738D02*
X257257438Y-107682976D01*
X257257438Y-107682976D02*
X257162200Y-107778214D01*
X257162200Y-107778214D02*
X257019342Y-107921071D01*
X257019342Y-107921071D02*
X256971723Y-108016309D01*
X256971723Y-108016309D02*
X256971723Y-108111547D01*
X257209819Y-108063928D02*
X257162200Y-108159166D01*
X257162200Y-108159166D02*
X257066961Y-108254404D01*
X257066961Y-108254404D02*
X256876485Y-108302023D01*
X256876485Y-108302023D02*
X256543152Y-108302023D01*
X256543152Y-108302023D02*
X256352676Y-108254404D01*
X256352676Y-108254404D02*
X256257438Y-108159166D01*
X256257438Y-108159166D02*
X256209819Y-108063928D01*
X256209819Y-108063928D02*
X256209819Y-107873452D01*
X256209819Y-107873452D02*
X256257438Y-107778214D01*
X256257438Y-107778214D02*
X256352676Y-107682976D01*
X256352676Y-107682976D02*
X256543152Y-107635357D01*
X256543152Y-107635357D02*
X256876485Y-107635357D01*
X256876485Y-107635357D02*
X257066961Y-107682976D01*
X257066961Y-107682976D02*
X257162200Y-107778214D01*
X257162200Y-107778214D02*
X257209819Y-107873452D01*
X257209819Y-107873452D02*
X257209819Y-108063928D01*
X257209819Y-106682976D02*
X257209819Y-107254404D01*
X257209819Y-106968690D02*
X256209819Y-106968690D01*
X256209819Y-106968690D02*
X256352676Y-107063928D01*
X256352676Y-107063928D02*
X256447914Y-107159166D01*
X256447914Y-107159166D02*
X256495533Y-107254404D01*
X203990476Y-122854819D02*
X203990476Y-123569104D01*
X203990476Y-123569104D02*
X203942857Y-123711961D01*
X203942857Y-123711961D02*
X203847619Y-123807200D01*
X203847619Y-123807200D02*
X203704762Y-123854819D01*
X203704762Y-123854819D02*
X203609524Y-123854819D01*
X204990476Y-123854819D02*
X204419048Y-123854819D01*
X204704762Y-123854819D02*
X204704762Y-122854819D01*
X204704762Y-122854819D02*
X204609524Y-122997676D01*
X204609524Y-122997676D02*
X204514286Y-123092914D01*
X204514286Y-123092914D02*
X204419048Y-123140533D01*
X205847619Y-122854819D02*
X205657143Y-122854819D01*
X205657143Y-122854819D02*
X205561905Y-122902438D01*
X205561905Y-122902438D02*
X205514286Y-122950057D01*
X205514286Y-122950057D02*
X205419048Y-123092914D01*
X205419048Y-123092914D02*
X205371429Y-123283390D01*
X205371429Y-123283390D02*
X205371429Y-123664342D01*
X205371429Y-123664342D02*
X205419048Y-123759580D01*
X205419048Y-123759580D02*
X205466667Y-123807200D01*
X205466667Y-123807200D02*
X205561905Y-123854819D01*
X205561905Y-123854819D02*
X205752381Y-123854819D01*
X205752381Y-123854819D02*
X205847619Y-123807200D01*
X205847619Y-123807200D02*
X205895238Y-123759580D01*
X205895238Y-123759580D02*
X205942857Y-123664342D01*
X205942857Y-123664342D02*
X205942857Y-123426247D01*
X205942857Y-123426247D02*
X205895238Y-123331009D01*
X205895238Y-123331009D02*
X205847619Y-123283390D01*
X205847619Y-123283390D02*
X205752381Y-123235771D01*
X205752381Y-123235771D02*
X205561905Y-123235771D01*
X205561905Y-123235771D02*
X205466667Y-123283390D01*
X205466667Y-123283390D02*
X205419048Y-123331009D01*
X205419048Y-123331009D02*
X205371429Y-123426247D01*
X196345180Y-112740476D02*
X195630895Y-112740476D01*
X195630895Y-112740476D02*
X195488038Y-112692857D01*
X195488038Y-112692857D02*
X195392800Y-112597619D01*
X195392800Y-112597619D02*
X195345180Y-112454762D01*
X195345180Y-112454762D02*
X195345180Y-112359524D01*
X195345180Y-113740476D02*
X195345180Y-113169048D01*
X195345180Y-113454762D02*
X196345180Y-113454762D01*
X196345180Y-113454762D02*
X196202323Y-113359524D01*
X196202323Y-113359524D02*
X196107085Y-113264286D01*
X196107085Y-113264286D02*
X196059466Y-113169048D01*
X196345180Y-114645238D02*
X196345180Y-114169048D01*
X196345180Y-114169048D02*
X195868990Y-114121429D01*
X195868990Y-114121429D02*
X195916609Y-114169048D01*
X195916609Y-114169048D02*
X195964228Y-114264286D01*
X195964228Y-114264286D02*
X195964228Y-114502381D01*
X195964228Y-114502381D02*
X195916609Y-114597619D01*
X195916609Y-114597619D02*
X195868990Y-114645238D01*
X195868990Y-114645238D02*
X195773752Y-114692857D01*
X195773752Y-114692857D02*
X195535657Y-114692857D01*
X195535657Y-114692857D02*
X195440419Y-114645238D01*
X195440419Y-114645238D02*
X195392800Y-114597619D01*
X195392800Y-114597619D02*
X195345180Y-114502381D01*
X195345180Y-114502381D02*
X195345180Y-114264286D01*
X195345180Y-114264286D02*
X195392800Y-114169048D01*
X195392800Y-114169048D02*
X195440419Y-114121429D01*
X258043095Y-110109819D02*
X258043095Y-110919342D01*
X258043095Y-110919342D02*
X258090714Y-111014580D01*
X258090714Y-111014580D02*
X258138333Y-111062200D01*
X258138333Y-111062200D02*
X258233571Y-111109819D01*
X258233571Y-111109819D02*
X258424047Y-111109819D01*
X258424047Y-111109819D02*
X258519285Y-111062200D01*
X258519285Y-111062200D02*
X258566904Y-111014580D01*
X258566904Y-111014580D02*
X258614523Y-110919342D01*
X258614523Y-110919342D02*
X258614523Y-110109819D01*
X259043095Y-110205057D02*
X259090714Y-110157438D01*
X259090714Y-110157438D02*
X259185952Y-110109819D01*
X259185952Y-110109819D02*
X259424047Y-110109819D01*
X259424047Y-110109819D02*
X259519285Y-110157438D01*
X259519285Y-110157438D02*
X259566904Y-110205057D01*
X259566904Y-110205057D02*
X259614523Y-110300295D01*
X259614523Y-110300295D02*
X259614523Y-110395533D01*
X259614523Y-110395533D02*
X259566904Y-110538390D01*
X259566904Y-110538390D02*
X258995476Y-111109819D01*
X258995476Y-111109819D02*
X259614523Y-111109819D01*
X243399819Y-107636904D02*
X244209342Y-107636904D01*
X244209342Y-107636904D02*
X244304580Y-107589285D01*
X244304580Y-107589285D02*
X244352200Y-107541666D01*
X244352200Y-107541666D02*
X244399819Y-107446428D01*
X244399819Y-107446428D02*
X244399819Y-107255952D01*
X244399819Y-107255952D02*
X244352200Y-107160714D01*
X244352200Y-107160714D02*
X244304580Y-107113095D01*
X244304580Y-107113095D02*
X244209342Y-107065476D01*
X244209342Y-107065476D02*
X243399819Y-107065476D01*
X244399819Y-106065476D02*
X244399819Y-106636904D01*
X244399819Y-106351190D02*
X243399819Y-106351190D01*
X243399819Y-106351190D02*
X243542676Y-106446428D01*
X243542676Y-106446428D02*
X243637914Y-106541666D01*
X243637914Y-106541666D02*
X243685533Y-106636904D01*
D11*
G36*
X257979466Y-86019343D02*
G01*
X257521816Y-86019343D01*
X257521816Y-86468750D01*
X257286427Y-86468750D01*
X257286427Y-86019343D01*
X256828777Y-86019343D01*
X256828777Y-85784870D01*
X257286427Y-85784870D01*
X257286427Y-85335463D01*
X257521816Y-85335463D01*
X257521816Y-85784870D01*
X257979466Y-85784870D01*
X257979466Y-86019343D01*
G37*
G36*
X261372339Y-83769343D02*
G01*
X260384682Y-83769343D01*
X260384682Y-83534870D01*
X261372339Y-83534870D01*
X261372339Y-83769343D01*
G37*
G36*
X257504466Y-65319343D02*
G01*
X257046816Y-65319343D01*
X257046816Y-65768750D01*
X256811427Y-65768750D01*
X256811427Y-65319343D01*
X256353777Y-65319343D01*
X256353777Y-65084870D01*
X256811427Y-65084870D01*
X256811427Y-64635463D01*
X257046816Y-64635463D01*
X257046816Y-65084870D01*
X257504466Y-65084870D01*
X257504466Y-65319343D01*
G37*
G36*
X261422339Y-63819343D02*
G01*
X260434682Y-63819343D01*
X260434682Y-63584870D01*
X261422339Y-63584870D01*
X261422339Y-63819343D01*
G37*
G36*
X257629466Y-45519343D02*
G01*
X257171816Y-45519343D01*
X257171816Y-45968750D01*
X256936427Y-45968750D01*
X256936427Y-45519343D01*
X256478777Y-45519343D01*
X256478777Y-45284870D01*
X256936427Y-45284870D01*
X256936427Y-44835463D01*
X257171816Y-44835463D01*
X257171816Y-45284870D01*
X257629466Y-45284870D01*
X257629466Y-45519343D01*
G37*
G36*
X261447339Y-43919343D02*
G01*
X260459682Y-43919343D01*
X260459682Y-43684870D01*
X261447339Y-43684870D01*
X261447339Y-43919343D01*
G37*
G36*
X237504466Y-85269343D02*
G01*
X237046816Y-85269343D01*
X237046816Y-85718750D01*
X236811427Y-85718750D01*
X236811427Y-85269343D01*
X236353777Y-85269343D01*
X236353777Y-85034870D01*
X236811427Y-85034870D01*
X236811427Y-84585463D01*
X237046816Y-84585463D01*
X237046816Y-85034870D01*
X237504466Y-85034870D01*
X237504466Y-85269343D01*
G37*
G36*
X241422339Y-83769343D02*
G01*
X240434682Y-83769343D01*
X240434682Y-83534870D01*
X241422339Y-83534870D01*
X241422339Y-83769343D01*
G37*
G36*
X237504466Y-65319343D02*
G01*
X237046816Y-65319343D01*
X237046816Y-65768750D01*
X236811427Y-65768750D01*
X236811427Y-65319343D01*
X236353777Y-65319343D01*
X236353777Y-65084870D01*
X236811427Y-65084870D01*
X236811427Y-64635463D01*
X237046816Y-64635463D01*
X237046816Y-65084870D01*
X237504466Y-65084870D01*
X237504466Y-65319343D01*
G37*
G36*
X241422339Y-63819343D02*
G01*
X240434682Y-63819343D01*
X240434682Y-63584870D01*
X241422339Y-63584870D01*
X241422339Y-63819343D01*
G37*
G36*
X237979466Y-46269343D02*
G01*
X237521816Y-46269343D01*
X237521816Y-46718750D01*
X237286427Y-46718750D01*
X237286427Y-46269343D01*
X236828777Y-46269343D01*
X236828777Y-46034870D01*
X237286427Y-46034870D01*
X237286427Y-45585463D01*
X237521816Y-45585463D01*
X237521816Y-46034870D01*
X237979466Y-46034870D01*
X237979466Y-46269343D01*
G37*
G36*
X241347339Y-43869343D02*
G01*
X240359682Y-43869343D01*
X240359682Y-43634870D01*
X241347339Y-43634870D01*
X241347339Y-43869343D01*
G37*
G36*
X217504466Y-85369343D02*
G01*
X217046816Y-85369343D01*
X217046816Y-85818750D01*
X216811427Y-85818750D01*
X216811427Y-85369343D01*
X216353777Y-85369343D01*
X216353777Y-85134870D01*
X216811427Y-85134870D01*
X216811427Y-84685463D01*
X217046816Y-84685463D01*
X217046816Y-85134870D01*
X217504466Y-85134870D01*
X217504466Y-85369343D01*
G37*
G36*
X221422339Y-83869343D02*
G01*
X220434682Y-83869343D01*
X220434682Y-83634870D01*
X221422339Y-83634870D01*
X221422339Y-83869343D01*
G37*
G36*
X217629466Y-65369343D02*
G01*
X217171816Y-65369343D01*
X217171816Y-65818750D01*
X216936427Y-65818750D01*
X216936427Y-65369343D01*
X216478777Y-65369343D01*
X216478777Y-65134870D01*
X216936427Y-65134870D01*
X216936427Y-64685463D01*
X217171816Y-64685463D01*
X217171816Y-65134870D01*
X217629466Y-65134870D01*
X217629466Y-65369343D01*
G37*
G36*
X221422339Y-63869343D02*
G01*
X220434682Y-63869343D01*
X220434682Y-63634870D01*
X221422339Y-63634870D01*
X221422339Y-63869343D01*
G37*
G36*
X217879466Y-46269343D02*
G01*
X217421816Y-46269343D01*
X217421816Y-46718750D01*
X217186427Y-46718750D01*
X217186427Y-46269343D01*
X216728777Y-46269343D01*
X216728777Y-46034870D01*
X217186427Y-46034870D01*
X217186427Y-45585463D01*
X217421816Y-45585463D01*
X217421816Y-46034870D01*
X217879466Y-46034870D01*
X217879466Y-46269343D01*
G37*
G36*
X221297339Y-43869343D02*
G01*
X220309682Y-43869343D01*
X220309682Y-43634870D01*
X221297339Y-43634870D01*
X221297339Y-43869343D01*
G37*
G36*
X197504466Y-85319343D02*
G01*
X197046816Y-85319343D01*
X197046816Y-85768750D01*
X196811427Y-85768750D01*
X196811427Y-85319343D01*
X196353777Y-85319343D01*
X196353777Y-85084870D01*
X196811427Y-85084870D01*
X196811427Y-84635463D01*
X197046816Y-84635463D01*
X197046816Y-85084870D01*
X197504466Y-85084870D01*
X197504466Y-85319343D01*
G37*
G36*
X201422339Y-83819343D02*
G01*
X200434682Y-83819343D01*
X200434682Y-83584870D01*
X201422339Y-83584870D01*
X201422339Y-83819343D01*
G37*
G36*
X197629466Y-65369343D02*
G01*
X197171816Y-65369343D01*
X197171816Y-65818750D01*
X196936427Y-65818750D01*
X196936427Y-65369343D01*
X196478777Y-65369343D01*
X196478777Y-65134870D01*
X196936427Y-65134870D01*
X196936427Y-64685463D01*
X197171816Y-64685463D01*
X197171816Y-65134870D01*
X197629466Y-65134870D01*
X197629466Y-65369343D01*
G37*
G36*
X201422339Y-63819343D02*
G01*
X200434682Y-63819343D01*
X200434682Y-63584870D01*
X201422339Y-63584870D01*
X201422339Y-63819343D01*
G37*
G36*
X197879466Y-46019343D02*
G01*
X197421816Y-46019343D01*
X197421816Y-46468750D01*
X197186427Y-46468750D01*
X197186427Y-46019343D01*
X196728777Y-46019343D01*
X196728777Y-45784870D01*
X197186427Y-45784870D01*
X197186427Y-45335463D01*
X197421816Y-45335463D01*
X197421816Y-45784870D01*
X197879466Y-45784870D01*
X197879466Y-46019343D01*
G37*
G36*
X201297339Y-43819343D02*
G01*
X200309682Y-43819343D01*
X200309682Y-43584870D01*
X201297339Y-43584870D01*
X201297339Y-43819343D01*
G37*
D10*
X238789819Y-133103094D02*
X237789819Y-133103094D01*
X237789819Y-133103094D02*
X237789819Y-132864999D01*
X237789819Y-132864999D02*
X237837438Y-132722142D01*
X237837438Y-132722142D02*
X237932676Y-132626904D01*
X237932676Y-132626904D02*
X238027914Y-132579285D01*
X238027914Y-132579285D02*
X238218390Y-132531666D01*
X238218390Y-132531666D02*
X238361247Y-132531666D01*
X238361247Y-132531666D02*
X238551723Y-132579285D01*
X238551723Y-132579285D02*
X238646961Y-132626904D01*
X238646961Y-132626904D02*
X238742200Y-132722142D01*
X238742200Y-132722142D02*
X238789819Y-132864999D01*
X238789819Y-132864999D02*
X238789819Y-133103094D01*
X238789819Y-131579285D02*
X238789819Y-132150713D01*
X238789819Y-131864999D02*
X237789819Y-131864999D01*
X237789819Y-131864999D02*
X237932676Y-131960237D01*
X237932676Y-131960237D02*
X238027914Y-132055475D01*
X238027914Y-132055475D02*
X238075533Y-132150713D01*
X241903095Y-128064819D02*
X241903095Y-128874342D01*
X241903095Y-128874342D02*
X241950714Y-128969580D01*
X241950714Y-128969580D02*
X241998333Y-129017200D01*
X241998333Y-129017200D02*
X242093571Y-129064819D01*
X242093571Y-129064819D02*
X242284047Y-129064819D01*
X242284047Y-129064819D02*
X242379285Y-129017200D01*
X242379285Y-129017200D02*
X242426904Y-128969580D01*
X242426904Y-128969580D02*
X242474523Y-128874342D01*
X242474523Y-128874342D02*
X242474523Y-128064819D01*
X242855476Y-128064819D02*
X243474523Y-128064819D01*
X243474523Y-128064819D02*
X243141190Y-128445771D01*
X243141190Y-128445771D02*
X243284047Y-128445771D01*
X243284047Y-128445771D02*
X243379285Y-128493390D01*
X243379285Y-128493390D02*
X243426904Y-128541009D01*
X243426904Y-128541009D02*
X243474523Y-128636247D01*
X243474523Y-128636247D02*
X243474523Y-128874342D01*
X243474523Y-128874342D02*
X243426904Y-128969580D01*
X243426904Y-128969580D02*
X243379285Y-129017200D01*
X243379285Y-129017200D02*
X243284047Y-129064819D01*
X243284047Y-129064819D02*
X242998333Y-129064819D01*
X242998333Y-129064819D02*
X242903095Y-129017200D01*
X242903095Y-129017200D02*
X242855476Y-128969580D01*
X253013095Y-119379819D02*
X253013095Y-120189342D01*
X253013095Y-120189342D02*
X253060714Y-120284580D01*
X253060714Y-120284580D02*
X253108333Y-120332200D01*
X253108333Y-120332200D02*
X253203571Y-120379819D01*
X253203571Y-120379819D02*
X253394047Y-120379819D01*
X253394047Y-120379819D02*
X253489285Y-120332200D01*
X253489285Y-120332200D02*
X253536904Y-120284580D01*
X253536904Y-120284580D02*
X253584523Y-120189342D01*
X253584523Y-120189342D02*
X253584523Y-119379819D01*
X254489285Y-119713152D02*
X254489285Y-120379819D01*
X254251190Y-119332200D02*
X254013095Y-120046485D01*
X254013095Y-120046485D02*
X254632142Y-120046485D01*
D12*
%TO.C,Y1*%
X261875000Y-119375000D02*
X261875000Y-121675000D01*
X261875000Y-121675000D02*
X264575000Y-121675000D01*
%TO.C,C6*%
X258574000Y-103505580D02*
X258574000Y-103224420D01*
X257554000Y-103505580D02*
X257554000Y-103224420D01*
%TO.C,Q2*%
X255765000Y-112992500D02*
X255765000Y-112342500D01*
X255765000Y-112992500D02*
X255765000Y-113642500D01*
X252645000Y-112992500D02*
X252645000Y-112342500D01*
X252645000Y-112992500D02*
X252645000Y-113642500D01*
X256045000Y-112070000D02*
X255715000Y-111830000D01*
X256045000Y-111590000D01*
X256045000Y-112070000D01*
G36*
X256045000Y-112070000D02*
G01*
X255715000Y-111830000D01*
X256045000Y-111590000D01*
X256045000Y-112070000D01*
G37*
%TO.C,Q1*%
X255915000Y-107492500D02*
X255915000Y-106842500D01*
X255915000Y-107492500D02*
X255915000Y-108142500D01*
X252795000Y-107492500D02*
X252795000Y-106842500D01*
X252795000Y-107492500D02*
X252795000Y-108142500D01*
X256195000Y-106570000D02*
X255865000Y-106330000D01*
X256195000Y-106090000D01*
X256195000Y-106570000D01*
G36*
X256195000Y-106570000D02*
G01*
X255865000Y-106330000D01*
X256195000Y-106090000D01*
X256195000Y-106570000D01*
G37*
%TO.C,SW2*%
X244500000Y-115300000D02*
X244500000Y-115600000D01*
X244500000Y-118100000D02*
X244500000Y-117800000D01*
X247800000Y-115300000D02*
X244500000Y-115300000D01*
X247800000Y-115600000D02*
X247800000Y-115300000D01*
X247800000Y-117800000D02*
X247800000Y-118100000D01*
X247800000Y-118100000D02*
X244500000Y-118100000D01*
%TO.C,SW1*%
X244450000Y-109050000D02*
X244450000Y-109350000D01*
X244450000Y-111850000D02*
X244450000Y-111550000D01*
X247750000Y-109050000D02*
X244450000Y-109050000D01*
X247750000Y-109350000D02*
X247750000Y-109050000D01*
X247750000Y-111550000D02*
X247750000Y-111850000D01*
X247750000Y-111850000D02*
X244450000Y-111850000D01*
%TO.C,J16*%
X198140000Y-124190000D02*
X198140000Y-125440000D01*
X198440000Y-124490000D02*
X198440000Y-131110000D01*
X198440000Y-127800000D02*
X199450000Y-127800000D01*
X198440000Y-131110000D02*
X211160000Y-131110000D01*
X199390000Y-124190000D02*
X198140000Y-124190000D01*
X199450000Y-126100000D02*
X199450000Y-130400000D01*
X199450000Y-130400000D02*
X210150000Y-130400000D01*
X202100000Y-124490000D02*
X198440000Y-124490000D01*
X202100000Y-125490000D02*
X202100000Y-124490000D01*
X204000000Y-124890000D02*
X204000000Y-125490000D01*
X204000000Y-125490000D02*
X202100000Y-125490000D01*
X205600000Y-124890000D02*
X204000000Y-124890000D01*
X205600000Y-125490000D02*
X205600000Y-124890000D01*
X207500000Y-124490000D02*
X207500000Y-125490000D01*
X207500000Y-125490000D02*
X205600000Y-125490000D01*
X210150000Y-126100000D02*
X199450000Y-126100000D01*
X210150000Y-130400000D02*
X210150000Y-126100000D01*
X211160000Y-124490000D02*
X207500000Y-124490000D01*
X211160000Y-127800000D02*
X210150000Y-127800000D01*
X211160000Y-131110000D02*
X211160000Y-124490000D01*
D13*
%TO.C,U2*%
X261400000Y-108405000D02*
G75*
G02*
X261200000Y-108405000I-100000J0D01*
G01*
X261200000Y-108405000D02*
G75*
G02*
X261400000Y-108405000I100000J0D01*
G01*
D14*
X257300000Y-109155000D02*
X257590000Y-109155000D01*
X257300000Y-109155000D02*
X257300000Y-108865000D01*
X257300000Y-106155000D02*
X257300000Y-106445000D01*
X257300000Y-106155000D02*
X257590000Y-106155000D01*
X260300000Y-106155000D02*
X260010000Y-106155000D01*
X260300000Y-106155000D02*
X260300000Y-106445000D01*
X260300000Y-109155000D02*
X260300000Y-108865000D01*
X260300000Y-109155000D02*
X260010000Y-109155000D01*
%TO.C,U1*%
X217060000Y-122450000D02*
X217060000Y-121205000D01*
X217790000Y-122450000D02*
X217060000Y-122450000D01*
X217060000Y-104450000D02*
X217060000Y-105695000D01*
X217790000Y-104450000D02*
X217060000Y-104450000D01*
D13*
X235170000Y-103250000D02*
G75*
G02*
X234970000Y-103250000I-100000J0D01*
G01*
X234970000Y-103250000D02*
G75*
G02*
X235170000Y-103250000I100000J0D01*
G01*
D14*
X235840000Y-104450000D02*
X242560000Y-104450000D01*
X242560000Y-122450000D02*
X235840000Y-122450000D01*
X242560000Y-104450000D02*
X242560000Y-122450000D01*
D12*
%TO.C,D13*%
X260125000Y-85700000D02*
X257625000Y-85700000D01*
X260125000Y-83200000D02*
X260125000Y-85700000D01*
X257625000Y-85700000D02*
X257625000Y-83200000D01*
X257625000Y-83200000D02*
X260125000Y-83200000D01*
%TO.C,D12*%
X260175000Y-65750000D02*
X257675000Y-65750000D01*
X260175000Y-63250000D02*
X260175000Y-65750000D01*
X257675000Y-65750000D02*
X257675000Y-63250000D01*
X257675000Y-63250000D02*
X260175000Y-63250000D01*
%TO.C,D11*%
X260200000Y-45850000D02*
X257700000Y-45850000D01*
X260200000Y-43350000D02*
X260200000Y-45850000D01*
X257700000Y-45850000D02*
X257700000Y-43350000D01*
X257700000Y-43350000D02*
X260200000Y-43350000D01*
%TO.C,D10*%
X240175000Y-85700000D02*
X237675000Y-85700000D01*
X240175000Y-83200000D02*
X240175000Y-85700000D01*
X237675000Y-85700000D02*
X237675000Y-83200000D01*
X237675000Y-83200000D02*
X240175000Y-83200000D01*
%TO.C,D9*%
X240175000Y-65750000D02*
X237675000Y-65750000D01*
X240175000Y-63250000D02*
X240175000Y-65750000D01*
X237675000Y-65750000D02*
X237675000Y-63250000D01*
X237675000Y-63250000D02*
X240175000Y-63250000D01*
%TO.C,D8*%
X240100000Y-45800000D02*
X237600000Y-45800000D01*
X240100000Y-43300000D02*
X240100000Y-45800000D01*
X237600000Y-45800000D02*
X237600000Y-43300000D01*
X237600000Y-43300000D02*
X240100000Y-43300000D01*
%TO.C,D7*%
X220175000Y-85800000D02*
X217675000Y-85800000D01*
X220175000Y-83300000D02*
X220175000Y-85800000D01*
X217675000Y-85800000D02*
X217675000Y-83300000D01*
X217675000Y-83300000D02*
X220175000Y-83300000D01*
%TO.C,D6*%
X220175000Y-65800000D02*
X217675000Y-65800000D01*
X220175000Y-63300000D02*
X220175000Y-65800000D01*
X217675000Y-65800000D02*
X217675000Y-63300000D01*
X217675000Y-63300000D02*
X220175000Y-63300000D01*
%TO.C,D5*%
X220050000Y-45800000D02*
X217550000Y-45800000D01*
X220050000Y-43300000D02*
X220050000Y-45800000D01*
X217550000Y-45800000D02*
X217550000Y-43300000D01*
X217550000Y-43300000D02*
X220050000Y-43300000D01*
%TO.C,D4*%
X200175000Y-85750000D02*
X197675000Y-85750000D01*
X200175000Y-83250000D02*
X200175000Y-85750000D01*
X197675000Y-85750000D02*
X197675000Y-83250000D01*
X197675000Y-83250000D02*
X200175000Y-83250000D01*
%TO.C,D3*%
X200175000Y-65750000D02*
X197675000Y-65750000D01*
X200175000Y-63250000D02*
X200175000Y-65750000D01*
X197675000Y-65750000D02*
X197675000Y-63250000D01*
X197675000Y-63250000D02*
X200175000Y-63250000D01*
%TO.C,D2*%
X200050000Y-45750000D02*
X197550000Y-45750000D01*
X200050000Y-43250000D02*
X200050000Y-45750000D01*
X197550000Y-45750000D02*
X197550000Y-43250000D01*
X197550000Y-43250000D02*
X200050000Y-43250000D01*
D13*
%TO.C,D1*%
X236300000Y-128850000D02*
G75*
G02*
X236100000Y-128850000I-100000J0D01*
G01*
X236100000Y-128850000D02*
G75*
G02*
X236300000Y-128850000I100000J0D01*
G01*
D14*
X235575000Y-132000000D02*
X235575000Y-130300000D01*
X236825000Y-130300000D02*
X236825000Y-132000000D01*
X235575000Y-132000000D02*
X235630000Y-132000000D01*
X236825000Y-132000000D02*
X236770000Y-132000000D01*
X235575000Y-130300000D02*
X235630000Y-130300000D01*
X236770000Y-130300000D02*
X236825000Y-130300000D01*
D12*
%TO.C,U3*%
X242665000Y-129450000D02*
X241865000Y-129450000D01*
X242665000Y-129450000D02*
X243465000Y-129450000D01*
X242665000Y-132570000D02*
X241865000Y-132570000D01*
X242665000Y-132570000D02*
X243465000Y-132570000D01*
X241365000Y-129500000D02*
X241125000Y-129170000D01*
X241605000Y-129170000D01*
X241365000Y-129500000D01*
G36*
X241365000Y-129500000D02*
G01*
X241125000Y-129170000D01*
X241605000Y-129170000D01*
X241365000Y-129500000D01*
G37*
%TO.C,R12*%
X245712742Y-119127500D02*
X246187258Y-119127500D01*
X245712742Y-120172500D02*
X246187258Y-120172500D01*
%TO.C,R11*%
X245912742Y-107277500D02*
X246387258Y-107277500D01*
X245912742Y-108322500D02*
X246387258Y-108322500D01*
%TO.C,R10*%
X263012742Y-123197500D02*
X263487258Y-123197500D01*
X263012742Y-122152500D02*
X263487258Y-122152500D01*
%TO.C,C27*%
X246210000Y-130734420D02*
X246210000Y-131015580D01*
X245190000Y-130734420D02*
X245190000Y-131015580D01*
%TO.C,C26*%
X247860000Y-130709420D02*
X247860000Y-130990580D01*
X246840000Y-130709420D02*
X246840000Y-130990580D01*
%TO.C,C25*%
X249410000Y-130734420D02*
X249410000Y-131015580D01*
X248390000Y-130734420D02*
X248390000Y-131015580D01*
%TO.C,C24*%
X255540000Y-84640580D02*
X255540000Y-84359420D01*
X256560000Y-84640580D02*
X256560000Y-84359420D01*
%TO.C,C23*%
X195490000Y-84690580D02*
X195490000Y-84409420D01*
X196510000Y-84690580D02*
X196510000Y-84409420D01*
%TO.C,C22*%
X215490000Y-84665580D02*
X215490000Y-84384420D01*
X216510000Y-84665580D02*
X216510000Y-84384420D01*
%TO.C,C21*%
X235440000Y-84665580D02*
X235440000Y-84384420D01*
X236460000Y-84665580D02*
X236460000Y-84384420D01*
%TO.C,C20*%
X255490000Y-64665580D02*
X255490000Y-64384420D01*
X256510000Y-64665580D02*
X256510000Y-64384420D01*
%TO.C,C19*%
X235490000Y-64715580D02*
X235490000Y-64434420D01*
X236510000Y-64715580D02*
X236510000Y-64434420D01*
%TO.C,C18*%
X215440000Y-64640580D02*
X215440000Y-64359420D01*
X216460000Y-64640580D02*
X216460000Y-64359420D01*
%TO.C,C17*%
X195490000Y-64690580D02*
X195490000Y-64409420D01*
X196510000Y-64690580D02*
X196510000Y-64409420D01*
%TO.C,C16*%
X255490000Y-44715580D02*
X255490000Y-44434420D01*
X256510000Y-44715580D02*
X256510000Y-44434420D01*
%TO.C,C15*%
X235940000Y-44640580D02*
X235940000Y-44359420D01*
X236960000Y-44640580D02*
X236960000Y-44359420D01*
%TO.C,C14*%
X215890000Y-44690580D02*
X215890000Y-44409420D01*
X216910000Y-44690580D02*
X216910000Y-44409420D01*
%TO.C,C13*%
X195940000Y-44690580D02*
X195940000Y-44409420D01*
X196960000Y-44690580D02*
X196960000Y-44409420D01*
%TO.C,C12*%
X234409420Y-101440000D02*
X234690580Y-101440000D01*
X234409420Y-102460000D02*
X234690580Y-102460000D01*
%TO.C,C11*%
X246059420Y-112490000D02*
X246340580Y-112490000D01*
X246059420Y-113510000D02*
X246340580Y-113510000D01*
%TO.C,C10*%
X265940000Y-120255420D02*
X265940000Y-120536580D01*
X264920000Y-120255420D02*
X264920000Y-120536580D01*
%TO.C,C9*%
X263109420Y-124785000D02*
X263390580Y-124785000D01*
X263109420Y-123765000D02*
X263390580Y-123765000D01*
%TO.C,C8*%
X254890000Y-123265580D02*
X254890000Y-122984420D01*
X255910000Y-123265580D02*
X255910000Y-122984420D01*
%TO.C,C7*%
X253290000Y-123265580D02*
X253290000Y-122984420D01*
X254310000Y-123265580D02*
X254310000Y-122984420D01*
%TO.C,U4*%
X261300000Y-124215000D02*
X260820000Y-124215000D01*
X261060000Y-123885000D01*
X261300000Y-124215000D01*
G36*
X261300000Y-124215000D02*
G01*
X260820000Y-124215000D01*
X261060000Y-123885000D01*
X261300000Y-124215000D01*
G37*
X256840000Y-119665000D02*
X256840000Y-120140000D01*
X256840000Y-123885000D02*
X256840000Y-123410000D01*
X257315000Y-119665000D02*
X256840000Y-119665000D01*
X257315000Y-123885000D02*
X256840000Y-123885000D01*
X260585000Y-119665000D02*
X261060000Y-119665000D01*
X260585000Y-123885000D02*
X260760000Y-123885000D01*
X261060000Y-119665000D02*
X261060000Y-120140000D01*
X261060000Y-123410000D02*
X261060000Y-123645000D01*
%TO.C,R8*%
X235912742Y-125927500D02*
X236387258Y-125927500D01*
X235912742Y-126972500D02*
X236387258Y-126972500D01*
%TO.C,R7*%
X223512742Y-125877500D02*
X223987258Y-125877500D01*
X223512742Y-126922500D02*
X223987258Y-126922500D01*
%TO.C,R6*%
X262982258Y-106977500D02*
X262507742Y-106977500D01*
X262982258Y-105932500D02*
X262507742Y-105932500D01*
%TO.C,R5*%
X262507742Y-104382500D02*
X262982258Y-104382500D01*
X262507742Y-105427500D02*
X262982258Y-105427500D01*
%TO.C,R3*%
X240272500Y-130737742D02*
X240272500Y-131212258D01*
X239227500Y-130737742D02*
X239227500Y-131212258D01*
%TO.C,R2*%
X253992742Y-104182500D02*
X254467258Y-104182500D01*
X253992742Y-105227500D02*
X254467258Y-105227500D01*
%TO.C,R1*%
X253967742Y-109682500D02*
X254442258Y-109682500D01*
X253967742Y-110727500D02*
X254442258Y-110727500D01*
%TO.C,C5*%
X262589420Y-109045000D02*
X262870580Y-109045000D01*
X262589420Y-110065000D02*
X262870580Y-110065000D01*
%TO.C,C4*%
X262564420Y-107495000D02*
X262845580Y-107495000D01*
X262564420Y-108515000D02*
X262845580Y-108515000D01*
%TO.C,C3*%
X262614420Y-110595000D02*
X262895580Y-110595000D01*
X262614420Y-111615000D02*
X262895580Y-111615000D01*
%TO.C,C2*%
X256345000Y-113520580D02*
X256345000Y-113239420D01*
X257365000Y-113520580D02*
X257365000Y-113239420D01*
%TO.C,C1*%
X257060000Y-103359420D02*
X257060000Y-103640580D01*
X256040000Y-103359420D02*
X256040000Y-103640580D01*
%TD*%
M02*
