M48
; DRILL file {KiCad 8.0.1} date 2024-09-01T11:52:27+0200
; FORMAT={-:-/ absolute / inch / decimal}
; #@! TF.CreationDate,2024-09-01T11:52:27+02:00
; #@! TF.GenerationSoftware,Kicad,Pcbnew,8.0.1
; #@! TF.FileFunction,Plated,1,2,PTH
FMAT,2
INCH
; #@! TA.AperFunction,Plated,PTH,ComponentDrill
T1C0.0079
; #@! TA.AperFunction,Plated,PTH,ViaDrill
T2C0.0118
; #@! TA.AperFunction,Plated,PTH,ComponentDrill
T3C0.0236
; #@! TA.AperFunction,Plated,PTH,ComponentDrill
T4C0.0374
%
G90
G05
T1
X8.8957Y-4.3799
X8.8957Y-4.435
X8.9232Y-4.3524
X8.9232Y-4.4075
X8.9232Y-4.4626
X8.9508Y-4.3799
X8.9508Y-4.435
X8.9783Y-4.3524
X8.9783Y-4.4075
X8.9783Y-4.4626
X9.0059Y-4.3799
X9.0059Y-4.435
X10.1506Y-4.75
X10.1506Y-4.7943
X10.1506Y-4.8386
X10.1949Y-4.75
X10.1949Y-4.7943
X10.1949Y-4.8386
X10.2392Y-4.75
X10.2392Y-4.7943
X10.2392Y-4.8386
T2
X7.43Y-3.9
X7.4449Y-3.0689
X7.4488Y-4.2488
X7.46Y-3.93
X7.47Y-4.78
X7.5098Y-3.0709
X7.53Y-3.8
X7.54Y-1.7
X7.55Y-1.6
X7.56Y-3.83
X7.59Y-1.6
X7.59Y-1.7
X7.6808Y-2.5108
X7.69Y-1.74
X7.76Y-3.3
X7.77Y-4.22
X7.77Y-4.77
X7.8051Y-2.4862
X7.81Y-4.3799
X7.8504Y-2.252
X7.8504Y-3.061
X7.8862Y-2.5138
X7.8957Y-2.3943
X7.8964Y-1.7264
X7.9Y-3.3
X7.9429Y-3.935
X8.002Y-4.437
X8.0059Y-4.3465
X8.0797Y-4.9026
X8.19Y-1.8
X8.1988Y-3.872
X8.1988Y-3.9646
X8.2047Y-3.19
X8.2047Y-3.44
X8.2343Y-4.8386
X8.252Y-3.37
X8.2539Y-3.8681
X8.2598Y-3.9882
X8.2972Y-4.6915
X8.3Y-1.69
X8.3Y-3.08
X8.4156Y-4.6415
X8.45Y-2.52
X8.4834Y-1.7234
X8.5059Y-4.8228
X8.5433Y-3.2972
X8.6047Y-4.122
X8.62Y-2.32
X8.6339Y-2.2539
X8.6378Y-3.0551
X8.64Y-2.37
X8.6547Y-4.122
X8.6683Y-1.7283
X8.6732Y-3.9567
X8.675Y-3.345
X8.6811Y-3.2835
X8.7Y-2.52
X8.7067Y-3.8327
X8.7067Y-3.9764
X8.71Y-2.32
X8.71Y-2.37
X8.7618Y-3.9764
X8.7657Y-3.8189
X8.8039Y-3.9816
X8.8071Y-3.8031
X8.83Y-2.49
X8.83Y-2.57
X8.87Y-3.15
X8.9Y-1.84
X8.9429Y-4.1915
X8.95Y-2.57
X8.9586Y-3.8977
X8.96Y-2.51
X8.9764Y-4.2185
X8.9823Y-3.874
X9.0079Y-4.2539
X9.03Y-1.71
X9.0571Y-3.8524
X9.0827Y-3.8898
X9.1201Y-3.9272
X9.2515Y-1.7215
X9.2547Y-4.06
X9.2579Y-2.5118
X9.2579Y-3.2972
X9.26Y-4.86
X9.29Y-4.01
X9.3583Y-4.9783
X9.4213Y-2.2598
X9.4232Y-3.0689
X9.4646Y-3.2992
X9.4764Y-2.5138
X9.48Y-1.74
X9.4892Y-3.748
X9.5118Y-3.3504
X9.55Y-5.1579
X9.6732Y-5.22
X9.7Y-2.38
X9.7Y-2.43
X9.71Y-4.09
X9.72Y-3.14
X9.7382Y-5.2182
X9.74Y-4.13
X9.76Y-1.68
X9.7784Y-4.3484
X9.7795Y-4.4803
X9.78Y-4.03
X9.79Y-4.6
X9.7992Y-5.2192
X9.8Y-1.64
X9.81Y-4.06
X9.82Y-2.38
X9.82Y-2.43
X9.8269Y-4.1878
X9.83Y-1.74
X9.86Y-1.7
X9.8996Y-4.128
X9.9075Y-4.4744
X9.92Y-4.63
X9.94Y-4.66
X9.99Y-4.56
X10.0156Y-1.7244
X10.02Y-4.58
X10.03Y-4.82
X10.0608Y-4.6526
X10.0669Y-4.687
X10.1043Y-2.5098
X10.1063Y-3.3031
X10.11Y-4.4
X10.13Y-4.05
X10.189Y-4.2384
X10.2163Y-3.0551
X10.2219Y-4.1419
X10.23Y-3.99
X10.2303Y-2.25
X10.2323Y-4.6673
X10.2461Y-3.3031
X10.248Y-2.5157
X10.2697Y-1.7303
X10.27Y-4.0
X10.2766Y-3.748
X10.2821Y-4.2497
X10.29Y-4.45
X10.2933Y-4.6299
X10.33Y-4.6936
X10.39Y-4.25
X10.39Y-4.31
X10.39Y-4.37
X10.3996Y-4.1299
X10.4Y-4.56
X10.4006Y-4.1909
X10.4557Y-4.82
X10.4656Y-4.1299
X10.4665Y-4.1909
T4
X7.9154Y-5.0315
X8.0138Y-5.0315
X8.1122Y-5.0315
X8.2106Y-5.0315
T3
G00X8.8809Y-5.0638
M15
G01X8.8809Y-5.1071
M16
G05
G00X8.8809Y-5.2343
M15
G01X8.8809Y-5.2657
M16
G05
G00X9.2215Y-5.0638
M15
G01X9.2215Y-5.1071
M16
G05
G00X9.2215Y-5.2343
M15
G01X9.2215Y-5.2657
M16
G05
M30
