%TF.GenerationSoftware,KiCad,Pcbnew,8.0.1*%
%TF.CreationDate,2024-09-01T11:50:54+02:00*%
%TF.ProjectId,Macro keyboard,4d616372-6f20-46b6-9579-626f6172642e,rev?*%
%TF.SameCoordinates,Original*%
%TF.FileFunction,Soldermask,Bot*%
%TF.FilePolarity,Negative*%
%FSLAX46Y46*%
G04 Gerber Fmt 4.6, Leading zero omitted, Abs format (unit mm)*
G04 Created by KiCad (PCBNEW 8.0.1) date 2024-09-01 11:50:54*
%MOMM*%
%LPD*%
G01*
G04 APERTURE LIST*
G04 Aperture macros list*
%AMRoundRect*
0 Rectangle with rounded corners*
0 $1 Rounding radius*
0 $2 $3 $4 $5 $6 $7 $8 $9 X,Y pos of 4 corners*
0 Add a 4 corners polygon primitive as box body*
4,1,4,$2,$3,$4,$5,$6,$7,$8,$9,$2,$3,0*
0 Add four circle primitives for the rounded corners*
1,1,$1+$1,$2,$3*
1,1,$1+$1,$4,$5*
1,1,$1+$1,$6,$7*
1,1,$1+$1,$8,$9*
0 Add four rect primitives between the rounded corners*
20,1,$1+$1,$2,$3,$4,$5,0*
20,1,$1+$1,$4,$5,$6,$7,0*
20,1,$1+$1,$6,$7,$8,$9,0*
20,1,$1+$1,$8,$9,$2,$3,0*%
G04 Aperture macros list end*
%ADD10RoundRect,0.250000X-0.600000X-0.725000X0.600000X-0.725000X0.600000X0.725000X-0.600000X0.725000X0*%
%ADD11O,1.700000X1.950000*%
%ADD12C,1.000000*%
%ADD13R,2.600000X2.600000*%
%ADD14C,1.900000*%
%ADD15C,3.000000*%
%ADD16C,3.987800*%
%ADD17O,0.900000X1.700000*%
%ADD18O,0.900000X2.000000*%
%ADD19C,0.600000*%
G04 APERTURE END LIST*
D10*
%TO.C,J16*%
X201050000Y-127800000D03*
D11*
X203550000Y-127800000D03*
X206050000Y-127800000D03*
X208550000Y-127800000D03*
%TD*%
D12*
%TO.C,J15*%
X188800000Y-117550000D03*
X188800000Y-109550000D03*
%TD*%
D13*
%TO.C,J13*%
X249475000Y-93000000D03*
X261025000Y-95200000D03*
D14*
X252250000Y-89250000D03*
D15*
X252750000Y-93000000D03*
X257750000Y-95200000D03*
D16*
X257750000Y-89250000D03*
D14*
X263250000Y-89250000D03*
%TD*%
D13*
%TO.C,J12*%
X249475000Y-73000000D03*
X261025000Y-75200000D03*
D14*
X252250000Y-69250000D03*
D15*
X252750000Y-73000000D03*
X257750000Y-75200000D03*
D16*
X257750000Y-69250000D03*
D14*
X263250000Y-69250000D03*
%TD*%
D13*
%TO.C,J11*%
X249475000Y-53000000D03*
X261025000Y-55200000D03*
D14*
X252250000Y-49250000D03*
D15*
X252750000Y-53000000D03*
X257750000Y-55200000D03*
D16*
X257750000Y-49250000D03*
D14*
X263250000Y-49250000D03*
%TD*%
D13*
%TO.C,J10*%
X229475000Y-93000000D03*
X241025000Y-95200000D03*
D14*
X232250000Y-89250000D03*
D15*
X232750000Y-93000000D03*
X237750000Y-95200000D03*
D16*
X237750000Y-89250000D03*
D14*
X243250000Y-89250000D03*
%TD*%
D13*
%TO.C,J9*%
X229475000Y-73000000D03*
X241025000Y-75200000D03*
D14*
X232250000Y-69250000D03*
D15*
X232750000Y-73000000D03*
X237750000Y-75200000D03*
D16*
X237750000Y-69250000D03*
D14*
X243250000Y-69250000D03*
%TD*%
D13*
%TO.C,J8*%
X229475000Y-53000000D03*
X241025000Y-55200000D03*
D14*
X232250000Y-49250000D03*
D15*
X232750000Y-53000000D03*
X237750000Y-55200000D03*
D16*
X237750000Y-49250000D03*
D14*
X243250000Y-49250000D03*
%TD*%
D13*
%TO.C,J7*%
X209475000Y-93000000D03*
X221025000Y-95200000D03*
D14*
X212250000Y-89250000D03*
D15*
X212750000Y-93000000D03*
X217750000Y-95200000D03*
D16*
X217750000Y-89250000D03*
D14*
X223250000Y-89250000D03*
%TD*%
D13*
%TO.C,J6*%
X209475000Y-73000000D03*
X221025000Y-75200000D03*
D14*
X212250000Y-69250000D03*
D15*
X212750000Y-73000000D03*
X217750000Y-75200000D03*
D16*
X217750000Y-69250000D03*
D14*
X223250000Y-69250000D03*
%TD*%
%TO.C,J5*%
X223250000Y-49250000D03*
D16*
X217750000Y-49250000D03*
D15*
X217750000Y-55200000D03*
X212750000Y-53000000D03*
D14*
X212250000Y-49250000D03*
D13*
X221025000Y-55200000D03*
X209475000Y-53000000D03*
%TD*%
%TO.C,J4*%
X189475000Y-93000000D03*
X201025000Y-95200000D03*
D14*
X192250000Y-89250000D03*
D15*
X192750000Y-93000000D03*
X197750000Y-95200000D03*
D16*
X197750000Y-89250000D03*
D14*
X203250000Y-89250000D03*
%TD*%
D13*
%TO.C,J3*%
X189475000Y-73000000D03*
X201025000Y-75200000D03*
D14*
X192250000Y-69250000D03*
D15*
X192750000Y-73000000D03*
X197750000Y-75200000D03*
D16*
X197750000Y-69250000D03*
D14*
X203250000Y-69250000D03*
%TD*%
%TO.C,J2*%
X203250000Y-49250000D03*
D16*
X197750000Y-49250000D03*
D15*
X197750000Y-55200000D03*
X192750000Y-53000000D03*
D14*
X192250000Y-49250000D03*
D13*
X201025000Y-55200000D03*
X189475000Y-53000000D03*
%TD*%
D17*
%TO.C,J1*%
X234225000Y-133350000D03*
D18*
X234225000Y-129170000D03*
D17*
X225575000Y-133350000D03*
D18*
X225575000Y-129170000D03*
D19*
X232790000Y-129660000D03*
X227010000Y-129660000D03*
%TD*%
M02*
