M48
; DRILL file {KiCad 8.0.1} date 2024-09-01T11:52:27+0200
; FORMAT={-:-/ absolute / inch / decimal}
; #@! TF.CreationDate,2024-09-01T11:52:27+02:00
; #@! TF.GenerationSoftware,Kicad,Pcbnew,8.0.1
; #@! TF.FileFunction,NonPlated,1,2,NPTH
FMAT,2
INCH
; #@! TA.AperFunction,NonPlated,NPTH,ComponentDrill
T1C0.0236
; #@! TA.AperFunction,NonPlated,NPTH,ComponentDrill
T2C0.0394
; #@! TA.AperFunction,NonPlated,NPTH,ComponentDrill
T3C0.0748
; #@! TA.AperFunction,NonPlated,NPTH,ComponentDrill
T4C0.1181
; #@! TA.AperFunction,NonPlated,NPTH,ComponentDrill
T5C0.1570
%
G90
G05
T1
X8.9374Y-5.1047
X9.165Y-5.1047
T2
X7.4331Y-4.313
X7.4331Y-4.628
T3
X7.5689Y-1.939
X7.5689Y-2.7264
X7.5689Y-3.5138
X8.002Y-1.939
X8.002Y-2.7264
X8.002Y-3.5138
X8.3563Y-1.939
X8.3563Y-2.7264
X8.3563Y-3.5138
X8.7894Y-1.939
X8.7894Y-2.7264
X8.7894Y-3.5138
X9.1437Y-1.939
X9.1437Y-2.7264
X9.1437Y-3.5138
X9.5768Y-1.939
X9.5768Y-2.7264
X9.5768Y-3.5138
X9.9311Y-1.939
X9.9311Y-2.7264
X9.9311Y-3.5138
X10.3642Y-1.939
X10.3642Y-2.7264
X10.3642Y-3.5138
T4
X7.5886Y-2.0866
X7.5886Y-2.874
X7.5886Y-3.6614
X7.7854Y-2.1732
X7.7854Y-2.9606
X7.7854Y-3.748
X8.376Y-2.0866
X8.376Y-2.874
X8.376Y-3.6614
X8.5728Y-2.1732
X8.5728Y-2.9606
X8.5728Y-3.748
X9.1634Y-2.0866
X9.1634Y-2.874
X9.1634Y-3.6614
X9.3602Y-2.1732
X9.3602Y-2.9606
X9.3602Y-3.748
X9.9508Y-2.0866
X9.9508Y-2.874
X9.9508Y-3.6614
X10.1476Y-2.1732
X10.1476Y-2.9606
X10.1476Y-3.748
T5
X7.7854Y-1.939
X7.7854Y-2.7264
X7.7854Y-3.5138
X8.5728Y-1.939
X8.5728Y-2.7264
X8.5728Y-3.5138
X9.3602Y-1.939
X9.3602Y-2.7264
X9.3602Y-3.5138
X10.1476Y-1.939
X10.1476Y-2.7264
X10.1476Y-3.5138
M30
